M48
; DRILL file {KiCad (6.0.9-0)} date Sunday, January 01, 2023 at 03:06:49 AM
; FORMAT={-:-/ absolute / inch / decimal}
; #@! TF.CreationDate,2023-01-01T03:06:49-08:00
; #@! TF.GenerationSoftware,Kicad,Pcbnew,(6.0.9-0)
; #@! TF.FileFunction,Plated,1,2,PTH
FMAT,2
INCH
; #@! TA.AperFunction,Plated,PTH,ViaDrill
T1C0.0157
; #@! TA.AperFunction,Plated,PTH,ComponentDrill
T2C0.0402
; #@! TA.AperFunction,Plated,PTH,ComponentDrill
T3C0.1260
%
G90
G05
T1
X5.2362Y-5.5433
X5.5886Y-5.6063
X5.8386Y-5.3386
X6.1417Y-5.6063
X6.2126Y-5.3386
T2
X5.339Y-5.6693
X5.339Y-5.8031
X5.439Y-5.6693
X5.439Y-5.8031
X5.539Y-5.6693
X5.539Y-5.8031
X5.639Y-5.6693
X5.639Y-5.8031
X5.739Y-5.6693
X5.739Y-5.8031
X5.839Y-5.6693
X5.839Y-5.8031
X5.939Y-5.6693
X5.939Y-5.8031
X6.039Y-5.6693
X6.039Y-5.8031
T3
X6.4016Y-5.5807
T0
M30
