M48
; DRILL file {KiCad (6.0.9-0)} date Sunday, December 18, 2022 at 12:47:33 AM
; FORMAT={-:-/ absolute / inch / decimal}
; #@! TF.CreationDate,2022-12-18T00:47:33-08:00
; #@! TF.GenerationSoftware,Kicad,Pcbnew,(6.0.9-0)
; #@! TF.FileFunction,Plated,1,2,PTH
FMAT,2
INCH
; #@! TA.AperFunction,Plated,PTH,ViaDrill
T1C0.0157
; #@! TA.AperFunction,Plated,PTH,ComponentDrill
T2C0.0402
%
G90
G05
T1
X5.4469Y-5.4587
X5.4882Y-5.6063
X5.5886Y-5.6063
X5.8287Y-5.3583
X5.8287Y-5.4587
X6.2067Y-5.3583
T2
X5.339Y-5.6693
X5.339Y-5.8031
X5.439Y-5.6693
X5.439Y-5.8031
X5.539Y-5.6693
X5.539Y-5.8031
X5.639Y-5.6693
X5.639Y-5.8031
X5.739Y-5.6693
X5.739Y-5.8031
X5.839Y-5.6693
X5.839Y-5.8031
X5.939Y-5.6693
X5.939Y-5.8031
X6.039Y-5.6693
X6.039Y-5.8031
T0
M30
