%TF.GenerationSoftware,KiCad,Pcbnew,(6.0.9-0)*%
%TF.CreationDate,2022-12-19T02:08:40-08:00*%
%TF.ProjectId,trackball,74726163-6b62-4616-9c6c-2e6b69636164,v01*%
%TF.SameCoordinates,Original*%
%TF.FileFunction,Copper,L1,Top*%
%TF.FilePolarity,Positive*%
%FSLAX46Y46*%
G04 Gerber Fmt 4.6, Leading zero omitted, Abs format (unit mm)*
G04 Created by KiCad (PCBNEW (6.0.9-0)) date 2022-12-19 02:08:40*
%MOMM*%
%LPD*%
G01*
G04 APERTURE LIST*
G04 Aperture macros list*
%AMRoundRect*
0 Rectangle with rounded corners*
0 $1 Rounding radius*
0 $2 $3 $4 $5 $6 $7 $8 $9 X,Y pos of 4 corners*
0 Add a 4 corners polygon primitive as box body*
4,1,4,$2,$3,$4,$5,$6,$7,$8,$9,$2,$3,0*
0 Add four circle primitives for the rounded corners*
1,1,$1+$1,$2,$3*
1,1,$1+$1,$4,$5*
1,1,$1+$1,$6,$7*
1,1,$1+$1,$8,$9*
0 Add four rect primitives between the rounded corners*
20,1,$1+$1,$2,$3,$4,$5,0*
20,1,$1+$1,$4,$5,$6,$7,0*
20,1,$1+$1,$6,$7,$8,$9,0*
20,1,$1+$1,$8,$9,$2,$3,0*%
G04 Aperture macros list end*
%TA.AperFunction,ComponentPad*%
%ADD10C,2.000000*%
%TD*%
%TA.AperFunction,SMDPad,CuDef*%
%ADD11RoundRect,0.250000X-0.250000X-0.750000X0.250000X-0.750000X0.250000X0.750000X-0.250000X0.750000X0*%
%TD*%
%TA.AperFunction,SMDPad,CuDef*%
%ADD12R,3.000000X1.500000*%
%TD*%
%TA.AperFunction,SMDPad,CuDef*%
%ADD13R,0.558800X1.320800*%
%TD*%
%TA.AperFunction,ViaPad*%
%ADD14C,0.800000*%
%TD*%
%TA.AperFunction,Conductor*%
%ADD15C,0.250000*%
%TD*%
G04 APERTURE END LIST*
D10*
%TO.P,U3,1,RS*%
%TO.N,unconnected-(U3-Pad1)*%
X135610000Y-147400000D03*
%TO.P,U3,2,GD*%
%TO.N,GND*%
X138150000Y-147400000D03*
%TO.P,U3,3,MT*%
%TO.N,unconnected-(U3-Pad3)*%
X140690000Y-147400000D03*
%TO.P,U3,4,SS*%
%TO.N,Net-(U1-Pad7)*%
X143230000Y-147400000D03*
%TO.P,U3,5,SC*%
%TO.N,Net-(U1-Pad13)*%
X145770000Y-147400000D03*
%TO.P,U3,6,MO*%
%TO.N,Net-(U1-Pad11)*%
X148310000Y-147400000D03*
%TO.P,U3,7,MI*%
%TO.N,Net-(U1-Pad12)*%
X150850000Y-147400000D03*
%TO.P,U3,8,VI*%
%TO.N,Net-(J1-Pad1)*%
X153390000Y-147400000D03*
%TD*%
D11*
%TO.P,J3,1,Pin_1*%
%TO.N,Net-(J3-Pad1)*%
X162450000Y-149450000D03*
%TD*%
D12*
%TO.P,U1,1,A0*%
%TO.N,Net-(J3-Pad1)*%
X135050000Y-123380000D03*
%TO.P,U1,2,A1*%
%TO.N,unconnected-(U1-Pad2)*%
X135050000Y-125920000D03*
%TO.P,U1,3,A2*%
%TO.N,unconnected-(U1-Pad3)*%
X135050000Y-128460000D03*
%TO.P,U1,4,A3*%
%TO.N,Net-(Q1-Pad1)*%
X135050000Y-131000000D03*
%TO.P,U1,5,SDA*%
%TO.N,unconnected-(U1-Pad5)*%
X135050000Y-133540000D03*
%TO.P,U1,6,SCL*%
%TO.N,unconnected-(U1-Pad6)*%
X135050000Y-136080000D03*
%TO.P,U1,7,TX*%
%TO.N,Net-(U1-Pad7)*%
X135050000Y-138620000D03*
%TO.P,U1,8,5V*%
%TO.N,unconnected-(U1-Pad8)*%
X153950000Y-123380000D03*
%TO.P,U1,9,GND*%
%TO.N,GND*%
X153950000Y-125920000D03*
%TO.P,U1,10,3V*%
%TO.N,Net-(J1-Pad1)*%
X153950000Y-128460000D03*
%TO.P,U1,11,MO*%
%TO.N,Net-(U1-Pad11)*%
X153950000Y-131000000D03*
%TO.P,U1,12,MI*%
%TO.N,Net-(U1-Pad12)*%
X153950000Y-133540000D03*
%TO.P,U1,13,SCK*%
%TO.N,Net-(U1-Pad13)*%
X153950000Y-136080000D03*
%TO.P,U1,14,RX*%
%TO.N,Net-(U1-Pad14)*%
X153950000Y-138620000D03*
%TD*%
D13*
%TO.P,Q1,1,B*%
%TO.N,Net-(Q1-Pad1)*%
X131332000Y-137000000D03*
%TO.P,Q1,2,E*%
%TO.N,GND*%
X129300000Y-137000000D03*
%TO.P,Q1,3,C*%
%TO.N,Net-(J2-Pad1)*%
X130316000Y-139032000D03*
%TD*%
D11*
%TO.P,+,1,Pin_1*%
%TO.N,Net-(J1-Pad1)*%
X129400000Y-149450000D03*
%TD*%
%TO.P,-,1,Pin_1*%
%TO.N,Net-(J2-Pad1)*%
X125696304Y-149450000D03*
%TD*%
D10*
%TO.P,U2,1,RS*%
%TO.N,unconnected-(U2-Pad1)*%
X153390000Y-144000000D03*
%TO.P,U2,2,GD*%
%TO.N,GND*%
X150850000Y-144000000D03*
%TO.P,U2,3,MT*%
%TO.N,unconnected-(U2-Pad3)*%
X148310000Y-144000000D03*
%TO.P,U2,4,SS*%
%TO.N,Net-(U1-Pad14)*%
X145770000Y-144000000D03*
%TO.P,U2,5,SC*%
%TO.N,Net-(U1-Pad13)*%
X143230000Y-144000000D03*
%TO.P,U2,6,MO*%
%TO.N,Net-(U1-Pad11)*%
X140690000Y-144000000D03*
%TO.P,U2,7,MI*%
%TO.N,Net-(U1-Pad12)*%
X138150000Y-144000000D03*
%TO.P,U2,8,VI*%
%TO.N,Net-(J1-Pad1)*%
X135610000Y-144000000D03*
%TD*%
D14*
%TO.N,GND*%
X150150000Y-125950000D03*
%TO.N,Net-(U1-Pad7)*%
X133000000Y-140000000D03*
%TO.N,Net-(J3-Pad1)*%
X157800000Y-134800000D03*
X148050000Y-134800000D03*
%TO.N,Net-(U1-Pad12)*%
X156000000Y-142400000D03*
X139400000Y-142400000D03*
X141950000Y-142400000D03*
%TD*%
D15*
%TO.N,GND*%
X150150000Y-125950000D02*
G75*
G02*
X150180000Y-125920000I30000J0D01*
G01*
X153950000Y-125920000D02*
X150180000Y-125920000D01*
%TO.N,Net-(U1-Pad11)*%
X148300000Y-145850000D02*
G75*
G03*
X148000000Y-145550000I-300000J0D01*
G01*
X148310000Y-147400000D02*
G75*
G02*
X148300000Y-147390000I0J10000D01*
G01*
X140690000Y-144000000D02*
X140690000Y-145240000D01*
X141000000Y-145550000D02*
G75*
G02*
X140690000Y-145240000I0J310000D01*
G01*
X141000000Y-145550000D02*
X148000000Y-145550000D01*
X148300000Y-145850000D02*
X148300000Y-147390000D01*
%TO.N,Net-(U1-Pad7)*%
X135050000Y-138620000D02*
X133280000Y-138620000D01*
X133000000Y-138900000D02*
G75*
G02*
X133280000Y-138620000I280000J0D01*
G01*
X133000000Y-138900000D02*
X133000000Y-140000000D01*
%TO.N,Net-(J3-Pad1)*%
X158100000Y-149450000D02*
X162450000Y-149450000D01*
X157800000Y-134800000D02*
X157800000Y-149150000D01*
X148050000Y-134550000D02*
X148050000Y-134800000D01*
X158100000Y-149450000D02*
G75*
G02*
X157800000Y-149150000I0J300000D01*
G01*
X148050000Y-123650000D02*
X148050000Y-134550000D01*
%TO.N,Net-(J2-Pad1)*%
X125700000Y-146200000D02*
X125700000Y-149446304D01*
X125696304Y-149450000D02*
G75*
G03*
X125700000Y-149446304I-4J3700D01*
G01*
%TO.N,Net-(J1-Pad1)*%
X129400000Y-149450000D02*
X133650000Y-149450000D01*
X133650000Y-149450000D02*
X153100000Y-149450000D01*
X133600000Y-144350000D02*
G75*
G02*
X133950000Y-144000000I350000J0D01*
G01*
X133650000Y-149450000D02*
G75*
G02*
X133600000Y-149400000I0J50000D01*
G01*
X133600000Y-144350000D02*
X133600000Y-149400000D01*
X135610000Y-144000000D02*
X133950000Y-144000000D01*
%TO.N,Net-(U1-Pad12)*%
X156000000Y-133850000D02*
X156000000Y-142400000D01*
X156000000Y-133850000D02*
G75*
G03*
X155690000Y-133540000I-310000J0D01*
G01*
X153950000Y-133540000D02*
X155690000Y-133540000D01*
%TO.N,Net-(J1-Pad1)*%
X153400000Y-149150000D02*
G75*
G02*
X153100000Y-149450000I-300000J0D01*
G01*
X153400000Y-149150000D02*
X153400000Y-147410000D01*
X153390000Y-147400000D02*
G75*
G02*
X153400000Y-147410000I0J-10000D01*
G01*
%TO.N,Net-(J2-Pad1)*%
X125700000Y-146200000D02*
G75*
G02*
X126000000Y-145900000I300000J0D01*
G01*
X130050000Y-145900000D02*
G75*
G03*
X130316000Y-145634000I0J266000D01*
G01*
X130316000Y-139032000D02*
X130316000Y-145634000D01*
X130050000Y-145900000D02*
X126000000Y-145900000D01*
%TO.N,Net-(J1-Pad1)*%
X135600000Y-141800000D02*
G75*
G02*
X135900000Y-141500000I300000J0D01*
G01*
X139150000Y-141500000D02*
X135900000Y-141500000D01*
X135610000Y-144000000D02*
G75*
G02*
X135600000Y-143990000I0J10000D01*
G01*
X135600000Y-141800000D02*
X135600000Y-143990000D01*
%TO.N,Net-(J3-Pad1)*%
X135050000Y-123380000D02*
X147780000Y-123380000D01*
X148050000Y-123650000D02*
G75*
G03*
X147780000Y-123380000I-270000J0D01*
G01*
%TO.N,Net-(Q1-Pad1)*%
X133050000Y-132500000D02*
X131526777Y-134023223D01*
X131350000Y-134450000D02*
X131350000Y-136956545D01*
X131350014Y-134450000D02*
G75*
G02*
X131526777Y-134023223I603586J0D01*
G01*
X134800000Y-132250000D02*
X133653553Y-132250000D01*
X133050014Y-132500014D02*
G75*
G02*
X133653553Y-132250000I603586J-603586D01*
G01*
X131331987Y-136999987D02*
G75*
G03*
X131350000Y-136956545I-43487J43487D01*
G01*
X131332000Y-137000000D02*
G75*
G03*
X131350000Y-136982000I0J18000D01*
G01*
X134800000Y-132250000D02*
G75*
G03*
X135050000Y-132000000I0J250000D01*
G01*
X135050000Y-131000000D02*
X135050000Y-132000000D01*
%TO.N,Net-(J1-Pad1)*%
X150100000Y-128700000D02*
X150100000Y-140350000D01*
X139150000Y-141500000D02*
G75*
G03*
X139400000Y-141250000I0J250000D01*
G01*
X139400000Y-140850000D02*
X139400000Y-141250000D01*
X139400000Y-140850000D02*
G75*
G02*
X139650000Y-140600000I250000J0D01*
G01*
X150100000Y-128700000D02*
G75*
G02*
X150340000Y-128460000I240000J0D01*
G01*
X149850000Y-140600000D02*
X139650000Y-140600000D01*
X149850000Y-140600000D02*
G75*
G03*
X150100000Y-140350000I0J250000D01*
G01*
X153950000Y-128460000D02*
X150340000Y-128460000D01*
%TO.N,Net-(U1-Pad12)*%
X138150000Y-142650000D02*
G75*
G02*
X138400000Y-142400000I250000J0D01*
G01*
X139400000Y-142400000D02*
X138400000Y-142400000D01*
X138150000Y-142650000D02*
X138150000Y-144000000D01*
%TO.N,Net-(U1-Pad11)*%
X140700000Y-141300000D02*
G75*
G02*
X140950000Y-141050000I250000J0D01*
G01*
X150300000Y-141050000D02*
X140950000Y-141050000D01*
X150550000Y-131250000D02*
G75*
G02*
X150800000Y-131000000I250000J0D01*
G01*
X153950000Y-131000000D02*
X150800000Y-131000000D01*
X150550000Y-131250000D02*
X150550000Y-140800000D01*
X150300000Y-141050000D02*
G75*
G03*
X150550000Y-140800000I0J250000D01*
G01*
X140700000Y-141300000D02*
X140700000Y-143990000D01*
X140690000Y-144000000D02*
G75*
G03*
X140700000Y-143990000I0J10000D01*
G01*
%TO.N,Net-(U1-Pad12)*%
X141950000Y-141750000D02*
X141950000Y-142400000D01*
X150750000Y-141500000D02*
G75*
G03*
X151000000Y-141250000I0J250000D01*
G01*
X151000000Y-133800000D02*
X151000000Y-141250000D01*
X151000000Y-133800000D02*
G75*
G02*
X151260000Y-133540000I260000J0D01*
G01*
X141950000Y-141750000D02*
G75*
G02*
X142200000Y-141500000I250000J0D01*
G01*
X150750000Y-141500000D02*
X142200000Y-141500000D01*
X153950000Y-133540000D02*
X151260000Y-133540000D01*
%TO.N,Net-(U1-Pad13)*%
X151200000Y-141950000D02*
X143500000Y-141950000D01*
X143230000Y-144000000D02*
G75*
G03*
X143250000Y-143980000I0J20000D01*
G01*
X151450000Y-136350000D02*
G75*
G02*
X151720000Y-136080000I270000J0D01*
G01*
X143250000Y-142200000D02*
G75*
G02*
X143500000Y-141950000I250000J0D01*
G01*
X151450000Y-136350000D02*
X151450000Y-141700000D01*
X153950000Y-136080000D02*
X151720000Y-136080000D01*
X151200000Y-141950000D02*
G75*
G03*
X151450000Y-141700000I0J250000D01*
G01*
X143250000Y-142200000D02*
X143250000Y-143980000D01*
%TO.N,Net-(U1-Pad14)*%
X145800000Y-142650000D02*
G75*
G02*
X146050000Y-142400000I250000J0D01*
G01*
X151650000Y-142400000D02*
X146050000Y-142400000D01*
X151900000Y-138850000D02*
G75*
G02*
X152130000Y-138620000I230000J0D01*
G01*
X151900000Y-138850000D02*
X151900000Y-142150000D01*
X153950000Y-138620000D02*
X152130000Y-138620000D01*
X151650000Y-142400000D02*
G75*
G03*
X151900000Y-142150000I0J250000D01*
G01*
X145800000Y-142650000D02*
X145800000Y-143970000D01*
X145770000Y-144000000D02*
G75*
G03*
X145800000Y-143970000I0J30000D01*
G01*
%TD*%
%TA.AperFunction,Conductor*%
%TO.N,GND*%
G36*
X151883621Y-122478502D02*
G01*
X151930114Y-122532158D01*
X151941500Y-122584500D01*
X151941500Y-124178134D01*
X151948255Y-124240316D01*
X151999385Y-124376705D01*
X152086739Y-124493261D01*
X152161344Y-124549174D01*
X152161760Y-124549486D01*
X152204275Y-124606345D01*
X152209301Y-124677164D01*
X152175241Y-124739457D01*
X152161760Y-124751138D01*
X152094277Y-124801714D01*
X152081715Y-124814276D01*
X152005214Y-124916351D01*
X151996676Y-124931946D01*
X151951522Y-125052394D01*
X151947895Y-125067649D01*
X151942369Y-125118514D01*
X151942000Y-125125328D01*
X151942000Y-125647885D01*
X151946475Y-125663124D01*
X151947865Y-125664329D01*
X151955548Y-125666000D01*
X154078000Y-125666000D01*
X154146121Y-125686002D01*
X154192614Y-125739658D01*
X154204000Y-125792000D01*
X154204000Y-126048000D01*
X154183998Y-126116121D01*
X154130342Y-126162614D01*
X154078000Y-126174000D01*
X151960116Y-126174000D01*
X151944877Y-126178475D01*
X151943672Y-126179865D01*
X151942001Y-126187548D01*
X151942001Y-126714669D01*
X151942371Y-126721490D01*
X151947895Y-126772352D01*
X151951521Y-126787604D01*
X151996676Y-126908054D01*
X152005214Y-126923649D01*
X152081715Y-127025724D01*
X152094277Y-127038286D01*
X152161760Y-127088862D01*
X152204275Y-127145722D01*
X152209300Y-127216540D01*
X152175241Y-127278833D01*
X152161762Y-127290513D01*
X152086739Y-127346739D01*
X151999385Y-127463295D01*
X151948255Y-127599684D01*
X151941500Y-127661866D01*
X151941500Y-127700500D01*
X151921498Y-127768621D01*
X151867842Y-127815114D01*
X151815500Y-127826500D01*
X150393995Y-127826500D01*
X150376241Y-127825243D01*
X150353364Y-127821987D01*
X150346385Y-127821914D01*
X150344120Y-127821890D01*
X150344118Y-127821890D01*
X150340000Y-127821847D01*
X150322397Y-127823977D01*
X150319681Y-127824275D01*
X150168764Y-127839139D01*
X150004109Y-127889087D01*
X149998654Y-127892003D01*
X149998651Y-127892004D01*
X149921223Y-127933391D01*
X149852362Y-127970198D01*
X149719354Y-128079354D01*
X149610198Y-128212362D01*
X149529087Y-128364109D01*
X149479139Y-128528764D01*
X149478532Y-128534931D01*
X149473379Y-128587247D01*
X149470027Y-128606231D01*
X149466500Y-128619970D01*
X149466500Y-128649982D01*
X149465422Y-128666428D01*
X149461882Y-128693317D01*
X149462437Y-128698345D01*
X149462274Y-128700000D01*
X149462620Y-128700000D01*
X149463637Y-128709208D01*
X149465739Y-128728252D01*
X149466500Y-128742078D01*
X149466500Y-139840500D01*
X149446498Y-139908621D01*
X149392842Y-139955114D01*
X149340500Y-139966500D01*
X139703995Y-139966500D01*
X139686241Y-139965243D01*
X139663364Y-139961987D01*
X139657211Y-139961923D01*
X139654134Y-139961890D01*
X139654129Y-139961890D01*
X139650000Y-139961847D01*
X139634589Y-139963712D01*
X139631829Y-139964015D01*
X139476804Y-139979283D01*
X139310263Y-140029803D01*
X139304808Y-140032719D01*
X139304805Y-140032720D01*
X139299449Y-140035583D01*
X139156779Y-140111842D01*
X139022248Y-140222248D01*
X138911842Y-140356779D01*
X138829803Y-140510263D01*
X138779283Y-140676804D01*
X138778676Y-140682965D01*
X138778675Y-140682971D01*
X138773299Y-140737558D01*
X138769947Y-140756543D01*
X138766499Y-140769972D01*
X138763585Y-140769224D01*
X138740862Y-140821351D01*
X138681810Y-140860763D01*
X138644223Y-140866500D01*
X135953995Y-140866500D01*
X135936241Y-140865243D01*
X135913364Y-140861987D01*
X135906809Y-140861918D01*
X135904126Y-140861890D01*
X135904123Y-140861890D01*
X135900000Y-140861847D01*
X135895911Y-140862342D01*
X135895907Y-140862342D01*
X135869627Y-140865522D01*
X135865474Y-140865954D01*
X135859234Y-140866500D01*
X135737280Y-140877170D01*
X135639434Y-140903388D01*
X135584815Y-140918023D01*
X135584813Y-140918024D01*
X135579505Y-140919446D01*
X135574524Y-140921769D01*
X135574523Y-140921769D01*
X135436454Y-140986151D01*
X135436449Y-140986154D01*
X135431467Y-140988477D01*
X135297666Y-141082166D01*
X135182166Y-141197666D01*
X135179009Y-141202175D01*
X135179007Y-141202177D01*
X135145521Y-141250000D01*
X135088477Y-141331467D01*
X135086154Y-141336449D01*
X135086151Y-141336454D01*
X135065274Y-141381226D01*
X135019446Y-141479505D01*
X134977170Y-141637280D01*
X134974930Y-141662894D01*
X134972615Y-141689352D01*
X134969134Y-141709712D01*
X134966500Y-141719970D01*
X134966500Y-141749983D01*
X134965422Y-141766429D01*
X134961882Y-141793317D01*
X134962716Y-141800867D01*
X134965739Y-141828253D01*
X134966500Y-141842080D01*
X134966500Y-142554562D01*
X134946498Y-142622683D01*
X134906335Y-142661994D01*
X134724807Y-142773235D01*
X134724799Y-142773241D01*
X134720584Y-142775824D01*
X134540031Y-142930031D01*
X134385824Y-143110584D01*
X134383245Y-143114792D01*
X134383241Y-143114798D01*
X134265867Y-143306335D01*
X134213219Y-143353966D01*
X134158434Y-143366500D01*
X134003995Y-143366500D01*
X133986241Y-143365243D01*
X133983360Y-143364833D01*
X133963364Y-143361987D01*
X133956809Y-143361918D01*
X133954126Y-143361890D01*
X133954123Y-143361890D01*
X133950000Y-143361847D01*
X133945914Y-143362341D01*
X133945903Y-143362342D01*
X133925317Y-143364833D01*
X133921166Y-143365265D01*
X133808717Y-143375104D01*
X133778565Y-143377742D01*
X133677153Y-143404915D01*
X133617648Y-143420859D01*
X133617646Y-143420860D01*
X133612338Y-143422282D01*
X133607357Y-143424605D01*
X133607356Y-143424605D01*
X133461353Y-143492687D01*
X133461350Y-143492689D01*
X133456372Y-143495010D01*
X133315403Y-143593717D01*
X133193717Y-143715403D01*
X133095010Y-143856372D01*
X133022282Y-144012338D01*
X132977742Y-144178565D01*
X132977262Y-144184053D01*
X132972325Y-144240477D01*
X132968847Y-144260827D01*
X132968472Y-144262286D01*
X132968471Y-144262292D01*
X132966500Y-144269970D01*
X132966500Y-144299982D01*
X132965422Y-144316429D01*
X132962873Y-144335786D01*
X132962873Y-144335791D01*
X132961882Y-144343317D01*
X132964225Y-144364539D01*
X132965739Y-144378253D01*
X132966500Y-144392080D01*
X132966500Y-148690500D01*
X132946498Y-148758621D01*
X132892842Y-148805114D01*
X132840500Y-148816500D01*
X130534500Y-148816500D01*
X130466379Y-148796498D01*
X130419886Y-148742842D01*
X130408500Y-148690500D01*
X130408500Y-148649600D01*
X130405459Y-148620290D01*
X130398238Y-148550692D01*
X130398237Y-148550688D01*
X130397526Y-148543834D01*
X130392156Y-148527736D01*
X130343868Y-148383002D01*
X130341550Y-148376054D01*
X130248478Y-148225652D01*
X130123303Y-148100695D01*
X130101026Y-148086963D01*
X129978968Y-148011725D01*
X129978966Y-148011724D01*
X129972738Y-148007885D01*
X129812254Y-147954655D01*
X129811389Y-147954368D01*
X129811387Y-147954368D01*
X129804861Y-147952203D01*
X129798025Y-147951503D01*
X129798022Y-147951502D01*
X129754969Y-147947091D01*
X129700400Y-147941500D01*
X129099600Y-147941500D01*
X129096354Y-147941837D01*
X129096350Y-147941837D01*
X129000692Y-147951762D01*
X129000688Y-147951763D01*
X128993834Y-147952474D01*
X128987298Y-147954655D01*
X128987296Y-147954655D01*
X128855194Y-147998728D01*
X128826054Y-148008450D01*
X128675652Y-148101522D01*
X128550695Y-148226697D01*
X128546855Y-148232927D01*
X128546854Y-148232928D01*
X128461884Y-148370775D01*
X128457885Y-148377262D01*
X128402203Y-148545139D01*
X128391500Y-148649600D01*
X128391500Y-150250400D01*
X128402474Y-150356166D01*
X128458450Y-150523946D01*
X128551522Y-150674348D01*
X128676697Y-150799305D01*
X128682927Y-150803145D01*
X128682928Y-150803146D01*
X128820090Y-150887694D01*
X128827262Y-150892115D01*
X128907005Y-150918564D01*
X128988611Y-150945632D01*
X128988613Y-150945632D01*
X128995139Y-150947797D01*
X129001975Y-150948497D01*
X129001978Y-150948498D01*
X129045031Y-150952909D01*
X129099600Y-150958500D01*
X129700400Y-150958500D01*
X129703646Y-150958163D01*
X129703650Y-150958163D01*
X129799308Y-150948238D01*
X129799312Y-150948237D01*
X129806166Y-150947526D01*
X129812702Y-150945345D01*
X129812704Y-150945345D01*
X129944806Y-150901272D01*
X129973946Y-150891550D01*
X130124348Y-150798478D01*
X130249305Y-150673303D01*
X130304551Y-150583678D01*
X130338275Y-150528968D01*
X130338276Y-150528966D01*
X130342115Y-150522738D01*
X130397797Y-150354861D01*
X130408500Y-150250400D01*
X130408500Y-150209500D01*
X130428502Y-150141379D01*
X130482158Y-150094886D01*
X130534500Y-150083500D01*
X133596005Y-150083500D01*
X133613759Y-150084757D01*
X133636636Y-150088013D01*
X133643615Y-150088086D01*
X133645880Y-150088110D01*
X133645882Y-150088110D01*
X133650000Y-150088153D01*
X133654090Y-150087658D01*
X133654091Y-150087658D01*
X133661747Y-150086731D01*
X133680907Y-150084413D01*
X133696042Y-150083500D01*
X153046005Y-150083500D01*
X153063759Y-150084757D01*
X153086636Y-150088013D01*
X153093191Y-150088082D01*
X153095874Y-150088110D01*
X153095877Y-150088110D01*
X153100000Y-150088153D01*
X153104089Y-150087658D01*
X153104093Y-150087658D01*
X153130373Y-150084478D01*
X153134526Y-150084046D01*
X153177248Y-150080308D01*
X153262720Y-150072830D01*
X153360566Y-150046612D01*
X153415185Y-150031977D01*
X153415187Y-150031976D01*
X153420495Y-150030554D01*
X153425477Y-150028231D01*
X153563546Y-149963849D01*
X153563551Y-149963846D01*
X153568533Y-149961523D01*
X153702334Y-149867834D01*
X153817834Y-149752334D01*
X153911523Y-149618533D01*
X153913846Y-149613551D01*
X153913849Y-149613546D01*
X153978231Y-149475477D01*
X153978231Y-149475476D01*
X153980554Y-149470495D01*
X154022830Y-149312720D01*
X154027386Y-149260649D01*
X154030863Y-149240301D01*
X154031529Y-149237709D01*
X154031530Y-149237705D01*
X154033500Y-149230030D01*
X154033500Y-149203995D01*
X154034757Y-149186242D01*
X154037432Y-149167447D01*
X154037432Y-149167446D01*
X154038013Y-149163364D01*
X154038153Y-149150000D01*
X154034413Y-149119093D01*
X154033500Y-149103958D01*
X154033500Y-148845438D01*
X154053502Y-148777317D01*
X154093665Y-148738006D01*
X154275193Y-148626765D01*
X154275203Y-148626758D01*
X154279416Y-148624176D01*
X154459969Y-148469969D01*
X154614176Y-148289416D01*
X154616755Y-148285208D01*
X154616759Y-148285202D01*
X154735654Y-148091183D01*
X154738240Y-148086963D01*
X154756444Y-148043016D01*
X154827211Y-147872167D01*
X154827212Y-147872165D01*
X154829105Y-147867594D01*
X154884535Y-147636711D01*
X154903165Y-147400000D01*
X154884535Y-147163289D01*
X154829105Y-146932406D01*
X154817849Y-146905231D01*
X154740135Y-146717611D01*
X154740133Y-146717607D01*
X154738240Y-146713037D01*
X154735654Y-146708817D01*
X154616759Y-146514798D01*
X154616755Y-146514792D01*
X154614176Y-146510584D01*
X154459969Y-146330031D01*
X154279416Y-146175824D01*
X154275208Y-146173245D01*
X154275202Y-146173241D01*
X154081183Y-146054346D01*
X154076963Y-146051760D01*
X154072393Y-146049867D01*
X154072389Y-146049865D01*
X153862167Y-145962789D01*
X153862165Y-145962788D01*
X153857594Y-145960895D01*
X153725200Y-145929110D01*
X153631524Y-145906620D01*
X153631518Y-145906619D01*
X153626711Y-145905465D01*
X153390000Y-145886835D01*
X153153289Y-145905465D01*
X153148482Y-145906619D01*
X153148476Y-145906620D01*
X153054800Y-145929110D01*
X152922406Y-145960895D01*
X152917835Y-145962788D01*
X152917833Y-145962789D01*
X152707611Y-146049865D01*
X152707607Y-146049867D01*
X152703037Y-146051760D01*
X152698817Y-146054346D01*
X152504798Y-146173241D01*
X152504792Y-146173245D01*
X152500584Y-146175824D01*
X152320031Y-146330031D01*
X152316823Y-146333787D01*
X152316818Y-146333792D01*
X152215811Y-146452056D01*
X152156361Y-146490866D01*
X152085366Y-146491372D01*
X152024189Y-146452056D01*
X151923182Y-146333792D01*
X151923177Y-146333787D01*
X151919969Y-146330031D01*
X151739416Y-146175824D01*
X151735208Y-146173245D01*
X151735202Y-146173241D01*
X151541183Y-146054346D01*
X151536963Y-146051760D01*
X151532393Y-146049867D01*
X151532389Y-146049865D01*
X151322167Y-145962789D01*
X151322165Y-145962788D01*
X151317594Y-145960895D01*
X151185200Y-145929110D01*
X151091524Y-145906620D01*
X151091518Y-145906619D01*
X151086711Y-145905465D01*
X150850000Y-145886835D01*
X150613289Y-145905465D01*
X150608482Y-145906619D01*
X150608476Y-145906620D01*
X150514800Y-145929110D01*
X150382406Y-145960895D01*
X150377835Y-145962788D01*
X150377833Y-145962789D01*
X150167611Y-146049865D01*
X150167607Y-146049867D01*
X150163037Y-146051760D01*
X150158817Y-146054346D01*
X149964798Y-146173241D01*
X149964792Y-146173245D01*
X149960584Y-146175824D01*
X149780031Y-146330031D01*
X149776823Y-146333787D01*
X149776818Y-146333792D01*
X149675811Y-146452056D01*
X149616361Y-146490866D01*
X149545366Y-146491372D01*
X149484189Y-146452056D01*
X149383182Y-146333792D01*
X149383177Y-146333787D01*
X149379969Y-146330031D01*
X149199416Y-146175824D01*
X149195208Y-146173245D01*
X149195202Y-146173241D01*
X148996963Y-146051760D01*
X148997696Y-146050565D01*
X148950688Y-146006177D01*
X148933500Y-145942647D01*
X148933500Y-145903995D01*
X148934757Y-145886241D01*
X148937432Y-145867445D01*
X148938013Y-145863364D01*
X148938153Y-145850000D01*
X148934478Y-145819627D01*
X148934046Y-145815474D01*
X148926302Y-145726966D01*
X148922830Y-145687280D01*
X148880554Y-145529505D01*
X148879237Y-145526681D01*
X148874781Y-145456564D01*
X148909298Y-145394524D01*
X148949468Y-145367913D01*
X148992385Y-145350137D01*
X148992393Y-145350133D01*
X148996963Y-145348240D01*
X149040160Y-145321769D01*
X149185556Y-145232670D01*
X149982160Y-145232670D01*
X149987887Y-145240320D01*
X150159042Y-145345205D01*
X150167837Y-145349687D01*
X150377988Y-145436734D01*
X150387373Y-145439783D01*
X150608554Y-145492885D01*
X150618301Y-145494428D01*
X150845070Y-145512275D01*
X150854930Y-145512275D01*
X151081699Y-145494428D01*
X151091446Y-145492885D01*
X151312627Y-145439783D01*
X151322012Y-145436734D01*
X151532163Y-145349687D01*
X151540958Y-145345205D01*
X151708445Y-145242568D01*
X151717907Y-145232110D01*
X151714124Y-145223334D01*
X150862812Y-144372022D01*
X150848868Y-144364408D01*
X150847035Y-144364539D01*
X150840420Y-144368790D01*
X149988920Y-145220290D01*
X149982160Y-145232670D01*
X149185556Y-145232670D01*
X149195202Y-145226759D01*
X149195208Y-145226755D01*
X149199416Y-145224176D01*
X149379969Y-145069969D01*
X149383177Y-145066213D01*
X149383182Y-145066208D01*
X149513706Y-144913384D01*
X149573156Y-144874574D01*
X149607558Y-144872360D01*
X149626667Y-144864123D01*
X150760905Y-143729885D01*
X150823217Y-143695859D01*
X150894032Y-143700924D01*
X150939095Y-143729885D01*
X152070290Y-144861080D01*
X152087102Y-144870260D01*
X152150350Y-144884020D01*
X152185775Y-144912776D01*
X152316819Y-145066208D01*
X152320031Y-145069969D01*
X152500584Y-145224176D01*
X152504792Y-145226755D01*
X152504798Y-145226759D01*
X152659840Y-145321769D01*
X152703037Y-145348240D01*
X152707607Y-145350133D01*
X152707611Y-145350135D01*
X152917833Y-145437211D01*
X152922406Y-145439105D01*
X152995128Y-145456564D01*
X153148476Y-145493380D01*
X153148482Y-145493381D01*
X153153289Y-145494535D01*
X153390000Y-145513165D01*
X153626711Y-145494535D01*
X153631518Y-145493381D01*
X153631524Y-145493380D01*
X153784872Y-145456564D01*
X153857594Y-145439105D01*
X153862167Y-145437211D01*
X154072389Y-145350135D01*
X154072393Y-145350133D01*
X154076963Y-145348240D01*
X154120160Y-145321769D01*
X154275202Y-145226759D01*
X154275208Y-145226755D01*
X154279416Y-145224176D01*
X154459969Y-145069969D01*
X154614176Y-144889416D01*
X154616755Y-144885208D01*
X154616759Y-144885202D01*
X154735654Y-144691183D01*
X154738240Y-144686963D01*
X154829105Y-144467594D01*
X154860749Y-144335786D01*
X154883380Y-144241524D01*
X154883381Y-144241518D01*
X154884535Y-144236711D01*
X154903165Y-144000000D01*
X154884535Y-143763289D01*
X154876516Y-143729885D01*
X154848360Y-143612609D01*
X154829105Y-143532406D01*
X154827211Y-143527833D01*
X154740135Y-143317611D01*
X154740133Y-143317607D01*
X154738240Y-143313037D01*
X154726516Y-143293905D01*
X154616759Y-143114798D01*
X154616755Y-143114792D01*
X154614176Y-143110584D01*
X154459969Y-142930031D01*
X154279416Y-142775824D01*
X154275203Y-142773242D01*
X154275202Y-142773241D01*
X154081183Y-142654346D01*
X154076963Y-142651760D01*
X154072393Y-142649867D01*
X154072389Y-142649865D01*
X153862167Y-142562789D01*
X153862165Y-142562788D01*
X153857594Y-142560895D01*
X153743548Y-142533515D01*
X153631524Y-142506620D01*
X153631518Y-142506619D01*
X153626711Y-142505465D01*
X153390000Y-142486835D01*
X153153289Y-142505465D01*
X153148482Y-142506619D01*
X153148476Y-142506620D01*
X153036452Y-142533515D01*
X152922406Y-142560895D01*
X152917835Y-142562788D01*
X152917833Y-142562789D01*
X152707611Y-142649865D01*
X152707607Y-142649867D01*
X152703037Y-142651760D01*
X152698817Y-142654346D01*
X152623753Y-142700345D01*
X152555219Y-142718883D01*
X152487542Y-142697426D01*
X152442209Y-142642787D01*
X152433613Y-142572313D01*
X152446797Y-142533515D01*
X152467278Y-142495198D01*
X152470197Y-142489737D01*
X152520717Y-142323196D01*
X152521324Y-142317035D01*
X152521325Y-142317029D01*
X152526701Y-142262442D01*
X152530053Y-142243457D01*
X152531528Y-142237713D01*
X152531528Y-142237709D01*
X152533500Y-142230030D01*
X152533500Y-142203995D01*
X152534757Y-142186242D01*
X152537432Y-142167447D01*
X152537432Y-142167446D01*
X152538013Y-142163364D01*
X152538153Y-142150000D01*
X152534413Y-142119093D01*
X152533500Y-142103958D01*
X152533500Y-140004500D01*
X152553502Y-139936379D01*
X152607158Y-139889886D01*
X152659500Y-139878500D01*
X155240500Y-139878500D01*
X155308621Y-139898502D01*
X155355114Y-139952158D01*
X155366500Y-140004500D01*
X155366500Y-141697476D01*
X155346498Y-141765597D01*
X155334142Y-141781779D01*
X155260960Y-141863056D01*
X155165473Y-142028444D01*
X155106458Y-142210072D01*
X155105768Y-142216633D01*
X155105768Y-142216635D01*
X155103553Y-142237713D01*
X155086496Y-142400000D01*
X155087186Y-142406565D01*
X155104607Y-142572313D01*
X155106458Y-142589928D01*
X155165473Y-142771556D01*
X155260960Y-142936944D01*
X155265378Y-142941851D01*
X155265379Y-142941852D01*
X155384325Y-143073955D01*
X155388747Y-143078866D01*
X155394696Y-143083188D01*
X155535326Y-143185362D01*
X155543248Y-143191118D01*
X155549276Y-143193802D01*
X155549278Y-143193803D01*
X155711681Y-143266109D01*
X155717712Y-143268794D01*
X155811113Y-143288647D01*
X155898056Y-143307128D01*
X155898061Y-143307128D01*
X155904513Y-143308500D01*
X156095487Y-143308500D01*
X156101939Y-143307128D01*
X156101944Y-143307128D01*
X156188887Y-143288647D01*
X156282288Y-143268794D01*
X156288319Y-143266109D01*
X156450722Y-143193803D01*
X156450724Y-143193802D01*
X156456752Y-143191118D01*
X156464675Y-143185362D01*
X156605304Y-143083188D01*
X156611253Y-143078866D01*
X156615675Y-143073955D01*
X156734621Y-142941852D01*
X156734622Y-142941851D01*
X156739040Y-142936944D01*
X156834527Y-142771556D01*
X156893542Y-142589928D01*
X156895394Y-142572313D01*
X156912814Y-142406565D01*
X156913504Y-142400000D01*
X156896447Y-142237713D01*
X156894232Y-142216635D01*
X156894232Y-142216633D01*
X156893542Y-142210072D01*
X156834527Y-142028444D01*
X156739040Y-141863056D01*
X156665863Y-141781785D01*
X156635147Y-141717779D01*
X156633500Y-141697476D01*
X156633500Y-133903995D01*
X156634757Y-133886241D01*
X156637432Y-133867445D01*
X156638013Y-133863364D01*
X156638153Y-133850000D01*
X156637656Y-133845893D01*
X156634620Y-133820805D01*
X156634186Y-133816649D01*
X156624732Y-133708594D01*
X156622715Y-133685537D01*
X156608661Y-133633085D01*
X156581410Y-133531381D01*
X156581409Y-133531379D01*
X156579987Y-133526071D01*
X156510216Y-133376448D01*
X156415524Y-133241213D01*
X156298787Y-133124476D01*
X156163552Y-133029784D01*
X156158574Y-133027463D01*
X156158571Y-133027461D01*
X156031250Y-132968090D01*
X155977965Y-132921172D01*
X155958500Y-132853895D01*
X155958500Y-132741866D01*
X155951745Y-132679684D01*
X155918045Y-132589789D01*
X155912862Y-132518983D01*
X155946783Y-132456614D01*
X156009038Y-132422484D01*
X156079862Y-132427431D01*
X156105911Y-132440716D01*
X156227000Y-132521429D01*
X156236245Y-132528220D01*
X156247108Y-132536986D01*
X156252309Y-132539995D01*
X156252524Y-132540164D01*
X156252778Y-132540266D01*
X156257974Y-132543272D01*
X156262516Y-132545034D01*
X156262520Y-132545036D01*
X156278710Y-132551317D01*
X156297034Y-132560191D01*
X156513456Y-132687540D01*
X157067030Y-133013281D01*
X157071227Y-133015862D01*
X157856495Y-133520278D01*
X157860555Y-133522999D01*
X158093068Y-133685537D01*
X158094161Y-133686301D01*
X158138532Y-133741724D01*
X158145896Y-133812337D01*
X158113914Y-133875722D01*
X158052741Y-133911755D01*
X157995772Y-133912816D01*
X157901951Y-133892873D01*
X157901942Y-133892872D01*
X157895487Y-133891500D01*
X157704513Y-133891500D01*
X157698061Y-133892872D01*
X157698056Y-133892872D01*
X157622493Y-133908934D01*
X157517712Y-133931206D01*
X157511682Y-133933891D01*
X157511681Y-133933891D01*
X157349278Y-134006197D01*
X157349276Y-134006198D01*
X157343248Y-134008882D01*
X157188747Y-134121134D01*
X157184326Y-134126044D01*
X157184325Y-134126045D01*
X157071750Y-134251073D01*
X157060960Y-134263056D01*
X157017614Y-134338134D01*
X156971419Y-134418146D01*
X156965473Y-134428444D01*
X156906458Y-134610072D01*
X156905768Y-134616633D01*
X156905768Y-134616635D01*
X156890066Y-134766034D01*
X156886496Y-134800000D01*
X156906458Y-134989928D01*
X156965473Y-135171556D01*
X157060960Y-135336944D01*
X157134137Y-135418215D01*
X157164853Y-135482221D01*
X157166500Y-135502524D01*
X157166500Y-149099982D01*
X157165422Y-149116428D01*
X157161882Y-149143317D01*
X157163976Y-149162278D01*
X157164257Y-149165116D01*
X157177170Y-149312720D01*
X157219446Y-149470495D01*
X157221769Y-149475476D01*
X157221769Y-149475477D01*
X157286151Y-149613546D01*
X157286154Y-149613551D01*
X157288477Y-149618533D01*
X157382166Y-149752334D01*
X157497666Y-149867834D01*
X157631467Y-149961523D01*
X157636449Y-149963846D01*
X157636454Y-149963849D01*
X157774523Y-150028231D01*
X157779505Y-150030554D01*
X157784813Y-150031976D01*
X157784815Y-150031977D01*
X157839434Y-150046612D01*
X157937280Y-150072830D01*
X157955706Y-150074442D01*
X157989351Y-150077386D01*
X158009699Y-150080863D01*
X158012291Y-150081529D01*
X158012295Y-150081530D01*
X158019970Y-150083500D01*
X158046005Y-150083500D01*
X158063755Y-150084757D01*
X158086636Y-150088013D01*
X158093679Y-150088087D01*
X158095880Y-150088110D01*
X158095882Y-150088110D01*
X158100000Y-150088153D01*
X158104090Y-150087658D01*
X158104091Y-150087658D01*
X158111747Y-150086731D01*
X158130907Y-150084413D01*
X158146042Y-150083500D01*
X161315500Y-150083500D01*
X161383621Y-150103502D01*
X161430114Y-150157158D01*
X161441500Y-150209500D01*
X161441500Y-150250400D01*
X161452474Y-150356166D01*
X161508450Y-150523946D01*
X161601522Y-150674348D01*
X161726697Y-150799305D01*
X161732927Y-150803145D01*
X161732928Y-150803146D01*
X161870090Y-150887694D01*
X161877262Y-150892115D01*
X161957005Y-150918564D01*
X162038611Y-150945632D01*
X162038613Y-150945632D01*
X162045139Y-150947797D01*
X162051975Y-150948497D01*
X162051978Y-150948498D01*
X162095031Y-150952909D01*
X162149600Y-150958500D01*
X162750400Y-150958500D01*
X162753646Y-150958163D01*
X162753650Y-150958163D01*
X162849308Y-150948238D01*
X162849312Y-150948237D01*
X162856166Y-150947526D01*
X162862702Y-150945345D01*
X162862704Y-150945345D01*
X162994806Y-150901272D01*
X163023946Y-150891550D01*
X163174348Y-150798478D01*
X163299305Y-150673303D01*
X163354551Y-150583678D01*
X163388275Y-150528968D01*
X163388276Y-150528966D01*
X163392115Y-150522738D01*
X163447797Y-150354861D01*
X163458500Y-150250400D01*
X163458500Y-148649600D01*
X163455459Y-148620290D01*
X163448238Y-148550692D01*
X163448237Y-148550688D01*
X163447526Y-148543834D01*
X163442156Y-148527736D01*
X163393868Y-148383002D01*
X163391550Y-148376054D01*
X163298478Y-148225652D01*
X163173303Y-148100695D01*
X163151026Y-148086963D01*
X163028968Y-148011725D01*
X163028966Y-148011724D01*
X163022738Y-148007885D01*
X162862254Y-147954655D01*
X162861389Y-147954368D01*
X162861387Y-147954368D01*
X162854861Y-147952203D01*
X162848025Y-147951503D01*
X162848022Y-147951502D01*
X162804969Y-147947091D01*
X162750400Y-147941500D01*
X162149600Y-147941500D01*
X162146354Y-147941837D01*
X162146350Y-147941837D01*
X162050692Y-147951762D01*
X162050688Y-147951763D01*
X162043834Y-147952474D01*
X162037298Y-147954655D01*
X162037296Y-147954655D01*
X161905194Y-147998728D01*
X161876054Y-148008450D01*
X161725652Y-148101522D01*
X161600695Y-148226697D01*
X161596855Y-148232927D01*
X161596854Y-148232928D01*
X161511884Y-148370775D01*
X161507885Y-148377262D01*
X161452203Y-148545139D01*
X161441500Y-148649600D01*
X161441500Y-148690500D01*
X161421498Y-148758621D01*
X161367842Y-148805114D01*
X161315500Y-148816500D01*
X158559500Y-148816500D01*
X158491379Y-148796498D01*
X158444886Y-148742842D01*
X158433500Y-148690500D01*
X158433500Y-141950004D01*
X160286761Y-141950004D01*
X160287031Y-141954123D01*
X160304596Y-142222100D01*
X160305696Y-142238890D01*
X160306500Y-142242930D01*
X160306500Y-142242933D01*
X160358721Y-142505465D01*
X160362175Y-142522832D01*
X160363501Y-142526738D01*
X160363502Y-142526742D01*
X160453723Y-142792522D01*
X160455234Y-142796974D01*
X160583279Y-143056623D01*
X160744119Y-143297339D01*
X160746831Y-143300431D01*
X160746836Y-143300438D01*
X160822613Y-143386844D01*
X160935004Y-143515000D01*
X160938093Y-143517709D01*
X161149565Y-143703167D01*
X161149571Y-143703172D01*
X161152665Y-143705885D01*
X161393380Y-143866725D01*
X161397079Y-143868549D01*
X161397084Y-143868552D01*
X161649335Y-143992948D01*
X161653030Y-143994770D01*
X161656928Y-143996093D01*
X161656930Y-143996094D01*
X161923262Y-144086502D01*
X161923266Y-144086503D01*
X161927172Y-144087829D01*
X161931216Y-144088633D01*
X161931222Y-144088635D01*
X162207071Y-144143504D01*
X162207074Y-144143504D01*
X162211114Y-144144308D01*
X162215225Y-144144577D01*
X162215229Y-144144578D01*
X162495881Y-144162973D01*
X162500000Y-144163243D01*
X162504119Y-144162973D01*
X162784771Y-144144578D01*
X162784775Y-144144577D01*
X162788886Y-144144308D01*
X162792926Y-144143504D01*
X162792929Y-144143504D01*
X163068778Y-144088635D01*
X163068784Y-144088633D01*
X163072828Y-144087829D01*
X163076734Y-144086503D01*
X163076738Y-144086502D01*
X163343070Y-143996094D01*
X163343072Y-143996093D01*
X163346970Y-143994770D01*
X163350665Y-143992948D01*
X163602916Y-143868552D01*
X163602921Y-143868549D01*
X163606620Y-143866725D01*
X163847335Y-143705885D01*
X163850429Y-143703172D01*
X163850435Y-143703167D01*
X164061907Y-143517709D01*
X164064996Y-143515000D01*
X164177387Y-143386844D01*
X164253164Y-143300438D01*
X164253169Y-143300431D01*
X164255881Y-143297339D01*
X164416721Y-143056623D01*
X164544766Y-142796974D01*
X164546277Y-142792522D01*
X164636498Y-142526742D01*
X164636499Y-142526738D01*
X164637825Y-142522832D01*
X164641280Y-142505465D01*
X164693500Y-142242933D01*
X164693500Y-142242930D01*
X164694304Y-142238890D01*
X164695405Y-142222100D01*
X164712969Y-141954123D01*
X164713239Y-141950004D01*
X164702969Y-141793317D01*
X164694574Y-141665233D01*
X164694573Y-141665229D01*
X164694304Y-141661118D01*
X164690652Y-141642758D01*
X164638631Y-141381226D01*
X164638629Y-141381220D01*
X164637825Y-141377176D01*
X164623558Y-141335145D01*
X164546090Y-141106934D01*
X164546089Y-141106932D01*
X164544766Y-141103034D01*
X164489830Y-140991634D01*
X164426070Y-140862342D01*
X164416721Y-140843385D01*
X164255881Y-140602669D01*
X164253169Y-140599577D01*
X164253164Y-140599570D01*
X164067705Y-140388097D01*
X164064996Y-140385008D01*
X164049657Y-140371556D01*
X163850435Y-140196841D01*
X163850429Y-140196836D01*
X163847335Y-140194123D01*
X163606620Y-140033283D01*
X163602921Y-140031459D01*
X163602916Y-140031456D01*
X163350665Y-139907060D01*
X163350663Y-139907059D01*
X163346970Y-139905238D01*
X163343070Y-139903914D01*
X163076738Y-139813506D01*
X163076734Y-139813505D01*
X163072828Y-139812179D01*
X163068784Y-139811375D01*
X163068778Y-139811373D01*
X162792929Y-139756504D01*
X162792926Y-139756504D01*
X162788886Y-139755700D01*
X162784775Y-139755431D01*
X162784771Y-139755430D01*
X162504119Y-139737035D01*
X162500000Y-139736765D01*
X162495881Y-139737035D01*
X162215229Y-139755430D01*
X162215225Y-139755431D01*
X162211114Y-139755700D01*
X162207074Y-139756504D01*
X162207071Y-139756504D01*
X161931222Y-139811373D01*
X161931216Y-139811375D01*
X161927172Y-139812179D01*
X161923266Y-139813505D01*
X161923262Y-139813506D01*
X161656930Y-139903914D01*
X161653030Y-139905238D01*
X161649337Y-139907059D01*
X161649335Y-139907060D01*
X161534461Y-139963710D01*
X161393381Y-140033283D01*
X161152665Y-140194123D01*
X161149573Y-140196835D01*
X161149566Y-140196840D01*
X160950343Y-140371556D01*
X160935004Y-140385008D01*
X160932295Y-140388097D01*
X160746836Y-140599570D01*
X160746831Y-140599577D01*
X160744119Y-140602669D01*
X160583279Y-140843385D01*
X160573930Y-140862342D01*
X160510171Y-140991634D01*
X160455234Y-141103034D01*
X160453911Y-141106932D01*
X160453910Y-141106934D01*
X160376443Y-141335145D01*
X160362175Y-141377176D01*
X160361371Y-141381220D01*
X160361369Y-141381226D01*
X160309348Y-141642758D01*
X160305696Y-141661118D01*
X160305427Y-141665229D01*
X160305426Y-141665233D01*
X160297740Y-141782492D01*
X160288805Y-141918814D01*
X160286761Y-141950004D01*
X158433500Y-141950004D01*
X158433500Y-135502524D01*
X158453502Y-135434403D01*
X158465858Y-135418221D01*
X158539040Y-135336944D01*
X158634527Y-135171556D01*
X158693542Y-134989928D01*
X158713504Y-134800000D01*
X158709934Y-134766034D01*
X158694232Y-134616635D01*
X158694232Y-134616633D01*
X158693542Y-134610072D01*
X158634527Y-134428444D01*
X158628582Y-134418146D01*
X158572881Y-134321670D01*
X158556143Y-134252675D01*
X158579363Y-134185583D01*
X158635171Y-134141696D01*
X158705846Y-134134947D01*
X158758172Y-134158302D01*
X159362087Y-134616635D01*
X159372934Y-134624867D01*
X159376794Y-134627917D01*
X160087278Y-135212285D01*
X160097606Y-135220780D01*
X160101341Y-135223976D01*
X160516748Y-135593803D01*
X160798440Y-135844586D01*
X160802055Y-135847934D01*
X161474330Y-136495299D01*
X161477812Y-136498786D01*
X162124261Y-137171941D01*
X162127594Y-137175550D01*
X162532582Y-137631703D01*
X162747243Y-137873483D01*
X162750442Y-137877231D01*
X163342331Y-138598861D01*
X163345380Y-138602731D01*
X163908569Y-139346908D01*
X163911460Y-139350885D01*
X164227148Y-139803794D01*
X164445165Y-140116577D01*
X164447903Y-140120674D01*
X164939557Y-140888370D01*
X164951249Y-140906627D01*
X164953816Y-140910815D01*
X165422449Y-141709712D01*
X165426031Y-141715819D01*
X165428432Y-141720102D01*
X165649677Y-142133500D01*
X165868828Y-142542986D01*
X165871068Y-142547375D01*
X166030728Y-142875973D01*
X166274529Y-143377742D01*
X166278951Y-143386844D01*
X166281011Y-143391304D01*
X166655765Y-144246096D01*
X166657637Y-144250604D01*
X166977807Y-145066213D01*
X166998685Y-145119397D01*
X167000392Y-145124009D01*
X167123958Y-145479007D01*
X167307192Y-146005424D01*
X167308721Y-146010108D01*
X167361571Y-146183500D01*
X167521687Y-146708817D01*
X167580837Y-146902881D01*
X167582177Y-146907609D01*
X167650598Y-147168223D01*
X167819170Y-147810316D01*
X167820328Y-147815105D01*
X168021851Y-148726414D01*
X168022820Y-148731245D01*
X168188552Y-149649700D01*
X168189331Y-149654556D01*
X168312203Y-150530176D01*
X168319024Y-150578785D01*
X168319612Y-150583661D01*
X168357303Y-150958163D01*
X168408695Y-151468796D01*
X168408986Y-151490694D01*
X168407640Y-151508919D01*
X168409518Y-151517698D01*
X168409830Y-151522238D01*
X168412080Y-151548092D01*
X168409571Y-151615451D01*
X168404987Y-151644749D01*
X168381834Y-151727397D01*
X168381833Y-151727400D01*
X168370526Y-151754820D01*
X168328693Y-151829768D01*
X168311296Y-151853777D01*
X168253095Y-151916879D01*
X168230572Y-151936153D01*
X168159258Y-151983886D01*
X168159240Y-151983898D01*
X168132823Y-151997380D01*
X168052309Y-152027128D01*
X168023472Y-152034061D01*
X167962240Y-152041319D01*
X167945876Y-152042186D01*
X167938557Y-152042097D01*
X167929687Y-152040716D01*
X167920787Y-152041880D01*
X167920784Y-152041880D01*
X167898131Y-152044843D01*
X167881791Y-152045907D01*
X156553250Y-152045907D01*
X156532345Y-152044161D01*
X156517344Y-152041637D01*
X156517341Y-152041637D01*
X156512552Y-152040831D01*
X156506313Y-152040755D01*
X156504860Y-152040737D01*
X156504857Y-152040737D01*
X156500000Y-152040678D01*
X156485308Y-152042782D01*
X156476455Y-152043731D01*
X156289257Y-152057120D01*
X156284769Y-152057441D01*
X156201446Y-152075567D01*
X156078308Y-152102353D01*
X156078305Y-152102354D01*
X156073919Y-152103308D01*
X156069694Y-152104884D01*
X155875962Y-152177143D01*
X155875958Y-152177145D01*
X155871743Y-152178717D01*
X155867797Y-152180872D01*
X155867792Y-152180874D01*
X155867787Y-152180877D01*
X155682357Y-152282130D01*
X155509616Y-152411443D01*
X155357036Y-152564024D01*
X155227724Y-152736766D01*
X155124312Y-152926153D01*
X155048905Y-153128329D01*
X155003039Y-153339179D01*
X155002718Y-153343669D01*
X154990542Y-153513936D01*
X154989116Y-153525856D01*
X154987231Y-153537059D01*
X154987230Y-153537066D01*
X154986424Y-153541859D01*
X154986271Y-153554411D01*
X154986961Y-153559227D01*
X154990227Y-153582033D01*
X154991500Y-153599896D01*
X154991500Y-163400633D01*
X154990000Y-163420018D01*
X154986309Y-163443724D01*
X154987473Y-163452626D01*
X154987489Y-163452750D01*
X154987760Y-163483192D01*
X154985430Y-163503870D01*
X154980766Y-163545264D01*
X154974487Y-163572771D01*
X154947515Y-163649853D01*
X154935273Y-163675274D01*
X154891822Y-163744426D01*
X154874230Y-163766485D01*
X154816485Y-163824230D01*
X154794426Y-163841822D01*
X154725274Y-163885273D01*
X154699853Y-163897515D01*
X154622772Y-163924487D01*
X154595264Y-163930766D01*
X154539774Y-163937018D01*
X154524132Y-163936923D01*
X154524121Y-163937800D01*
X154515149Y-163937690D01*
X154506276Y-163936309D01*
X154497374Y-163937473D01*
X154497372Y-163937473D01*
X154486385Y-163938910D01*
X154474714Y-163940436D01*
X154458379Y-163941500D01*
X134549367Y-163941500D01*
X134529982Y-163940000D01*
X134515148Y-163937690D01*
X134515145Y-163937690D01*
X134506276Y-163936309D01*
X134497374Y-163937473D01*
X134497250Y-163937489D01*
X134466808Y-163937760D01*
X134446130Y-163935430D01*
X134404736Y-163930766D01*
X134377229Y-163924487D01*
X134300147Y-163897515D01*
X134274726Y-163885273D01*
X134205574Y-163841822D01*
X134183515Y-163824230D01*
X134125770Y-163766485D01*
X134108178Y-163744426D01*
X134064727Y-163675274D01*
X134052485Y-163649853D01*
X134025513Y-163572772D01*
X134019234Y-163545266D01*
X134013170Y-163491451D01*
X134012888Y-163466640D01*
X134013576Y-163462552D01*
X134013729Y-163450000D01*
X134009773Y-163422376D01*
X134008500Y-163404514D01*
X134008500Y-153607660D01*
X134010246Y-153586754D01*
X134011041Y-153582033D01*
X134013576Y-153566963D01*
X134013729Y-153554411D01*
X134011598Y-153539529D01*
X134010648Y-153530669D01*
X133997275Y-153343669D01*
X133996954Y-153339180D01*
X133951088Y-153128331D01*
X133875682Y-152926156D01*
X133772270Y-152736770D01*
X133642959Y-152564028D01*
X133490380Y-152411448D01*
X133317639Y-152282136D01*
X133128254Y-152178723D01*
X133124051Y-152177155D01*
X133124048Y-152177154D01*
X132930287Y-152104884D01*
X132930281Y-152104882D01*
X132926079Y-152103315D01*
X132921693Y-152102361D01*
X132921690Y-152102360D01*
X132798040Y-152075462D01*
X132715230Y-152057448D01*
X132540465Y-152044948D01*
X132528554Y-152043523D01*
X132517352Y-152041638D01*
X132517345Y-152041637D01*
X132512552Y-152040831D01*
X132506276Y-152040755D01*
X132504860Y-152040737D01*
X132504857Y-152040737D01*
X132500000Y-152040678D01*
X132480902Y-152043413D01*
X132472376Y-152044634D01*
X132454514Y-152045907D01*
X121125948Y-152045907D01*
X121106560Y-152044406D01*
X121091740Y-152042098D01*
X121091739Y-152042098D01*
X121082865Y-152040716D01*
X121073964Y-152041880D01*
X121069412Y-152041824D01*
X121043460Y-152041980D01*
X121016612Y-152038797D01*
X120976528Y-152034046D01*
X120947695Y-152027113D01*
X120867183Y-151997366D01*
X120840771Y-151983888D01*
X120769441Y-151936144D01*
X120746911Y-151916863D01*
X120688719Y-151853771D01*
X120671322Y-151829763D01*
X120629485Y-151754809D01*
X120618182Y-151727397D01*
X120595027Y-151644745D01*
X120590444Y-151615447D01*
X120588141Y-151553596D01*
X120588598Y-151537211D01*
X120589255Y-151530163D01*
X120591347Y-151521435D01*
X120590056Y-151495258D01*
X120590536Y-151476436D01*
X120594978Y-151432304D01*
X120680388Y-150583661D01*
X120680976Y-150578785D01*
X120687798Y-150530176D01*
X120810669Y-149654556D01*
X120811448Y-149649700D01*
X120977180Y-148731245D01*
X120978149Y-148726414D01*
X121179672Y-147815105D01*
X121180830Y-147810316D01*
X121349402Y-147168223D01*
X121417823Y-146907609D01*
X121419163Y-146902881D01*
X121478314Y-146708817D01*
X121638429Y-146183500D01*
X121691279Y-146010108D01*
X121692808Y-146005424D01*
X121876042Y-145479007D01*
X121999608Y-145124009D01*
X122001315Y-145119397D01*
X122022193Y-145066213D01*
X122342363Y-144250604D01*
X122344235Y-144246096D01*
X122718989Y-143391304D01*
X122721049Y-143386844D01*
X122725472Y-143377742D01*
X122969272Y-142875973D01*
X123128932Y-142547375D01*
X123131172Y-142542986D01*
X123350323Y-142133500D01*
X123448528Y-141950004D01*
X124286761Y-141950004D01*
X124287031Y-141954123D01*
X124304596Y-142222100D01*
X124305696Y-142238890D01*
X124306500Y-142242930D01*
X124306500Y-142242933D01*
X124358721Y-142505465D01*
X124362175Y-142522832D01*
X124363501Y-142526738D01*
X124363502Y-142526742D01*
X124453723Y-142792522D01*
X124455234Y-142796974D01*
X124583279Y-143056623D01*
X124744119Y-143297339D01*
X124746831Y-143300431D01*
X124746836Y-143300438D01*
X124822613Y-143386844D01*
X124935004Y-143515000D01*
X124938093Y-143517709D01*
X125149565Y-143703167D01*
X125149571Y-143703172D01*
X125152665Y-143705885D01*
X125393380Y-143866725D01*
X125397079Y-143868549D01*
X125397084Y-143868552D01*
X125649335Y-143992948D01*
X125653030Y-143994770D01*
X125656928Y-143996093D01*
X125656930Y-143996094D01*
X125923262Y-144086502D01*
X125923266Y-144086503D01*
X125927172Y-144087829D01*
X125931216Y-144088633D01*
X125931222Y-144088635D01*
X126207071Y-144143504D01*
X126207074Y-144143504D01*
X126211114Y-144144308D01*
X126215225Y-144144577D01*
X126215229Y-144144578D01*
X126495881Y-144162973D01*
X126500000Y-144163243D01*
X126504119Y-144162973D01*
X126784771Y-144144578D01*
X126784775Y-144144577D01*
X126788886Y-144144308D01*
X126792926Y-144143504D01*
X126792929Y-144143504D01*
X127068778Y-144088635D01*
X127068784Y-144088633D01*
X127072828Y-144087829D01*
X127076734Y-144086503D01*
X127076738Y-144086502D01*
X127343070Y-143996094D01*
X127343072Y-143996093D01*
X127346970Y-143994770D01*
X127350665Y-143992948D01*
X127602916Y-143868552D01*
X127602921Y-143868549D01*
X127606620Y-143866725D01*
X127847335Y-143705885D01*
X127850429Y-143703172D01*
X127850435Y-143703167D01*
X128061907Y-143517709D01*
X128064996Y-143515000D01*
X128177387Y-143386844D01*
X128253164Y-143300438D01*
X128253169Y-143300431D01*
X128255881Y-143297339D01*
X128416721Y-143056623D01*
X128544766Y-142796974D01*
X128546277Y-142792522D01*
X128636498Y-142526742D01*
X128636499Y-142526738D01*
X128637825Y-142522832D01*
X128641280Y-142505465D01*
X128693500Y-142242933D01*
X128693500Y-142242930D01*
X128694304Y-142238890D01*
X128695405Y-142222100D01*
X128712969Y-141954123D01*
X128713239Y-141950004D01*
X128702969Y-141793317D01*
X128694574Y-141665233D01*
X128694573Y-141665229D01*
X128694304Y-141661118D01*
X128690652Y-141642758D01*
X128638631Y-141381226D01*
X128638629Y-141381220D01*
X128637825Y-141377176D01*
X128623558Y-141335145D01*
X128546090Y-141106934D01*
X128546089Y-141106932D01*
X128544766Y-141103034D01*
X128489830Y-140991634D01*
X128426070Y-140862342D01*
X128416721Y-140843385D01*
X128255881Y-140602669D01*
X128253169Y-140599577D01*
X128253164Y-140599570D01*
X128067705Y-140388097D01*
X128064996Y-140385008D01*
X128049657Y-140371556D01*
X127850435Y-140196841D01*
X127850429Y-140196836D01*
X127847335Y-140194123D01*
X127606620Y-140033283D01*
X127602921Y-140031459D01*
X127602916Y-140031456D01*
X127350665Y-139907060D01*
X127350663Y-139907059D01*
X127346970Y-139905238D01*
X127343070Y-139903914D01*
X127076738Y-139813506D01*
X127076734Y-139813505D01*
X127072828Y-139812179D01*
X127068784Y-139811375D01*
X127068778Y-139811373D01*
X126792929Y-139756504D01*
X126792926Y-139756504D01*
X126788886Y-139755700D01*
X126784775Y-139755431D01*
X126784771Y-139755430D01*
X126504119Y-139737035D01*
X126500000Y-139736765D01*
X126495881Y-139737035D01*
X126215229Y-139755430D01*
X126215225Y-139755431D01*
X126211114Y-139755700D01*
X126207074Y-139756504D01*
X126207071Y-139756504D01*
X125931222Y-139811373D01*
X125931216Y-139811375D01*
X125927172Y-139812179D01*
X125923266Y-139813505D01*
X125923262Y-139813506D01*
X125656930Y-139903914D01*
X125653030Y-139905238D01*
X125649337Y-139907059D01*
X125649335Y-139907060D01*
X125534461Y-139963710D01*
X125393381Y-140033283D01*
X125152665Y-140194123D01*
X125149573Y-140196835D01*
X125149566Y-140196840D01*
X124950343Y-140371556D01*
X124935004Y-140385008D01*
X124932295Y-140388097D01*
X124746836Y-140599570D01*
X124746831Y-140599577D01*
X124744119Y-140602669D01*
X124583279Y-140843385D01*
X124573930Y-140862342D01*
X124510171Y-140991634D01*
X124455234Y-141103034D01*
X124453911Y-141106932D01*
X124453910Y-141106934D01*
X124376443Y-141335145D01*
X124362175Y-141377176D01*
X124361371Y-141381220D01*
X124361369Y-141381226D01*
X124309348Y-141642758D01*
X124305696Y-141661118D01*
X124305427Y-141665229D01*
X124305426Y-141665233D01*
X124297740Y-141782492D01*
X124288805Y-141918814D01*
X124286761Y-141950004D01*
X123448528Y-141950004D01*
X123571568Y-141720102D01*
X123573969Y-141715819D01*
X123577552Y-141709712D01*
X124046184Y-140910815D01*
X124048751Y-140906627D01*
X124060444Y-140888370D01*
X124552097Y-140120674D01*
X124554835Y-140116577D01*
X124772852Y-139803794D01*
X125088540Y-139350885D01*
X125091431Y-139346908D01*
X125654620Y-138602731D01*
X125657669Y-138598861D01*
X126249558Y-137877231D01*
X126252757Y-137873483D01*
X126402281Y-137705069D01*
X128512601Y-137705069D01*
X128512971Y-137711890D01*
X128518495Y-137762752D01*
X128522121Y-137778004D01*
X128567276Y-137898454D01*
X128575814Y-137914049D01*
X128652315Y-138016124D01*
X128664876Y-138028685D01*
X128766951Y-138105186D01*
X128782546Y-138113724D01*
X128902994Y-138158878D01*
X128918249Y-138162505D01*
X128969114Y-138168031D01*
X128975928Y-138168400D01*
X129027885Y-138168400D01*
X129043124Y-138163925D01*
X129044329Y-138162535D01*
X129046000Y-138154852D01*
X129046000Y-137272115D01*
X129041525Y-137256876D01*
X129040135Y-137255671D01*
X129032452Y-137254000D01*
X128530716Y-137254000D01*
X128515477Y-137258475D01*
X128514272Y-137259865D01*
X128512601Y-137267548D01*
X128512601Y-137705069D01*
X126402281Y-137705069D01*
X126467418Y-137631703D01*
X126872406Y-137175550D01*
X126875739Y-137171941D01*
X127302178Y-136727885D01*
X128512600Y-136727885D01*
X128517075Y-136743124D01*
X128518465Y-136744329D01*
X128526148Y-136746000D01*
X129027885Y-136746000D01*
X129043124Y-136741525D01*
X129044329Y-136740135D01*
X129046000Y-136732452D01*
X129046000Y-136727885D01*
X129554000Y-136727885D01*
X129558475Y-136743124D01*
X129559865Y-136744329D01*
X129567548Y-136746000D01*
X130069284Y-136746000D01*
X130084523Y-136741525D01*
X130085728Y-136740135D01*
X130087399Y-136732452D01*
X130087399Y-136294931D01*
X130087029Y-136288110D01*
X130081505Y-136237248D01*
X130077879Y-136221996D01*
X130032724Y-136101546D01*
X130024186Y-136085951D01*
X129947685Y-135983876D01*
X129935124Y-135971315D01*
X129833049Y-135894814D01*
X129817454Y-135886276D01*
X129697006Y-135841122D01*
X129681751Y-135837495D01*
X129630886Y-135831969D01*
X129624072Y-135831600D01*
X129572115Y-135831600D01*
X129556876Y-135836075D01*
X129555671Y-135837465D01*
X129554000Y-135845148D01*
X129554000Y-136727885D01*
X129046000Y-136727885D01*
X129046000Y-135849716D01*
X129041525Y-135834477D01*
X129040135Y-135833272D01*
X129032452Y-135831601D01*
X128975931Y-135831601D01*
X128969110Y-135831971D01*
X128918248Y-135837495D01*
X128902996Y-135841121D01*
X128782546Y-135886276D01*
X128766951Y-135894814D01*
X128664876Y-135971315D01*
X128652315Y-135983876D01*
X128575814Y-136085951D01*
X128567276Y-136101546D01*
X128522122Y-136221994D01*
X128518495Y-136237249D01*
X128512969Y-136288114D01*
X128512600Y-136294928D01*
X128512600Y-136727885D01*
X127302178Y-136727885D01*
X127522188Y-136498786D01*
X127525670Y-136495299D01*
X128197945Y-135847934D01*
X128201560Y-135844586D01*
X128483252Y-135593803D01*
X128898659Y-135223976D01*
X128902394Y-135220780D01*
X128912723Y-135212285D01*
X129623206Y-134627917D01*
X129627066Y-134624867D01*
X129646561Y-134610072D01*
X129866282Y-134443317D01*
X130370520Y-134060633D01*
X130374502Y-134057732D01*
X130375183Y-134057256D01*
X130587361Y-133908933D01*
X130654651Y-133886298D01*
X130723498Y-133903637D01*
X130772042Y-133955444D01*
X130784870Y-134025272D01*
X130776762Y-134057256D01*
X130776839Y-134057281D01*
X130776460Y-134058447D01*
X130775961Y-134060416D01*
X130773415Y-134066563D01*
X130727965Y-134255892D01*
X130727577Y-134260825D01*
X130727576Y-134260830D01*
X130720943Y-134345120D01*
X130719396Y-134354415D01*
X130719465Y-134354424D01*
X130718470Y-134362296D01*
X130716500Y-134369970D01*
X130716500Y-134396621D01*
X130716111Y-134406512D01*
X130715453Y-134414868D01*
X130714764Y-134421422D01*
X130712873Y-134435783D01*
X130712873Y-134435791D01*
X130711882Y-134443317D01*
X130712716Y-134450867D01*
X130715739Y-134478253D01*
X130716500Y-134492080D01*
X130716500Y-135898787D01*
X130696498Y-135966908D01*
X130689064Y-135976133D01*
X130689339Y-135976339D01*
X130601985Y-136092895D01*
X130550855Y-136229284D01*
X130544100Y-136291466D01*
X130544100Y-137708534D01*
X130544469Y-137711931D01*
X130545725Y-137723492D01*
X130533197Y-137793374D01*
X130484877Y-137845390D01*
X130420462Y-137863100D01*
X130211033Y-137863100D01*
X130142912Y-137843098D01*
X130096419Y-137789442D01*
X130085770Y-137723491D01*
X130087031Y-137711883D01*
X130087400Y-137705072D01*
X130087400Y-137272115D01*
X130082925Y-137256876D01*
X130081535Y-137255671D01*
X130073852Y-137254000D01*
X129572115Y-137254000D01*
X129556876Y-137258475D01*
X129555671Y-137259865D01*
X129554000Y-137267548D01*
X129554000Y-138168399D01*
X129552021Y-138168399D01*
X129552019Y-138214543D01*
X129549106Y-138223269D01*
X129534855Y-138261284D01*
X129528100Y-138323466D01*
X129528100Y-139740534D01*
X129534855Y-139802716D01*
X129585985Y-139939105D01*
X129615642Y-139978676D01*
X129657326Y-140034295D01*
X129682174Y-140100801D01*
X129682500Y-140109860D01*
X129682500Y-145140500D01*
X129662498Y-145208621D01*
X129608842Y-145255114D01*
X129556500Y-145266500D01*
X126053995Y-145266500D01*
X126036241Y-145265243D01*
X126013364Y-145261987D01*
X126006809Y-145261918D01*
X126004126Y-145261890D01*
X126004123Y-145261890D01*
X126000000Y-145261847D01*
X125995911Y-145262342D01*
X125995907Y-145262342D01*
X125969627Y-145265522D01*
X125965474Y-145265954D01*
X125959234Y-145266500D01*
X125837280Y-145277170D01*
X125739434Y-145303388D01*
X125684815Y-145318023D01*
X125684813Y-145318024D01*
X125679505Y-145319446D01*
X125674524Y-145321769D01*
X125674523Y-145321769D01*
X125536454Y-145386151D01*
X125536449Y-145386154D01*
X125531467Y-145388477D01*
X125397666Y-145482166D01*
X125282166Y-145597666D01*
X125279009Y-145602175D01*
X125279007Y-145602177D01*
X125253840Y-145638120D01*
X125188477Y-145731467D01*
X125186154Y-145736449D01*
X125186151Y-145736454D01*
X125121769Y-145874523D01*
X125119446Y-145879505D01*
X125118024Y-145884813D01*
X125118023Y-145884815D01*
X125080334Y-146025473D01*
X125077170Y-146037280D01*
X125075904Y-146051760D01*
X125072615Y-146089352D01*
X125069134Y-146109712D01*
X125066500Y-146119970D01*
X125066500Y-146149983D01*
X125065422Y-146166430D01*
X125063175Y-146183500D01*
X125061882Y-146193317D01*
X125062716Y-146200867D01*
X125065739Y-146228253D01*
X125066500Y-146242080D01*
X125066500Y-147972814D01*
X125046498Y-148040935D01*
X125006803Y-148079958D01*
X124971956Y-148101522D01*
X124846999Y-148226697D01*
X124843159Y-148232927D01*
X124843158Y-148232928D01*
X124758188Y-148370775D01*
X124754189Y-148377262D01*
X124698507Y-148545139D01*
X124687804Y-148649600D01*
X124687804Y-150250400D01*
X124698778Y-150356166D01*
X124754754Y-150523946D01*
X124847826Y-150674348D01*
X124973001Y-150799305D01*
X124979231Y-150803145D01*
X124979232Y-150803146D01*
X125116394Y-150887694D01*
X125123566Y-150892115D01*
X125203309Y-150918564D01*
X125284915Y-150945632D01*
X125284917Y-150945632D01*
X125291443Y-150947797D01*
X125298279Y-150948497D01*
X125298282Y-150948498D01*
X125341335Y-150952909D01*
X125395904Y-150958500D01*
X125996704Y-150958500D01*
X125999950Y-150958163D01*
X125999954Y-150958163D01*
X126095612Y-150948238D01*
X126095616Y-150948237D01*
X126102470Y-150947526D01*
X126109006Y-150945345D01*
X126109008Y-150945345D01*
X126241110Y-150901272D01*
X126270250Y-150891550D01*
X126420652Y-150798478D01*
X126545609Y-150673303D01*
X126600855Y-150583678D01*
X126634579Y-150528968D01*
X126634580Y-150528966D01*
X126638419Y-150522738D01*
X126694101Y-150354861D01*
X126704804Y-150250400D01*
X126704804Y-148649600D01*
X126701763Y-148620290D01*
X126694542Y-148550692D01*
X126694541Y-148550688D01*
X126693830Y-148543834D01*
X126688460Y-148527736D01*
X126640172Y-148383002D01*
X126637854Y-148376054D01*
X126544782Y-148225652D01*
X126419607Y-148100695D01*
X126393384Y-148084531D01*
X126345891Y-148031759D01*
X126333500Y-147977271D01*
X126333500Y-146659500D01*
X126353502Y-146591379D01*
X126407158Y-146544886D01*
X126459500Y-146533500D01*
X129996005Y-146533500D01*
X130013759Y-146534757D01*
X130036636Y-146538013D01*
X130043191Y-146538082D01*
X130045874Y-146538110D01*
X130045877Y-146538110D01*
X130050000Y-146538153D01*
X130054086Y-146537659D01*
X130054096Y-146537658D01*
X130061999Y-146536701D01*
X130064749Y-146536399D01*
X130226333Y-146520485D01*
X130395889Y-146469050D01*
X130401344Y-146466134D01*
X130401347Y-146466133D01*
X130481564Y-146423256D01*
X130552153Y-146385525D01*
X130689120Y-146273120D01*
X130801525Y-146136153D01*
X130870999Y-146006177D01*
X130882133Y-145985347D01*
X130882134Y-145985344D01*
X130885050Y-145979889D01*
X130936485Y-145810333D01*
X130942826Y-145745954D01*
X130946178Y-145726966D01*
X130947529Y-145721705D01*
X130949500Y-145714030D01*
X130949500Y-145687996D01*
X130950757Y-145670243D01*
X130953432Y-145651448D01*
X130953432Y-145651445D01*
X130954013Y-145647364D01*
X130954153Y-145634000D01*
X130950413Y-145603093D01*
X130949500Y-145587958D01*
X130949500Y-140109860D01*
X130969502Y-140041739D01*
X130974674Y-140034295D01*
X131016358Y-139978676D01*
X131046015Y-139939105D01*
X131097145Y-139802716D01*
X131103900Y-139740534D01*
X131103900Y-138323466D01*
X131102275Y-138308508D01*
X131114803Y-138238626D01*
X131163123Y-138186610D01*
X131227538Y-138168900D01*
X131659534Y-138168900D01*
X131721716Y-138162145D01*
X131858105Y-138111015D01*
X131974661Y-138023661D01*
X132062015Y-137907105D01*
X132113145Y-137770716D01*
X132119900Y-137708534D01*
X132119900Y-136291466D01*
X132113145Y-136229284D01*
X132062015Y-136092895D01*
X132056630Y-136085710D01*
X132056629Y-136085708D01*
X132008674Y-136021722D01*
X131983826Y-135955215D01*
X131983500Y-135946157D01*
X131983500Y-134514594D01*
X132003502Y-134446473D01*
X132020405Y-134425499D01*
X132826405Y-133619499D01*
X132888717Y-133585473D01*
X132959532Y-133590538D01*
X133016368Y-133633085D01*
X133041179Y-133699605D01*
X133041500Y-133708594D01*
X133041500Y-134338134D01*
X133048255Y-134400316D01*
X133099385Y-134536705D01*
X133186739Y-134653261D01*
X133193919Y-134658642D01*
X133193920Y-134658643D01*
X133261343Y-134709174D01*
X133303858Y-134766034D01*
X133308884Y-134836852D01*
X133274824Y-134899145D01*
X133261343Y-134910826D01*
X133186739Y-134966739D01*
X133099385Y-135083295D01*
X133048255Y-135219684D01*
X133041500Y-135281866D01*
X133041500Y-136878134D01*
X133048255Y-136940316D01*
X133099385Y-137076705D01*
X133186739Y-137193261D01*
X133193919Y-137198642D01*
X133193920Y-137198643D01*
X133261343Y-137249174D01*
X133303858Y-137306034D01*
X133308884Y-137376852D01*
X133274824Y-137439145D01*
X133261343Y-137450826D01*
X133186739Y-137506739D01*
X133099385Y-137623295D01*
X133048255Y-137759684D01*
X133041500Y-137821866D01*
X133041500Y-137923251D01*
X133021498Y-137991372D01*
X132967842Y-138037865D01*
X132967469Y-138038018D01*
X132966371Y-138038312D01*
X132919469Y-138060183D01*
X132826493Y-138103538D01*
X132826488Y-138103541D01*
X132821506Y-138105864D01*
X132794327Y-138124895D01*
X132695082Y-138194387D01*
X132695079Y-138194389D01*
X132690571Y-138197546D01*
X132577546Y-138310571D01*
X132574389Y-138315079D01*
X132574387Y-138315082D01*
X132566124Y-138326883D01*
X132485864Y-138441506D01*
X132483541Y-138446488D01*
X132483538Y-138446493D01*
X132420635Y-138581389D01*
X132418312Y-138586371D01*
X132416890Y-138591679D01*
X132416889Y-138591681D01*
X132413928Y-138602731D01*
X132376942Y-138740767D01*
X132376462Y-138746251D01*
X132376461Y-138746258D01*
X132372729Y-138788906D01*
X132369253Y-138809247D01*
X132366500Y-138819970D01*
X132366500Y-138849982D01*
X132365422Y-138866425D01*
X132361882Y-138893317D01*
X132362716Y-138900867D01*
X132365739Y-138928253D01*
X132366500Y-138942080D01*
X132366500Y-139297476D01*
X132346498Y-139365597D01*
X132334142Y-139381779D01*
X132260960Y-139463056D01*
X132257659Y-139468774D01*
X132172251Y-139616705D01*
X132165473Y-139628444D01*
X132106458Y-139810072D01*
X132105768Y-139816633D01*
X132105768Y-139816635D01*
X132090278Y-139964016D01*
X132086496Y-140000000D01*
X132087186Y-140006565D01*
X132098961Y-140118594D01*
X132106458Y-140189928D01*
X132165473Y-140371556D01*
X132168776Y-140377278D01*
X132168777Y-140377279D01*
X132175023Y-140388097D01*
X132260960Y-140536944D01*
X132265378Y-140541851D01*
X132265379Y-140541852D01*
X132320139Y-140602669D01*
X132388747Y-140678866D01*
X132469529Y-140737558D01*
X132513114Y-140769224D01*
X132543248Y-140791118D01*
X132549276Y-140793802D01*
X132549278Y-140793803D01*
X132703728Y-140862568D01*
X132717712Y-140868794D01*
X132809809Y-140888370D01*
X132898056Y-140907128D01*
X132898061Y-140907128D01*
X132904513Y-140908500D01*
X133095487Y-140908500D01*
X133101939Y-140907128D01*
X133101944Y-140907128D01*
X133190191Y-140888370D01*
X133282288Y-140868794D01*
X133296272Y-140862568D01*
X133450722Y-140793803D01*
X133450724Y-140793802D01*
X133456752Y-140791118D01*
X133486887Y-140769224D01*
X133530471Y-140737558D01*
X133611253Y-140678866D01*
X133679861Y-140602669D01*
X133734621Y-140541852D01*
X133734622Y-140541851D01*
X133739040Y-140536944D01*
X133824977Y-140388097D01*
X133831223Y-140377279D01*
X133831224Y-140377278D01*
X133834527Y-140371556D01*
X133893542Y-140189928D01*
X133901040Y-140118594D01*
X133912814Y-140006565D01*
X133913504Y-140000000D01*
X133914116Y-140000064D01*
X133932816Y-139936379D01*
X133986472Y-139889886D01*
X134038814Y-139878500D01*
X136598134Y-139878500D01*
X136660316Y-139871745D01*
X136796705Y-139820615D01*
X136913261Y-139733261D01*
X137000615Y-139616705D01*
X137051745Y-139480316D01*
X137058500Y-139418134D01*
X137058500Y-137821866D01*
X137051745Y-137759684D01*
X137000615Y-137623295D01*
X136913261Y-137506739D01*
X136838657Y-137450826D01*
X136796142Y-137393966D01*
X136791116Y-137323148D01*
X136825176Y-137260855D01*
X136838657Y-137249174D01*
X136906080Y-137198643D01*
X136906081Y-137198642D01*
X136913261Y-137193261D01*
X137000615Y-137076705D01*
X137051745Y-136940316D01*
X137058500Y-136878134D01*
X137058500Y-135281866D01*
X137051745Y-135219684D01*
X137000615Y-135083295D01*
X136913261Y-134966739D01*
X136838657Y-134910826D01*
X136796142Y-134853966D01*
X136791116Y-134783148D01*
X136825176Y-134720855D01*
X136838657Y-134709174D01*
X136906080Y-134658643D01*
X136906081Y-134658642D01*
X136913261Y-134653261D01*
X137000615Y-134536705D01*
X137051745Y-134400316D01*
X137058500Y-134338134D01*
X137058500Y-132741866D01*
X137051745Y-132679684D01*
X137000615Y-132543295D01*
X136913261Y-132426739D01*
X136838657Y-132370826D01*
X136796142Y-132313966D01*
X136791116Y-132243148D01*
X136825176Y-132180855D01*
X136838657Y-132169174D01*
X136906080Y-132118643D01*
X136906081Y-132118642D01*
X136913261Y-132113261D01*
X137000615Y-131996705D01*
X137051745Y-131860316D01*
X137058500Y-131798134D01*
X137058500Y-130201866D01*
X137051745Y-130139684D01*
X137000615Y-130003295D01*
X136913261Y-129886739D01*
X136838657Y-129830826D01*
X136796142Y-129773966D01*
X136791116Y-129703148D01*
X136825176Y-129640855D01*
X136838657Y-129629174D01*
X136906080Y-129578643D01*
X136906081Y-129578642D01*
X136913261Y-129573261D01*
X137000615Y-129456705D01*
X137051745Y-129320316D01*
X137058500Y-129258134D01*
X137058500Y-127661866D01*
X137051745Y-127599684D01*
X137000615Y-127463295D01*
X136913261Y-127346739D01*
X136838657Y-127290826D01*
X136796142Y-127233966D01*
X136791116Y-127163148D01*
X136825176Y-127100855D01*
X136838657Y-127089174D01*
X136906080Y-127038643D01*
X136906081Y-127038642D01*
X136913261Y-127033261D01*
X137000615Y-126916705D01*
X137051745Y-126780316D01*
X137058500Y-126718134D01*
X137058500Y-125121866D01*
X137051745Y-125059684D01*
X137000615Y-124923295D01*
X136913261Y-124806739D01*
X136838657Y-124750826D01*
X136796142Y-124693966D01*
X136791116Y-124623148D01*
X136825176Y-124560855D01*
X136838657Y-124549174D01*
X136906080Y-124498643D01*
X136906081Y-124498642D01*
X136913261Y-124493261D01*
X137000615Y-124376705D01*
X137051745Y-124240316D01*
X137058500Y-124178134D01*
X137058500Y-124139500D01*
X137078502Y-124071379D01*
X137132158Y-124024886D01*
X137184500Y-124013500D01*
X147290500Y-124013500D01*
X147358621Y-124033502D01*
X147405114Y-124087158D01*
X147416500Y-124139500D01*
X147416500Y-134097476D01*
X147396498Y-134165597D01*
X147384142Y-134181779D01*
X147310960Y-134263056D01*
X147267614Y-134338134D01*
X147221419Y-134418146D01*
X147215473Y-134428444D01*
X147156458Y-134610072D01*
X147155768Y-134616633D01*
X147155768Y-134616635D01*
X147140066Y-134766034D01*
X147136496Y-134800000D01*
X147156458Y-134989928D01*
X147215473Y-135171556D01*
X147310960Y-135336944D01*
X147315375Y-135341847D01*
X147315379Y-135341852D01*
X147413339Y-135450648D01*
X147438747Y-135478866D01*
X147593248Y-135591118D01*
X147599276Y-135593802D01*
X147599278Y-135593803D01*
X147761681Y-135666109D01*
X147767712Y-135668794D01*
X147861113Y-135688647D01*
X147948056Y-135707128D01*
X147948061Y-135707128D01*
X147954513Y-135708500D01*
X148145487Y-135708500D01*
X148151939Y-135707128D01*
X148151944Y-135707128D01*
X148238887Y-135688647D01*
X148332288Y-135668794D01*
X148338319Y-135666109D01*
X148500722Y-135593803D01*
X148500724Y-135593802D01*
X148506752Y-135591118D01*
X148661253Y-135478866D01*
X148686661Y-135450648D01*
X148784621Y-135341852D01*
X148784625Y-135341847D01*
X148789040Y-135336944D01*
X148884527Y-135171556D01*
X148943542Y-134989928D01*
X148963504Y-134800000D01*
X148959934Y-134766034D01*
X148944232Y-134616635D01*
X148944232Y-134616633D01*
X148943542Y-134610072D01*
X148884527Y-134428444D01*
X148878582Y-134418146D01*
X148832386Y-134338134D01*
X148789040Y-134263056D01*
X148715863Y-134181785D01*
X148685147Y-134117779D01*
X148683500Y-134097476D01*
X148683500Y-123703995D01*
X148684757Y-123686241D01*
X148687432Y-123667445D01*
X148688013Y-123663364D01*
X148688153Y-123650000D01*
X148686808Y-123638884D01*
X148686506Y-123636130D01*
X148671034Y-123479045D01*
X148671034Y-123479044D01*
X148670427Y-123472883D01*
X148618764Y-123302572D01*
X148534868Y-123145613D01*
X148421962Y-123008038D01*
X148284387Y-122895132D01*
X148278928Y-122892214D01*
X148132890Y-122814155D01*
X148132886Y-122814153D01*
X148127428Y-122811236D01*
X148121508Y-122809440D01*
X148121505Y-122809439D01*
X147963041Y-122761370D01*
X147957117Y-122759573D01*
X147891832Y-122753143D01*
X147872849Y-122749791D01*
X147867711Y-122748472D01*
X147867710Y-122748472D01*
X147860030Y-122746500D01*
X147833996Y-122746500D01*
X147816243Y-122745243D01*
X147797448Y-122742568D01*
X147797444Y-122742568D01*
X147793364Y-122741987D01*
X147786385Y-122741914D01*
X147784120Y-122741890D01*
X147784118Y-122741890D01*
X147780000Y-122741847D01*
X147775910Y-122742342D01*
X147775909Y-122742342D01*
X147774042Y-122742568D01*
X147749093Y-122745587D01*
X147733958Y-122746500D01*
X137184500Y-122746500D01*
X137116379Y-122726498D01*
X137069886Y-122672842D01*
X137058500Y-122620500D01*
X137058500Y-122584500D01*
X137078502Y-122516379D01*
X137132158Y-122469886D01*
X137184500Y-122458500D01*
X151815500Y-122458500D01*
X151883621Y-122478502D01*
G37*
%TD.AperFunction*%
%TA.AperFunction,Conductor*%
G36*
X139515811Y-144947944D02*
G01*
X139616818Y-145066208D01*
X139616823Y-145066213D01*
X139620031Y-145069969D01*
X139800584Y-145224176D01*
X139804792Y-145226755D01*
X139804798Y-145226759D01*
X139959840Y-145321769D01*
X140003037Y-145348240D01*
X140007612Y-145350135D01*
X140009875Y-145351288D01*
X140061491Y-145400035D01*
X140074381Y-145430946D01*
X140108589Y-145558617D01*
X140108592Y-145558624D01*
X140110013Y-145563929D01*
X140112335Y-145568909D01*
X140112336Y-145568911D01*
X140169180Y-145690811D01*
X140179784Y-145713552D01*
X140233574Y-145790372D01*
X140256260Y-145857644D01*
X140238975Y-145926504D01*
X140187205Y-145975088D01*
X140178577Y-145979049D01*
X140007611Y-146049865D01*
X140007607Y-146049867D01*
X140003037Y-146051760D01*
X139998817Y-146054346D01*
X139804798Y-146173241D01*
X139804792Y-146173245D01*
X139800584Y-146175824D01*
X139620031Y-146330031D01*
X139616823Y-146333787D01*
X139616818Y-146333792D01*
X139486294Y-146486616D01*
X139426844Y-146525426D01*
X139392442Y-146527640D01*
X139373333Y-146535877D01*
X138522022Y-147387188D01*
X138514408Y-147401132D01*
X138514539Y-147402965D01*
X138518790Y-147409580D01*
X139370290Y-148261080D01*
X139387102Y-148270260D01*
X139450350Y-148284020D01*
X139485775Y-148312776D01*
X139616819Y-148466208D01*
X139620031Y-148469969D01*
X139623787Y-148473177D01*
X139766059Y-148594689D01*
X139804868Y-148654140D01*
X139805374Y-148725134D01*
X139767418Y-148785133D01*
X139703050Y-148815086D01*
X139684228Y-148816500D01*
X139134994Y-148816500D01*
X139066873Y-148796498D01*
X139020380Y-148742842D01*
X139010276Y-148672568D01*
X139013215Y-148666311D01*
X139018612Y-148633745D01*
X139014124Y-148623334D01*
X138162812Y-147772022D01*
X138148868Y-147764408D01*
X138147035Y-147764539D01*
X138140420Y-147768790D01*
X137288920Y-148620290D01*
X137281306Y-148634234D01*
X137282540Y-148651490D01*
X137293737Y-148681509D01*
X137278647Y-148750884D01*
X137228445Y-148801087D01*
X137168058Y-148816500D01*
X136615772Y-148816500D01*
X136547651Y-148796498D01*
X136501158Y-148742842D01*
X136491054Y-148672568D01*
X136520548Y-148607988D01*
X136533941Y-148594689D01*
X136676213Y-148473177D01*
X136679969Y-148469969D01*
X136683177Y-148466213D01*
X136683182Y-148466208D01*
X136813706Y-148313384D01*
X136873156Y-148274574D01*
X136907558Y-148272360D01*
X136926667Y-148264123D01*
X137777978Y-147412812D01*
X137785592Y-147398868D01*
X137785461Y-147397035D01*
X137781210Y-147390420D01*
X136929710Y-146538920D01*
X136912898Y-146529740D01*
X136849650Y-146515980D01*
X136814225Y-146487224D01*
X136683177Y-146333787D01*
X136679969Y-146330031D01*
X136499416Y-146175824D01*
X136495208Y-146173245D01*
X136495202Y-146173241D01*
X136486470Y-146167890D01*
X137282093Y-146167890D01*
X137285876Y-146176666D01*
X138137188Y-147027978D01*
X138151132Y-147035592D01*
X138152965Y-147035461D01*
X138159580Y-147031210D01*
X139011080Y-146179710D01*
X139017840Y-146167330D01*
X139012113Y-146159680D01*
X138840958Y-146054795D01*
X138832163Y-146050313D01*
X138622012Y-145963266D01*
X138612627Y-145960217D01*
X138391446Y-145907115D01*
X138381699Y-145905572D01*
X138154930Y-145887725D01*
X138145070Y-145887725D01*
X137918301Y-145905572D01*
X137908554Y-145907115D01*
X137687373Y-145960217D01*
X137677988Y-145963266D01*
X137467837Y-146050313D01*
X137459042Y-146054795D01*
X137291555Y-146157432D01*
X137282093Y-146167890D01*
X136486470Y-146167890D01*
X136301183Y-146054346D01*
X136296963Y-146051760D01*
X136292393Y-146049867D01*
X136292389Y-146049865D01*
X136082167Y-145962789D01*
X136082165Y-145962788D01*
X136077594Y-145960895D01*
X135945200Y-145929110D01*
X135851524Y-145906620D01*
X135851518Y-145906619D01*
X135846711Y-145905465D01*
X135610000Y-145886835D01*
X135373289Y-145905465D01*
X135368482Y-145906619D01*
X135368476Y-145906620D01*
X135274800Y-145929110D01*
X135142406Y-145960895D01*
X135137835Y-145962788D01*
X135137833Y-145962789D01*
X134927611Y-146049865D01*
X134927607Y-146049867D01*
X134923037Y-146051760D01*
X134918817Y-146054346D01*
X134724798Y-146173241D01*
X134724792Y-146173245D01*
X134720584Y-146175824D01*
X134540031Y-146330031D01*
X134536823Y-146333787D01*
X134455311Y-146429225D01*
X134395860Y-146468034D01*
X134324866Y-146468540D01*
X134264867Y-146430584D01*
X134234914Y-146366215D01*
X134233500Y-146347394D01*
X134233500Y-145052606D01*
X134253502Y-144984485D01*
X134307158Y-144937992D01*
X134377432Y-144927888D01*
X134442012Y-144957382D01*
X134455311Y-144970775D01*
X134536819Y-145066208D01*
X134540031Y-145069969D01*
X134720584Y-145224176D01*
X134724792Y-145226755D01*
X134724798Y-145226759D01*
X134879840Y-145321769D01*
X134923037Y-145348240D01*
X134927607Y-145350133D01*
X134927611Y-145350135D01*
X135137833Y-145437211D01*
X135142406Y-145439105D01*
X135215128Y-145456564D01*
X135368476Y-145493380D01*
X135368482Y-145493381D01*
X135373289Y-145494535D01*
X135610000Y-145513165D01*
X135846711Y-145494535D01*
X135851518Y-145493381D01*
X135851524Y-145493380D01*
X136004872Y-145456564D01*
X136077594Y-145439105D01*
X136082167Y-145437211D01*
X136292389Y-145350135D01*
X136292393Y-145350133D01*
X136296963Y-145348240D01*
X136340160Y-145321769D01*
X136495202Y-145226759D01*
X136495208Y-145226755D01*
X136499416Y-145224176D01*
X136679969Y-145069969D01*
X136683177Y-145066213D01*
X136683182Y-145066208D01*
X136784189Y-144947944D01*
X136843639Y-144909134D01*
X136914634Y-144908628D01*
X136975811Y-144947944D01*
X137076818Y-145066208D01*
X137076823Y-145066213D01*
X137080031Y-145069969D01*
X137260584Y-145224176D01*
X137264792Y-145226755D01*
X137264798Y-145226759D01*
X137419840Y-145321769D01*
X137463037Y-145348240D01*
X137467607Y-145350133D01*
X137467611Y-145350135D01*
X137677833Y-145437211D01*
X137682406Y-145439105D01*
X137755128Y-145456564D01*
X137908476Y-145493380D01*
X137908482Y-145493381D01*
X137913289Y-145494535D01*
X138150000Y-145513165D01*
X138386711Y-145494535D01*
X138391518Y-145493381D01*
X138391524Y-145493380D01*
X138544872Y-145456564D01*
X138617594Y-145439105D01*
X138622167Y-145437211D01*
X138832389Y-145350135D01*
X138832393Y-145350133D01*
X138836963Y-145348240D01*
X138880160Y-145321769D01*
X139035202Y-145226759D01*
X139035208Y-145226755D01*
X139039416Y-145224176D01*
X139219969Y-145069969D01*
X139223177Y-145066213D01*
X139223182Y-145066208D01*
X139324189Y-144947944D01*
X139383639Y-144909134D01*
X139454634Y-144908628D01*
X139515811Y-144947944D01*
G37*
%TD.AperFunction*%
%TD*%
M02*
