%TF.GenerationSoftware,KiCad,Pcbnew,(6.0.9-0)*%
%TF.CreationDate,2023-01-01T03:06:46-08:00*%
%TF.ProjectId,trackball,74726163-6b62-4616-9c6c-2e6b69636164,v01*%
%TF.SameCoordinates,Original*%
%TF.FileFunction,Copper,L1,Top*%
%TF.FilePolarity,Positive*%
%FSLAX46Y46*%
G04 Gerber Fmt 4.6, Leading zero omitted, Abs format (unit mm)*
G04 Created by KiCad (PCBNEW (6.0.9-0)) date 2023-01-01 03:06:46*
%MOMM*%
%LPD*%
G01*
G04 APERTURE LIST*
G04 Aperture macros list*
%AMRoundRect*
0 Rectangle with rounded corners*
0 $1 Rounding radius*
0 $2 $3 $4 $5 $6 $7 $8 $9 X,Y pos of 4 corners*
0 Add a 4 corners polygon primitive as box body*
4,1,4,$2,$3,$4,$5,$6,$7,$8,$9,$2,$3,0*
0 Add four circle primitives for the rounded corners*
1,1,$1+$1,$2,$3*
1,1,$1+$1,$4,$5*
1,1,$1+$1,$6,$7*
1,1,$1+$1,$8,$9*
0 Add four rect primitives between the rounded corners*
20,1,$1+$1,$2,$3,$4,$5,0*
20,1,$1+$1,$4,$5,$6,$7,0*
20,1,$1+$1,$6,$7,$8,$9,0*
20,1,$1+$1,$8,$9,$2,$3,0*%
G04 Aperture macros list end*
%TA.AperFunction,ComponentPad*%
%ADD10C,6.400000*%
%TD*%
%TA.AperFunction,SMDPad,CuDef*%
%ADD11R,3.000000X1.500000*%
%TD*%
%TA.AperFunction,SMDPad,CuDef*%
%ADD12R,0.558800X1.320800*%
%TD*%
%TA.AperFunction,SMDPad,CuDef*%
%ADD13RoundRect,0.250000X-0.250000X-0.750000X0.250000X-0.750000X0.250000X0.750000X-0.250000X0.750000X0*%
%TD*%
%TA.AperFunction,ComponentPad*%
%ADD14C,2.000000*%
%TD*%
%TA.AperFunction,ViaPad*%
%ADD15C,0.800000*%
%TD*%
%TA.AperFunction,Conductor*%
%ADD16C,0.250000*%
%TD*%
G04 APERTURE END LIST*
D10*
%TO.P,H1,1,1*%
%TO.N,Net-(Q1-Pad2)*%
X162600000Y-141750000D03*
%TD*%
D11*
%TO.P,U1,1,A0*%
%TO.N,Net-(J3-Pad1)*%
X135050000Y-124180000D03*
%TO.P,U1,2,A1*%
%TO.N,unconnected-(U1-Pad2)*%
X135050000Y-126720000D03*
%TO.P,U1,3,A2*%
%TO.N,unconnected-(U1-Pad3)*%
X135050000Y-129260000D03*
%TO.P,U1,4,A3*%
%TO.N,Net-(Q1-Pad1)*%
X135050000Y-131800000D03*
%TO.P,U1,5,SDA*%
%TO.N,unconnected-(U1-Pad5)*%
X135050000Y-134340000D03*
%TO.P,U1,6,SCL*%
%TO.N,unconnected-(U1-Pad6)*%
X135050000Y-136880000D03*
%TO.P,U1,7,TX*%
%TO.N,Net-(U1-Pad7)*%
X135050000Y-139420000D03*
%TO.P,U1,8,5V*%
%TO.N,unconnected-(U1-Pad8)*%
X153950000Y-124180000D03*
%TO.P,U1,9,GND*%
%TO.N,Net-(Q1-Pad2)*%
X153950000Y-126720000D03*
%TO.P,U1,10,3V*%
%TO.N,Net-(J1-Pad1)*%
X153950000Y-129260000D03*
%TO.P,U1,11,MO*%
%TO.N,Net-(U1-Pad11)*%
X153950000Y-131800000D03*
%TO.P,U1,12,MI*%
%TO.N,Net-(U1-Pad12)*%
X153950000Y-134340000D03*
%TO.P,U1,13,SCK*%
%TO.N,Net-(U1-Pad13)*%
X153950000Y-136880000D03*
%TO.P,U1,14,RX*%
%TO.N,Net-(U1-Pad14)*%
X153950000Y-139420000D03*
%TD*%
D12*
%TO.P,Q1,1,B*%
%TO.N,Net-(Q1-Pad1)*%
X131332000Y-137000000D03*
%TO.P,Q1,2,E*%
%TO.N,Net-(Q1-Pad2)*%
X129300000Y-137000000D03*
%TO.P,Q1,3,C*%
%TO.N,Net-(J2-Pad1)*%
X130316000Y-139032000D03*
%TD*%
D13*
%TO.P,+,1,Pin_1*%
%TO.N,Net-(J1-Pad1)*%
X129400000Y-148950000D03*
%TD*%
%TO.P,-,1,Pin_1*%
%TO.N,Net-(J2-Pad1)*%
X125696304Y-148950000D03*
%TD*%
%TO.P,J3,1,Pin_1*%
%TO.N,Net-(J3-Pad1)*%
X162450000Y-148950000D03*
%TD*%
D14*
%TO.P,U2,1,RS*%
%TO.N,unconnected-(U2-Pad1)*%
X153390000Y-144000000D03*
%TO.P,U2,2,GD*%
%TO.N,Net-(Q1-Pad2)*%
X150850000Y-144000000D03*
%TO.P,U2,3,MT*%
%TO.N,unconnected-(U2-Pad3)*%
X148310000Y-144000000D03*
%TO.P,U2,4,SS*%
%TO.N,Net-(U1-Pad14)*%
X145770000Y-144000000D03*
%TO.P,U2,5,SC*%
%TO.N,Net-(U1-Pad13)*%
X143230000Y-144000000D03*
%TO.P,U2,6,MO*%
%TO.N,Net-(U1-Pad11)*%
X140690000Y-144000000D03*
%TO.P,U2,7,MI*%
%TO.N,Net-(U1-Pad12)*%
X138150000Y-144000000D03*
%TO.P,U2,8,VI*%
%TO.N,Net-(J1-Pad1)*%
X135610000Y-144000000D03*
%TD*%
%TO.P,U3,1,RS*%
%TO.N,unconnected-(U3-Pad1)*%
X135610000Y-147400000D03*
%TO.P,U3,2,GD*%
%TO.N,Net-(Q1-Pad2)*%
X138150000Y-147400000D03*
%TO.P,U3,3,MT*%
%TO.N,unconnected-(U3-Pad3)*%
X140690000Y-147400000D03*
%TO.P,U3,4,SS*%
%TO.N,Net-(U1-Pad7)*%
X143230000Y-147400000D03*
%TO.P,U3,5,SC*%
%TO.N,Net-(U1-Pad13)*%
X145770000Y-147400000D03*
%TO.P,U3,6,MO*%
%TO.N,Net-(U1-Pad11)*%
X148310000Y-147400000D03*
%TO.P,U3,7,MI*%
%TO.N,Net-(U1-Pad12)*%
X150850000Y-147400000D03*
%TO.P,U3,8,VI*%
%TO.N,Net-(J1-Pad1)*%
X153390000Y-147400000D03*
%TD*%
D15*
%TO.N,Net-(U1-Pad12)*%
X141950000Y-142400000D03*
X156000000Y-142400000D03*
%TO.N,Net-(U1-Pad7)*%
X133000000Y-140800000D03*
%TO.N,Net-(J3-Pad1)*%
X157800000Y-135600000D03*
X148300000Y-135600000D03*
%TD*%
D16*
%TO.N,Net-(J2-Pad1)*%
X125696300Y-146753696D02*
G75*
G02*
X126900000Y-145550000I1203700J-4D01*
G01*
X125696304Y-146753696D02*
X125696304Y-148950000D01*
%TO.N,Net-(Q1-Pad1)*%
X131332000Y-135518000D02*
G75*
G02*
X135050000Y-131800000I3718000J0D01*
G01*
X131332000Y-135518000D02*
X131332000Y-137000000D01*
%TO.N,Net-(U1-Pad11)*%
X148300000Y-145750000D02*
G75*
G03*
X148050000Y-145500000I-250000J0D01*
G01*
X140950000Y-145500000D02*
X148050000Y-145500000D01*
X140690000Y-144000000D02*
X140690000Y-145240000D01*
X140950000Y-145500000D02*
G75*
G02*
X140690000Y-145240000I0J260000D01*
G01*
X148300000Y-145750000D02*
X148300000Y-147390000D01*
X148310000Y-147400000D02*
G75*
G02*
X148300000Y-147390000I0J10000D01*
G01*
%TO.N,Net-(J3-Pad1)*%
X148030000Y-124180000D02*
G75*
G02*
X148300000Y-124450000I0J-270000D01*
G01*
X148300000Y-135600000D02*
X148300000Y-124450000D01*
X148030000Y-124180000D02*
X135050000Y-124180000D01*
X158100000Y-148950000D02*
G75*
G02*
X157800000Y-148650000I0J300000D01*
G01*
X157800000Y-135600000D02*
X157800000Y-148650000D01*
X158100000Y-148950000D02*
X162450000Y-148950000D01*
%TO.N,Net-(J1-Pad1)*%
X133550000Y-148950000D02*
X153100000Y-148950000D01*
X133600000Y-144350000D02*
G75*
G02*
X133950000Y-144000000I350000J0D01*
G01*
X135610000Y-144000000D02*
X133950000Y-144000000D01*
X133550000Y-148950000D02*
G75*
G03*
X133600000Y-148900000I0J50000D01*
G01*
X129400000Y-148950000D02*
X133550000Y-148950000D01*
X133600000Y-144350000D02*
X133600000Y-148900000D01*
X153400000Y-148650000D02*
G75*
G02*
X153100000Y-148950000I-300000J0D01*
G01*
X153400000Y-148650000D02*
X153400000Y-147410000D01*
X153390000Y-147400000D02*
G75*
G02*
X153400000Y-147410000I0J-10000D01*
G01*
X150100000Y-129500000D02*
G75*
G02*
X150340000Y-129260000I240000J0D01*
G01*
X149850000Y-140600000D02*
G75*
G03*
X150100000Y-140350000I0J250000D01*
G01*
X149850000Y-140600000D02*
X139650000Y-140600000D01*
X135600000Y-142200000D02*
G75*
G02*
X135850000Y-141950000I250000J0D01*
G01*
X139400000Y-140850000D02*
G75*
G02*
X139650000Y-140600000I250000J0D01*
G01*
X139100000Y-141950000D02*
X135850000Y-141950000D01*
X139100000Y-141950000D02*
G75*
G03*
X139400000Y-141650000I0J300000D01*
G01*
X135610000Y-144000000D02*
G75*
G02*
X135600000Y-143990000I0J10000D01*
G01*
X153950000Y-129260000D02*
X150340000Y-129260000D01*
X150100000Y-129500000D02*
X150100000Y-140350000D01*
X139400000Y-140850000D02*
X139400000Y-141650000D01*
X135600000Y-142200000D02*
X135600000Y-143990000D01*
%TO.N,Net-(U1-Pad14)*%
X151900000Y-139650000D02*
X151900000Y-142150000D01*
%TO.N,Net-(U1-Pad13)*%
X151450000Y-137150000D02*
X151450000Y-141700000D01*
%TO.N,Net-(U1-Pad12)*%
X151000000Y-134600000D02*
X151000000Y-141250000D01*
%TO.N,Net-(U1-Pad11)*%
X150550000Y-132050000D02*
X150550000Y-140800000D01*
%TO.N,Net-(Q1-Pad1)*%
X131331987Y-136999987D02*
G75*
G03*
X131350000Y-136956545I-43487J43487D01*
G01*
%TO.N,Net-(U1-Pad12)*%
X156000000Y-134650000D02*
X156000000Y-142400000D01*
%TO.N,Net-(J2-Pad1)*%
X130316000Y-139032000D02*
X130316000Y-142134000D01*
X126900000Y-145550000D02*
G75*
G03*
X130316000Y-142134000I0J3416000D01*
G01*
X125696304Y-148650000D02*
G75*
G03*
X125700000Y-148646304I-4J3700D01*
G01*
%TO.N,Net-(Q1-Pad1)*%
X131332000Y-137000000D02*
G75*
G03*
X131350000Y-136982000I0J18000D01*
G01*
%TO.N,Net-(U1-Pad11)*%
X150300000Y-141050000D02*
X140950000Y-141050000D01*
X140700000Y-141300000D02*
X140700000Y-143990000D01*
X153950000Y-131800000D02*
X150800000Y-131800000D01*
X150300000Y-141050000D02*
G75*
G03*
X150550000Y-140800000I0J250000D01*
G01*
X140690000Y-144000000D02*
G75*
G03*
X140700000Y-143990000I0J10000D01*
G01*
X140700000Y-141300000D02*
G75*
G02*
X140950000Y-141050000I250000J0D01*
G01*
X150550000Y-132050000D02*
G75*
G02*
X150800000Y-131800000I250000J0D01*
G01*
%TO.N,Net-(U1-Pad12)*%
X153950000Y-134340000D02*
X155690000Y-134340000D01*
X153950000Y-134340000D02*
X151260000Y-134340000D01*
X150750000Y-141500000D02*
X142200000Y-141500000D01*
X141950000Y-141750000D02*
X141950000Y-142400000D01*
X150750000Y-141500000D02*
G75*
G03*
X151000000Y-141250000I0J250000D01*
G01*
X151000000Y-134600000D02*
G75*
G02*
X151260000Y-134340000I260000J0D01*
G01*
X141950000Y-141750000D02*
G75*
G02*
X142200000Y-141500000I250000J0D01*
G01*
X156000000Y-134650000D02*
G75*
G03*
X155690000Y-134340000I-310000J0D01*
G01*
%TO.N,Net-(U1-Pad13)*%
X143250000Y-142200000D02*
X143250000Y-143980000D01*
X151200000Y-141950000D02*
X143500000Y-141950000D01*
X153950000Y-136880000D02*
X151720000Y-136880000D01*
X143250000Y-142200000D02*
G75*
G02*
X143500000Y-141950000I250000J0D01*
G01*
X151450000Y-137150000D02*
G75*
G02*
X151720000Y-136880000I270000J0D01*
G01*
X143230000Y-144000000D02*
G75*
G03*
X143250000Y-143980000I0J20000D01*
G01*
X151200000Y-141950000D02*
G75*
G03*
X151450000Y-141700000I0J250000D01*
G01*
%TO.N,Net-(U1-Pad14)*%
X151650000Y-142400000D02*
X146050000Y-142400000D01*
X145800000Y-142650000D02*
X145800000Y-143970000D01*
X153950000Y-139420000D02*
X152130000Y-139420000D01*
X145800000Y-142650000D02*
G75*
G02*
X146050000Y-142400000I250000J0D01*
G01*
X151650000Y-142400000D02*
G75*
G03*
X151900000Y-142150000I0J250000D01*
G01*
X151900000Y-139650000D02*
G75*
G02*
X152130000Y-139420000I230000J0D01*
G01*
X145770000Y-144000000D02*
G75*
G03*
X145800000Y-143970000I0J30000D01*
G01*
%TO.N,Net-(U1-Pad7)*%
X135050000Y-139420000D02*
X133280000Y-139420000D01*
X133000000Y-139700000D02*
X133000000Y-140800000D01*
X133000000Y-139700000D02*
G75*
G02*
X133280000Y-139420000I280000J0D01*
G01*
%TD*%
%TA.AperFunction,Conductor*%
%TO.N,Net-(Q1-Pad2)*%
G36*
X154970018Y-122460000D02*
G01*
X154984852Y-122462310D01*
X154984855Y-122462310D01*
X154993724Y-122463691D01*
X155002626Y-122462527D01*
X155002750Y-122462511D01*
X155033192Y-122462240D01*
X155046070Y-122463691D01*
X155095264Y-122469234D01*
X155122771Y-122475513D01*
X155199853Y-122502485D01*
X155225274Y-122514727D01*
X155294426Y-122558178D01*
X155316485Y-122575770D01*
X155374230Y-122633515D01*
X155391822Y-122655574D01*
X155435273Y-122724726D01*
X155447515Y-122750146D01*
X155448823Y-122753884D01*
X155452443Y-122824789D01*
X155417154Y-122886394D01*
X155354161Y-122919141D01*
X155329894Y-122921500D01*
X152401866Y-122921500D01*
X152339684Y-122928255D01*
X152203295Y-122979385D01*
X152086739Y-123066739D01*
X151999385Y-123183295D01*
X151948255Y-123319684D01*
X151941500Y-123381866D01*
X151941500Y-124978134D01*
X151948255Y-125040316D01*
X151999385Y-125176705D01*
X152086739Y-125293261D01*
X152161344Y-125349174D01*
X152161760Y-125349486D01*
X152204275Y-125406345D01*
X152209301Y-125477164D01*
X152175241Y-125539457D01*
X152161760Y-125551138D01*
X152094277Y-125601714D01*
X152081715Y-125614276D01*
X152005214Y-125716351D01*
X151996676Y-125731946D01*
X151951522Y-125852394D01*
X151947895Y-125867649D01*
X151942369Y-125918514D01*
X151942000Y-125925328D01*
X151942000Y-126447885D01*
X151946475Y-126463124D01*
X151947865Y-126464329D01*
X151955548Y-126466000D01*
X154078000Y-126466000D01*
X154146121Y-126486002D01*
X154192614Y-126539658D01*
X154204000Y-126592000D01*
X154204000Y-126848000D01*
X154183998Y-126916121D01*
X154130342Y-126962614D01*
X154078000Y-126974000D01*
X151960116Y-126974000D01*
X151944877Y-126978475D01*
X151943672Y-126979865D01*
X151942001Y-126987548D01*
X151942001Y-127514669D01*
X151942371Y-127521490D01*
X151947895Y-127572352D01*
X151951521Y-127587604D01*
X151996676Y-127708054D01*
X152005214Y-127723649D01*
X152081715Y-127825724D01*
X152094277Y-127838286D01*
X152161760Y-127888862D01*
X152204275Y-127945722D01*
X152209300Y-128016540D01*
X152175241Y-128078833D01*
X152161762Y-128090513D01*
X152086739Y-128146739D01*
X151999385Y-128263295D01*
X151948255Y-128399684D01*
X151941500Y-128461866D01*
X151941500Y-128500500D01*
X151921498Y-128568621D01*
X151867842Y-128615114D01*
X151815500Y-128626500D01*
X150393995Y-128626500D01*
X150376241Y-128625243D01*
X150353364Y-128621987D01*
X150346385Y-128621914D01*
X150344120Y-128621890D01*
X150344118Y-128621890D01*
X150340000Y-128621847D01*
X150322397Y-128623977D01*
X150319681Y-128624275D01*
X150168764Y-128639139D01*
X150004109Y-128689087D01*
X149998654Y-128692003D01*
X149998651Y-128692004D01*
X149921223Y-128733391D01*
X149852362Y-128770198D01*
X149719354Y-128879354D01*
X149610198Y-129012362D01*
X149529087Y-129164109D01*
X149479139Y-129328764D01*
X149478532Y-129334931D01*
X149473379Y-129387247D01*
X149470027Y-129406231D01*
X149466500Y-129419970D01*
X149466500Y-129449982D01*
X149465422Y-129466428D01*
X149461882Y-129493317D01*
X149462437Y-129498345D01*
X149462274Y-129500000D01*
X149462620Y-129500000D01*
X149463637Y-129509208D01*
X149465739Y-129528252D01*
X149466500Y-129542078D01*
X149466500Y-139840500D01*
X149446498Y-139908621D01*
X149392842Y-139955114D01*
X149340500Y-139966500D01*
X139703995Y-139966500D01*
X139686241Y-139965243D01*
X139663364Y-139961987D01*
X139657211Y-139961923D01*
X139654134Y-139961890D01*
X139654129Y-139961890D01*
X139650000Y-139961847D01*
X139634589Y-139963712D01*
X139631829Y-139964015D01*
X139476804Y-139979283D01*
X139310263Y-140029803D01*
X139304808Y-140032719D01*
X139304805Y-140032720D01*
X139299449Y-140035583D01*
X139156779Y-140111842D01*
X139022248Y-140222248D01*
X138911842Y-140356779D01*
X138829803Y-140510263D01*
X138779283Y-140676804D01*
X138778676Y-140682965D01*
X138778675Y-140682971D01*
X138773299Y-140737558D01*
X138769947Y-140756543D01*
X138768501Y-140762177D01*
X138766500Y-140769970D01*
X138766500Y-140799981D01*
X138765422Y-140816425D01*
X138761882Y-140843317D01*
X138762411Y-140848110D01*
X138762225Y-140850000D01*
X138762620Y-140850000D01*
X138763614Y-140859002D01*
X138765739Y-140878252D01*
X138766500Y-140892078D01*
X138766500Y-141190500D01*
X138746498Y-141258621D01*
X138692842Y-141305114D01*
X138640500Y-141316500D01*
X135903995Y-141316500D01*
X135886241Y-141315243D01*
X135863364Y-141311987D01*
X135857211Y-141311923D01*
X135854134Y-141311890D01*
X135854129Y-141311890D01*
X135850000Y-141311847D01*
X135834589Y-141313712D01*
X135831829Y-141314015D01*
X135676804Y-141329283D01*
X135510263Y-141379803D01*
X135504808Y-141382719D01*
X135504805Y-141382720D01*
X135426078Y-141424801D01*
X135356779Y-141461842D01*
X135222248Y-141572248D01*
X135111842Y-141706779D01*
X135029803Y-141860263D01*
X134979283Y-142026804D01*
X134978676Y-142032965D01*
X134978675Y-142032971D01*
X134973299Y-142087558D01*
X134969947Y-142106543D01*
X134968662Y-142111550D01*
X134966500Y-142119970D01*
X134966500Y-142149981D01*
X134965422Y-142166425D01*
X134961882Y-142193317D01*
X134962411Y-142198110D01*
X134962225Y-142200000D01*
X134962620Y-142200000D01*
X134963614Y-142209002D01*
X134965739Y-142228252D01*
X134966500Y-142242078D01*
X134966500Y-142554562D01*
X134946498Y-142622683D01*
X134906335Y-142661994D01*
X134724807Y-142773235D01*
X134724799Y-142773241D01*
X134720584Y-142775824D01*
X134540031Y-142930031D01*
X134385824Y-143110584D01*
X134383245Y-143114792D01*
X134383241Y-143114798D01*
X134265867Y-143306335D01*
X134213219Y-143353966D01*
X134158434Y-143366500D01*
X134003995Y-143366500D01*
X133986241Y-143365243D01*
X133983360Y-143364833D01*
X133963364Y-143361987D01*
X133956809Y-143361918D01*
X133954126Y-143361890D01*
X133954123Y-143361890D01*
X133950000Y-143361847D01*
X133945914Y-143362341D01*
X133945903Y-143362342D01*
X133925317Y-143364833D01*
X133921166Y-143365265D01*
X133808717Y-143375104D01*
X133778565Y-143377742D01*
X133677153Y-143404915D01*
X133617648Y-143420859D01*
X133617646Y-143420860D01*
X133612338Y-143422282D01*
X133607357Y-143424605D01*
X133607356Y-143424605D01*
X133461353Y-143492687D01*
X133461350Y-143492689D01*
X133456372Y-143495010D01*
X133315403Y-143593717D01*
X133193717Y-143715403D01*
X133095010Y-143856372D01*
X133092689Y-143861350D01*
X133092687Y-143861353D01*
X133054380Y-143943503D01*
X133022282Y-144012338D01*
X132977742Y-144178565D01*
X132977262Y-144184053D01*
X132972325Y-144240477D01*
X132968847Y-144260827D01*
X132968472Y-144262286D01*
X132968471Y-144262292D01*
X132966500Y-144269970D01*
X132966500Y-144299982D01*
X132965422Y-144316429D01*
X132962873Y-144335786D01*
X132962873Y-144335791D01*
X132961882Y-144343317D01*
X132964225Y-144364539D01*
X132965739Y-144378253D01*
X132966500Y-144392080D01*
X132966500Y-148190500D01*
X132946498Y-148258621D01*
X132892842Y-148305114D01*
X132840500Y-148316500D01*
X130534500Y-148316500D01*
X130466379Y-148296498D01*
X130419886Y-148242842D01*
X130408500Y-148190500D01*
X130408500Y-148149600D01*
X130402001Y-148086963D01*
X130398238Y-148050692D01*
X130398237Y-148050688D01*
X130397526Y-148043834D01*
X130341550Y-147876054D01*
X130248478Y-147725652D01*
X130123303Y-147600695D01*
X130117072Y-147596854D01*
X129978968Y-147511725D01*
X129978966Y-147511724D01*
X129972738Y-147507885D01*
X129812254Y-147454655D01*
X129811389Y-147454368D01*
X129811387Y-147454368D01*
X129804861Y-147452203D01*
X129798025Y-147451503D01*
X129798022Y-147451502D01*
X129754969Y-147447091D01*
X129700400Y-147441500D01*
X129099600Y-147441500D01*
X129096354Y-147441837D01*
X129096350Y-147441837D01*
X129000692Y-147451762D01*
X129000688Y-147451763D01*
X128993834Y-147452474D01*
X128987298Y-147454655D01*
X128987296Y-147454655D01*
X128855194Y-147498728D01*
X128826054Y-147508450D01*
X128675652Y-147601522D01*
X128550695Y-147726697D01*
X128546855Y-147732927D01*
X128546854Y-147732928D01*
X128466811Y-147862782D01*
X128457885Y-147877262D01*
X128402203Y-148045139D01*
X128391500Y-148149600D01*
X128391500Y-149750400D01*
X128402474Y-149856166D01*
X128458450Y-150023946D01*
X128551522Y-150174348D01*
X128676697Y-150299305D01*
X128682927Y-150303145D01*
X128682928Y-150303146D01*
X128820090Y-150387694D01*
X128827262Y-150392115D01*
X128899581Y-150416102D01*
X128988611Y-150445632D01*
X128988613Y-150445632D01*
X128995139Y-150447797D01*
X129001975Y-150448497D01*
X129001978Y-150448498D01*
X129045031Y-150452909D01*
X129099600Y-150458500D01*
X129700400Y-150458500D01*
X129703646Y-150458163D01*
X129703650Y-150458163D01*
X129799308Y-150448238D01*
X129799312Y-150448237D01*
X129806166Y-150447526D01*
X129812702Y-150445345D01*
X129812704Y-150445345D01*
X129944806Y-150401272D01*
X129973946Y-150391550D01*
X130124348Y-150298478D01*
X130249305Y-150173303D01*
X130342115Y-150022738D01*
X130397797Y-149854861D01*
X130408500Y-149750400D01*
X130408500Y-149709500D01*
X130428502Y-149641379D01*
X130482158Y-149594886D01*
X130534500Y-149583500D01*
X133496005Y-149583500D01*
X133513759Y-149584757D01*
X133536636Y-149588013D01*
X133542789Y-149588077D01*
X133545866Y-149588110D01*
X133545871Y-149588110D01*
X133550000Y-149588153D01*
X133580903Y-149584413D01*
X133596042Y-149583500D01*
X153046005Y-149583500D01*
X153063759Y-149584757D01*
X153086636Y-149588013D01*
X153093191Y-149588082D01*
X153095874Y-149588110D01*
X153095877Y-149588110D01*
X153100000Y-149588153D01*
X153104089Y-149587658D01*
X153104093Y-149587658D01*
X153130373Y-149584478D01*
X153134526Y-149584046D01*
X153177248Y-149580308D01*
X153262720Y-149572830D01*
X153360566Y-149546612D01*
X153415185Y-149531977D01*
X153415187Y-149531976D01*
X153420495Y-149530554D01*
X153425477Y-149528231D01*
X153563546Y-149463849D01*
X153563551Y-149463846D01*
X153568533Y-149461523D01*
X153702334Y-149367834D01*
X153817834Y-149252334D01*
X153911523Y-149118533D01*
X153913846Y-149113551D01*
X153913849Y-149113546D01*
X153978231Y-148975477D01*
X153978231Y-148975476D01*
X153980554Y-148970495D01*
X154019896Y-148823670D01*
X154056848Y-148763048D01*
X154077355Y-148748880D01*
X154076963Y-148748240D01*
X154275202Y-148626759D01*
X154275208Y-148626755D01*
X154279416Y-148624176D01*
X154435382Y-148490968D01*
X154456213Y-148473177D01*
X154459969Y-148469969D01*
X154614176Y-148289416D01*
X154616755Y-148285208D01*
X154616759Y-148285202D01*
X154735654Y-148091183D01*
X154738240Y-148086963D01*
X154752732Y-148051978D01*
X154827211Y-147872167D01*
X154827212Y-147872165D01*
X154829105Y-147867594D01*
X154848360Y-147787391D01*
X154883380Y-147641524D01*
X154883381Y-147641518D01*
X154884535Y-147636711D01*
X154903165Y-147400000D01*
X154884535Y-147163289D01*
X154829105Y-146932406D01*
X154780518Y-146815105D01*
X154740135Y-146717611D01*
X154740133Y-146717607D01*
X154738240Y-146713037D01*
X154735654Y-146708817D01*
X154616759Y-146514798D01*
X154616755Y-146514792D01*
X154614176Y-146510584D01*
X154459969Y-146330031D01*
X154279416Y-146175824D01*
X154275208Y-146173245D01*
X154275202Y-146173241D01*
X154081183Y-146054346D01*
X154076963Y-146051760D01*
X154072393Y-146049867D01*
X154072389Y-146049865D01*
X153862167Y-145962789D01*
X153862165Y-145962788D01*
X153857594Y-145960895D01*
X153777391Y-145941640D01*
X153631524Y-145906620D01*
X153631518Y-145906619D01*
X153626711Y-145905465D01*
X153390000Y-145886835D01*
X153153289Y-145905465D01*
X153148482Y-145906619D01*
X153148476Y-145906620D01*
X153002609Y-145941640D01*
X152922406Y-145960895D01*
X152917835Y-145962788D01*
X152917833Y-145962789D01*
X152707611Y-146049865D01*
X152707607Y-146049867D01*
X152703037Y-146051760D01*
X152698817Y-146054346D01*
X152504798Y-146173241D01*
X152504792Y-146173245D01*
X152500584Y-146175824D01*
X152320031Y-146330031D01*
X152316823Y-146333787D01*
X152316818Y-146333792D01*
X152215811Y-146452056D01*
X152156361Y-146490866D01*
X152085366Y-146491372D01*
X152024189Y-146452056D01*
X151923182Y-146333792D01*
X151923177Y-146333787D01*
X151919969Y-146330031D01*
X151739416Y-146175824D01*
X151735208Y-146173245D01*
X151735202Y-146173241D01*
X151541183Y-146054346D01*
X151536963Y-146051760D01*
X151532393Y-146049867D01*
X151532389Y-146049865D01*
X151322167Y-145962789D01*
X151322165Y-145962788D01*
X151317594Y-145960895D01*
X151237391Y-145941640D01*
X151091524Y-145906620D01*
X151091518Y-145906619D01*
X151086711Y-145905465D01*
X150850000Y-145886835D01*
X150613289Y-145905465D01*
X150608482Y-145906619D01*
X150608476Y-145906620D01*
X150462609Y-145941640D01*
X150382406Y-145960895D01*
X150377835Y-145962788D01*
X150377833Y-145962789D01*
X150167611Y-146049865D01*
X150167607Y-146049867D01*
X150163037Y-146051760D01*
X150158817Y-146054346D01*
X149964798Y-146173241D01*
X149964792Y-146173245D01*
X149960584Y-146175824D01*
X149780031Y-146330031D01*
X149776823Y-146333787D01*
X149776818Y-146333792D01*
X149675811Y-146452056D01*
X149616361Y-146490866D01*
X149545366Y-146491372D01*
X149484189Y-146452056D01*
X149383182Y-146333792D01*
X149383177Y-146333787D01*
X149379969Y-146330031D01*
X149199416Y-146175824D01*
X149195208Y-146173245D01*
X149195202Y-146173241D01*
X148996963Y-146051760D01*
X148997696Y-146050565D01*
X148950688Y-146006177D01*
X148933500Y-145942647D01*
X148933500Y-145803995D01*
X148934757Y-145786241D01*
X148937432Y-145767445D01*
X148938013Y-145763364D01*
X148938153Y-145750000D01*
X148936288Y-145734589D01*
X148935984Y-145731819D01*
X148926240Y-145632881D01*
X148920717Y-145576804D01*
X148900783Y-145511091D01*
X148900150Y-145440099D01*
X148937999Y-145380033D01*
X148973139Y-145358109D01*
X148992382Y-145350138D01*
X148992387Y-145350135D01*
X148996963Y-145348240D01*
X149082625Y-145295746D01*
X149185556Y-145232670D01*
X149982160Y-145232670D01*
X149987887Y-145240320D01*
X150159042Y-145345205D01*
X150167837Y-145349687D01*
X150377988Y-145436734D01*
X150387373Y-145439783D01*
X150608554Y-145492885D01*
X150618301Y-145494428D01*
X150845070Y-145512275D01*
X150854930Y-145512275D01*
X151081699Y-145494428D01*
X151091446Y-145492885D01*
X151312627Y-145439783D01*
X151322012Y-145436734D01*
X151532163Y-145349687D01*
X151540958Y-145345205D01*
X151708445Y-145242568D01*
X151717907Y-145232110D01*
X151714124Y-145223334D01*
X150862812Y-144372022D01*
X150848868Y-144364408D01*
X150847035Y-144364539D01*
X150840420Y-144368790D01*
X149988920Y-145220290D01*
X149982160Y-145232670D01*
X149185556Y-145232670D01*
X149195202Y-145226759D01*
X149195208Y-145226755D01*
X149199416Y-145224176D01*
X149379969Y-145069969D01*
X149383177Y-145066213D01*
X149383182Y-145066208D01*
X149513706Y-144913384D01*
X149573156Y-144874574D01*
X149607558Y-144872360D01*
X149626667Y-144864123D01*
X150760905Y-143729885D01*
X150823217Y-143695859D01*
X150894032Y-143700924D01*
X150939095Y-143729885D01*
X152070290Y-144861080D01*
X152087102Y-144870260D01*
X152150350Y-144884020D01*
X152185775Y-144912776D01*
X152305287Y-145052706D01*
X152320031Y-145069969D01*
X152500584Y-145224176D01*
X152504792Y-145226755D01*
X152504798Y-145226759D01*
X152617375Y-145295746D01*
X152703037Y-145348240D01*
X152707607Y-145350133D01*
X152707611Y-145350135D01*
X152917833Y-145437211D01*
X152922406Y-145439105D01*
X152975343Y-145451814D01*
X153148476Y-145493380D01*
X153148482Y-145493381D01*
X153153289Y-145494535D01*
X153390000Y-145513165D01*
X153626711Y-145494535D01*
X153631518Y-145493381D01*
X153631524Y-145493380D01*
X153804657Y-145451814D01*
X153857594Y-145439105D01*
X153862167Y-145437211D01*
X154072389Y-145350135D01*
X154072393Y-145350133D01*
X154076963Y-145348240D01*
X154162625Y-145295746D01*
X154275202Y-145226759D01*
X154275208Y-145226755D01*
X154279416Y-145224176D01*
X154459969Y-145069969D01*
X154614176Y-144889416D01*
X154616755Y-144885208D01*
X154616759Y-144885202D01*
X154735654Y-144691183D01*
X154738240Y-144686963D01*
X154796055Y-144547386D01*
X154827211Y-144472167D01*
X154827212Y-144472165D01*
X154829105Y-144467594D01*
X154860749Y-144335786D01*
X154883380Y-144241524D01*
X154883381Y-144241518D01*
X154884535Y-144236711D01*
X154903165Y-144000000D01*
X154884535Y-143763289D01*
X154876516Y-143729885D01*
X154844951Y-143598411D01*
X154829105Y-143532406D01*
X154827211Y-143527833D01*
X154740135Y-143317611D01*
X154740133Y-143317607D01*
X154738240Y-143313037D01*
X154726516Y-143293905D01*
X154616759Y-143114798D01*
X154616755Y-143114792D01*
X154614176Y-143110584D01*
X154459969Y-142930031D01*
X154279416Y-142775824D01*
X154275208Y-142773245D01*
X154275202Y-142773241D01*
X154081183Y-142654346D01*
X154076963Y-142651760D01*
X154072393Y-142649867D01*
X154072389Y-142649865D01*
X153862167Y-142562789D01*
X153862165Y-142562788D01*
X153857594Y-142560895D01*
X153737142Y-142531977D01*
X153631524Y-142506620D01*
X153631518Y-142506619D01*
X153626711Y-142505465D01*
X153390000Y-142486835D01*
X153153289Y-142505465D01*
X153148482Y-142506619D01*
X153148476Y-142506620D01*
X153042858Y-142531977D01*
X152922406Y-142560895D01*
X152917835Y-142562788D01*
X152917833Y-142562789D01*
X152707611Y-142649865D01*
X152707607Y-142649867D01*
X152703037Y-142651760D01*
X152698817Y-142654346D01*
X152623753Y-142700345D01*
X152555219Y-142718883D01*
X152487542Y-142697426D01*
X152442209Y-142642787D01*
X152433613Y-142572313D01*
X152446797Y-142533515D01*
X152449622Y-142528231D01*
X152470197Y-142489737D01*
X152520717Y-142323196D01*
X152521324Y-142317035D01*
X152521325Y-142317029D01*
X152526701Y-142262442D01*
X152530053Y-142243457D01*
X152531528Y-142237713D01*
X152531528Y-142237709D01*
X152533500Y-142230030D01*
X152533500Y-142203995D01*
X152534757Y-142186242D01*
X152537432Y-142167447D01*
X152537432Y-142167446D01*
X152538013Y-142163364D01*
X152538153Y-142150000D01*
X152534413Y-142119093D01*
X152533500Y-142103958D01*
X152533500Y-140804500D01*
X152553502Y-140736379D01*
X152607158Y-140689886D01*
X152659500Y-140678500D01*
X155240500Y-140678500D01*
X155308621Y-140698502D01*
X155355114Y-140752158D01*
X155366500Y-140804500D01*
X155366500Y-141697476D01*
X155346498Y-141765597D01*
X155334142Y-141781779D01*
X155260960Y-141863056D01*
X155257659Y-141868774D01*
X155169844Y-142020874D01*
X155165473Y-142028444D01*
X155106458Y-142210072D01*
X155105768Y-142216633D01*
X155105768Y-142216635D01*
X155100954Y-142262442D01*
X155086496Y-142400000D01*
X155087186Y-142406565D01*
X155104607Y-142572313D01*
X155106458Y-142589928D01*
X155165473Y-142771556D01*
X155168776Y-142777278D01*
X155168777Y-142777279D01*
X155184961Y-142805311D01*
X155260960Y-142936944D01*
X155265378Y-142941851D01*
X155265379Y-142941852D01*
X155384325Y-143073955D01*
X155388747Y-143078866D01*
X155394696Y-143083188D01*
X155535326Y-143185362D01*
X155543248Y-143191118D01*
X155549276Y-143193802D01*
X155549278Y-143193803D01*
X155691590Y-143257164D01*
X155717712Y-143268794D01*
X155811113Y-143288647D01*
X155898056Y-143307128D01*
X155898061Y-143307128D01*
X155904513Y-143308500D01*
X156095487Y-143308500D01*
X156101939Y-143307128D01*
X156101944Y-143307128D01*
X156188887Y-143288647D01*
X156282288Y-143268794D01*
X156308410Y-143257164D01*
X156450722Y-143193803D01*
X156450724Y-143193802D01*
X156456752Y-143191118D01*
X156464675Y-143185362D01*
X156605304Y-143083188D01*
X156611253Y-143078866D01*
X156615675Y-143073955D01*
X156734621Y-142941852D01*
X156734622Y-142941851D01*
X156739040Y-142936944D01*
X156815039Y-142805311D01*
X156831223Y-142777279D01*
X156831224Y-142777278D01*
X156834527Y-142771556D01*
X156893542Y-142589928D01*
X156895394Y-142572313D01*
X156912814Y-142406565D01*
X156913504Y-142400000D01*
X156899046Y-142262442D01*
X156894232Y-142216635D01*
X156894232Y-142216633D01*
X156893542Y-142210072D01*
X156834527Y-142028444D01*
X156830157Y-142020874D01*
X156742341Y-141868774D01*
X156739040Y-141863056D01*
X156665863Y-141781785D01*
X156635147Y-141717779D01*
X156633500Y-141697476D01*
X156633500Y-135600000D01*
X156886496Y-135600000D01*
X156906458Y-135789928D01*
X156965473Y-135971556D01*
X157060960Y-136136944D01*
X157134137Y-136218215D01*
X157164853Y-136282221D01*
X157166500Y-136302524D01*
X157166500Y-148599982D01*
X157165422Y-148616428D01*
X157161882Y-148643317D01*
X157163976Y-148662278D01*
X157164257Y-148665116D01*
X157177170Y-148812720D01*
X157219446Y-148970495D01*
X157221769Y-148975476D01*
X157221769Y-148975477D01*
X157286151Y-149113546D01*
X157286154Y-149113551D01*
X157288477Y-149118533D01*
X157382166Y-149252334D01*
X157497666Y-149367834D01*
X157631467Y-149461523D01*
X157636449Y-149463846D01*
X157636454Y-149463849D01*
X157774523Y-149528231D01*
X157779505Y-149530554D01*
X157784813Y-149531976D01*
X157784815Y-149531977D01*
X157839434Y-149546612D01*
X157937280Y-149572830D01*
X157955706Y-149574442D01*
X157989351Y-149577386D01*
X158009699Y-149580863D01*
X158012291Y-149581529D01*
X158012295Y-149581530D01*
X158019970Y-149583500D01*
X158046005Y-149583500D01*
X158063755Y-149584757D01*
X158086636Y-149588013D01*
X158093679Y-149588087D01*
X158095880Y-149588110D01*
X158095882Y-149588110D01*
X158100000Y-149588153D01*
X158104090Y-149587658D01*
X158104091Y-149587658D01*
X158111747Y-149586731D01*
X158130907Y-149584413D01*
X158146042Y-149583500D01*
X161315500Y-149583500D01*
X161383621Y-149603502D01*
X161430114Y-149657158D01*
X161441500Y-149709500D01*
X161441500Y-149750400D01*
X161452474Y-149856166D01*
X161508450Y-150023946D01*
X161601522Y-150174348D01*
X161726697Y-150299305D01*
X161732927Y-150303145D01*
X161732928Y-150303146D01*
X161870090Y-150387694D01*
X161877262Y-150392115D01*
X161949581Y-150416102D01*
X162038611Y-150445632D01*
X162038613Y-150445632D01*
X162045139Y-150447797D01*
X162051975Y-150448497D01*
X162051978Y-150448498D01*
X162095031Y-150452909D01*
X162149600Y-150458500D01*
X162750400Y-150458500D01*
X162753646Y-150458163D01*
X162753650Y-150458163D01*
X162849308Y-150448238D01*
X162849312Y-150448237D01*
X162856166Y-150447526D01*
X162862702Y-150445345D01*
X162862704Y-150445345D01*
X162994806Y-150401272D01*
X163023946Y-150391550D01*
X163174348Y-150298478D01*
X163299305Y-150173303D01*
X163392115Y-150022738D01*
X163447797Y-149854861D01*
X163458500Y-149750400D01*
X163458500Y-148149600D01*
X163452001Y-148086963D01*
X163448238Y-148050692D01*
X163448237Y-148050688D01*
X163447526Y-148043834D01*
X163391550Y-147876054D01*
X163298478Y-147725652D01*
X163173303Y-147600695D01*
X163167072Y-147596854D01*
X163028968Y-147511725D01*
X163028966Y-147511724D01*
X163022738Y-147507885D01*
X162862254Y-147454655D01*
X162861389Y-147454368D01*
X162861387Y-147454368D01*
X162854861Y-147452203D01*
X162848025Y-147451503D01*
X162848022Y-147451502D01*
X162804969Y-147447091D01*
X162750400Y-147441500D01*
X162149600Y-147441500D01*
X162146354Y-147441837D01*
X162146350Y-147441837D01*
X162050692Y-147451762D01*
X162050688Y-147451763D01*
X162043834Y-147452474D01*
X162037298Y-147454655D01*
X162037296Y-147454655D01*
X161905194Y-147498728D01*
X161876054Y-147508450D01*
X161725652Y-147601522D01*
X161600695Y-147726697D01*
X161596855Y-147732927D01*
X161596854Y-147732928D01*
X161516811Y-147862782D01*
X161507885Y-147877262D01*
X161452203Y-148045139D01*
X161441500Y-148149600D01*
X161441500Y-148190500D01*
X161421498Y-148258621D01*
X161367842Y-148305114D01*
X161315500Y-148316500D01*
X158559500Y-148316500D01*
X158491379Y-148296498D01*
X158444886Y-148242842D01*
X158433500Y-148190500D01*
X158433500Y-144547386D01*
X160167759Y-144547386D01*
X160175216Y-144557753D01*
X160414935Y-144751874D01*
X160420272Y-144755751D01*
X160740685Y-144963830D01*
X160746394Y-144967127D01*
X161086811Y-145140578D01*
X161092836Y-145143260D01*
X161449502Y-145280171D01*
X161455784Y-145282212D01*
X161824816Y-145381094D01*
X161831266Y-145382465D01*
X162208629Y-145442234D01*
X162215167Y-145442920D01*
X162596699Y-145462916D01*
X162603301Y-145462916D01*
X162984833Y-145442920D01*
X162991371Y-145442234D01*
X163368734Y-145382465D01*
X163375184Y-145381094D01*
X163744216Y-145282212D01*
X163750498Y-145280171D01*
X164107164Y-145143260D01*
X164113189Y-145140578D01*
X164453606Y-144967127D01*
X164459315Y-144963830D01*
X164779728Y-144755751D01*
X164785065Y-144751874D01*
X165023835Y-144558522D01*
X165032300Y-144546267D01*
X165025966Y-144535176D01*
X162612812Y-142122022D01*
X162598868Y-142114408D01*
X162597035Y-142114539D01*
X162590420Y-142118790D01*
X160174900Y-144534310D01*
X160167759Y-144547386D01*
X158433500Y-144547386D01*
X158433500Y-141753301D01*
X158887084Y-141753301D01*
X158907080Y-142134833D01*
X158907766Y-142141371D01*
X158967535Y-142518734D01*
X158968906Y-142525184D01*
X159067788Y-142894216D01*
X159069829Y-142900498D01*
X159206740Y-143257164D01*
X159209422Y-143263189D01*
X159382872Y-143603603D01*
X159386169Y-143609313D01*
X159594253Y-143929735D01*
X159598123Y-143935061D01*
X159791478Y-144173835D01*
X159803733Y-144182300D01*
X159814824Y-144175966D01*
X162227978Y-141762812D01*
X162235592Y-141748868D01*
X162235461Y-141747035D01*
X162231210Y-141740420D01*
X159815690Y-139324900D01*
X159802614Y-139317759D01*
X159792247Y-139325216D01*
X159598123Y-139564939D01*
X159594253Y-139570265D01*
X159386169Y-139890687D01*
X159382872Y-139896397D01*
X159209422Y-140236811D01*
X159206740Y-140242836D01*
X159069829Y-140599502D01*
X159067788Y-140605784D01*
X158968906Y-140974816D01*
X158967535Y-140981266D01*
X158907766Y-141358629D01*
X158907080Y-141365167D01*
X158887084Y-141746699D01*
X158887084Y-141753301D01*
X158433500Y-141753301D01*
X158433500Y-136302524D01*
X158453502Y-136234403D01*
X158465858Y-136218221D01*
X158539040Y-136136944D01*
X158634527Y-135971556D01*
X158693542Y-135789928D01*
X158713504Y-135600000D01*
X158707855Y-135546252D01*
X158694232Y-135416635D01*
X158694232Y-135416633D01*
X158693542Y-135410072D01*
X158634527Y-135228444D01*
X158539040Y-135063056D01*
X158524726Y-135047158D01*
X158415675Y-134926045D01*
X158415674Y-134926044D01*
X158411253Y-134921134D01*
X158256752Y-134808882D01*
X158250724Y-134806198D01*
X158250722Y-134806197D01*
X158088319Y-134733891D01*
X158088318Y-134733891D01*
X158082288Y-134731206D01*
X157988888Y-134711353D01*
X157901944Y-134692872D01*
X157901939Y-134692872D01*
X157895487Y-134691500D01*
X157704513Y-134691500D01*
X157698061Y-134692872D01*
X157698056Y-134692872D01*
X157611112Y-134711353D01*
X157517712Y-134731206D01*
X157511682Y-134733891D01*
X157511681Y-134733891D01*
X157349278Y-134806197D01*
X157349276Y-134806198D01*
X157343248Y-134808882D01*
X157188747Y-134921134D01*
X157184326Y-134926044D01*
X157184325Y-134926045D01*
X157075275Y-135047158D01*
X157060960Y-135063056D01*
X156965473Y-135228444D01*
X156906458Y-135410072D01*
X156905768Y-135416633D01*
X156905768Y-135416635D01*
X156892145Y-135546252D01*
X156886496Y-135600000D01*
X156633500Y-135600000D01*
X156633500Y-134703995D01*
X156634757Y-134686241D01*
X156637432Y-134667445D01*
X156638013Y-134663364D01*
X156638153Y-134650000D01*
X156634620Y-134620805D01*
X156634186Y-134616649D01*
X156623194Y-134491017D01*
X156622715Y-134485537D01*
X156579987Y-134326071D01*
X156510216Y-134176448D01*
X156415524Y-134041213D01*
X156298787Y-133924476D01*
X156163552Y-133829784D01*
X156158574Y-133827463D01*
X156158571Y-133827461D01*
X156031250Y-133768090D01*
X155977965Y-133721172D01*
X155958500Y-133653895D01*
X155958500Y-133541866D01*
X155951745Y-133479684D01*
X155900615Y-133343295D01*
X155813261Y-133226739D01*
X155738657Y-133170826D01*
X155696142Y-133113966D01*
X155691116Y-133043148D01*
X155725176Y-132980855D01*
X155738657Y-132969174D01*
X155806080Y-132918643D01*
X155806081Y-132918642D01*
X155813261Y-132913261D01*
X155900615Y-132796705D01*
X155951745Y-132660316D01*
X155958500Y-132598134D01*
X155958500Y-131577869D01*
X155978502Y-131509748D01*
X156032158Y-131463255D01*
X156102432Y-131453151D01*
X156154383Y-131473025D01*
X156227003Y-131521430D01*
X156236241Y-131528215D01*
X156243325Y-131533932D01*
X156243328Y-131533934D01*
X156247110Y-131536986D01*
X156252309Y-131539994D01*
X156252525Y-131540164D01*
X156252781Y-131540267D01*
X156257975Y-131543272D01*
X156278713Y-131551317D01*
X156297030Y-131560189D01*
X156459417Y-131655742D01*
X157067030Y-132013281D01*
X157071227Y-132015862D01*
X157856495Y-132520278D01*
X157860578Y-132523016D01*
X157968037Y-132598134D01*
X158625498Y-133057732D01*
X158629481Y-133060633D01*
X159154636Y-133459193D01*
X159305568Y-133573741D01*
X159372934Y-133624868D01*
X159376794Y-133627918D01*
X159874550Y-134037318D01*
X160097607Y-134220781D01*
X160101342Y-134223977D01*
X160542411Y-134616649D01*
X160798441Y-134844586D01*
X160802056Y-134847934D01*
X161474330Y-135495299D01*
X161477812Y-135498786D01*
X161729966Y-135761357D01*
X162107134Y-136154107D01*
X162124261Y-136171942D01*
X162127594Y-136175551D01*
X162318982Y-136391118D01*
X162747244Y-136873484D01*
X162750443Y-136877232D01*
X163342331Y-137598862D01*
X163345380Y-137602732D01*
X163427991Y-137711890D01*
X163606235Y-137947415D01*
X163631393Y-138013802D01*
X163616665Y-138083254D01*
X163566727Y-138133719D01*
X163497433Y-138149173D01*
X163473152Y-138145156D01*
X163375184Y-138118906D01*
X163368734Y-138117535D01*
X162991371Y-138057766D01*
X162984833Y-138057080D01*
X162603301Y-138037084D01*
X162596699Y-138037084D01*
X162215167Y-138057080D01*
X162208629Y-138057766D01*
X161831266Y-138117535D01*
X161824816Y-138118906D01*
X161455784Y-138217788D01*
X161449502Y-138219829D01*
X161092836Y-138356740D01*
X161086811Y-138359422D01*
X160746397Y-138532872D01*
X160740687Y-138536169D01*
X160420265Y-138744253D01*
X160414939Y-138748123D01*
X160176165Y-138941478D01*
X160167700Y-138953733D01*
X160174034Y-138964824D01*
X165384310Y-144175100D01*
X165397386Y-144182241D01*
X165407753Y-144174784D01*
X165601877Y-143935061D01*
X165605747Y-143929735D01*
X165813831Y-143609313D01*
X165817128Y-143603603D01*
X165990578Y-143263189D01*
X165993260Y-143257164D01*
X166130171Y-142900498D01*
X166132212Y-142894216D01*
X166179362Y-142718251D01*
X166216314Y-142657628D01*
X166280174Y-142626607D01*
X166350669Y-142635035D01*
X166405416Y-142680238D01*
X166416466Y-142700270D01*
X166655765Y-143246097D01*
X166657637Y-143250605D01*
X166958743Y-144017648D01*
X166998685Y-144119397D01*
X167000392Y-144124009D01*
X167064938Y-144309446D01*
X167307193Y-145005424D01*
X167308722Y-145010108D01*
X167327945Y-145073177D01*
X167559576Y-145833125D01*
X167580837Y-145902881D01*
X167582177Y-145907609D01*
X167693079Y-146330031D01*
X167819171Y-146810316D01*
X167820329Y-146815105D01*
X168021852Y-147726414D01*
X168022821Y-147731245D01*
X168188552Y-148649700D01*
X168189332Y-148654564D01*
X168319024Y-149578785D01*
X168319024Y-149578787D01*
X168319612Y-149583662D01*
X168406582Y-150447797D01*
X168408696Y-150468803D01*
X168408987Y-150490694D01*
X168407641Y-150508919D01*
X168409519Y-150517696D01*
X168409831Y-150522240D01*
X168412081Y-150548088D01*
X168409572Y-150615448D01*
X168409572Y-150615451D01*
X168404988Y-150644749D01*
X168400914Y-150659293D01*
X168381833Y-150727402D01*
X168370526Y-150754821D01*
X168328695Y-150829765D01*
X168311294Y-150853780D01*
X168253099Y-150916877D01*
X168230570Y-150936156D01*
X168159260Y-150983886D01*
X168159241Y-150983899D01*
X168132824Y-150997381D01*
X168052310Y-151027129D01*
X168023474Y-151034062D01*
X167962243Y-151041320D01*
X167945876Y-151042187D01*
X167938564Y-151042098D01*
X167929688Y-151040716D01*
X167906620Y-151043733D01*
X167898132Y-151044843D01*
X167881792Y-151045907D01*
X156553252Y-151045907D01*
X156532347Y-151044161D01*
X156517346Y-151041637D01*
X156517343Y-151041637D01*
X156512554Y-151040831D01*
X156506315Y-151040755D01*
X156504862Y-151040737D01*
X156504859Y-151040737D01*
X156500002Y-151040678D01*
X156485296Y-151042784D01*
X156476443Y-151043733D01*
X156289258Y-151057121D01*
X156284770Y-151057442D01*
X156201960Y-151075456D01*
X156078310Y-151102354D01*
X156078307Y-151102355D01*
X156073921Y-151103309D01*
X156069719Y-151104876D01*
X156069713Y-151104878D01*
X155875957Y-151177146D01*
X155871745Y-151178717D01*
X155682358Y-151282130D01*
X155509617Y-151411443D01*
X155357037Y-151564024D01*
X155227725Y-151736766D01*
X155124313Y-151926153D01*
X155122744Y-151930359D01*
X155122742Y-151930364D01*
X155050480Y-152124110D01*
X155050478Y-152124117D01*
X155048907Y-152128329D01*
X155047952Y-152132719D01*
X155047950Y-152132726D01*
X155022884Y-152247957D01*
X155003040Y-152339179D01*
X155002719Y-152343666D01*
X155002719Y-152343667D01*
X154990543Y-152513936D01*
X154989117Y-152525856D01*
X154987232Y-152537059D01*
X154987231Y-152537066D01*
X154986425Y-152541859D01*
X154986272Y-152554411D01*
X154986962Y-152559227D01*
X154990228Y-152582033D01*
X154991501Y-152599896D01*
X154991501Y-162400633D01*
X154990001Y-162420018D01*
X154986310Y-162443724D01*
X154987474Y-162452626D01*
X154987490Y-162452750D01*
X154987761Y-162483193D01*
X154980767Y-162545264D01*
X154974489Y-162572768D01*
X154947514Y-162649859D01*
X154935274Y-162675275D01*
X154891823Y-162744427D01*
X154874231Y-162766486D01*
X154816486Y-162824231D01*
X154794427Y-162841823D01*
X154725275Y-162885274D01*
X154699854Y-162897516D01*
X154622772Y-162924488D01*
X154595266Y-162930767D01*
X154579408Y-162932554D01*
X154539780Y-162937019D01*
X154524138Y-162936605D01*
X154524123Y-162937800D01*
X154515147Y-162937690D01*
X154506276Y-162936309D01*
X154497374Y-162937473D01*
X154497372Y-162937473D01*
X154482323Y-162939441D01*
X154474714Y-162940436D01*
X154458379Y-162941500D01*
X134549367Y-162941500D01*
X134529982Y-162940000D01*
X134515149Y-162937690D01*
X134515145Y-162937690D01*
X134506276Y-162936309D01*
X134497374Y-162937473D01*
X134497369Y-162937473D01*
X134497250Y-162937489D01*
X134466813Y-162937760D01*
X134404737Y-162930766D01*
X134377229Y-162924487D01*
X134300147Y-162897515D01*
X134274726Y-162885273D01*
X134205574Y-162841822D01*
X134183515Y-162824230D01*
X134125770Y-162766485D01*
X134108178Y-162744426D01*
X134064727Y-162675274D01*
X134052485Y-162649853D01*
X134025513Y-162572771D01*
X134019235Y-162545266D01*
X134013171Y-162491456D01*
X134012889Y-162466639D01*
X134013577Y-162462552D01*
X134013730Y-162450000D01*
X134009774Y-162422376D01*
X134008501Y-162404514D01*
X134008501Y-152607660D01*
X134010247Y-152586754D01*
X134011042Y-152582033D01*
X134013577Y-152566963D01*
X134013730Y-152554411D01*
X134011597Y-152539515D01*
X134010647Y-152530655D01*
X133997275Y-152343669D01*
X133997275Y-152343667D01*
X133996954Y-152339180D01*
X133951088Y-152128331D01*
X133875682Y-151926156D01*
X133772270Y-151736770D01*
X133642959Y-151564029D01*
X133490380Y-151411449D01*
X133317640Y-151282136D01*
X133128255Y-151178723D01*
X132926080Y-151103316D01*
X132921685Y-151102360D01*
X132921682Y-151102359D01*
X132719632Y-151058405D01*
X132719630Y-151058405D01*
X132715232Y-151057448D01*
X132540467Y-151044948D01*
X132528556Y-151043523D01*
X132517354Y-151041638D01*
X132517347Y-151041637D01*
X132512554Y-151040831D01*
X132506278Y-151040755D01*
X132504862Y-151040737D01*
X132504859Y-151040737D01*
X132500002Y-151040678D01*
X132480890Y-151043415D01*
X132472378Y-151044634D01*
X132454516Y-151045907D01*
X121125948Y-151045907D01*
X121106560Y-151044406D01*
X121091740Y-151042098D01*
X121091739Y-151042098D01*
X121082865Y-151040716D01*
X121073964Y-151041880D01*
X121069412Y-151041824D01*
X121043460Y-151041980D01*
X121018231Y-151038989D01*
X120976529Y-151034046D01*
X120947694Y-151027113D01*
X120867183Y-150997366D01*
X120840771Y-150983888D01*
X120769441Y-150936144D01*
X120746911Y-150916863D01*
X120688719Y-150853771D01*
X120671322Y-150829763D01*
X120629485Y-150754809D01*
X120618182Y-150727397D01*
X120595027Y-150644745D01*
X120590444Y-150615448D01*
X120588141Y-150553606D01*
X120588598Y-150537220D01*
X120589256Y-150530164D01*
X120591348Y-150521435D01*
X120590057Y-150495258D01*
X120590537Y-150476436D01*
X120593447Y-150447526D01*
X120680389Y-149583661D01*
X120680977Y-149578785D01*
X120681174Y-149577386D01*
X120810670Y-148654556D01*
X120811449Y-148649700D01*
X120977181Y-147731245D01*
X120978150Y-147726414D01*
X121179673Y-146815105D01*
X121180831Y-146810316D01*
X121344190Y-146188080D01*
X121417824Y-145907609D01*
X121419164Y-145902881D01*
X121449305Y-145803995D01*
X121608965Y-145280171D01*
X121691280Y-145010108D01*
X121692809Y-145005424D01*
X121923273Y-144343317D01*
X121999609Y-144124009D01*
X122001316Y-144119397D01*
X122043343Y-144012338D01*
X122342357Y-143250622D01*
X122344245Y-143246075D01*
X122390807Y-143139871D01*
X122718991Y-142391305D01*
X122721051Y-142386845D01*
X122788602Y-142247818D01*
X122933303Y-141950004D01*
X124286762Y-141950004D01*
X124287032Y-141954123D01*
X124305000Y-142228252D01*
X124305697Y-142238890D01*
X124306501Y-142242930D01*
X124306501Y-142242933D01*
X124361361Y-142518734D01*
X124362176Y-142522832D01*
X124363502Y-142526738D01*
X124363503Y-142526742D01*
X124453724Y-142792522D01*
X124455235Y-142796974D01*
X124457056Y-142800667D01*
X124457057Y-142800669D01*
X124519270Y-142926823D01*
X124583280Y-143056623D01*
X124744120Y-143297339D01*
X124746832Y-143300431D01*
X124746837Y-143300438D01*
X124852445Y-143420859D01*
X124935005Y-143515000D01*
X124938094Y-143517709D01*
X125149566Y-143703167D01*
X125149572Y-143703172D01*
X125152666Y-143705885D01*
X125393381Y-143866725D01*
X125397080Y-143868549D01*
X125397085Y-143868552D01*
X125649336Y-143992948D01*
X125653031Y-143994770D01*
X125656929Y-143996093D01*
X125656931Y-143996094D01*
X125923263Y-144086502D01*
X125923267Y-144086503D01*
X125927173Y-144087829D01*
X125931217Y-144088633D01*
X125931223Y-144088635D01*
X126207072Y-144143504D01*
X126207075Y-144143504D01*
X126211115Y-144144308D01*
X126215226Y-144144577D01*
X126215230Y-144144578D01*
X126495882Y-144162973D01*
X126500001Y-144163243D01*
X126504120Y-144162973D01*
X126784772Y-144144578D01*
X126784776Y-144144577D01*
X126788887Y-144144308D01*
X126792927Y-144143504D01*
X126792930Y-144143504D01*
X127068779Y-144088635D01*
X127068785Y-144088633D01*
X127072829Y-144087829D01*
X127076735Y-144086503D01*
X127076739Y-144086502D01*
X127343071Y-143996094D01*
X127343073Y-143996093D01*
X127346971Y-143994770D01*
X127350666Y-143992948D01*
X127602917Y-143868552D01*
X127602922Y-143868549D01*
X127606621Y-143866725D01*
X127847336Y-143705885D01*
X127850430Y-143703172D01*
X127850436Y-143703167D01*
X128061908Y-143517709D01*
X128064997Y-143515000D01*
X128147557Y-143420859D01*
X128253165Y-143300438D01*
X128253170Y-143300431D01*
X128255882Y-143297339D01*
X128416722Y-143056623D01*
X128480732Y-142926823D01*
X128542945Y-142800669D01*
X128542946Y-142800667D01*
X128544767Y-142796974D01*
X128546278Y-142792522D01*
X128636499Y-142526742D01*
X128636500Y-142526738D01*
X128637826Y-142522832D01*
X128638642Y-142518734D01*
X128693501Y-142242933D01*
X128693501Y-142242930D01*
X128694305Y-142238890D01*
X128695003Y-142228252D01*
X128712970Y-141954123D01*
X128713240Y-141950004D01*
X128700057Y-141748868D01*
X128694575Y-141665233D01*
X128694574Y-141665229D01*
X128694305Y-141661118D01*
X128692094Y-141650000D01*
X128638632Y-141381226D01*
X128638630Y-141381220D01*
X128637826Y-141377176D01*
X128633750Y-141365167D01*
X128546091Y-141106934D01*
X128546090Y-141106932D01*
X128544767Y-141103034D01*
X128416722Y-140843385D01*
X128255882Y-140602669D01*
X128253170Y-140599577D01*
X128253165Y-140599570D01*
X128067706Y-140388097D01*
X128064997Y-140385008D01*
X128027357Y-140351998D01*
X127850436Y-140196841D01*
X127850430Y-140196836D01*
X127847336Y-140194123D01*
X127606621Y-140033283D01*
X127602922Y-140031459D01*
X127602917Y-140031456D01*
X127350666Y-139907060D01*
X127350664Y-139907059D01*
X127346971Y-139905238D01*
X127343071Y-139903914D01*
X127076739Y-139813506D01*
X127076735Y-139813505D01*
X127072829Y-139812179D01*
X127068785Y-139811375D01*
X127068779Y-139811373D01*
X126792930Y-139756504D01*
X126792927Y-139756504D01*
X126788887Y-139755700D01*
X126784776Y-139755431D01*
X126784772Y-139755430D01*
X126504120Y-139737035D01*
X126500001Y-139736765D01*
X126495882Y-139737035D01*
X126215230Y-139755430D01*
X126215226Y-139755431D01*
X126211115Y-139755700D01*
X126207075Y-139756504D01*
X126207072Y-139756504D01*
X125931223Y-139811373D01*
X125931217Y-139811375D01*
X125927173Y-139812179D01*
X125923267Y-139813505D01*
X125923263Y-139813506D01*
X125656931Y-139903914D01*
X125653031Y-139905238D01*
X125649338Y-139907059D01*
X125649336Y-139907060D01*
X125534462Y-139963710D01*
X125393382Y-140033283D01*
X125152666Y-140194123D01*
X125149574Y-140196835D01*
X125149567Y-140196840D01*
X124972645Y-140351998D01*
X124935005Y-140385008D01*
X124932296Y-140388097D01*
X124746837Y-140599570D01*
X124746832Y-140599577D01*
X124744120Y-140602669D01*
X124583280Y-140843385D01*
X124455235Y-141103034D01*
X124453912Y-141106932D01*
X124453911Y-141106934D01*
X124366253Y-141365167D01*
X124362176Y-141377176D01*
X124361372Y-141381220D01*
X124361370Y-141381226D01*
X124307908Y-141650000D01*
X124305697Y-141661118D01*
X124305428Y-141665229D01*
X124305427Y-141665233D01*
X124292086Y-141868774D01*
X124288806Y-141918814D01*
X124286762Y-141950004D01*
X122933303Y-141950004D01*
X122948458Y-141918814D01*
X123128933Y-141547375D01*
X123131173Y-141542986D01*
X123419243Y-141004723D01*
X123571569Y-140720102D01*
X123573970Y-140715819D01*
X123584129Y-140698502D01*
X123957191Y-140062527D01*
X124046177Y-139910829D01*
X124048752Y-139906628D01*
X124552098Y-139120675D01*
X124554836Y-139116578D01*
X125088536Y-138350894D01*
X125091433Y-138346908D01*
X125577172Y-137705069D01*
X128512601Y-137705069D01*
X128512971Y-137711890D01*
X128518495Y-137762752D01*
X128522121Y-137778004D01*
X128567276Y-137898454D01*
X128575814Y-137914049D01*
X128652315Y-138016124D01*
X128664876Y-138028685D01*
X128766951Y-138105186D01*
X128782546Y-138113724D01*
X128902994Y-138158878D01*
X128918249Y-138162505D01*
X128969114Y-138168031D01*
X128975928Y-138168400D01*
X129027885Y-138168400D01*
X129043124Y-138163925D01*
X129044329Y-138162535D01*
X129046000Y-138154852D01*
X129046000Y-137272115D01*
X129041525Y-137256876D01*
X129040135Y-137255671D01*
X129032452Y-137254000D01*
X128530716Y-137254000D01*
X128515477Y-137258475D01*
X128514272Y-137259865D01*
X128512601Y-137267548D01*
X128512601Y-137705069D01*
X125577172Y-137705069D01*
X125654621Y-137602731D01*
X125657670Y-137598861D01*
X126249559Y-136877231D01*
X126252758Y-136873483D01*
X126382025Y-136727885D01*
X128512600Y-136727885D01*
X128517075Y-136743124D01*
X128518465Y-136744329D01*
X128526148Y-136746000D01*
X129027885Y-136746000D01*
X129043124Y-136741525D01*
X129044329Y-136740135D01*
X129046000Y-136732452D01*
X129046000Y-136727885D01*
X129554000Y-136727885D01*
X129558475Y-136743124D01*
X129559865Y-136744329D01*
X129567548Y-136746000D01*
X130069284Y-136746000D01*
X130084523Y-136741525D01*
X130085728Y-136740135D01*
X130087399Y-136732452D01*
X130087399Y-136294931D01*
X130087029Y-136288110D01*
X130081505Y-136237248D01*
X130077879Y-136221996D01*
X130032724Y-136101546D01*
X130024186Y-136085951D01*
X129947685Y-135983876D01*
X129935124Y-135971315D01*
X129833049Y-135894814D01*
X129817454Y-135886276D01*
X129697006Y-135841122D01*
X129681751Y-135837495D01*
X129630886Y-135831969D01*
X129624072Y-135831600D01*
X129572115Y-135831600D01*
X129556876Y-135836075D01*
X129555671Y-135837465D01*
X129554000Y-135845148D01*
X129554000Y-136727885D01*
X129046000Y-136727885D01*
X129046000Y-135849716D01*
X129041525Y-135834477D01*
X129040135Y-135833272D01*
X129032452Y-135831601D01*
X128975931Y-135831601D01*
X128969110Y-135831971D01*
X128918248Y-135837495D01*
X128902996Y-135841121D01*
X128782546Y-135886276D01*
X128766951Y-135894814D01*
X128664876Y-135971315D01*
X128652315Y-135983876D01*
X128575814Y-136085951D01*
X128567276Y-136101546D01*
X128522122Y-136221994D01*
X128518495Y-136237249D01*
X128512969Y-136288114D01*
X128512600Y-136294928D01*
X128512600Y-136727885D01*
X126382025Y-136727885D01*
X126872407Y-136175550D01*
X126875740Y-136171941D01*
X126892867Y-136154107D01*
X127216749Y-135816844D01*
X127522189Y-135498786D01*
X127525671Y-135495299D01*
X128197946Y-134847934D01*
X128201561Y-134844586D01*
X128457591Y-134616649D01*
X128898660Y-134223977D01*
X128902395Y-134220781D01*
X129125453Y-134037318D01*
X129623208Y-133627918D01*
X129627068Y-133624868D01*
X129694435Y-133573741D01*
X129845366Y-133459193D01*
X130370521Y-133060633D01*
X130374504Y-133057732D01*
X131031965Y-132598134D01*
X131139424Y-132523016D01*
X131143507Y-132520278D01*
X131928775Y-132015862D01*
X131932972Y-132013281D01*
X132557057Y-131646050D01*
X132625911Y-131628741D01*
X132693193Y-131651406D01*
X132737540Y-131706849D01*
X132744873Y-131777466D01*
X132712864Y-131840837D01*
X132692166Y-131858593D01*
X132424834Y-132041719D01*
X132422608Y-132043567D01*
X132422598Y-132043575D01*
X132117518Y-132296911D01*
X132115282Y-132298768D01*
X131830768Y-132583282D01*
X131828914Y-132585515D01*
X131828911Y-132585518D01*
X131575575Y-132890598D01*
X131575567Y-132890608D01*
X131573719Y-132892834D01*
X131346328Y-133224784D01*
X131344906Y-133227337D01*
X131171607Y-133538469D01*
X131150536Y-133576298D01*
X130988013Y-133944378D01*
X130860145Y-134325884D01*
X130768024Y-134717560D01*
X130767622Y-134720445D01*
X130767621Y-134720448D01*
X130744916Y-134883218D01*
X130712435Y-135116065D01*
X130712302Y-135118949D01*
X130712301Y-135118956D01*
X130707504Y-135222721D01*
X130694312Y-135508051D01*
X130693882Y-135511317D01*
X130694079Y-135513098D01*
X130693852Y-135518000D01*
X130694620Y-135518000D01*
X130694717Y-135518879D01*
X130694717Y-135518882D01*
X130697739Y-135546252D01*
X130698500Y-135560078D01*
X130698500Y-135922140D01*
X130678498Y-135990261D01*
X130673326Y-135997705D01*
X130601985Y-136092895D01*
X130550855Y-136229284D01*
X130544100Y-136291466D01*
X130544100Y-137708534D01*
X130544469Y-137711931D01*
X130545725Y-137723492D01*
X130533197Y-137793374D01*
X130484877Y-137845390D01*
X130420462Y-137863100D01*
X130211033Y-137863100D01*
X130142912Y-137843098D01*
X130096419Y-137789442D01*
X130085770Y-137723491D01*
X130087031Y-137711883D01*
X130087400Y-137705072D01*
X130087400Y-137272115D01*
X130082925Y-137256876D01*
X130081535Y-137255671D01*
X130073852Y-137254000D01*
X129572115Y-137254000D01*
X129556876Y-137258475D01*
X129555671Y-137259865D01*
X129554000Y-137267548D01*
X129554000Y-138168399D01*
X129552021Y-138168399D01*
X129552019Y-138214543D01*
X129549106Y-138223269D01*
X129538776Y-138250826D01*
X129534855Y-138261284D01*
X129528100Y-138323466D01*
X129528100Y-139740534D01*
X129534855Y-139802716D01*
X129585985Y-139939105D01*
X129615642Y-139978676D01*
X129657326Y-140034295D01*
X129682174Y-140100801D01*
X129682500Y-140109860D01*
X129682500Y-142083982D01*
X129681422Y-142100428D01*
X129679005Y-142118790D01*
X129677882Y-142127317D01*
X129679075Y-142138120D01*
X129680041Y-142146873D01*
X129680604Y-142167765D01*
X129668301Y-142386845D01*
X129665401Y-142438476D01*
X129663820Y-142452512D01*
X129650560Y-142530554D01*
X129613922Y-142746188D01*
X129610778Y-142759963D01*
X129599051Y-142800669D01*
X129528313Y-143046204D01*
X129523646Y-143059540D01*
X129471530Y-143185362D01*
X129418646Y-143313037D01*
X129409654Y-143334745D01*
X129403525Y-143347472D01*
X129259430Y-143608191D01*
X129251923Y-143620139D01*
X129146852Y-143768223D01*
X129079536Y-143863096D01*
X129070736Y-143874131D01*
X128879044Y-144088635D01*
X128872240Y-144096249D01*
X128862250Y-144106239D01*
X128640131Y-144304736D01*
X128629099Y-144313534D01*
X128386139Y-144485923D01*
X128374191Y-144493430D01*
X128113472Y-144637525D01*
X128100750Y-144643652D01*
X128007229Y-144682389D01*
X127825540Y-144757646D01*
X127812204Y-144762313D01*
X127525964Y-144844778D01*
X127512188Y-144847922D01*
X127399280Y-144867106D01*
X127218512Y-144897820D01*
X127204480Y-144899401D01*
X127041209Y-144908570D01*
X126944782Y-144913985D01*
X126919964Y-144912926D01*
X126917449Y-144912568D01*
X126917443Y-144912568D01*
X126913364Y-144911987D01*
X126906972Y-144911920D01*
X126906683Y-144911882D01*
X126906393Y-144911914D01*
X126900000Y-144911847D01*
X126890610Y-144912983D01*
X126883731Y-144913624D01*
X126663798Y-144928039D01*
X126663794Y-144928040D01*
X126659683Y-144928309D01*
X126655643Y-144929113D01*
X126655640Y-144929113D01*
X126427523Y-144974488D01*
X126427517Y-144974490D01*
X126423478Y-144975293D01*
X126419574Y-144976618D01*
X126419571Y-144976619D01*
X126320916Y-145010108D01*
X126195427Y-145052706D01*
X126160421Y-145069969D01*
X125983135Y-145157396D01*
X125983130Y-145157399D01*
X125979431Y-145159223D01*
X125779186Y-145293022D01*
X125598118Y-145451814D01*
X125595402Y-145454911D01*
X125595400Y-145454913D01*
X125442044Y-145629781D01*
X125442040Y-145629787D01*
X125439326Y-145632881D01*
X125437037Y-145636307D01*
X125437033Y-145636312D01*
X125336853Y-145786241D01*
X125305526Y-145833125D01*
X125303700Y-145836828D01*
X125200834Y-146045417D01*
X125200831Y-146045425D01*
X125199008Y-146049121D01*
X125197679Y-146053036D01*
X125131661Y-146247520D01*
X125121595Y-146277172D01*
X125120791Y-146281216D01*
X125120789Y-146281222D01*
X125079088Y-146490866D01*
X125074610Y-146513377D01*
X125072936Y-146538920D01*
X125064673Y-146664972D01*
X125064457Y-146667228D01*
X125062804Y-146673666D01*
X125062804Y-146689374D01*
X125062534Y-146697612D01*
X125061280Y-146716750D01*
X125060292Y-146726271D01*
X125058291Y-146740330D01*
X125058151Y-146753694D01*
X125058646Y-146757787D01*
X125058647Y-146757800D01*
X125061891Y-146784609D01*
X125062804Y-146799746D01*
X125062804Y-147475101D01*
X125042802Y-147543222D01*
X125003107Y-147582245D01*
X124971956Y-147601522D01*
X124846999Y-147726697D01*
X124843159Y-147732927D01*
X124843158Y-147732928D01*
X124763115Y-147862782D01*
X124754189Y-147877262D01*
X124698507Y-148045139D01*
X124687804Y-148149600D01*
X124687804Y-149750400D01*
X124698778Y-149856166D01*
X124754754Y-150023946D01*
X124847826Y-150174348D01*
X124973001Y-150299305D01*
X124979231Y-150303145D01*
X124979232Y-150303146D01*
X125116394Y-150387694D01*
X125123566Y-150392115D01*
X125195885Y-150416102D01*
X125284915Y-150445632D01*
X125284917Y-150445632D01*
X125291443Y-150447797D01*
X125298279Y-150448497D01*
X125298282Y-150448498D01*
X125341335Y-150452909D01*
X125395904Y-150458500D01*
X125996704Y-150458500D01*
X125999950Y-150458163D01*
X125999954Y-150458163D01*
X126095612Y-150448238D01*
X126095616Y-150448237D01*
X126102470Y-150447526D01*
X126109006Y-150445345D01*
X126109008Y-150445345D01*
X126241110Y-150401272D01*
X126270250Y-150391550D01*
X126420652Y-150298478D01*
X126545609Y-150173303D01*
X126638419Y-150022738D01*
X126694101Y-149854861D01*
X126704804Y-149750400D01*
X126704804Y-148149600D01*
X126698305Y-148086963D01*
X126694542Y-148050692D01*
X126694541Y-148050688D01*
X126693830Y-148043834D01*
X126637854Y-147876054D01*
X126544782Y-147725652D01*
X126419607Y-147600695D01*
X126389686Y-147582251D01*
X126342194Y-147529478D01*
X126329804Y-147474992D01*
X126329804Y-146803715D01*
X126330882Y-146787268D01*
X126333431Y-146767911D01*
X126333431Y-146767908D01*
X126334422Y-146760381D01*
X126333304Y-146750254D01*
X126333335Y-146722322D01*
X126333424Y-146721537D01*
X126337926Y-146681581D01*
X126342507Y-146640923D01*
X126348786Y-146613415D01*
X126381580Y-146519697D01*
X126393821Y-146494278D01*
X126416236Y-146458605D01*
X126446647Y-146410205D01*
X126464238Y-146388147D01*
X126534450Y-146317936D01*
X126556509Y-146300345D01*
X126592975Y-146277432D01*
X126640581Y-146247519D01*
X126665995Y-146235280D01*
X126759721Y-146202484D01*
X126787222Y-146196207D01*
X126813089Y-146193292D01*
X126860322Y-146187970D01*
X126883395Y-146187552D01*
X126886636Y-146188013D01*
X126893028Y-146188080D01*
X126893317Y-146188118D01*
X126893607Y-146188086D01*
X126900000Y-146188153D01*
X126904101Y-146187657D01*
X126905862Y-146187560D01*
X126906929Y-146187506D01*
X127025112Y-146182042D01*
X127271149Y-146170667D01*
X127271156Y-146170666D01*
X127274040Y-146170533D01*
X127399601Y-146153018D01*
X127642001Y-146119205D01*
X127642004Y-146119204D01*
X127644889Y-146118802D01*
X127844685Y-146071810D01*
X128006543Y-146033742D01*
X128006549Y-146033740D01*
X128009382Y-146033074D01*
X128364411Y-145914080D01*
X128706946Y-145762836D01*
X128737358Y-145745897D01*
X129031511Y-145582054D01*
X129034064Y-145580632D01*
X129328819Y-145378721D01*
X129340579Y-145370665D01*
X129342976Y-145369023D01*
X129345202Y-145367174D01*
X129345212Y-145367167D01*
X129628809Y-145131671D01*
X129628812Y-145131668D01*
X129631045Y-145129814D01*
X129895814Y-144865045D01*
X129897671Y-144862809D01*
X130133167Y-144579212D01*
X130133174Y-144579202D01*
X130135023Y-144576976D01*
X130346632Y-144268064D01*
X130405017Y-144163243D01*
X130527412Y-143943503D01*
X130527414Y-143943499D01*
X130528836Y-143940946D01*
X130680080Y-143598411D01*
X130799074Y-143243382D01*
X130811367Y-143191118D01*
X130856995Y-142997115D01*
X130884802Y-142878889D01*
X130936533Y-142508040D01*
X130937380Y-142489737D01*
X130948564Y-142247818D01*
X130952544Y-142161723D01*
X130953124Y-142155559D01*
X130953119Y-142155559D01*
X130953432Y-142151450D01*
X130954013Y-142147364D01*
X130954153Y-142134000D01*
X130950413Y-142103093D01*
X130949500Y-142087958D01*
X130949500Y-140109860D01*
X130969502Y-140041739D01*
X130974674Y-140034295D01*
X131016358Y-139978676D01*
X131046015Y-139939105D01*
X131097145Y-139802716D01*
X131103900Y-139740534D01*
X131103900Y-138323466D01*
X131102275Y-138308508D01*
X131114803Y-138238626D01*
X131163123Y-138186610D01*
X131227538Y-138168900D01*
X131659534Y-138168900D01*
X131721716Y-138162145D01*
X131858105Y-138111015D01*
X131974661Y-138023661D01*
X132062015Y-137907105D01*
X132113145Y-137770716D01*
X132119900Y-137708534D01*
X132119900Y-136291466D01*
X132113145Y-136229284D01*
X132062015Y-136092895D01*
X131990674Y-135997705D01*
X131965826Y-135931199D01*
X131965500Y-135922140D01*
X131965500Y-135571995D01*
X131966757Y-135554241D01*
X131969432Y-135535445D01*
X131970013Y-135531364D01*
X131970153Y-135518000D01*
X131968217Y-135502002D01*
X131967477Y-135480271D01*
X131968611Y-135458643D01*
X131982051Y-135202182D01*
X131983429Y-135189066D01*
X132031871Y-134883218D01*
X132034613Y-134870318D01*
X132079179Y-134703995D01*
X132114759Y-134571209D01*
X132118834Y-134558667D01*
X132148947Y-134480222D01*
X132229801Y-134269590D01*
X132235165Y-134257542D01*
X132375748Y-133981633D01*
X132382342Y-133970212D01*
X132513600Y-133768090D01*
X132550996Y-133710506D01*
X132558737Y-133699851D01*
X132753619Y-133459193D01*
X132762444Y-133449393D01*
X132833780Y-133378057D01*
X132896092Y-133344031D01*
X132966907Y-133349096D01*
X133023743Y-133391643D01*
X133048554Y-133458163D01*
X133048138Y-133480759D01*
X133047402Y-133487540D01*
X133041500Y-133541866D01*
X133041500Y-135138134D01*
X133048255Y-135200316D01*
X133099385Y-135336705D01*
X133186739Y-135453261D01*
X133193919Y-135458642D01*
X133193920Y-135458643D01*
X133261343Y-135509174D01*
X133303858Y-135566034D01*
X133308884Y-135636852D01*
X133274824Y-135699145D01*
X133261343Y-135710826D01*
X133186739Y-135766739D01*
X133099385Y-135883295D01*
X133048255Y-136019684D01*
X133041500Y-136081866D01*
X133041500Y-137678134D01*
X133048255Y-137740316D01*
X133099385Y-137876705D01*
X133186739Y-137993261D01*
X133193919Y-137998642D01*
X133193920Y-137998643D01*
X133261343Y-138049174D01*
X133303858Y-138106034D01*
X133308884Y-138176852D01*
X133274824Y-138239145D01*
X133261343Y-138250826D01*
X133186739Y-138306739D01*
X133099385Y-138423295D01*
X133048255Y-138559684D01*
X133041500Y-138621866D01*
X133041500Y-138723251D01*
X133021498Y-138791372D01*
X132967842Y-138837865D01*
X132967469Y-138838018D01*
X132966371Y-138838312D01*
X132919469Y-138860183D01*
X132826493Y-138903538D01*
X132826488Y-138903541D01*
X132821506Y-138905864D01*
X132770644Y-138941478D01*
X132695082Y-138994387D01*
X132695079Y-138994389D01*
X132690571Y-138997546D01*
X132577546Y-139110571D01*
X132574389Y-139115079D01*
X132574387Y-139115082D01*
X132570471Y-139120675D01*
X132485864Y-139241506D01*
X132483541Y-139246488D01*
X132483538Y-139246493D01*
X132446829Y-139325216D01*
X132418312Y-139386371D01*
X132376942Y-139540767D01*
X132376462Y-139546251D01*
X132376461Y-139546258D01*
X132372729Y-139588906D01*
X132369253Y-139609247D01*
X132366500Y-139619970D01*
X132366500Y-139649982D01*
X132365422Y-139666425D01*
X132361882Y-139693317D01*
X132362716Y-139700867D01*
X132365739Y-139728253D01*
X132366500Y-139742080D01*
X132366500Y-140097476D01*
X132346498Y-140165597D01*
X132334142Y-140181779D01*
X132260960Y-140263056D01*
X132257659Y-140268774D01*
X132172251Y-140416705D01*
X132165473Y-140428444D01*
X132106458Y-140610072D01*
X132105768Y-140616633D01*
X132105768Y-140616635D01*
X132091524Y-140752158D01*
X132086496Y-140800000D01*
X132087186Y-140806565D01*
X132105548Y-140981266D01*
X132106458Y-140989928D01*
X132165473Y-141171556D01*
X132260960Y-141336944D01*
X132265378Y-141341851D01*
X132265379Y-141341852D01*
X132376952Y-141465766D01*
X132388747Y-141478866D01*
X132477000Y-141542986D01*
X132511878Y-141568326D01*
X132543248Y-141591118D01*
X132549276Y-141593802D01*
X132549278Y-141593803D01*
X132711681Y-141666109D01*
X132717712Y-141668794D01*
X132811113Y-141688647D01*
X132898056Y-141707128D01*
X132898061Y-141707128D01*
X132904513Y-141708500D01*
X133095487Y-141708500D01*
X133101939Y-141707128D01*
X133101944Y-141707128D01*
X133188887Y-141688647D01*
X133282288Y-141668794D01*
X133288319Y-141666109D01*
X133450722Y-141593803D01*
X133450724Y-141593802D01*
X133456752Y-141591118D01*
X133488123Y-141568326D01*
X133523000Y-141542986D01*
X133611253Y-141478866D01*
X133623048Y-141465766D01*
X133734621Y-141341852D01*
X133734622Y-141341851D01*
X133739040Y-141336944D01*
X133834527Y-141171556D01*
X133893542Y-140989928D01*
X133894453Y-140981266D01*
X133912814Y-140806565D01*
X133913504Y-140800000D01*
X133914116Y-140800064D01*
X133932816Y-140736379D01*
X133986472Y-140689886D01*
X134038814Y-140678500D01*
X136598134Y-140678500D01*
X136660316Y-140671745D01*
X136796705Y-140620615D01*
X136913261Y-140533261D01*
X137000615Y-140416705D01*
X137051745Y-140280316D01*
X137058500Y-140218134D01*
X137058500Y-138621866D01*
X137051745Y-138559684D01*
X137000615Y-138423295D01*
X136913261Y-138306739D01*
X136838657Y-138250826D01*
X136796142Y-138193966D01*
X136791116Y-138123148D01*
X136825176Y-138060855D01*
X136838657Y-138049174D01*
X136906080Y-137998643D01*
X136906081Y-137998642D01*
X136913261Y-137993261D01*
X137000615Y-137876705D01*
X137051745Y-137740316D01*
X137058500Y-137678134D01*
X137058500Y-136081866D01*
X137051745Y-136019684D01*
X137000615Y-135883295D01*
X136913261Y-135766739D01*
X136838657Y-135710826D01*
X136796142Y-135653966D01*
X136791116Y-135583148D01*
X136825176Y-135520855D01*
X136838657Y-135509174D01*
X136906080Y-135458643D01*
X136906081Y-135458642D01*
X136913261Y-135453261D01*
X137000615Y-135336705D01*
X137051745Y-135200316D01*
X137058500Y-135138134D01*
X137058500Y-133541866D01*
X137051745Y-133479684D01*
X137000615Y-133343295D01*
X136913261Y-133226739D01*
X136838657Y-133170826D01*
X136796142Y-133113966D01*
X136791116Y-133043148D01*
X136825176Y-132980855D01*
X136838657Y-132969174D01*
X136906080Y-132918643D01*
X136906081Y-132918642D01*
X136913261Y-132913261D01*
X137000615Y-132796705D01*
X137051745Y-132660316D01*
X137058500Y-132598134D01*
X137058500Y-131001866D01*
X137051745Y-130939684D01*
X137000615Y-130803295D01*
X136913261Y-130686739D01*
X136869598Y-130654015D01*
X136838657Y-130630826D01*
X136796142Y-130573966D01*
X136791116Y-130503148D01*
X136825176Y-130440855D01*
X136838657Y-130429174D01*
X136906080Y-130378643D01*
X136906081Y-130378642D01*
X136913261Y-130373261D01*
X137000615Y-130256705D01*
X137051745Y-130120316D01*
X137058500Y-130058134D01*
X137058500Y-128461866D01*
X137051745Y-128399684D01*
X137000615Y-128263295D01*
X136913261Y-128146739D01*
X136838657Y-128090826D01*
X136796142Y-128033966D01*
X136791116Y-127963148D01*
X136825176Y-127900855D01*
X136838657Y-127889174D01*
X136906080Y-127838643D01*
X136906081Y-127838642D01*
X136913261Y-127833261D01*
X137000615Y-127716705D01*
X137051745Y-127580316D01*
X137058500Y-127518134D01*
X137058500Y-125921866D01*
X137051745Y-125859684D01*
X137000615Y-125723295D01*
X136913261Y-125606739D01*
X136838657Y-125550826D01*
X136796142Y-125493966D01*
X136791116Y-125423148D01*
X136825176Y-125360855D01*
X136838657Y-125349174D01*
X136906080Y-125298643D01*
X136906081Y-125298642D01*
X136913261Y-125293261D01*
X137000615Y-125176705D01*
X137051745Y-125040316D01*
X137058500Y-124978134D01*
X137058500Y-124939500D01*
X137078502Y-124871379D01*
X137132158Y-124824886D01*
X137184500Y-124813500D01*
X147540500Y-124813500D01*
X147608621Y-124833502D01*
X147655114Y-124887158D01*
X147666500Y-124939500D01*
X147666500Y-134897476D01*
X147646498Y-134965597D01*
X147634142Y-134981779D01*
X147560960Y-135063056D01*
X147465473Y-135228444D01*
X147406458Y-135410072D01*
X147405768Y-135416633D01*
X147405768Y-135416635D01*
X147392145Y-135546252D01*
X147386496Y-135600000D01*
X147406458Y-135789928D01*
X147465473Y-135971556D01*
X147560960Y-136136944D01*
X147565375Y-136141847D01*
X147565379Y-136141852D01*
X147663339Y-136250648D01*
X147688747Y-136278866D01*
X147843248Y-136391118D01*
X147849276Y-136393802D01*
X147849278Y-136393803D01*
X148011681Y-136466109D01*
X148017712Y-136468794D01*
X148111112Y-136488647D01*
X148198056Y-136507128D01*
X148198061Y-136507128D01*
X148204513Y-136508500D01*
X148395487Y-136508500D01*
X148401939Y-136507128D01*
X148401944Y-136507128D01*
X148488888Y-136488647D01*
X148582288Y-136468794D01*
X148588319Y-136466109D01*
X148750722Y-136393803D01*
X148750724Y-136393802D01*
X148756752Y-136391118D01*
X148911253Y-136278866D01*
X148936661Y-136250648D01*
X149034621Y-136141852D01*
X149034625Y-136141847D01*
X149039040Y-136136944D01*
X149134527Y-135971556D01*
X149193542Y-135789928D01*
X149213504Y-135600000D01*
X149207855Y-135546252D01*
X149194232Y-135416635D01*
X149194232Y-135416633D01*
X149193542Y-135410072D01*
X149134527Y-135228444D01*
X149039040Y-135063056D01*
X148965863Y-134981785D01*
X148935147Y-134917779D01*
X148933500Y-134897476D01*
X148933500Y-124503995D01*
X148934757Y-124486241D01*
X148937432Y-124467445D01*
X148938013Y-124463364D01*
X148938153Y-124450000D01*
X148936808Y-124438884D01*
X148936506Y-124436130D01*
X148921034Y-124279045D01*
X148921034Y-124279044D01*
X148920427Y-124272883D01*
X148868764Y-124102572D01*
X148784868Y-123945613D01*
X148671962Y-123808038D01*
X148534387Y-123695132D01*
X148528928Y-123692214D01*
X148382890Y-123614155D01*
X148382886Y-123614153D01*
X148377428Y-123611236D01*
X148371508Y-123609440D01*
X148371505Y-123609439D01*
X148213041Y-123561370D01*
X148207117Y-123559573D01*
X148141832Y-123553143D01*
X148122849Y-123549791D01*
X148117711Y-123548472D01*
X148117710Y-123548472D01*
X148110030Y-123546500D01*
X148083996Y-123546500D01*
X148066243Y-123545243D01*
X148047448Y-123542568D01*
X148047444Y-123542568D01*
X148043364Y-123541987D01*
X148036385Y-123541914D01*
X148034120Y-123541890D01*
X148034118Y-123541890D01*
X148030000Y-123541847D01*
X148025910Y-123542342D01*
X148025909Y-123542342D01*
X148024042Y-123542568D01*
X147999093Y-123545587D01*
X147983958Y-123546500D01*
X137184500Y-123546500D01*
X137116379Y-123526498D01*
X137069886Y-123472842D01*
X137058500Y-123420500D01*
X137058500Y-123381866D01*
X137051745Y-123319684D01*
X137000615Y-123183295D01*
X136913261Y-123066739D01*
X136796705Y-122979385D01*
X136660316Y-122928255D01*
X136598134Y-122921500D01*
X133670107Y-122921500D01*
X133601986Y-122901498D01*
X133555493Y-122847842D01*
X133545389Y-122777568D01*
X133551178Y-122753884D01*
X133552486Y-122750146D01*
X133564728Y-122724726D01*
X133608179Y-122655574D01*
X133625771Y-122633515D01*
X133683515Y-122575771D01*
X133705575Y-122558178D01*
X133774729Y-122514727D01*
X133800148Y-122502486D01*
X133834793Y-122490363D01*
X133877230Y-122475513D01*
X133904735Y-122469235D01*
X133911820Y-122468437D01*
X133960227Y-122462982D01*
X133975845Y-122464625D01*
X133975875Y-122462200D01*
X133984854Y-122462310D01*
X133993724Y-122463691D01*
X134002626Y-122462527D01*
X134002629Y-122462527D01*
X134025285Y-122459564D01*
X134041622Y-122458500D01*
X154950633Y-122458500D01*
X154970018Y-122460000D01*
G37*
%TD.AperFunction*%
%TA.AperFunction,Conductor*%
G36*
X139515811Y-144947944D02*
G01*
X139616818Y-145066208D01*
X139616823Y-145066213D01*
X139620031Y-145069969D01*
X139800584Y-145224176D01*
X139804792Y-145226755D01*
X139804798Y-145226759D01*
X139909186Y-145290728D01*
X140003037Y-145348240D01*
X140007610Y-145350134D01*
X140009596Y-145351146D01*
X140061214Y-145399892D01*
X140072971Y-145426837D01*
X140076994Y-145440099D01*
X140118464Y-145576804D01*
X140120520Y-145583582D01*
X140159326Y-145656184D01*
X140200567Y-145733342D01*
X140200570Y-145733346D01*
X140203487Y-145738804D01*
X140226993Y-145767445D01*
X140236533Y-145779070D01*
X140264288Y-145844417D01*
X140252307Y-145914396D01*
X140204395Y-145966788D01*
X140187353Y-145975414D01*
X140007611Y-146049865D01*
X140007607Y-146049867D01*
X140003037Y-146051760D01*
X139998817Y-146054346D01*
X139804798Y-146173241D01*
X139804792Y-146173245D01*
X139800584Y-146175824D01*
X139620031Y-146330031D01*
X139616823Y-146333787D01*
X139616818Y-146333792D01*
X139486294Y-146486616D01*
X139426844Y-146525426D01*
X139392442Y-146527640D01*
X139373333Y-146535877D01*
X138239095Y-147670115D01*
X138176783Y-147704141D01*
X138105968Y-147699076D01*
X138060905Y-147670115D01*
X136929710Y-146538920D01*
X136912898Y-146529740D01*
X136849650Y-146515980D01*
X136814225Y-146487224D01*
X136683177Y-146333787D01*
X136679969Y-146330031D01*
X136499416Y-146175824D01*
X136495208Y-146173245D01*
X136495202Y-146173241D01*
X136486470Y-146167890D01*
X137282093Y-146167890D01*
X137285876Y-146176666D01*
X138137188Y-147027978D01*
X138151132Y-147035592D01*
X138152965Y-147035461D01*
X138159580Y-147031210D01*
X139011080Y-146179710D01*
X139017840Y-146167330D01*
X139012113Y-146159680D01*
X138840958Y-146054795D01*
X138832163Y-146050313D01*
X138622012Y-145963266D01*
X138612627Y-145960217D01*
X138391446Y-145907115D01*
X138381699Y-145905572D01*
X138154930Y-145887725D01*
X138145070Y-145887725D01*
X137918301Y-145905572D01*
X137908554Y-145907115D01*
X137687373Y-145960217D01*
X137677988Y-145963266D01*
X137467837Y-146050313D01*
X137459042Y-146054795D01*
X137291555Y-146157432D01*
X137282093Y-146167890D01*
X136486470Y-146167890D01*
X136301183Y-146054346D01*
X136296963Y-146051760D01*
X136292393Y-146049867D01*
X136292389Y-146049865D01*
X136082167Y-145962789D01*
X136082165Y-145962788D01*
X136077594Y-145960895D01*
X135997391Y-145941640D01*
X135851524Y-145906620D01*
X135851518Y-145906619D01*
X135846711Y-145905465D01*
X135610000Y-145886835D01*
X135373289Y-145905465D01*
X135368482Y-145906619D01*
X135368476Y-145906620D01*
X135222609Y-145941640D01*
X135142406Y-145960895D01*
X135137835Y-145962788D01*
X135137833Y-145962789D01*
X134927611Y-146049865D01*
X134927607Y-146049867D01*
X134923037Y-146051760D01*
X134918817Y-146054346D01*
X134724798Y-146173241D01*
X134724792Y-146173245D01*
X134720584Y-146175824D01*
X134540031Y-146330031D01*
X134536823Y-146333787D01*
X134455311Y-146429225D01*
X134395860Y-146468034D01*
X134324866Y-146468540D01*
X134264867Y-146430584D01*
X134234914Y-146366215D01*
X134233500Y-146347394D01*
X134233500Y-145052606D01*
X134253502Y-144984485D01*
X134307158Y-144937992D01*
X134377432Y-144927888D01*
X134442012Y-144957382D01*
X134455311Y-144970775D01*
X134525287Y-145052706D01*
X134540031Y-145069969D01*
X134720584Y-145224176D01*
X134724792Y-145226755D01*
X134724798Y-145226759D01*
X134837375Y-145295746D01*
X134923037Y-145348240D01*
X134927607Y-145350133D01*
X134927611Y-145350135D01*
X135137833Y-145437211D01*
X135142406Y-145439105D01*
X135195343Y-145451814D01*
X135368476Y-145493380D01*
X135368482Y-145493381D01*
X135373289Y-145494535D01*
X135610000Y-145513165D01*
X135846711Y-145494535D01*
X135851518Y-145493381D01*
X135851524Y-145493380D01*
X136024657Y-145451814D01*
X136077594Y-145439105D01*
X136082167Y-145437211D01*
X136292389Y-145350135D01*
X136292393Y-145350133D01*
X136296963Y-145348240D01*
X136382625Y-145295746D01*
X136495202Y-145226759D01*
X136495208Y-145226755D01*
X136499416Y-145224176D01*
X136679969Y-145069969D01*
X136683177Y-145066213D01*
X136683182Y-145066208D01*
X136784189Y-144947944D01*
X136843639Y-144909134D01*
X136914634Y-144908628D01*
X136975811Y-144947944D01*
X137076818Y-145066208D01*
X137076823Y-145066213D01*
X137080031Y-145069969D01*
X137260584Y-145224176D01*
X137264792Y-145226755D01*
X137264798Y-145226759D01*
X137377375Y-145295746D01*
X137463037Y-145348240D01*
X137467607Y-145350133D01*
X137467611Y-145350135D01*
X137677833Y-145437211D01*
X137682406Y-145439105D01*
X137735343Y-145451814D01*
X137908476Y-145493380D01*
X137908482Y-145493381D01*
X137913289Y-145494535D01*
X138150000Y-145513165D01*
X138386711Y-145494535D01*
X138391518Y-145493381D01*
X138391524Y-145493380D01*
X138564657Y-145451814D01*
X138617594Y-145439105D01*
X138622167Y-145437211D01*
X138832389Y-145350135D01*
X138832393Y-145350133D01*
X138836963Y-145348240D01*
X138922625Y-145295746D01*
X139035202Y-145226759D01*
X139035208Y-145226755D01*
X139039416Y-145224176D01*
X139219969Y-145069969D01*
X139223177Y-145066213D01*
X139223182Y-145066208D01*
X139324189Y-144947944D01*
X139383639Y-144909134D01*
X139454634Y-144908628D01*
X139515811Y-144947944D01*
G37*
%TD.AperFunction*%
%TD*%
M02*
