%TF.GenerationSoftware,KiCad,Pcbnew,(6.0.9-0)*%
%TF.CreationDate,2022-12-21T15:53:10-08:00*%
%TF.ProjectId,trackball,74726163-6b62-4616-9c6c-2e6b69636164,v01*%
%TF.SameCoordinates,Original*%
%TF.FileFunction,Profile,NP*%
%FSLAX46Y46*%
G04 Gerber Fmt 4.6, Leading zero omitted, Abs format (unit mm)*
G04 Created by KiCad (PCBNEW (6.0.9-0)) date 2022-12-21 15:53:10*
%MOMM*%
%LPD*%
G01*
G04 APERTURE LIST*
%TA.AperFunction,Profile*%
%ADD10C,0.200000*%
%TD*%
G04 APERTURE END LIST*
D10*
X164200001Y-141950004D02*
G75*
G03*
X164200001Y-141950004I-1700000J0D01*
G01*
X156500001Y-151554407D02*
X167923424Y-151554407D01*
X155500001Y-162450000D02*
X155500001Y-152554407D01*
X167923424Y-151554422D02*
G75*
G03*
X168920165Y-150473743I-23J1000022D01*
G01*
X154500001Y-163450000D02*
X134500001Y-163450000D01*
X133500001Y-162450000D02*
G75*
G03*
X134500001Y-163450000I999999J-1D01*
G01*
X133500001Y-162450000D02*
X133500001Y-152554407D01*
X156000011Y-130223889D02*
G75*
G03*
X156509805Y-131095501I999990J-11D01*
G01*
X156500001Y-151554400D02*
G75*
G03*
X155500001Y-152554407I0J-1000000D01*
G01*
X121076578Y-151554407D02*
X132500001Y-151554407D01*
X168920166Y-150473743D02*
G75*
G03*
X156509805Y-131095501I-24420168J-1976259D01*
G01*
X120079837Y-150473743D02*
G75*
G03*
X121076578Y-151554407I996742J-80663D01*
G01*
X156000001Y-122950000D02*
X156000001Y-130223889D01*
X132490197Y-131095501D02*
G75*
G03*
X120079837Y-150473743I12009804J-21354499D01*
G01*
X128200001Y-141950004D02*
G75*
G03*
X128200001Y-141950004I-1700000J0D01*
G01*
X132490197Y-131095501D02*
G75*
G03*
X133000001Y-130223889I-490194J871611D01*
G01*
X133500001Y-152554407D02*
G75*
G03*
X132500001Y-151554407I-999999J1D01*
G01*
X154500001Y-163450000D02*
G75*
G03*
X155500001Y-162450000I0J1000000D01*
G01*
X133000001Y-122950000D02*
X133000001Y-130223889D01*
X156000001Y-122950000D02*
G75*
G03*
X155000001Y-121950000I-1000000J0D01*
G01*
X134000001Y-121950000D02*
G75*
G03*
X133000001Y-122950000I-1J-999999D01*
G01*
X155000001Y-121950000D02*
X134000001Y-121950000D01*
M02*
