%TF.GenerationSoftware,KiCad,Pcbnew,(6.0.9-0)*%
%TF.CreationDate,2022-12-19T02:08:41-08:00*%
%TF.ProjectId,trackball,74726163-6b62-4616-9c6c-2e6b69636164,v01*%
%TF.SameCoordinates,Original*%
%TF.FileFunction,Profile,NP*%
%FSLAX46Y46*%
G04 Gerber Fmt 4.6, Leading zero omitted, Abs format (unit mm)*
G04 Created by KiCad (PCBNEW (6.0.9-0)) date 2022-12-19 02:08:41*
%MOMM*%
%LPD*%
G01*
G04 APERTURE LIST*
%TA.AperFunction,Profile*%
%ADD10C,0.200000*%
%TD*%
G04 APERTURE END LIST*
D10*
X164200000Y-141950004D02*
G75*
G03*
X164200000Y-141950004I-1700000J0D01*
G01*
X128200000Y-141950004D02*
G75*
G03*
X128200000Y-141950004I-1700000J0D01*
G01*
X156000010Y-131223889D02*
G75*
G03*
X156509804Y-132095501I999990J-11D01*
G01*
X168920165Y-151473743D02*
G75*
G03*
X156509804Y-132095501I-24420168J-1976259D01*
G01*
X167923423Y-152554422D02*
G75*
G03*
X168920164Y-151473743I-23J1000022D01*
G01*
X156500000Y-152554407D02*
X167923423Y-152554407D01*
X156500000Y-152554400D02*
G75*
G03*
X155500000Y-153554407I0J-1000000D01*
G01*
X155500000Y-163450000D02*
X155500000Y-153554407D01*
X154500000Y-164450000D02*
G75*
G03*
X155500000Y-163450000I0J1000000D01*
G01*
X154500000Y-164450000D02*
X134500000Y-164450000D01*
X133500000Y-163450000D02*
G75*
G03*
X134500000Y-164450000I999999J-1D01*
G01*
X133500000Y-163450000D02*
X133500000Y-153554407D01*
X133500000Y-153554407D02*
G75*
G03*
X132500000Y-152554407I-999999J1D01*
G01*
X121076577Y-152554407D02*
X132500000Y-152554407D01*
X120079836Y-151473743D02*
G75*
G03*
X121076577Y-152554407I996742J-80663D01*
G01*
X132490196Y-132095501D02*
G75*
G03*
X120079836Y-151473743I12009804J-21354499D01*
G01*
X132490196Y-132095501D02*
G75*
G03*
X133000000Y-131223889I-490194J871611D01*
G01*
X133000000Y-122950000D02*
X133000000Y-131223889D01*
X134000000Y-121950000D02*
G75*
G03*
X133000000Y-122950000I-1J-999999D01*
G01*
X155000000Y-121950000D02*
X134000000Y-121950000D01*
X156000000Y-122950000D02*
G75*
G03*
X155000000Y-121950000I-1000000J0D01*
G01*
X156000000Y-122950000D02*
X156000000Y-131223889D01*
M02*
