%TF.GenerationSoftware,KiCad,Pcbnew,(6.0.9-0)*%
%TF.CreationDate,2022-12-19T02:08:40-08:00*%
%TF.ProjectId,trackball,74726163-6b62-4616-9c6c-2e6b69636164,v01*%
%TF.SameCoordinates,Original*%
%TF.FileFunction,Legend,Bot*%
%TF.FilePolarity,Positive*%
%FSLAX46Y46*%
G04 Gerber Fmt 4.6, Leading zero omitted, Abs format (unit mm)*
G04 Created by KiCad (PCBNEW (6.0.9-0)) date 2022-12-19 02:08:40*
%MOMM*%
%LPD*%
G01*
G04 APERTURE LIST*
%ADD10C,0.100000*%
%ADD11C,0.150000*%
%ADD12C,0.125000*%
%ADD13C,0.120000*%
G04 APERTURE END LIST*
D10*
X146095238Y-150797380D02*
X146023809Y-150821190D01*
X145904761Y-150821190D01*
X145857142Y-150797380D01*
X145833333Y-150773571D01*
X145809523Y-150725952D01*
X145809523Y-150678333D01*
X145833333Y-150630714D01*
X145857142Y-150606904D01*
X145904761Y-150583095D01*
X146000000Y-150559285D01*
X146047619Y-150535476D01*
X146071428Y-150511666D01*
X146095238Y-150464047D01*
X146095238Y-150416428D01*
X146071428Y-150368809D01*
X146047619Y-150345000D01*
X146000000Y-150321190D01*
X145880952Y-150321190D01*
X145809523Y-150345000D01*
X145404761Y-150797380D02*
X145452380Y-150821190D01*
X145547619Y-150821190D01*
X145595238Y-150797380D01*
X145619047Y-150749761D01*
X145619047Y-150559285D01*
X145595238Y-150511666D01*
X145547619Y-150487857D01*
X145452380Y-150487857D01*
X145404761Y-150511666D01*
X145380952Y-150559285D01*
X145380952Y-150606904D01*
X145619047Y-150654523D01*
X145166666Y-150487857D02*
X145166666Y-150821190D01*
X145166666Y-150535476D02*
X145142857Y-150511666D01*
X145095238Y-150487857D01*
X145023809Y-150487857D01*
X144976190Y-150511666D01*
X144952380Y-150559285D01*
X144952380Y-150821190D01*
X144738095Y-150797380D02*
X144690476Y-150821190D01*
X144595238Y-150821190D01*
X144547619Y-150797380D01*
X144523809Y-150749761D01*
X144523809Y-150725952D01*
X144547619Y-150678333D01*
X144595238Y-150654523D01*
X144666666Y-150654523D01*
X144714285Y-150630714D01*
X144738095Y-150583095D01*
X144738095Y-150559285D01*
X144714285Y-150511666D01*
X144666666Y-150487857D01*
X144595238Y-150487857D01*
X144547619Y-150511666D01*
X144238095Y-150821190D02*
X144285714Y-150797380D01*
X144309523Y-150773571D01*
X144333333Y-150725952D01*
X144333333Y-150583095D01*
X144309523Y-150535476D01*
X144285714Y-150511666D01*
X144238095Y-150487857D01*
X144166666Y-150487857D01*
X144119047Y-150511666D01*
X144095238Y-150535476D01*
X144071428Y-150583095D01*
X144071428Y-150725952D01*
X144095238Y-150773571D01*
X144119047Y-150797380D01*
X144166666Y-150821190D01*
X144238095Y-150821190D01*
X143857142Y-150821190D02*
X143857142Y-150487857D01*
X143857142Y-150583095D02*
X143833333Y-150535476D01*
X143809523Y-150511666D01*
X143761904Y-150487857D01*
X143714285Y-150487857D01*
X143190476Y-150368809D02*
X143166666Y-150345000D01*
X143119047Y-150321190D01*
X143000000Y-150321190D01*
X142952380Y-150345000D01*
X142928571Y-150368809D01*
X142904761Y-150416428D01*
X142904761Y-150464047D01*
X142928571Y-150535476D01*
X143214285Y-150821190D01*
X142904761Y-150821190D01*
X149702380Y-151626190D02*
X149702380Y-151126190D01*
X149535714Y-151483333D01*
X149369047Y-151126190D01*
X149369047Y-151626190D01*
X149130952Y-151626190D02*
X149130952Y-151292857D01*
X149130952Y-151388095D02*
X149107142Y-151340476D01*
X149083333Y-151316666D01*
X149035714Y-151292857D01*
X148988095Y-151292857D01*
X148678571Y-151126190D02*
X148678571Y-151483333D01*
X148702380Y-151554761D01*
X148750000Y-151602380D01*
X148821428Y-151626190D01*
X148869047Y-151626190D01*
X148369047Y-151626190D02*
X148416666Y-151602380D01*
X148440476Y-151578571D01*
X148464285Y-151530952D01*
X148464285Y-151388095D01*
X148440476Y-151340476D01*
X148416666Y-151316666D01*
X148369047Y-151292857D01*
X148297619Y-151292857D01*
X148250000Y-151316666D01*
X148226190Y-151340476D01*
X148202380Y-151388095D01*
X148202380Y-151530952D01*
X148226190Y-151578571D01*
X148250000Y-151602380D01*
X148297619Y-151626190D01*
X148369047Y-151626190D01*
X147988095Y-151626190D02*
X147988095Y-151126190D01*
X147773809Y-151626190D02*
X147773809Y-151364285D01*
X147797619Y-151316666D01*
X147845238Y-151292857D01*
X147916666Y-151292857D01*
X147964285Y-151316666D01*
X147988095Y-151340476D01*
X147535714Y-151292857D02*
X147535714Y-151626190D01*
X147535714Y-151340476D02*
X147511904Y-151316666D01*
X147464285Y-151292857D01*
X147392857Y-151292857D01*
X147345238Y-151316666D01*
X147321428Y-151364285D01*
X147321428Y-151626190D01*
X147083333Y-151626190D02*
X147083333Y-151126190D01*
X146797619Y-151626190D02*
X147011904Y-151340476D01*
X146797619Y-151126190D02*
X147083333Y-151411904D01*
X146202380Y-151626190D02*
X146202380Y-151126190D01*
X146011904Y-151126190D01*
X145964285Y-151150000D01*
X145940476Y-151173809D01*
X145916666Y-151221428D01*
X145916666Y-151292857D01*
X145940476Y-151340476D01*
X145964285Y-151364285D01*
X146011904Y-151388095D01*
X146202380Y-151388095D01*
X145702380Y-151626190D02*
X145702380Y-151126190D01*
X145535714Y-151483333D01*
X145369047Y-151126190D01*
X145369047Y-151626190D01*
X145178571Y-151126190D02*
X145059523Y-151626190D01*
X144964285Y-151269047D01*
X144869047Y-151626190D01*
X144750000Y-151126190D01*
X144607142Y-151126190D02*
X144297619Y-151126190D01*
X144464285Y-151316666D01*
X144392857Y-151316666D01*
X144345238Y-151340476D01*
X144321428Y-151364285D01*
X144297619Y-151411904D01*
X144297619Y-151530952D01*
X144321428Y-151578571D01*
X144345238Y-151602380D01*
X144392857Y-151626190D01*
X144535714Y-151626190D01*
X144583333Y-151602380D01*
X144607142Y-151578571D01*
X144130952Y-151126190D02*
X143821428Y-151126190D01*
X143988095Y-151316666D01*
X143916666Y-151316666D01*
X143869047Y-151340476D01*
X143845238Y-151364285D01*
X143821428Y-151411904D01*
X143821428Y-151530952D01*
X143845238Y-151578571D01*
X143869047Y-151602380D01*
X143916666Y-151626190D01*
X144059523Y-151626190D01*
X144107142Y-151602380D01*
X144130952Y-151578571D01*
X143392857Y-151126190D02*
X143488095Y-151126190D01*
X143535714Y-151150000D01*
X143559523Y-151173809D01*
X143607142Y-151245238D01*
X143630952Y-151340476D01*
X143630952Y-151530952D01*
X143607142Y-151578571D01*
X143583333Y-151602380D01*
X143535714Y-151626190D01*
X143440476Y-151626190D01*
X143392857Y-151602380D01*
X143369047Y-151578571D01*
X143345238Y-151530952D01*
X143345238Y-151411904D01*
X143369047Y-151364285D01*
X143392857Y-151340476D01*
X143440476Y-151316666D01*
X143535714Y-151316666D01*
X143583333Y-151340476D01*
X143607142Y-151364285D01*
X143630952Y-151411904D01*
X143035714Y-151126190D02*
X142988095Y-151126190D01*
X142940476Y-151150000D01*
X142916666Y-151173809D01*
X142892857Y-151221428D01*
X142869047Y-151316666D01*
X142869047Y-151435714D01*
X142892857Y-151530952D01*
X142916666Y-151578571D01*
X142940476Y-151602380D01*
X142988095Y-151626190D01*
X143035714Y-151626190D01*
X143083333Y-151602380D01*
X143107142Y-151578571D01*
X143130952Y-151530952D01*
X143154761Y-151435714D01*
X143154761Y-151316666D01*
X143130952Y-151221428D01*
X143107142Y-151173809D01*
X143083333Y-151150000D01*
X143035714Y-151126190D01*
X142654761Y-151626190D02*
X142654761Y-151126190D01*
X142535714Y-151126190D01*
X142464285Y-151150000D01*
X142416666Y-151197619D01*
X142392857Y-151245238D01*
X142369047Y-151340476D01*
X142369047Y-151411904D01*
X142392857Y-151507142D01*
X142416666Y-151554761D01*
X142464285Y-151602380D01*
X142535714Y-151626190D01*
X142654761Y-151626190D01*
X142154761Y-151626190D02*
X142154761Y-151126190D01*
X141988095Y-151483333D01*
X141821428Y-151126190D01*
X141821428Y-151626190D01*
X141583333Y-151435714D02*
X141202380Y-151435714D01*
X141035714Y-151126190D02*
X140750000Y-151126190D01*
X140892857Y-151626190D02*
X140892857Y-151126190D01*
X140607142Y-151173809D02*
X140583333Y-151150000D01*
X140535714Y-151126190D01*
X140416666Y-151126190D01*
X140369047Y-151150000D01*
X140345238Y-151173809D01*
X140321428Y-151221428D01*
X140321428Y-151269047D01*
X140345238Y-151340476D01*
X140630952Y-151626190D01*
X140321428Y-151626190D01*
X139773809Y-151673809D02*
X139821428Y-151650000D01*
X139869047Y-151602380D01*
X139940476Y-151530952D01*
X139988095Y-151507142D01*
X140035714Y-151507142D01*
X140011904Y-151626190D02*
X140059523Y-151602380D01*
X140107142Y-151554761D01*
X140130952Y-151459523D01*
X140130952Y-151292857D01*
X140107142Y-151197619D01*
X140059523Y-151150000D01*
X140011904Y-151126190D01*
X139916666Y-151126190D01*
X139869047Y-151150000D01*
X139821428Y-151197619D01*
X139797619Y-151292857D01*
X139797619Y-151459523D01*
X139821428Y-151554761D01*
X139869047Y-151602380D01*
X139916666Y-151626190D01*
X140011904Y-151626190D01*
X139583333Y-151126190D02*
X139583333Y-151530952D01*
X139559523Y-151578571D01*
X139535714Y-151602380D01*
X139488095Y-151626190D01*
X139392857Y-151626190D01*
X139345238Y-151602380D01*
X139321428Y-151578571D01*
X139297619Y-151530952D01*
X139297619Y-151126190D01*
X149702380Y-152431190D02*
X149702380Y-151931190D01*
X149535714Y-152288333D01*
X149369047Y-151931190D01*
X149369047Y-152431190D01*
X149130952Y-152431190D02*
X149130952Y-152097857D01*
X149130952Y-152193095D02*
X149107142Y-152145476D01*
X149083333Y-152121666D01*
X149035714Y-152097857D01*
X148988095Y-152097857D01*
X148678571Y-151931190D02*
X148678571Y-152288333D01*
X148702380Y-152359761D01*
X148750000Y-152407380D01*
X148821428Y-152431190D01*
X148869047Y-152431190D01*
X148369047Y-152431190D02*
X148416666Y-152407380D01*
X148440476Y-152383571D01*
X148464285Y-152335952D01*
X148464285Y-152193095D01*
X148440476Y-152145476D01*
X148416666Y-152121666D01*
X148369047Y-152097857D01*
X148297619Y-152097857D01*
X148250000Y-152121666D01*
X148226190Y-152145476D01*
X148202380Y-152193095D01*
X148202380Y-152335952D01*
X148226190Y-152383571D01*
X148250000Y-152407380D01*
X148297619Y-152431190D01*
X148369047Y-152431190D01*
X147988095Y-152431190D02*
X147988095Y-151931190D01*
X147773809Y-152431190D02*
X147773809Y-152169285D01*
X147797619Y-152121666D01*
X147845238Y-152097857D01*
X147916666Y-152097857D01*
X147964285Y-152121666D01*
X147988095Y-152145476D01*
X147535714Y-152097857D02*
X147535714Y-152431190D01*
X147535714Y-152145476D02*
X147511904Y-152121666D01*
X147464285Y-152097857D01*
X147392857Y-152097857D01*
X147345238Y-152121666D01*
X147321428Y-152169285D01*
X147321428Y-152431190D01*
X147083333Y-152431190D02*
X147083333Y-151931190D01*
X146797619Y-152431190D02*
X147011904Y-152145476D01*
X146797619Y-151931190D02*
X147083333Y-152216904D01*
X146202380Y-152431190D02*
X146202380Y-151931190D01*
X146011904Y-151931190D01*
X145964285Y-151955000D01*
X145940476Y-151978809D01*
X145916666Y-152026428D01*
X145916666Y-152097857D01*
X145940476Y-152145476D01*
X145964285Y-152169285D01*
X146011904Y-152193095D01*
X146202380Y-152193095D01*
X145702380Y-152431190D02*
X145702380Y-151931190D01*
X145535714Y-152288333D01*
X145369047Y-151931190D01*
X145369047Y-152431190D01*
X145178571Y-151931190D02*
X145059523Y-152431190D01*
X144964285Y-152074047D01*
X144869047Y-152431190D01*
X144750000Y-151931190D01*
X144607142Y-151931190D02*
X144297619Y-151931190D01*
X144464285Y-152121666D01*
X144392857Y-152121666D01*
X144345238Y-152145476D01*
X144321428Y-152169285D01*
X144297619Y-152216904D01*
X144297619Y-152335952D01*
X144321428Y-152383571D01*
X144345238Y-152407380D01*
X144392857Y-152431190D01*
X144535714Y-152431190D01*
X144583333Y-152407380D01*
X144607142Y-152383571D01*
X144130952Y-151931190D02*
X143821428Y-151931190D01*
X143988095Y-152121666D01*
X143916666Y-152121666D01*
X143869047Y-152145476D01*
X143845238Y-152169285D01*
X143821428Y-152216904D01*
X143821428Y-152335952D01*
X143845238Y-152383571D01*
X143869047Y-152407380D01*
X143916666Y-152431190D01*
X144059523Y-152431190D01*
X144107142Y-152407380D01*
X144130952Y-152383571D01*
X143535714Y-152145476D02*
X143583333Y-152121666D01*
X143607142Y-152097857D01*
X143630952Y-152050238D01*
X143630952Y-152026428D01*
X143607142Y-151978809D01*
X143583333Y-151955000D01*
X143535714Y-151931190D01*
X143440476Y-151931190D01*
X143392857Y-151955000D01*
X143369047Y-151978809D01*
X143345238Y-152026428D01*
X143345238Y-152050238D01*
X143369047Y-152097857D01*
X143392857Y-152121666D01*
X143440476Y-152145476D01*
X143535714Y-152145476D01*
X143583333Y-152169285D01*
X143607142Y-152193095D01*
X143630952Y-152240714D01*
X143630952Y-152335952D01*
X143607142Y-152383571D01*
X143583333Y-152407380D01*
X143535714Y-152431190D01*
X143440476Y-152431190D01*
X143392857Y-152407380D01*
X143369047Y-152383571D01*
X143345238Y-152335952D01*
X143345238Y-152240714D01*
X143369047Y-152193095D01*
X143392857Y-152169285D01*
X143440476Y-152145476D01*
X143107142Y-152431190D02*
X143011904Y-152431190D01*
X142964285Y-152407380D01*
X142940476Y-152383571D01*
X142892857Y-152312142D01*
X142869047Y-152216904D01*
X142869047Y-152026428D01*
X142892857Y-151978809D01*
X142916666Y-151955000D01*
X142964285Y-151931190D01*
X143059523Y-151931190D01*
X143107142Y-151955000D01*
X143130952Y-151978809D01*
X143154761Y-152026428D01*
X143154761Y-152145476D01*
X143130952Y-152193095D01*
X143107142Y-152216904D01*
X143059523Y-152240714D01*
X142964285Y-152240714D01*
X142916666Y-152216904D01*
X142892857Y-152193095D01*
X142869047Y-152145476D01*
X142654761Y-152431190D02*
X142654761Y-151931190D01*
X142535714Y-151931190D01*
X142464285Y-151955000D01*
X142416666Y-152002619D01*
X142392857Y-152050238D01*
X142369047Y-152145476D01*
X142369047Y-152216904D01*
X142392857Y-152312142D01*
X142416666Y-152359761D01*
X142464285Y-152407380D01*
X142535714Y-152431190D01*
X142654761Y-152431190D01*
X142154761Y-152431190D02*
X142154761Y-151931190D01*
X141988095Y-152288333D01*
X141821428Y-151931190D01*
X141821428Y-152431190D01*
X141583333Y-152240714D02*
X141202380Y-152240714D01*
X141035714Y-151931190D02*
X140750000Y-151931190D01*
X140892857Y-152431190D02*
X140892857Y-151931190D01*
X140630952Y-151931190D02*
X140321428Y-151931190D01*
X140488095Y-152121666D01*
X140416666Y-152121666D01*
X140369047Y-152145476D01*
X140345238Y-152169285D01*
X140321428Y-152216904D01*
X140321428Y-152335952D01*
X140345238Y-152383571D01*
X140369047Y-152407380D01*
X140416666Y-152431190D01*
X140559523Y-152431190D01*
X140607142Y-152407380D01*
X140630952Y-152383571D01*
X139773809Y-152478809D02*
X139821428Y-152455000D01*
X139869047Y-152407380D01*
X139940476Y-152335952D01*
X139988095Y-152312142D01*
X140035714Y-152312142D01*
X140011904Y-152431190D02*
X140059523Y-152407380D01*
X140107142Y-152359761D01*
X140130952Y-152264523D01*
X140130952Y-152097857D01*
X140107142Y-152002619D01*
X140059523Y-151955000D01*
X140011904Y-151931190D01*
X139916666Y-151931190D01*
X139869047Y-151955000D01*
X139821428Y-152002619D01*
X139797619Y-152097857D01*
X139797619Y-152264523D01*
X139821428Y-152359761D01*
X139869047Y-152407380D01*
X139916666Y-152431190D01*
X140011904Y-152431190D01*
X139583333Y-151931190D02*
X139583333Y-152335952D01*
X139559523Y-152383571D01*
X139535714Y-152407380D01*
X139488095Y-152431190D01*
X139392857Y-152431190D01*
X139345238Y-152407380D01*
X139321428Y-152383571D01*
X139297619Y-152335952D01*
X139297619Y-151931190D01*
X146095238Y-138797380D02*
X146023809Y-138821190D01*
X145904761Y-138821190D01*
X145857142Y-138797380D01*
X145833333Y-138773571D01*
X145809523Y-138725952D01*
X145809523Y-138678333D01*
X145833333Y-138630714D01*
X145857142Y-138606904D01*
X145904761Y-138583095D01*
X146000000Y-138559285D01*
X146047619Y-138535476D01*
X146071428Y-138511666D01*
X146095238Y-138464047D01*
X146095238Y-138416428D01*
X146071428Y-138368809D01*
X146047619Y-138345000D01*
X146000000Y-138321190D01*
X145880952Y-138321190D01*
X145809523Y-138345000D01*
X145404761Y-138797380D02*
X145452380Y-138821190D01*
X145547619Y-138821190D01*
X145595238Y-138797380D01*
X145619047Y-138749761D01*
X145619047Y-138559285D01*
X145595238Y-138511666D01*
X145547619Y-138487857D01*
X145452380Y-138487857D01*
X145404761Y-138511666D01*
X145380952Y-138559285D01*
X145380952Y-138606904D01*
X145619047Y-138654523D01*
X145166666Y-138487857D02*
X145166666Y-138821190D01*
X145166666Y-138535476D02*
X145142857Y-138511666D01*
X145095238Y-138487857D01*
X145023809Y-138487857D01*
X144976190Y-138511666D01*
X144952380Y-138559285D01*
X144952380Y-138821190D01*
X144738095Y-138797380D02*
X144690476Y-138821190D01*
X144595238Y-138821190D01*
X144547619Y-138797380D01*
X144523809Y-138749761D01*
X144523809Y-138725952D01*
X144547619Y-138678333D01*
X144595238Y-138654523D01*
X144666666Y-138654523D01*
X144714285Y-138630714D01*
X144738095Y-138583095D01*
X144738095Y-138559285D01*
X144714285Y-138511666D01*
X144666666Y-138487857D01*
X144595238Y-138487857D01*
X144547619Y-138511666D01*
X144238095Y-138821190D02*
X144285714Y-138797380D01*
X144309523Y-138773571D01*
X144333333Y-138725952D01*
X144333333Y-138583095D01*
X144309523Y-138535476D01*
X144285714Y-138511666D01*
X144238095Y-138487857D01*
X144166666Y-138487857D01*
X144119047Y-138511666D01*
X144095238Y-138535476D01*
X144071428Y-138583095D01*
X144071428Y-138725952D01*
X144095238Y-138773571D01*
X144119047Y-138797380D01*
X144166666Y-138821190D01*
X144238095Y-138821190D01*
X143857142Y-138821190D02*
X143857142Y-138487857D01*
X143857142Y-138583095D02*
X143833333Y-138535476D01*
X143809523Y-138511666D01*
X143761904Y-138487857D01*
X143714285Y-138487857D01*
X142904761Y-138821190D02*
X143190476Y-138821190D01*
X143047619Y-138821190D02*
X143047619Y-138321190D01*
X143095238Y-138392619D01*
X143142857Y-138440238D01*
X143190476Y-138464047D01*
X149702380Y-139626190D02*
X149702380Y-139126190D01*
X149535714Y-139483333D01*
X149369047Y-139126190D01*
X149369047Y-139626190D01*
X149130952Y-139626190D02*
X149130952Y-139292857D01*
X149130952Y-139388095D02*
X149107142Y-139340476D01*
X149083333Y-139316666D01*
X149035714Y-139292857D01*
X148988095Y-139292857D01*
X148678571Y-139126190D02*
X148678571Y-139483333D01*
X148702380Y-139554761D01*
X148750000Y-139602380D01*
X148821428Y-139626190D01*
X148869047Y-139626190D01*
X148369047Y-139626190D02*
X148416666Y-139602380D01*
X148440476Y-139578571D01*
X148464285Y-139530952D01*
X148464285Y-139388095D01*
X148440476Y-139340476D01*
X148416666Y-139316666D01*
X148369047Y-139292857D01*
X148297619Y-139292857D01*
X148250000Y-139316666D01*
X148226190Y-139340476D01*
X148202380Y-139388095D01*
X148202380Y-139530952D01*
X148226190Y-139578571D01*
X148250000Y-139602380D01*
X148297619Y-139626190D01*
X148369047Y-139626190D01*
X147988095Y-139626190D02*
X147988095Y-139126190D01*
X147773809Y-139626190D02*
X147773809Y-139364285D01*
X147797619Y-139316666D01*
X147845238Y-139292857D01*
X147916666Y-139292857D01*
X147964285Y-139316666D01*
X147988095Y-139340476D01*
X147535714Y-139292857D02*
X147535714Y-139626190D01*
X147535714Y-139340476D02*
X147511904Y-139316666D01*
X147464285Y-139292857D01*
X147392857Y-139292857D01*
X147345238Y-139316666D01*
X147321428Y-139364285D01*
X147321428Y-139626190D01*
X147083333Y-139626190D02*
X147083333Y-139126190D01*
X146797619Y-139626190D02*
X147011904Y-139340476D01*
X146797619Y-139126190D02*
X147083333Y-139411904D01*
X146202380Y-139626190D02*
X146202380Y-139126190D01*
X146011904Y-139126190D01*
X145964285Y-139150000D01*
X145940476Y-139173809D01*
X145916666Y-139221428D01*
X145916666Y-139292857D01*
X145940476Y-139340476D01*
X145964285Y-139364285D01*
X146011904Y-139388095D01*
X146202380Y-139388095D01*
X145702380Y-139626190D02*
X145702380Y-139126190D01*
X145535714Y-139483333D01*
X145369047Y-139126190D01*
X145369047Y-139626190D01*
X145178571Y-139126190D02*
X145059523Y-139626190D01*
X144964285Y-139269047D01*
X144869047Y-139626190D01*
X144750000Y-139126190D01*
X144607142Y-139126190D02*
X144297619Y-139126190D01*
X144464285Y-139316666D01*
X144392857Y-139316666D01*
X144345238Y-139340476D01*
X144321428Y-139364285D01*
X144297619Y-139411904D01*
X144297619Y-139530952D01*
X144321428Y-139578571D01*
X144345238Y-139602380D01*
X144392857Y-139626190D01*
X144535714Y-139626190D01*
X144583333Y-139602380D01*
X144607142Y-139578571D01*
X144130952Y-139126190D02*
X143821428Y-139126190D01*
X143988095Y-139316666D01*
X143916666Y-139316666D01*
X143869047Y-139340476D01*
X143845238Y-139364285D01*
X143821428Y-139411904D01*
X143821428Y-139530952D01*
X143845238Y-139578571D01*
X143869047Y-139602380D01*
X143916666Y-139626190D01*
X144059523Y-139626190D01*
X144107142Y-139602380D01*
X144130952Y-139578571D01*
X143392857Y-139126190D02*
X143488095Y-139126190D01*
X143535714Y-139150000D01*
X143559523Y-139173809D01*
X143607142Y-139245238D01*
X143630952Y-139340476D01*
X143630952Y-139530952D01*
X143607142Y-139578571D01*
X143583333Y-139602380D01*
X143535714Y-139626190D01*
X143440476Y-139626190D01*
X143392857Y-139602380D01*
X143369047Y-139578571D01*
X143345238Y-139530952D01*
X143345238Y-139411904D01*
X143369047Y-139364285D01*
X143392857Y-139340476D01*
X143440476Y-139316666D01*
X143535714Y-139316666D01*
X143583333Y-139340476D01*
X143607142Y-139364285D01*
X143630952Y-139411904D01*
X143035714Y-139126190D02*
X142988095Y-139126190D01*
X142940476Y-139150000D01*
X142916666Y-139173809D01*
X142892857Y-139221428D01*
X142869047Y-139316666D01*
X142869047Y-139435714D01*
X142892857Y-139530952D01*
X142916666Y-139578571D01*
X142940476Y-139602380D01*
X142988095Y-139626190D01*
X143035714Y-139626190D01*
X143083333Y-139602380D01*
X143107142Y-139578571D01*
X143130952Y-139530952D01*
X143154761Y-139435714D01*
X143154761Y-139316666D01*
X143130952Y-139221428D01*
X143107142Y-139173809D01*
X143083333Y-139150000D01*
X143035714Y-139126190D01*
X142654761Y-139626190D02*
X142654761Y-139126190D01*
X142535714Y-139126190D01*
X142464285Y-139150000D01*
X142416666Y-139197619D01*
X142392857Y-139245238D01*
X142369047Y-139340476D01*
X142369047Y-139411904D01*
X142392857Y-139507142D01*
X142416666Y-139554761D01*
X142464285Y-139602380D01*
X142535714Y-139626190D01*
X142654761Y-139626190D01*
X142154761Y-139626190D02*
X142154761Y-139126190D01*
X141988095Y-139483333D01*
X141821428Y-139126190D01*
X141821428Y-139626190D01*
X141583333Y-139435714D02*
X141202380Y-139435714D01*
X141035714Y-139126190D02*
X140750000Y-139126190D01*
X140892857Y-139626190D02*
X140892857Y-139126190D01*
X140607142Y-139173809D02*
X140583333Y-139150000D01*
X140535714Y-139126190D01*
X140416666Y-139126190D01*
X140369047Y-139150000D01*
X140345238Y-139173809D01*
X140321428Y-139221428D01*
X140321428Y-139269047D01*
X140345238Y-139340476D01*
X140630952Y-139626190D01*
X140321428Y-139626190D01*
X139773809Y-139673809D02*
X139821428Y-139650000D01*
X139869047Y-139602380D01*
X139940476Y-139530952D01*
X139988095Y-139507142D01*
X140035714Y-139507142D01*
X140011904Y-139626190D02*
X140059523Y-139602380D01*
X140107142Y-139554761D01*
X140130952Y-139459523D01*
X140130952Y-139292857D01*
X140107142Y-139197619D01*
X140059523Y-139150000D01*
X140011904Y-139126190D01*
X139916666Y-139126190D01*
X139869047Y-139150000D01*
X139821428Y-139197619D01*
X139797619Y-139292857D01*
X139797619Y-139459523D01*
X139821428Y-139554761D01*
X139869047Y-139602380D01*
X139916666Y-139626190D01*
X140011904Y-139626190D01*
X139583333Y-139126190D02*
X139583333Y-139530952D01*
X139559523Y-139578571D01*
X139535714Y-139602380D01*
X139488095Y-139626190D01*
X139392857Y-139626190D01*
X139345238Y-139602380D01*
X139321428Y-139578571D01*
X139297619Y-139530952D01*
X139297619Y-139126190D01*
X149702380Y-140431190D02*
X149702380Y-139931190D01*
X149535714Y-140288333D01*
X149369047Y-139931190D01*
X149369047Y-140431190D01*
X149130952Y-140431190D02*
X149130952Y-140097857D01*
X149130952Y-140193095D02*
X149107142Y-140145476D01*
X149083333Y-140121666D01*
X149035714Y-140097857D01*
X148988095Y-140097857D01*
X148678571Y-139931190D02*
X148678571Y-140288333D01*
X148702380Y-140359761D01*
X148750000Y-140407380D01*
X148821428Y-140431190D01*
X148869047Y-140431190D01*
X148369047Y-140431190D02*
X148416666Y-140407380D01*
X148440476Y-140383571D01*
X148464285Y-140335952D01*
X148464285Y-140193095D01*
X148440476Y-140145476D01*
X148416666Y-140121666D01*
X148369047Y-140097857D01*
X148297619Y-140097857D01*
X148250000Y-140121666D01*
X148226190Y-140145476D01*
X148202380Y-140193095D01*
X148202380Y-140335952D01*
X148226190Y-140383571D01*
X148250000Y-140407380D01*
X148297619Y-140431190D01*
X148369047Y-140431190D01*
X147988095Y-140431190D02*
X147988095Y-139931190D01*
X147773809Y-140431190D02*
X147773809Y-140169285D01*
X147797619Y-140121666D01*
X147845238Y-140097857D01*
X147916666Y-140097857D01*
X147964285Y-140121666D01*
X147988095Y-140145476D01*
X147535714Y-140097857D02*
X147535714Y-140431190D01*
X147535714Y-140145476D02*
X147511904Y-140121666D01*
X147464285Y-140097857D01*
X147392857Y-140097857D01*
X147345238Y-140121666D01*
X147321428Y-140169285D01*
X147321428Y-140431190D01*
X147083333Y-140431190D02*
X147083333Y-139931190D01*
X146797619Y-140431190D02*
X147011904Y-140145476D01*
X146797619Y-139931190D02*
X147083333Y-140216904D01*
X146202380Y-140431190D02*
X146202380Y-139931190D01*
X146011904Y-139931190D01*
X145964285Y-139955000D01*
X145940476Y-139978809D01*
X145916666Y-140026428D01*
X145916666Y-140097857D01*
X145940476Y-140145476D01*
X145964285Y-140169285D01*
X146011904Y-140193095D01*
X146202380Y-140193095D01*
X145702380Y-140431190D02*
X145702380Y-139931190D01*
X145535714Y-140288333D01*
X145369047Y-139931190D01*
X145369047Y-140431190D01*
X145178571Y-139931190D02*
X145059523Y-140431190D01*
X144964285Y-140074047D01*
X144869047Y-140431190D01*
X144750000Y-139931190D01*
X144607142Y-139931190D02*
X144297619Y-139931190D01*
X144464285Y-140121666D01*
X144392857Y-140121666D01*
X144345238Y-140145476D01*
X144321428Y-140169285D01*
X144297619Y-140216904D01*
X144297619Y-140335952D01*
X144321428Y-140383571D01*
X144345238Y-140407380D01*
X144392857Y-140431190D01*
X144535714Y-140431190D01*
X144583333Y-140407380D01*
X144607142Y-140383571D01*
X144130952Y-139931190D02*
X143821428Y-139931190D01*
X143988095Y-140121666D01*
X143916666Y-140121666D01*
X143869047Y-140145476D01*
X143845238Y-140169285D01*
X143821428Y-140216904D01*
X143821428Y-140335952D01*
X143845238Y-140383571D01*
X143869047Y-140407380D01*
X143916666Y-140431190D01*
X144059523Y-140431190D01*
X144107142Y-140407380D01*
X144130952Y-140383571D01*
X143535714Y-140145476D02*
X143583333Y-140121666D01*
X143607142Y-140097857D01*
X143630952Y-140050238D01*
X143630952Y-140026428D01*
X143607142Y-139978809D01*
X143583333Y-139955000D01*
X143535714Y-139931190D01*
X143440476Y-139931190D01*
X143392857Y-139955000D01*
X143369047Y-139978809D01*
X143345238Y-140026428D01*
X143345238Y-140050238D01*
X143369047Y-140097857D01*
X143392857Y-140121666D01*
X143440476Y-140145476D01*
X143535714Y-140145476D01*
X143583333Y-140169285D01*
X143607142Y-140193095D01*
X143630952Y-140240714D01*
X143630952Y-140335952D01*
X143607142Y-140383571D01*
X143583333Y-140407380D01*
X143535714Y-140431190D01*
X143440476Y-140431190D01*
X143392857Y-140407380D01*
X143369047Y-140383571D01*
X143345238Y-140335952D01*
X143345238Y-140240714D01*
X143369047Y-140193095D01*
X143392857Y-140169285D01*
X143440476Y-140145476D01*
X143107142Y-140431190D02*
X143011904Y-140431190D01*
X142964285Y-140407380D01*
X142940476Y-140383571D01*
X142892857Y-140312142D01*
X142869047Y-140216904D01*
X142869047Y-140026428D01*
X142892857Y-139978809D01*
X142916666Y-139955000D01*
X142964285Y-139931190D01*
X143059523Y-139931190D01*
X143107142Y-139955000D01*
X143130952Y-139978809D01*
X143154761Y-140026428D01*
X143154761Y-140145476D01*
X143130952Y-140193095D01*
X143107142Y-140216904D01*
X143059523Y-140240714D01*
X142964285Y-140240714D01*
X142916666Y-140216904D01*
X142892857Y-140193095D01*
X142869047Y-140145476D01*
X142654761Y-140431190D02*
X142654761Y-139931190D01*
X142535714Y-139931190D01*
X142464285Y-139955000D01*
X142416666Y-140002619D01*
X142392857Y-140050238D01*
X142369047Y-140145476D01*
X142369047Y-140216904D01*
X142392857Y-140312142D01*
X142416666Y-140359761D01*
X142464285Y-140407380D01*
X142535714Y-140431190D01*
X142654761Y-140431190D01*
X142154761Y-140431190D02*
X142154761Y-139931190D01*
X141988095Y-140288333D01*
X141821428Y-139931190D01*
X141821428Y-140431190D01*
X141583333Y-140240714D02*
X141202380Y-140240714D01*
X141035714Y-139931190D02*
X140750000Y-139931190D01*
X140892857Y-140431190D02*
X140892857Y-139931190D01*
X140630952Y-139931190D02*
X140321428Y-139931190D01*
X140488095Y-140121666D01*
X140416666Y-140121666D01*
X140369047Y-140145476D01*
X140345238Y-140169285D01*
X140321428Y-140216904D01*
X140321428Y-140335952D01*
X140345238Y-140383571D01*
X140369047Y-140407380D01*
X140416666Y-140431190D01*
X140559523Y-140431190D01*
X140607142Y-140407380D01*
X140630952Y-140383571D01*
X139773809Y-140478809D02*
X139821428Y-140455000D01*
X139869047Y-140407380D01*
X139940476Y-140335952D01*
X139988095Y-140312142D01*
X140035714Y-140312142D01*
X140011904Y-140431190D02*
X140059523Y-140407380D01*
X140107142Y-140359761D01*
X140130952Y-140264523D01*
X140130952Y-140097857D01*
X140107142Y-140002619D01*
X140059523Y-139955000D01*
X140011904Y-139931190D01*
X139916666Y-139931190D01*
X139869047Y-139955000D01*
X139821428Y-140002619D01*
X139797619Y-140097857D01*
X139797619Y-140264523D01*
X139821428Y-140359761D01*
X139869047Y-140407380D01*
X139916666Y-140431190D01*
X140011904Y-140431190D01*
X139583333Y-139931190D02*
X139583333Y-140335952D01*
X139559523Y-140383571D01*
X139535714Y-140407380D01*
X139488095Y-140431190D01*
X139392857Y-140431190D01*
X139345238Y-140407380D01*
X139321428Y-140383571D01*
X139297619Y-140335952D01*
X139297619Y-139931190D01*
D11*
%TO.C,U3*%
X143738095Y-168447619D02*
X143738095Y-167638095D01*
X143785714Y-167542857D01*
X143833333Y-167495238D01*
X143928571Y-167447619D01*
X144119047Y-167447619D01*
X144214285Y-167495238D01*
X144261904Y-167542857D01*
X144309523Y-167638095D01*
X144309523Y-168447619D01*
X144690476Y-168447619D02*
X145309523Y-168447619D01*
X144976190Y-168066666D01*
X145119047Y-168066666D01*
X145214285Y-168019047D01*
X145261904Y-167971428D01*
X145309523Y-167876190D01*
X145309523Y-167638095D01*
X145261904Y-167542857D01*
X145214285Y-167495238D01*
X145119047Y-167447619D01*
X144833333Y-167447619D01*
X144738095Y-167495238D01*
X144690476Y-167542857D01*
D12*
X147871428Y-148673809D02*
X147871428Y-149173809D01*
X148038095Y-148816666D01*
X148204761Y-149173809D01*
X148204761Y-148673809D01*
X148538095Y-149173809D02*
X148633333Y-149173809D01*
X148680952Y-149150000D01*
X148728571Y-149102380D01*
X148752380Y-149007142D01*
X148752380Y-148840476D01*
X148728571Y-148745238D01*
X148680952Y-148697619D01*
X148633333Y-148673809D01*
X148538095Y-148673809D01*
X148490476Y-148697619D01*
X148442857Y-148745238D01*
X148419047Y-148840476D01*
X148419047Y-149007142D01*
X148442857Y-149102380D01*
X148490476Y-149150000D01*
X148538095Y-149173809D01*
X135516666Y-148673809D02*
X135350000Y-148911904D01*
X135230952Y-148673809D02*
X135230952Y-149173809D01*
X135421428Y-149173809D01*
X135469047Y-149150000D01*
X135492857Y-149126190D01*
X135516666Y-149078571D01*
X135516666Y-149007142D01*
X135492857Y-148959523D01*
X135469047Y-148935714D01*
X135421428Y-148911904D01*
X135230952Y-148911904D01*
X135707142Y-148697619D02*
X135778571Y-148673809D01*
X135897619Y-148673809D01*
X135945238Y-148697619D01*
X135969047Y-148721428D01*
X135992857Y-148769047D01*
X135992857Y-148816666D01*
X135969047Y-148864285D01*
X135945238Y-148888095D01*
X135897619Y-148911904D01*
X135802380Y-148935714D01*
X135754761Y-148959523D01*
X135730952Y-148983333D01*
X135707142Y-149030952D01*
X135707142Y-149078571D01*
X135730952Y-149126190D01*
X135754761Y-149150000D01*
X135802380Y-149173809D01*
X135921428Y-149173809D01*
X135992857Y-149150000D01*
X142869047Y-148697619D02*
X142940476Y-148673809D01*
X143059523Y-148673809D01*
X143107142Y-148697619D01*
X143130952Y-148721428D01*
X143154761Y-148769047D01*
X143154761Y-148816666D01*
X143130952Y-148864285D01*
X143107142Y-148888095D01*
X143059523Y-148911904D01*
X142964285Y-148935714D01*
X142916666Y-148959523D01*
X142892857Y-148983333D01*
X142869047Y-149030952D01*
X142869047Y-149078571D01*
X142892857Y-149126190D01*
X142916666Y-149150000D01*
X142964285Y-149173809D01*
X143083333Y-149173809D01*
X143154761Y-149150000D01*
X143345238Y-148697619D02*
X143416666Y-148673809D01*
X143535714Y-148673809D01*
X143583333Y-148697619D01*
X143607142Y-148721428D01*
X143630952Y-148769047D01*
X143630952Y-148816666D01*
X143607142Y-148864285D01*
X143583333Y-148888095D01*
X143535714Y-148911904D01*
X143440476Y-148935714D01*
X143392857Y-148959523D01*
X143369047Y-148983333D01*
X143345238Y-149030952D01*
X143345238Y-149078571D01*
X143369047Y-149126190D01*
X143392857Y-149150000D01*
X143440476Y-149173809D01*
X143559523Y-149173809D01*
X143630952Y-149150000D01*
X140342857Y-148673809D02*
X140342857Y-149173809D01*
X140509523Y-148816666D01*
X140676190Y-149173809D01*
X140676190Y-148673809D01*
X140842857Y-149173809D02*
X141128571Y-149173809D01*
X140985714Y-148673809D02*
X140985714Y-149173809D01*
X145357142Y-148697619D02*
X145428571Y-148673809D01*
X145547619Y-148673809D01*
X145595238Y-148697619D01*
X145619047Y-148721428D01*
X145642857Y-148769047D01*
X145642857Y-148816666D01*
X145619047Y-148864285D01*
X145595238Y-148888095D01*
X145547619Y-148911904D01*
X145452380Y-148935714D01*
X145404761Y-148959523D01*
X145380952Y-148983333D01*
X145357142Y-149030952D01*
X145357142Y-149078571D01*
X145380952Y-149126190D01*
X145404761Y-149150000D01*
X145452380Y-149173809D01*
X145571428Y-149173809D01*
X145642857Y-149150000D01*
X146142857Y-148721428D02*
X146119047Y-148697619D01*
X146047619Y-148673809D01*
X146000000Y-148673809D01*
X145928571Y-148697619D01*
X145880952Y-148745238D01*
X145857142Y-148792857D01*
X145833333Y-148888095D01*
X145833333Y-148959523D01*
X145857142Y-149054761D01*
X145880952Y-149102380D01*
X145928571Y-149150000D01*
X146000000Y-149173809D01*
X146047619Y-149173809D01*
X146119047Y-149150000D01*
X146142857Y-149126190D01*
X138030952Y-149150000D02*
X137983333Y-149173809D01*
X137911904Y-149173809D01*
X137840476Y-149150000D01*
X137792857Y-149102380D01*
X137769047Y-149054761D01*
X137745238Y-148959523D01*
X137745238Y-148888095D01*
X137769047Y-148792857D01*
X137792857Y-148745238D01*
X137840476Y-148697619D01*
X137911904Y-148673809D01*
X137959523Y-148673809D01*
X138030952Y-148697619D01*
X138054761Y-148721428D01*
X138054761Y-148888095D01*
X137959523Y-148888095D01*
X138269047Y-148673809D02*
X138269047Y-149173809D01*
X138388095Y-149173809D01*
X138459523Y-149150000D01*
X138507142Y-149102380D01*
X138530952Y-149054761D01*
X138554761Y-148959523D01*
X138554761Y-148888095D01*
X138530952Y-148792857D01*
X138507142Y-148745238D01*
X138459523Y-148697619D01*
X138388095Y-148673809D01*
X138269047Y-148673809D01*
X150564285Y-148673809D02*
X150564285Y-149173809D01*
X150730952Y-148816666D01*
X150897619Y-149173809D01*
X150897619Y-148673809D01*
X151135714Y-148673809D02*
X151135714Y-149173809D01*
X153114285Y-149173809D02*
X153280952Y-148673809D01*
X153447619Y-149173809D01*
X153614285Y-148673809D02*
X153614285Y-149173809D01*
D10*
%TO.C,U2*%
X160380952Y-124426190D02*
X160380952Y-124830952D01*
X160357142Y-124878571D01*
X160333333Y-124902380D01*
X160285714Y-124926190D01*
X160190476Y-124926190D01*
X160142857Y-124902380D01*
X160119047Y-124878571D01*
X160095238Y-124830952D01*
X160095238Y-124426190D01*
X159880952Y-124473809D02*
X159857142Y-124450000D01*
X159809523Y-124426190D01*
X159690476Y-124426190D01*
X159642857Y-124450000D01*
X159619047Y-124473809D01*
X159595238Y-124521428D01*
X159595238Y-124569047D01*
X159619047Y-124640476D01*
X159904761Y-124926190D01*
X159595238Y-124926190D01*
D12*
X141128571Y-142726190D02*
X141128571Y-142226190D01*
X140961904Y-142583333D01*
X140795238Y-142226190D01*
X140795238Y-142726190D01*
X140461904Y-142226190D02*
X140366666Y-142226190D01*
X140319047Y-142250000D01*
X140271428Y-142297619D01*
X140247619Y-142392857D01*
X140247619Y-142559523D01*
X140271428Y-142654761D01*
X140319047Y-142702380D01*
X140366666Y-142726190D01*
X140461904Y-142726190D01*
X140509523Y-142702380D01*
X140557142Y-142654761D01*
X140580952Y-142559523D01*
X140580952Y-142392857D01*
X140557142Y-142297619D01*
X140509523Y-142250000D01*
X140461904Y-142226190D01*
X153483333Y-142726190D02*
X153650000Y-142488095D01*
X153769047Y-142726190D02*
X153769047Y-142226190D01*
X153578571Y-142226190D01*
X153530952Y-142250000D01*
X153507142Y-142273809D01*
X153483333Y-142321428D01*
X153483333Y-142392857D01*
X153507142Y-142440476D01*
X153530952Y-142464285D01*
X153578571Y-142488095D01*
X153769047Y-142488095D01*
X153292857Y-142702380D02*
X153221428Y-142726190D01*
X153102380Y-142726190D01*
X153054761Y-142702380D01*
X153030952Y-142678571D01*
X153007142Y-142630952D01*
X153007142Y-142583333D01*
X153030952Y-142535714D01*
X153054761Y-142511904D01*
X153102380Y-142488095D01*
X153197619Y-142464285D01*
X153245238Y-142440476D01*
X153269047Y-142416666D01*
X153292857Y-142369047D01*
X153292857Y-142321428D01*
X153269047Y-142273809D01*
X153245238Y-142250000D01*
X153197619Y-142226190D01*
X153078571Y-142226190D01*
X153007142Y-142250000D01*
X146130952Y-142702380D02*
X146059523Y-142726190D01*
X145940476Y-142726190D01*
X145892857Y-142702380D01*
X145869047Y-142678571D01*
X145845238Y-142630952D01*
X145845238Y-142583333D01*
X145869047Y-142535714D01*
X145892857Y-142511904D01*
X145940476Y-142488095D01*
X146035714Y-142464285D01*
X146083333Y-142440476D01*
X146107142Y-142416666D01*
X146130952Y-142369047D01*
X146130952Y-142321428D01*
X146107142Y-142273809D01*
X146083333Y-142250000D01*
X146035714Y-142226190D01*
X145916666Y-142226190D01*
X145845238Y-142250000D01*
X145654761Y-142702380D02*
X145583333Y-142726190D01*
X145464285Y-142726190D01*
X145416666Y-142702380D01*
X145392857Y-142678571D01*
X145369047Y-142630952D01*
X145369047Y-142583333D01*
X145392857Y-142535714D01*
X145416666Y-142511904D01*
X145464285Y-142488095D01*
X145559523Y-142464285D01*
X145607142Y-142440476D01*
X145630952Y-142416666D01*
X145654761Y-142369047D01*
X145654761Y-142321428D01*
X145630952Y-142273809D01*
X145607142Y-142250000D01*
X145559523Y-142226190D01*
X145440476Y-142226190D01*
X145369047Y-142250000D01*
X148657142Y-142726190D02*
X148657142Y-142226190D01*
X148490476Y-142583333D01*
X148323809Y-142226190D01*
X148323809Y-142726190D01*
X148157142Y-142226190D02*
X147871428Y-142226190D01*
X148014285Y-142726190D02*
X148014285Y-142226190D01*
X143642857Y-142702380D02*
X143571428Y-142726190D01*
X143452380Y-142726190D01*
X143404761Y-142702380D01*
X143380952Y-142678571D01*
X143357142Y-142630952D01*
X143357142Y-142583333D01*
X143380952Y-142535714D01*
X143404761Y-142511904D01*
X143452380Y-142488095D01*
X143547619Y-142464285D01*
X143595238Y-142440476D01*
X143619047Y-142416666D01*
X143642857Y-142369047D01*
X143642857Y-142321428D01*
X143619047Y-142273809D01*
X143595238Y-142250000D01*
X143547619Y-142226190D01*
X143428571Y-142226190D01*
X143357142Y-142250000D01*
X142857142Y-142678571D02*
X142880952Y-142702380D01*
X142952380Y-142726190D01*
X143000000Y-142726190D01*
X143071428Y-142702380D01*
X143119047Y-142654761D01*
X143142857Y-142607142D01*
X143166666Y-142511904D01*
X143166666Y-142440476D01*
X143142857Y-142345238D01*
X143119047Y-142297619D01*
X143071428Y-142250000D01*
X143000000Y-142226190D01*
X142952380Y-142226190D01*
X142880952Y-142250000D01*
X142857142Y-142273809D01*
X150969047Y-142250000D02*
X151016666Y-142226190D01*
X151088095Y-142226190D01*
X151159523Y-142250000D01*
X151207142Y-142297619D01*
X151230952Y-142345238D01*
X151254761Y-142440476D01*
X151254761Y-142511904D01*
X151230952Y-142607142D01*
X151207142Y-142654761D01*
X151159523Y-142702380D01*
X151088095Y-142726190D01*
X151040476Y-142726190D01*
X150969047Y-142702380D01*
X150945238Y-142678571D01*
X150945238Y-142511904D01*
X151040476Y-142511904D01*
X150730952Y-142726190D02*
X150730952Y-142226190D01*
X150611904Y-142226190D01*
X150540476Y-142250000D01*
X150492857Y-142297619D01*
X150469047Y-142345238D01*
X150445238Y-142440476D01*
X150445238Y-142511904D01*
X150469047Y-142607142D01*
X150492857Y-142654761D01*
X150540476Y-142702380D01*
X150611904Y-142726190D01*
X150730952Y-142726190D01*
X138435714Y-142726190D02*
X138435714Y-142226190D01*
X138269047Y-142583333D01*
X138102380Y-142226190D01*
X138102380Y-142726190D01*
X137864285Y-142726190D02*
X137864285Y-142226190D01*
X135885714Y-142226190D02*
X135719047Y-142726190D01*
X135552380Y-142226190D01*
X135385714Y-142726190D02*
X135385714Y-142226190D01*
D13*
%TO.C,U3*%
X131925000Y-145775000D02*
X130425000Y-145775000D01*
X146500000Y-156400000D02*
X142500000Y-156400000D01*
X144500000Y-158400000D02*
X144500000Y-154400000D01*
X157075000Y-145800000D02*
X158575000Y-145800000D01*
X157100000Y-167025000D02*
X158600000Y-167025000D01*
X158600000Y-167025000D02*
X158600000Y-165525000D01*
X130425000Y-145775000D02*
X130425000Y-147275000D01*
X158575000Y-145800000D02*
X158575000Y-147300000D01*
X131925000Y-167025000D02*
X130425000Y-167025000D01*
X130425000Y-167025000D02*
X130425000Y-165525000D01*
D10*
X146500000Y-156400000D02*
G75*
G03*
X146500000Y-156400000I-2000000J0D01*
G01*
D13*
%TO.C,U2*%
X157075000Y-145625000D02*
X158575000Y-145625000D01*
X142500000Y-135000000D02*
X146500000Y-135000000D01*
X144500000Y-133000000D02*
X144500000Y-137000000D01*
X131925000Y-145600000D02*
X130425000Y-145600000D01*
X131900000Y-124375000D02*
X130400000Y-124375000D01*
X130400000Y-124375000D02*
X130400000Y-125875000D01*
X158575000Y-145625000D02*
X158575000Y-144125000D01*
X130425000Y-145600000D02*
X130425000Y-144100000D01*
X157075000Y-124375000D02*
X158575000Y-124375000D01*
X158575000Y-124375000D02*
X158575000Y-125875000D01*
D10*
X146500000Y-135000000D02*
G75*
G03*
X146500000Y-135000000I-2000000J0D01*
G01*
%TD*%
M02*
