%TF.GenerationSoftware,KiCad,Pcbnew,(6.0.9-0)*%
%TF.CreationDate,2022-12-21T15:53:10-08:00*%
%TF.ProjectId,trackball,74726163-6b62-4616-9c6c-2e6b69636164,v01*%
%TF.SameCoordinates,Original*%
%TF.FileFunction,Copper,L1,Top*%
%TF.FilePolarity,Positive*%
%FSLAX46Y46*%
G04 Gerber Fmt 4.6, Leading zero omitted, Abs format (unit mm)*
G04 Created by KiCad (PCBNEW (6.0.9-0)) date 2022-12-21 15:53:10*
%MOMM*%
%LPD*%
G01*
G04 APERTURE LIST*
G04 Aperture macros list*
%AMRoundRect*
0 Rectangle with rounded corners*
0 $1 Rounding radius*
0 $2 $3 $4 $5 $6 $7 $8 $9 X,Y pos of 4 corners*
0 Add a 4 corners polygon primitive as box body*
4,1,4,$2,$3,$4,$5,$6,$7,$8,$9,$2,$3,0*
0 Add four circle primitives for the rounded corners*
1,1,$1+$1,$2,$3*
1,1,$1+$1,$4,$5*
1,1,$1+$1,$6,$7*
1,1,$1+$1,$8,$9*
0 Add four rect primitives between the rounded corners*
20,1,$1+$1,$2,$3,$4,$5,0*
20,1,$1+$1,$4,$5,$6,$7,0*
20,1,$1+$1,$6,$7,$8,$9,0*
20,1,$1+$1,$8,$9,$2,$3,0*%
G04 Aperture macros list end*
%TA.AperFunction,SMDPad,CuDef*%
%ADD10R,3.000000X1.500000*%
%TD*%
%TA.AperFunction,SMDPad,CuDef*%
%ADD11R,0.558800X1.320800*%
%TD*%
%TA.AperFunction,SMDPad,CuDef*%
%ADD12RoundRect,0.250000X-0.250000X-0.750000X0.250000X-0.750000X0.250000X0.750000X-0.250000X0.750000X0*%
%TD*%
%TA.AperFunction,ComponentPad*%
%ADD13C,2.000000*%
%TD*%
%TA.AperFunction,ViaPad*%
%ADD14C,0.800000*%
%TD*%
%TA.AperFunction,Conductor*%
%ADD15C,0.250000*%
%TD*%
G04 APERTURE END LIST*
D10*
%TO.P,U1,1,A0*%
%TO.N,Net-(J3-Pad1)*%
X135050000Y-123380000D03*
%TO.P,U1,2,A1*%
%TO.N,unconnected-(U1-Pad2)*%
X135050000Y-125920000D03*
%TO.P,U1,3,A2*%
%TO.N,unconnected-(U1-Pad3)*%
X135050000Y-128460000D03*
%TO.P,U1,4,A3*%
%TO.N,Net-(Q1-Pad1)*%
X135050000Y-131000000D03*
%TO.P,U1,5,SDA*%
%TO.N,unconnected-(U1-Pad5)*%
X135050000Y-133540000D03*
%TO.P,U1,6,SCL*%
%TO.N,unconnected-(U1-Pad6)*%
X135050000Y-136080000D03*
%TO.P,U1,7,TX*%
%TO.N,Net-(U1-Pad7)*%
X135050000Y-138620000D03*
%TO.P,U1,8,5V*%
%TO.N,unconnected-(U1-Pad8)*%
X153950000Y-123380000D03*
%TO.P,U1,9,GND*%
%TO.N,GND*%
X153950000Y-125920000D03*
%TO.P,U1,10,3V*%
%TO.N,Net-(J1-Pad1)*%
X153950000Y-128460000D03*
%TO.P,U1,11,MO*%
%TO.N,Net-(U1-Pad11)*%
X153950000Y-131000000D03*
%TO.P,U1,12,MI*%
%TO.N,Net-(U1-Pad12)*%
X153950000Y-133540000D03*
%TO.P,U1,13,SCK*%
%TO.N,Net-(U1-Pad13)*%
X153950000Y-136080000D03*
%TO.P,U1,14,RX*%
%TO.N,Net-(U1-Pad14)*%
X153950000Y-138620000D03*
%TD*%
D11*
%TO.P,Q1,1,B*%
%TO.N,Net-(Q1-Pad1)*%
X131332000Y-137000000D03*
%TO.P,Q1,2,E*%
%TO.N,GND*%
X129300000Y-137000000D03*
%TO.P,Q1,3,C*%
%TO.N,Net-(J2-Pad1)*%
X130316000Y-139032000D03*
%TD*%
D12*
%TO.P,+,1,Pin_1*%
%TO.N,Net-(J1-Pad1)*%
X129400000Y-148650000D03*
%TD*%
%TO.P,-,1,Pin_1*%
%TO.N,Net-(J2-Pad1)*%
X125696304Y-148650000D03*
%TD*%
%TO.P,J3,1,Pin_1*%
%TO.N,Net-(J3-Pad1)*%
X162450000Y-148650000D03*
%TD*%
D13*
%TO.P,U2,1,RS*%
%TO.N,unconnected-(U2-Pad1)*%
X153390000Y-144000000D03*
%TO.P,U2,2,GD*%
%TO.N,GND*%
X150850000Y-144000000D03*
%TO.P,U2,3,MT*%
%TO.N,unconnected-(U2-Pad3)*%
X148310000Y-144000000D03*
%TO.P,U2,4,SS*%
%TO.N,Net-(U1-Pad14)*%
X145770000Y-144000000D03*
%TO.P,U2,5,SC*%
%TO.N,Net-(U1-Pad13)*%
X143230000Y-144000000D03*
%TO.P,U2,6,MO*%
%TO.N,Net-(U1-Pad11)*%
X140690000Y-144000000D03*
%TO.P,U2,7,MI*%
%TO.N,Net-(U1-Pad12)*%
X138150000Y-144000000D03*
%TO.P,U2,8,VI*%
%TO.N,Net-(J1-Pad1)*%
X135610000Y-144000000D03*
%TD*%
%TO.P,U3,1,RS*%
%TO.N,unconnected-(U3-Pad1)*%
X135610000Y-148600000D03*
%TO.P,U3,2,GD*%
%TO.N,GND*%
X138150000Y-148600000D03*
%TO.P,U3,3,MT*%
%TO.N,unconnected-(U3-Pad3)*%
X140690000Y-148600000D03*
%TO.P,U3,4,SS*%
%TO.N,Net-(U1-Pad7)*%
X143230000Y-148600000D03*
%TO.P,U3,5,SC*%
%TO.N,Net-(U1-Pad13)*%
X145770000Y-148600000D03*
%TO.P,U3,6,MO*%
%TO.N,Net-(U1-Pad11)*%
X148310000Y-148600000D03*
%TO.P,U3,7,MI*%
%TO.N,Net-(U1-Pad12)*%
X150850000Y-148600000D03*
%TO.P,U3,8,VI*%
%TO.N,Net-(J1-Pad1)*%
X153390000Y-148600000D03*
%TD*%
D14*
%TO.N,GND*%
X150150000Y-125950000D03*
%TO.N,Net-(U1-Pad12)*%
X139400000Y-142400000D03*
X141950000Y-142400000D03*
X156000000Y-142400000D03*
%TO.N,Net-(U1-Pad7)*%
X133000000Y-140000000D03*
%TO.N,Net-(J3-Pad1)*%
X157800000Y-134800000D03*
X148050000Y-134800000D03*
%TD*%
D15*
%TO.N,Net-(J3-Pad1)*%
X158100000Y-148650000D02*
G75*
G02*
X157800000Y-148350000I0J300000D01*
G01*
X157800000Y-134800000D02*
X157800000Y-148350000D01*
X158100000Y-148650000D02*
X162450000Y-148650000D01*
%TO.N,Net-(J1-Pad1)*%
X153400000Y-150050000D02*
G75*
G02*
X153100000Y-150350000I-300000J0D01*
G01*
X133900000Y-150350000D02*
X153100000Y-150350000D01*
X153400000Y-150050000D02*
X153400000Y-148610000D01*
X133900000Y-150350000D02*
G75*
G02*
X133600000Y-150050000I0J300000D01*
G01*
X133600000Y-148600000D02*
X133600000Y-150050000D01*
X153390000Y-148600000D02*
G75*
G02*
X153400000Y-148610000I0J-10000D01*
G01*
%TO.N,Net-(U1-Pad11)*%
X148300000Y-146450000D02*
G75*
G03*
X148050000Y-146200000I-250000J0D01*
G01*
X140950000Y-146200000D02*
X148050000Y-146200000D01*
X140690000Y-144000000D02*
X140690000Y-145940000D01*
X140950000Y-146200000D02*
G75*
G02*
X140690000Y-145940000I0J260000D01*
G01*
X148300000Y-146450000D02*
X148300000Y-148590000D01*
X148310000Y-148600000D02*
G75*
G02*
X148300000Y-148590000I0J10000D01*
G01*
%TO.N,Net-(J2-Pad1)*%
X125700000Y-145850000D02*
G75*
G02*
X126000000Y-145550000I300000J0D01*
G01*
X130316000Y-139032000D02*
X130316000Y-142134000D01*
X126900000Y-145550000D02*
G75*
G03*
X130316000Y-142134000I0J3416000D01*
G01*
X126900000Y-145550000D02*
X126000000Y-145550000D01*
X125700000Y-145850000D02*
X125700000Y-148646304D01*
X125696304Y-148650000D02*
G75*
G03*
X125700000Y-148646304I-4J3700D01*
G01*
%TO.N,Net-(J1-Pad1)*%
X133600000Y-144350000D02*
X133600000Y-148600000D01*
X129400000Y-148650000D02*
X133550000Y-148650000D01*
X133600000Y-148600000D02*
G75*
G02*
X133550000Y-148650000I-50000J0D01*
G01*
X133600000Y-144350000D02*
G75*
G02*
X133950000Y-144000000I350000J0D01*
G01*
X135610000Y-144000000D02*
X133950000Y-144000000D01*
%TO.N,Net-(Q1-Pad1)*%
X131350011Y-134050000D02*
G75*
G02*
X131562133Y-133537867I724289J0D01*
G01*
X134100000Y-131000000D02*
X131562133Y-133537867D01*
X131331987Y-136999987D02*
G75*
G03*
X131350000Y-136956545I-43487J43487D01*
G01*
X135050000Y-131000000D02*
X134100000Y-131000000D01*
X131350000Y-134050000D02*
X131350000Y-136956545D01*
%TO.N,Net-(J1-Pad1)*%
X139150000Y-141500000D02*
X135900000Y-141500000D01*
X153950000Y-128460000D02*
X150340000Y-128460000D01*
X150100000Y-128700000D02*
X150100000Y-140350000D01*
X149850000Y-140600000D02*
X139650000Y-140600000D01*
X139400000Y-140850000D02*
X139400000Y-141250000D01*
X135600000Y-141800000D02*
X135600000Y-143990000D01*
X139150000Y-141500000D02*
G75*
G03*
X139400000Y-141250000I0J250000D01*
G01*
X135610000Y-144000000D02*
G75*
G02*
X135600000Y-143990000I0J10000D01*
G01*
X150100000Y-128700000D02*
G75*
G02*
X150340000Y-128460000I240000J0D01*
G01*
X149850000Y-140600000D02*
G75*
G03*
X150100000Y-140350000I0J250000D01*
G01*
X135600000Y-141800000D02*
G75*
G02*
X135900000Y-141500000I300000J0D01*
G01*
X139400000Y-140850000D02*
G75*
G02*
X139650000Y-140600000I250000J0D01*
G01*
%TO.N,Net-(Q1-Pad1)*%
X131332000Y-137000000D02*
G75*
G03*
X131350000Y-136982000I0J18000D01*
G01*
%TO.N,GND*%
X153950000Y-125920000D02*
X150180000Y-125920000D01*
X150150000Y-125950000D02*
G75*
G02*
X150180000Y-125920000I30000J0D01*
G01*
%TO.N,Net-(U1-Pad11)*%
X150300000Y-141050000D02*
X140950000Y-141050000D01*
X150550000Y-131250000D02*
X150550000Y-140800000D01*
X140700000Y-141300000D02*
X140700000Y-143990000D01*
X153950000Y-131000000D02*
X150800000Y-131000000D01*
X150300000Y-141050000D02*
G75*
G03*
X150550000Y-140800000I0J250000D01*
G01*
X140690000Y-144000000D02*
G75*
G03*
X140700000Y-143990000I0J10000D01*
G01*
X140700000Y-141300000D02*
G75*
G02*
X140950000Y-141050000I250000J0D01*
G01*
X150550000Y-131250000D02*
G75*
G02*
X150800000Y-131000000I250000J0D01*
G01*
%TO.N,Net-(U1-Pad12)*%
X153950000Y-133540000D02*
X155690000Y-133540000D01*
X151000000Y-133800000D02*
X151000000Y-141250000D01*
X153950000Y-133540000D02*
X151260000Y-133540000D01*
X156000000Y-133850000D02*
X156000000Y-142400000D01*
X150750000Y-141500000D02*
X142200000Y-141500000D01*
X139400000Y-142400000D02*
X138400000Y-142400000D01*
X138150000Y-142650000D02*
X138150000Y-144000000D01*
X141950000Y-141750000D02*
X141950000Y-142400000D01*
X150750000Y-141500000D02*
G75*
G03*
X151000000Y-141250000I0J250000D01*
G01*
X151000000Y-133800000D02*
G75*
G02*
X151260000Y-133540000I260000J0D01*
G01*
X141950000Y-141750000D02*
G75*
G02*
X142200000Y-141500000I250000J0D01*
G01*
X156000000Y-133850000D02*
G75*
G03*
X155690000Y-133540000I-310000J0D01*
G01*
X138150000Y-142650000D02*
G75*
G02*
X138400000Y-142400000I250000J0D01*
G01*
%TO.N,Net-(U1-Pad13)*%
X151450000Y-136350000D02*
X151450000Y-141700000D01*
X143250000Y-142200000D02*
X143250000Y-143980000D01*
X151200000Y-141950000D02*
X143500000Y-141950000D01*
X153950000Y-136080000D02*
X151720000Y-136080000D01*
X143250000Y-142200000D02*
G75*
G02*
X143500000Y-141950000I250000J0D01*
G01*
X151450000Y-136350000D02*
G75*
G02*
X151720000Y-136080000I270000J0D01*
G01*
X143230000Y-144000000D02*
G75*
G03*
X143250000Y-143980000I0J20000D01*
G01*
X151200000Y-141950000D02*
G75*
G03*
X151450000Y-141700000I0J250000D01*
G01*
%TO.N,Net-(U1-Pad14)*%
X151650000Y-142400000D02*
X146050000Y-142400000D01*
X151900000Y-138850000D02*
X151900000Y-142150000D01*
X145800000Y-142650000D02*
X145800000Y-143970000D01*
X153950000Y-138620000D02*
X152130000Y-138620000D01*
X145800000Y-142650000D02*
G75*
G02*
X146050000Y-142400000I250000J0D01*
G01*
X151650000Y-142400000D02*
G75*
G03*
X151900000Y-142150000I0J250000D01*
G01*
X151900000Y-138850000D02*
G75*
G02*
X152130000Y-138620000I230000J0D01*
G01*
X145770000Y-144000000D02*
G75*
G03*
X145800000Y-143970000I0J30000D01*
G01*
%TO.N,Net-(U1-Pad7)*%
X135050000Y-138620000D02*
X133280000Y-138620000D01*
X133000000Y-138900000D02*
X133000000Y-140000000D01*
X133000000Y-138900000D02*
G75*
G02*
X133280000Y-138620000I280000J0D01*
G01*
%TO.N,Net-(J3-Pad1)*%
X148050000Y-123650000D02*
X148050000Y-134550000D01*
X135050000Y-123380000D02*
X147780000Y-123380000D01*
X148050000Y-134550000D02*
X148050000Y-134800000D01*
X148050000Y-123650000D02*
G75*
G03*
X147780000Y-123380000I-270000J0D01*
G01*
%TD*%
%TA.AperFunction,Conductor*%
%TO.N,GND*%
G36*
X151883621Y-122478502D02*
G01*
X151930114Y-122532158D01*
X151941500Y-122584500D01*
X151941500Y-124178134D01*
X151948255Y-124240316D01*
X151999385Y-124376705D01*
X152086739Y-124493261D01*
X152161344Y-124549174D01*
X152161760Y-124549486D01*
X152204275Y-124606345D01*
X152209301Y-124677164D01*
X152175241Y-124739457D01*
X152161760Y-124751138D01*
X152094277Y-124801714D01*
X152081715Y-124814276D01*
X152005214Y-124916351D01*
X151996676Y-124931946D01*
X151951522Y-125052394D01*
X151947895Y-125067649D01*
X151942369Y-125118514D01*
X151942000Y-125125328D01*
X151942000Y-125647885D01*
X151946475Y-125663124D01*
X151947865Y-125664329D01*
X151955548Y-125666000D01*
X154078000Y-125666000D01*
X154146121Y-125686002D01*
X154192614Y-125739658D01*
X154204000Y-125792000D01*
X154204000Y-126048000D01*
X154183998Y-126116121D01*
X154130342Y-126162614D01*
X154078000Y-126174000D01*
X151960116Y-126174000D01*
X151944877Y-126178475D01*
X151943672Y-126179865D01*
X151942001Y-126187548D01*
X151942001Y-126714669D01*
X151942371Y-126721490D01*
X151947895Y-126772352D01*
X151951521Y-126787604D01*
X151996676Y-126908054D01*
X152005214Y-126923649D01*
X152081715Y-127025724D01*
X152094277Y-127038286D01*
X152161760Y-127088862D01*
X152204275Y-127145722D01*
X152209300Y-127216540D01*
X152175241Y-127278833D01*
X152161762Y-127290513D01*
X152086739Y-127346739D01*
X151999385Y-127463295D01*
X151948255Y-127599684D01*
X151941500Y-127661866D01*
X151941500Y-127700500D01*
X151921498Y-127768621D01*
X151867842Y-127815114D01*
X151815500Y-127826500D01*
X150393995Y-127826500D01*
X150376241Y-127825243D01*
X150353364Y-127821987D01*
X150346385Y-127821914D01*
X150344120Y-127821890D01*
X150344118Y-127821890D01*
X150340000Y-127821847D01*
X150322397Y-127823977D01*
X150319681Y-127824275D01*
X150168764Y-127839139D01*
X150004109Y-127889087D01*
X149998654Y-127892003D01*
X149998651Y-127892004D01*
X149921223Y-127933391D01*
X149852362Y-127970198D01*
X149719354Y-128079354D01*
X149610198Y-128212362D01*
X149529087Y-128364109D01*
X149479139Y-128528764D01*
X149478532Y-128534931D01*
X149473379Y-128587247D01*
X149470027Y-128606231D01*
X149466500Y-128619970D01*
X149466500Y-128649982D01*
X149465422Y-128666428D01*
X149461882Y-128693317D01*
X149462437Y-128698345D01*
X149462274Y-128700000D01*
X149462620Y-128700000D01*
X149463637Y-128709208D01*
X149465739Y-128728252D01*
X149466500Y-128742078D01*
X149466500Y-139840500D01*
X149446498Y-139908621D01*
X149392842Y-139955114D01*
X149340500Y-139966500D01*
X139703995Y-139966500D01*
X139686241Y-139965243D01*
X139663364Y-139961987D01*
X139657211Y-139961923D01*
X139654134Y-139961890D01*
X139654129Y-139961890D01*
X139650000Y-139961847D01*
X139634589Y-139963712D01*
X139631829Y-139964015D01*
X139476804Y-139979283D01*
X139310263Y-140029803D01*
X139304808Y-140032719D01*
X139304805Y-140032720D01*
X139299449Y-140035583D01*
X139156779Y-140111842D01*
X139022248Y-140222248D01*
X138911842Y-140356779D01*
X138829803Y-140510263D01*
X138779283Y-140676804D01*
X138778676Y-140682965D01*
X138778675Y-140682971D01*
X138773299Y-140737558D01*
X138769947Y-140756543D01*
X138766499Y-140769972D01*
X138763585Y-140769224D01*
X138740862Y-140821351D01*
X138681810Y-140860763D01*
X138644223Y-140866500D01*
X135953995Y-140866500D01*
X135936241Y-140865243D01*
X135913364Y-140861987D01*
X135906809Y-140861918D01*
X135904126Y-140861890D01*
X135904123Y-140861890D01*
X135900000Y-140861847D01*
X135895911Y-140862342D01*
X135895907Y-140862342D01*
X135869627Y-140865522D01*
X135865474Y-140865954D01*
X135859234Y-140866500D01*
X135737280Y-140877170D01*
X135639434Y-140903388D01*
X135584815Y-140918023D01*
X135584813Y-140918024D01*
X135579505Y-140919446D01*
X135574524Y-140921769D01*
X135574523Y-140921769D01*
X135436454Y-140986151D01*
X135436449Y-140986154D01*
X135431467Y-140988477D01*
X135297666Y-141082166D01*
X135182166Y-141197666D01*
X135179009Y-141202175D01*
X135179007Y-141202177D01*
X135145521Y-141250000D01*
X135088477Y-141331467D01*
X135086154Y-141336449D01*
X135086151Y-141336454D01*
X135065274Y-141381226D01*
X135019446Y-141479505D01*
X134977170Y-141637280D01*
X134974930Y-141662894D01*
X134972615Y-141689352D01*
X134969134Y-141709712D01*
X134966500Y-141719970D01*
X134966500Y-141749983D01*
X134965422Y-141766429D01*
X134961882Y-141793317D01*
X134962716Y-141800867D01*
X134965739Y-141828253D01*
X134966500Y-141842080D01*
X134966500Y-142554562D01*
X134946498Y-142622683D01*
X134906335Y-142661994D01*
X134724807Y-142773235D01*
X134724799Y-142773241D01*
X134720584Y-142775824D01*
X134540031Y-142930031D01*
X134385824Y-143110584D01*
X134383245Y-143114792D01*
X134383241Y-143114798D01*
X134265867Y-143306335D01*
X134213219Y-143353966D01*
X134158434Y-143366500D01*
X134003995Y-143366500D01*
X133986241Y-143365243D01*
X133983360Y-143364833D01*
X133963364Y-143361987D01*
X133956809Y-143361918D01*
X133954126Y-143361890D01*
X133954123Y-143361890D01*
X133950000Y-143361847D01*
X133945914Y-143362341D01*
X133945903Y-143362342D01*
X133925317Y-143364833D01*
X133921166Y-143365265D01*
X133808717Y-143375104D01*
X133778565Y-143377742D01*
X133677153Y-143404915D01*
X133617648Y-143420859D01*
X133617646Y-143420860D01*
X133612338Y-143422282D01*
X133607357Y-143424605D01*
X133607356Y-143424605D01*
X133461353Y-143492687D01*
X133461350Y-143492689D01*
X133456372Y-143495010D01*
X133315403Y-143593717D01*
X133193717Y-143715403D01*
X133095010Y-143856372D01*
X133092689Y-143861350D01*
X133092687Y-143861353D01*
X133054380Y-143943503D01*
X133022282Y-144012338D01*
X132977742Y-144178565D01*
X132977262Y-144184053D01*
X132972325Y-144240477D01*
X132968847Y-144260827D01*
X132968472Y-144262286D01*
X132968471Y-144262292D01*
X132966500Y-144269970D01*
X132966500Y-144299982D01*
X132965422Y-144316429D01*
X132962873Y-144335786D01*
X132962873Y-144335791D01*
X132961882Y-144343317D01*
X132964225Y-144364539D01*
X132965739Y-144378253D01*
X132966500Y-144392080D01*
X132966500Y-147890500D01*
X132946498Y-147958621D01*
X132892842Y-148005114D01*
X132840500Y-148016500D01*
X130534500Y-148016500D01*
X130466379Y-147996498D01*
X130419886Y-147942842D01*
X130408500Y-147890500D01*
X130408500Y-147849600D01*
X130397526Y-147743834D01*
X130394872Y-147735877D01*
X130343868Y-147583002D01*
X130341550Y-147576054D01*
X130248478Y-147425652D01*
X130123303Y-147300695D01*
X130117072Y-147296854D01*
X129978968Y-147211725D01*
X129978966Y-147211724D01*
X129972738Y-147207885D01*
X129867002Y-147172814D01*
X129811389Y-147154368D01*
X129811387Y-147154368D01*
X129804861Y-147152203D01*
X129798025Y-147151503D01*
X129798022Y-147151502D01*
X129754969Y-147147091D01*
X129700400Y-147141500D01*
X129099600Y-147141500D01*
X129096354Y-147141837D01*
X129096350Y-147141837D01*
X129000692Y-147151762D01*
X129000688Y-147151763D01*
X128993834Y-147152474D01*
X128987298Y-147154655D01*
X128987296Y-147154655D01*
X128855194Y-147198728D01*
X128826054Y-147208450D01*
X128675652Y-147301522D01*
X128550695Y-147426697D01*
X128457885Y-147577262D01*
X128455581Y-147584209D01*
X128407311Y-147729740D01*
X128402203Y-147745139D01*
X128391500Y-147849600D01*
X128391500Y-149450400D01*
X128402474Y-149556166D01*
X128404655Y-149562702D01*
X128404655Y-149562704D01*
X128410842Y-149581248D01*
X128458450Y-149723946D01*
X128551522Y-149874348D01*
X128676697Y-149999305D01*
X128682927Y-150003145D01*
X128682928Y-150003146D01*
X128820090Y-150087694D01*
X128827262Y-150092115D01*
X128907005Y-150118564D01*
X128988611Y-150145632D01*
X128988613Y-150145632D01*
X128995139Y-150147797D01*
X129001975Y-150148497D01*
X129001978Y-150148498D01*
X129045031Y-150152909D01*
X129099600Y-150158500D01*
X129700400Y-150158500D01*
X129703646Y-150158163D01*
X129703650Y-150158163D01*
X129799308Y-150148238D01*
X129799312Y-150148237D01*
X129806166Y-150147526D01*
X129812702Y-150145345D01*
X129812704Y-150145345D01*
X129963377Y-150095076D01*
X129973946Y-150091550D01*
X130124348Y-149998478D01*
X130249305Y-149873303D01*
X130277992Y-149826765D01*
X130338275Y-149728968D01*
X130338276Y-149728966D01*
X130342115Y-149722738D01*
X130397797Y-149554861D01*
X130408500Y-149450400D01*
X130408500Y-149409500D01*
X130428502Y-149341379D01*
X130482158Y-149294886D01*
X130534500Y-149283500D01*
X132840500Y-149283500D01*
X132908621Y-149303502D01*
X132955114Y-149357158D01*
X132966500Y-149409500D01*
X132966500Y-149999982D01*
X132965422Y-150016428D01*
X132961882Y-150043317D01*
X132963976Y-150062278D01*
X132964257Y-150065116D01*
X132977170Y-150212720D01*
X133019446Y-150370495D01*
X133021769Y-150375476D01*
X133021769Y-150375477D01*
X133086151Y-150513546D01*
X133086154Y-150513551D01*
X133088477Y-150518533D01*
X133109175Y-150548092D01*
X133176856Y-150644750D01*
X133182166Y-150652334D01*
X133297666Y-150767834D01*
X133431467Y-150861523D01*
X133436449Y-150863846D01*
X133436454Y-150863849D01*
X133573708Y-150927851D01*
X133579505Y-150930554D01*
X133584813Y-150931976D01*
X133584815Y-150931977D01*
X133600374Y-150936146D01*
X133737280Y-150972830D01*
X133755706Y-150974442D01*
X133789351Y-150977386D01*
X133809699Y-150980863D01*
X133812291Y-150981529D01*
X133812295Y-150981530D01*
X133819970Y-150983500D01*
X133846005Y-150983500D01*
X133863755Y-150984757D01*
X133886636Y-150988013D01*
X133893679Y-150988087D01*
X133895880Y-150988110D01*
X133895882Y-150988110D01*
X133900000Y-150988153D01*
X133904090Y-150987658D01*
X133904091Y-150987658D01*
X133911747Y-150986731D01*
X133930907Y-150984413D01*
X133946042Y-150983500D01*
X153046005Y-150983500D01*
X153063759Y-150984757D01*
X153086636Y-150988013D01*
X153093191Y-150988082D01*
X153095874Y-150988110D01*
X153095877Y-150988110D01*
X153100000Y-150988153D01*
X153104089Y-150987658D01*
X153104093Y-150987658D01*
X153130373Y-150984478D01*
X153134526Y-150984046D01*
X153177248Y-150980308D01*
X153262720Y-150972830D01*
X153399626Y-150936146D01*
X153415185Y-150931977D01*
X153415187Y-150931976D01*
X153420495Y-150930554D01*
X153426292Y-150927851D01*
X153563546Y-150863849D01*
X153563551Y-150863846D01*
X153568533Y-150861523D01*
X153702334Y-150767834D01*
X153817834Y-150652334D01*
X153823145Y-150644750D01*
X153890825Y-150548092D01*
X153911523Y-150518533D01*
X153913846Y-150513551D01*
X153913849Y-150513546D01*
X153978231Y-150375477D01*
X153978231Y-150375476D01*
X153980554Y-150370495D01*
X154022830Y-150212720D01*
X154027386Y-150160649D01*
X154030863Y-150140301D01*
X154031529Y-150137709D01*
X154031530Y-150137705D01*
X154033500Y-150130030D01*
X154033500Y-150103995D01*
X154034757Y-150086242D01*
X154037432Y-150067447D01*
X154037432Y-150067446D01*
X154038013Y-150063364D01*
X154038153Y-150050000D01*
X154038042Y-150049081D01*
X154054098Y-149980687D01*
X154097846Y-149935444D01*
X154275193Y-149826765D01*
X154275203Y-149826758D01*
X154279416Y-149824176D01*
X154459969Y-149669969D01*
X154614176Y-149489416D01*
X154616755Y-149485208D01*
X154616759Y-149485202D01*
X154735654Y-149291183D01*
X154738240Y-149286963D01*
X154743896Y-149273310D01*
X154827211Y-149072167D01*
X154827212Y-149072165D01*
X154829105Y-149067594D01*
X154855841Y-148956231D01*
X154883380Y-148841524D01*
X154883381Y-148841518D01*
X154884535Y-148836711D01*
X154903165Y-148600000D01*
X154884535Y-148363289D01*
X154879741Y-148343317D01*
X154830260Y-148137218D01*
X154829105Y-148132406D01*
X154827211Y-148127833D01*
X154740135Y-147917611D01*
X154740133Y-147917607D01*
X154738240Y-147913037D01*
X154697374Y-147846350D01*
X154616759Y-147714798D01*
X154616755Y-147714792D01*
X154614176Y-147710584D01*
X154459969Y-147530031D01*
X154279416Y-147375824D01*
X154275208Y-147373245D01*
X154275202Y-147373241D01*
X154081183Y-147254346D01*
X154076963Y-147251760D01*
X154072393Y-147249867D01*
X154072389Y-147249865D01*
X153862167Y-147162789D01*
X153862165Y-147162788D01*
X153857594Y-147160895D01*
X153776808Y-147141500D01*
X153631524Y-147106620D01*
X153631518Y-147106619D01*
X153626711Y-147105465D01*
X153390000Y-147086835D01*
X153153289Y-147105465D01*
X153148482Y-147106619D01*
X153148476Y-147106620D01*
X153003192Y-147141500D01*
X152922406Y-147160895D01*
X152917835Y-147162788D01*
X152917833Y-147162789D01*
X152707611Y-147249865D01*
X152707607Y-147249867D01*
X152703037Y-147251760D01*
X152698817Y-147254346D01*
X152504798Y-147373241D01*
X152504792Y-147373245D01*
X152500584Y-147375824D01*
X152320031Y-147530031D01*
X152316823Y-147533787D01*
X152316818Y-147533792D01*
X152215811Y-147652056D01*
X152156361Y-147690866D01*
X152085366Y-147691372D01*
X152024189Y-147652056D01*
X151923182Y-147533792D01*
X151923177Y-147533787D01*
X151919969Y-147530031D01*
X151739416Y-147375824D01*
X151735208Y-147373245D01*
X151735202Y-147373241D01*
X151541183Y-147254346D01*
X151536963Y-147251760D01*
X151532393Y-147249867D01*
X151532389Y-147249865D01*
X151322167Y-147162789D01*
X151322165Y-147162788D01*
X151317594Y-147160895D01*
X151236808Y-147141500D01*
X151091524Y-147106620D01*
X151091518Y-147106619D01*
X151086711Y-147105465D01*
X150850000Y-147086835D01*
X150613289Y-147105465D01*
X150608482Y-147106619D01*
X150608476Y-147106620D01*
X150463192Y-147141500D01*
X150382406Y-147160895D01*
X150377835Y-147162788D01*
X150377833Y-147162789D01*
X150167611Y-147249865D01*
X150167607Y-147249867D01*
X150163037Y-147251760D01*
X150158817Y-147254346D01*
X149964798Y-147373241D01*
X149964792Y-147373245D01*
X149960584Y-147375824D01*
X149780031Y-147530031D01*
X149776823Y-147533787D01*
X149776818Y-147533792D01*
X149675811Y-147652056D01*
X149616361Y-147690866D01*
X149545366Y-147691372D01*
X149484189Y-147652056D01*
X149383182Y-147533792D01*
X149383177Y-147533787D01*
X149379969Y-147530031D01*
X149199416Y-147375824D01*
X149195208Y-147373245D01*
X149195202Y-147373241D01*
X148996963Y-147251760D01*
X148997696Y-147250565D01*
X148950688Y-147206177D01*
X148933500Y-147142647D01*
X148933500Y-146503995D01*
X148934757Y-146486241D01*
X148937432Y-146467445D01*
X148938013Y-146463364D01*
X148938153Y-146450000D01*
X148936288Y-146434589D01*
X148935984Y-146431819D01*
X148921923Y-146289046D01*
X148920717Y-146276804D01*
X148870197Y-146110263D01*
X148788158Y-145956779D01*
X148677752Y-145822248D01*
X148543221Y-145711842D01*
X148542418Y-145711413D01*
X148498067Y-145658341D01*
X148489222Y-145587897D01*
X148519866Y-145523854D01*
X148584184Y-145485539D01*
X148777594Y-145439105D01*
X148782167Y-145437211D01*
X148992389Y-145350135D01*
X148992393Y-145350133D01*
X148996963Y-145348240D01*
X149021723Y-145333067D01*
X149185556Y-145232670D01*
X149982160Y-145232670D01*
X149987887Y-145240320D01*
X150159042Y-145345205D01*
X150167837Y-145349687D01*
X150377988Y-145436734D01*
X150387373Y-145439783D01*
X150608554Y-145492885D01*
X150618301Y-145494428D01*
X150845070Y-145512275D01*
X150854930Y-145512275D01*
X151081699Y-145494428D01*
X151091446Y-145492885D01*
X151312627Y-145439783D01*
X151322012Y-145436734D01*
X151532163Y-145349687D01*
X151540958Y-145345205D01*
X151708445Y-145242568D01*
X151717907Y-145232110D01*
X151714124Y-145223334D01*
X150862812Y-144372022D01*
X150848868Y-144364408D01*
X150847035Y-144364539D01*
X150840420Y-144368790D01*
X149988920Y-145220290D01*
X149982160Y-145232670D01*
X149185556Y-145232670D01*
X149195202Y-145226759D01*
X149195208Y-145226755D01*
X149199416Y-145224176D01*
X149379969Y-145069969D01*
X149383177Y-145066213D01*
X149383182Y-145066208D01*
X149513706Y-144913384D01*
X149573156Y-144874574D01*
X149607558Y-144872360D01*
X149626667Y-144864123D01*
X150760905Y-143729885D01*
X150823217Y-143695859D01*
X150894032Y-143700924D01*
X150939095Y-143729885D01*
X152070290Y-144861080D01*
X152087102Y-144870260D01*
X152150350Y-144884020D01*
X152185775Y-144912776D01*
X152316819Y-145066208D01*
X152320031Y-145069969D01*
X152500584Y-145224176D01*
X152504792Y-145226755D01*
X152504798Y-145226759D01*
X152678277Y-145333067D01*
X152703037Y-145348240D01*
X152707607Y-145350133D01*
X152707611Y-145350135D01*
X152917833Y-145437211D01*
X152922406Y-145439105D01*
X152974310Y-145451566D01*
X153148476Y-145493380D01*
X153148482Y-145493381D01*
X153153289Y-145494535D01*
X153390000Y-145513165D01*
X153626711Y-145494535D01*
X153631518Y-145493381D01*
X153631524Y-145493380D01*
X153805690Y-145451566D01*
X153857594Y-145439105D01*
X153862167Y-145437211D01*
X154072389Y-145350135D01*
X154072393Y-145350133D01*
X154076963Y-145348240D01*
X154101723Y-145333067D01*
X154275202Y-145226759D01*
X154275208Y-145226755D01*
X154279416Y-145224176D01*
X154459969Y-145069969D01*
X154614176Y-144889416D01*
X154616755Y-144885208D01*
X154616759Y-144885202D01*
X154735654Y-144691183D01*
X154738240Y-144686963D01*
X154818402Y-144493435D01*
X154827211Y-144472167D01*
X154827212Y-144472165D01*
X154829105Y-144467594D01*
X154860749Y-144335786D01*
X154883380Y-144241524D01*
X154883381Y-144241518D01*
X154884535Y-144236711D01*
X154903165Y-144000000D01*
X154884535Y-143763289D01*
X154876516Y-143729885D01*
X154844951Y-143598411D01*
X154829105Y-143532406D01*
X154827211Y-143527833D01*
X154740135Y-143317611D01*
X154740133Y-143317607D01*
X154738240Y-143313037D01*
X154726516Y-143293905D01*
X154616759Y-143114798D01*
X154616755Y-143114792D01*
X154614176Y-143110584D01*
X154459969Y-142930031D01*
X154279416Y-142775824D01*
X154275203Y-142773242D01*
X154275202Y-142773241D01*
X154081183Y-142654346D01*
X154076963Y-142651760D01*
X154072393Y-142649867D01*
X154072389Y-142649865D01*
X153862167Y-142562789D01*
X153862165Y-142562788D01*
X153857594Y-142560895D01*
X153743548Y-142533515D01*
X153631524Y-142506620D01*
X153631518Y-142506619D01*
X153626711Y-142505465D01*
X153390000Y-142486835D01*
X153153289Y-142505465D01*
X153148482Y-142506619D01*
X153148476Y-142506620D01*
X153036452Y-142533515D01*
X152922406Y-142560895D01*
X152917835Y-142562788D01*
X152917833Y-142562789D01*
X152707611Y-142649865D01*
X152707607Y-142649867D01*
X152703037Y-142651760D01*
X152698817Y-142654346D01*
X152623753Y-142700345D01*
X152555219Y-142718883D01*
X152487542Y-142697426D01*
X152442209Y-142642787D01*
X152433613Y-142572313D01*
X152446797Y-142533515D01*
X152467278Y-142495198D01*
X152470197Y-142489737D01*
X152520717Y-142323196D01*
X152521324Y-142317035D01*
X152521325Y-142317029D01*
X152526701Y-142262442D01*
X152530053Y-142243457D01*
X152531528Y-142237713D01*
X152531528Y-142237709D01*
X152533500Y-142230030D01*
X152533500Y-142203995D01*
X152534757Y-142186242D01*
X152537432Y-142167447D01*
X152537432Y-142167446D01*
X152538013Y-142163364D01*
X152538153Y-142150000D01*
X152534413Y-142119093D01*
X152533500Y-142103958D01*
X152533500Y-140004500D01*
X152553502Y-139936379D01*
X152607158Y-139889886D01*
X152659500Y-139878500D01*
X155240500Y-139878500D01*
X155308621Y-139898502D01*
X155355114Y-139952158D01*
X155366500Y-140004500D01*
X155366500Y-141697476D01*
X155346498Y-141765597D01*
X155334142Y-141781779D01*
X155260960Y-141863056D01*
X155165473Y-142028444D01*
X155106458Y-142210072D01*
X155105768Y-142216633D01*
X155105768Y-142216635D01*
X155103553Y-142237713D01*
X155086496Y-142400000D01*
X155087186Y-142406565D01*
X155104607Y-142572313D01*
X155106458Y-142589928D01*
X155165473Y-142771556D01*
X155260960Y-142936944D01*
X155265378Y-142941851D01*
X155265379Y-142941852D01*
X155384325Y-143073955D01*
X155388747Y-143078866D01*
X155394696Y-143083188D01*
X155535326Y-143185362D01*
X155543248Y-143191118D01*
X155549276Y-143193802D01*
X155549278Y-143193803D01*
X155711681Y-143266109D01*
X155717712Y-143268794D01*
X155811113Y-143288647D01*
X155898056Y-143307128D01*
X155898061Y-143307128D01*
X155904513Y-143308500D01*
X156095487Y-143308500D01*
X156101939Y-143307128D01*
X156101944Y-143307128D01*
X156188887Y-143288647D01*
X156282288Y-143268794D01*
X156288319Y-143266109D01*
X156450722Y-143193803D01*
X156450724Y-143193802D01*
X156456752Y-143191118D01*
X156464675Y-143185362D01*
X156605304Y-143083188D01*
X156611253Y-143078866D01*
X156615675Y-143073955D01*
X156734621Y-142941852D01*
X156734622Y-142941851D01*
X156739040Y-142936944D01*
X156834527Y-142771556D01*
X156893542Y-142589928D01*
X156895394Y-142572313D01*
X156912814Y-142406565D01*
X156913504Y-142400000D01*
X156896447Y-142237713D01*
X156894232Y-142216635D01*
X156894232Y-142216633D01*
X156893542Y-142210072D01*
X156834527Y-142028444D01*
X156739040Y-141863056D01*
X156665863Y-141781785D01*
X156635147Y-141717779D01*
X156633500Y-141697476D01*
X156633500Y-134800000D01*
X156886496Y-134800000D01*
X156906458Y-134989928D01*
X156965473Y-135171556D01*
X157060960Y-135336944D01*
X157134137Y-135418215D01*
X157164853Y-135482221D01*
X157166500Y-135502524D01*
X157166500Y-148299982D01*
X157165422Y-148316428D01*
X157161882Y-148343317D01*
X157163556Y-148358476D01*
X157163976Y-148362278D01*
X157164257Y-148365116D01*
X157177170Y-148512720D01*
X157178594Y-148518033D01*
X157215178Y-148654565D01*
X157219446Y-148670495D01*
X157221769Y-148675476D01*
X157221769Y-148675477D01*
X157286151Y-148813546D01*
X157286154Y-148813551D01*
X157288477Y-148818533D01*
X157382166Y-148952334D01*
X157497666Y-149067834D01*
X157631467Y-149161523D01*
X157636449Y-149163846D01*
X157636454Y-149163849D01*
X157754163Y-149218737D01*
X157779505Y-149230554D01*
X157784813Y-149231976D01*
X157784815Y-149231977D01*
X157839434Y-149246612D01*
X157937280Y-149272830D01*
X157955706Y-149274442D01*
X157989351Y-149277386D01*
X158009699Y-149280863D01*
X158012291Y-149281529D01*
X158012295Y-149281530D01*
X158019970Y-149283500D01*
X158046005Y-149283500D01*
X158063755Y-149284757D01*
X158086636Y-149288013D01*
X158093679Y-149288087D01*
X158095880Y-149288110D01*
X158095882Y-149288110D01*
X158100000Y-149288153D01*
X158104090Y-149287658D01*
X158104091Y-149287658D01*
X158111747Y-149286731D01*
X158130907Y-149284413D01*
X158146042Y-149283500D01*
X161315500Y-149283500D01*
X161383621Y-149303502D01*
X161430114Y-149357158D01*
X161441500Y-149409500D01*
X161441500Y-149450400D01*
X161452474Y-149556166D01*
X161454655Y-149562702D01*
X161454655Y-149562704D01*
X161460842Y-149581248D01*
X161508450Y-149723946D01*
X161601522Y-149874348D01*
X161726697Y-149999305D01*
X161732927Y-150003145D01*
X161732928Y-150003146D01*
X161870090Y-150087694D01*
X161877262Y-150092115D01*
X161957005Y-150118564D01*
X162038611Y-150145632D01*
X162038613Y-150145632D01*
X162045139Y-150147797D01*
X162051975Y-150148497D01*
X162051978Y-150148498D01*
X162095031Y-150152909D01*
X162149600Y-150158500D01*
X162750400Y-150158500D01*
X162753646Y-150158163D01*
X162753650Y-150158163D01*
X162849308Y-150148238D01*
X162849312Y-150148237D01*
X162856166Y-150147526D01*
X162862702Y-150145345D01*
X162862704Y-150145345D01*
X163013377Y-150095076D01*
X163023946Y-150091550D01*
X163174348Y-149998478D01*
X163299305Y-149873303D01*
X163327992Y-149826765D01*
X163388275Y-149728968D01*
X163388276Y-149728966D01*
X163392115Y-149722738D01*
X163447797Y-149554861D01*
X163458500Y-149450400D01*
X163458500Y-147849600D01*
X163447526Y-147743834D01*
X163444872Y-147735877D01*
X163393868Y-147583002D01*
X163391550Y-147576054D01*
X163298478Y-147425652D01*
X163173303Y-147300695D01*
X163167072Y-147296854D01*
X163028968Y-147211725D01*
X163028966Y-147211724D01*
X163022738Y-147207885D01*
X162917002Y-147172814D01*
X162861389Y-147154368D01*
X162861387Y-147154368D01*
X162854861Y-147152203D01*
X162848025Y-147151503D01*
X162848022Y-147151502D01*
X162804969Y-147147091D01*
X162750400Y-147141500D01*
X162149600Y-147141500D01*
X162146354Y-147141837D01*
X162146350Y-147141837D01*
X162050692Y-147151762D01*
X162050688Y-147151763D01*
X162043834Y-147152474D01*
X162037298Y-147154655D01*
X162037296Y-147154655D01*
X161905194Y-147198728D01*
X161876054Y-147208450D01*
X161725652Y-147301522D01*
X161600695Y-147426697D01*
X161507885Y-147577262D01*
X161505581Y-147584209D01*
X161457311Y-147729740D01*
X161452203Y-147745139D01*
X161441500Y-147849600D01*
X161441500Y-147890500D01*
X161421498Y-147958621D01*
X161367842Y-148005114D01*
X161315500Y-148016500D01*
X158559500Y-148016500D01*
X158491379Y-147996498D01*
X158444886Y-147942842D01*
X158433500Y-147890500D01*
X158433500Y-141950004D01*
X160286762Y-141950004D01*
X160287032Y-141954123D01*
X160304597Y-142222100D01*
X160305697Y-142238890D01*
X160306501Y-142242930D01*
X160306501Y-142242933D01*
X160359234Y-142508040D01*
X160362176Y-142522832D01*
X160363502Y-142526738D01*
X160363503Y-142526742D01*
X160453724Y-142792522D01*
X160455235Y-142796974D01*
X160583280Y-143056623D01*
X160744120Y-143297339D01*
X160746832Y-143300431D01*
X160746837Y-143300438D01*
X160852445Y-143420859D01*
X160935005Y-143515000D01*
X160938094Y-143517709D01*
X161149566Y-143703167D01*
X161149572Y-143703172D01*
X161152666Y-143705885D01*
X161393381Y-143866725D01*
X161397080Y-143868549D01*
X161397085Y-143868552D01*
X161649336Y-143992948D01*
X161653031Y-143994770D01*
X161656929Y-143996093D01*
X161656931Y-143996094D01*
X161923263Y-144086502D01*
X161923267Y-144086503D01*
X161927173Y-144087829D01*
X161931217Y-144088633D01*
X161931223Y-144088635D01*
X162207072Y-144143504D01*
X162207075Y-144143504D01*
X162211115Y-144144308D01*
X162215226Y-144144577D01*
X162215230Y-144144578D01*
X162495882Y-144162973D01*
X162500001Y-144163243D01*
X162504120Y-144162973D01*
X162784772Y-144144578D01*
X162784776Y-144144577D01*
X162788887Y-144144308D01*
X162792927Y-144143504D01*
X162792930Y-144143504D01*
X163068779Y-144088635D01*
X163068785Y-144088633D01*
X163072829Y-144087829D01*
X163076735Y-144086503D01*
X163076739Y-144086502D01*
X163343071Y-143996094D01*
X163343073Y-143996093D01*
X163346971Y-143994770D01*
X163350666Y-143992948D01*
X163602917Y-143868552D01*
X163602922Y-143868549D01*
X163606621Y-143866725D01*
X163847336Y-143705885D01*
X163850430Y-143703172D01*
X163850436Y-143703167D01*
X164061908Y-143517709D01*
X164064997Y-143515000D01*
X164147557Y-143420859D01*
X164253165Y-143300438D01*
X164253170Y-143300431D01*
X164255882Y-143297339D01*
X164416722Y-143056623D01*
X164544767Y-142796974D01*
X164546278Y-142792522D01*
X164636499Y-142526742D01*
X164636500Y-142526738D01*
X164637826Y-142522832D01*
X164640769Y-142508040D01*
X164693501Y-142242933D01*
X164693501Y-142242930D01*
X164694305Y-142238890D01*
X164695406Y-142222100D01*
X164712970Y-141954123D01*
X164713240Y-141950004D01*
X164702970Y-141793317D01*
X164694575Y-141665233D01*
X164694574Y-141665229D01*
X164694305Y-141661118D01*
X164690653Y-141642758D01*
X164638632Y-141381226D01*
X164638630Y-141381220D01*
X164637826Y-141377176D01*
X164623559Y-141335145D01*
X164546091Y-141106934D01*
X164546090Y-141106932D01*
X164544767Y-141103034D01*
X164489831Y-140991634D01*
X164426071Y-140862342D01*
X164416722Y-140843385D01*
X164255882Y-140602669D01*
X164253170Y-140599577D01*
X164253165Y-140599570D01*
X164067706Y-140388097D01*
X164064997Y-140385008D01*
X164049658Y-140371556D01*
X163850436Y-140196841D01*
X163850430Y-140196836D01*
X163847336Y-140194123D01*
X163606621Y-140033283D01*
X163602922Y-140031459D01*
X163602917Y-140031456D01*
X163350666Y-139907060D01*
X163350664Y-139907059D01*
X163346971Y-139905238D01*
X163343071Y-139903914D01*
X163076739Y-139813506D01*
X163076735Y-139813505D01*
X163072829Y-139812179D01*
X163068785Y-139811375D01*
X163068779Y-139811373D01*
X162792930Y-139756504D01*
X162792927Y-139756504D01*
X162788887Y-139755700D01*
X162784776Y-139755431D01*
X162784772Y-139755430D01*
X162504120Y-139737035D01*
X162500001Y-139736765D01*
X162495882Y-139737035D01*
X162215230Y-139755430D01*
X162215226Y-139755431D01*
X162211115Y-139755700D01*
X162207075Y-139756504D01*
X162207072Y-139756504D01*
X161931223Y-139811373D01*
X161931217Y-139811375D01*
X161927173Y-139812179D01*
X161923267Y-139813505D01*
X161923263Y-139813506D01*
X161656931Y-139903914D01*
X161653031Y-139905238D01*
X161649338Y-139907059D01*
X161649336Y-139907060D01*
X161534462Y-139963710D01*
X161393382Y-140033283D01*
X161152666Y-140194123D01*
X161149574Y-140196835D01*
X161149567Y-140196840D01*
X160950344Y-140371556D01*
X160935005Y-140385008D01*
X160932296Y-140388097D01*
X160746837Y-140599570D01*
X160746832Y-140599577D01*
X160744120Y-140602669D01*
X160583280Y-140843385D01*
X160573931Y-140862342D01*
X160510172Y-140991634D01*
X160455235Y-141103034D01*
X160453912Y-141106932D01*
X160453911Y-141106934D01*
X160376444Y-141335145D01*
X160362176Y-141377176D01*
X160361372Y-141381220D01*
X160361370Y-141381226D01*
X160309349Y-141642758D01*
X160305697Y-141661118D01*
X160305428Y-141665229D01*
X160305427Y-141665233D01*
X160297741Y-141782492D01*
X160288806Y-141918814D01*
X160286762Y-141950004D01*
X158433500Y-141950004D01*
X158433500Y-135502524D01*
X158453502Y-135434403D01*
X158465858Y-135418221D01*
X158539040Y-135336944D01*
X158634527Y-135171556D01*
X158693542Y-134989928D01*
X158713504Y-134800000D01*
X158709934Y-134766034D01*
X158694232Y-134616635D01*
X158694232Y-134616633D01*
X158693542Y-134610072D01*
X158634527Y-134428444D01*
X158539040Y-134263056D01*
X158524726Y-134247158D01*
X158415675Y-134126045D01*
X158415674Y-134126044D01*
X158411253Y-134121134D01*
X158304148Y-134043317D01*
X158262094Y-134012763D01*
X158262093Y-134012762D01*
X158256752Y-134008882D01*
X158250724Y-134006198D01*
X158250722Y-134006197D01*
X158088319Y-133933891D01*
X158088318Y-133933891D01*
X158082288Y-133931206D01*
X157988887Y-133911353D01*
X157901944Y-133892872D01*
X157901939Y-133892872D01*
X157895487Y-133891500D01*
X157704513Y-133891500D01*
X157698061Y-133892872D01*
X157698056Y-133892872D01*
X157611113Y-133911353D01*
X157517712Y-133931206D01*
X157511682Y-133933891D01*
X157511681Y-133933891D01*
X157349278Y-134006197D01*
X157349276Y-134006198D01*
X157343248Y-134008882D01*
X157337907Y-134012762D01*
X157337906Y-134012763D01*
X157295852Y-134043317D01*
X157188747Y-134121134D01*
X157184326Y-134126044D01*
X157184325Y-134126045D01*
X157075275Y-134247158D01*
X157060960Y-134263056D01*
X156965473Y-134428444D01*
X156906458Y-134610072D01*
X156905768Y-134616633D01*
X156905768Y-134616635D01*
X156890066Y-134766034D01*
X156886496Y-134800000D01*
X156633500Y-134800000D01*
X156633500Y-133903995D01*
X156634757Y-133886241D01*
X156637432Y-133867445D01*
X156638013Y-133863364D01*
X156638153Y-133850000D01*
X156634620Y-133820805D01*
X156634186Y-133816649D01*
X156623791Y-133697839D01*
X156622715Y-133685537D01*
X156579987Y-133526071D01*
X156510216Y-133376448D01*
X156415524Y-133241213D01*
X156298787Y-133124476D01*
X156163552Y-133029784D01*
X156158574Y-133027463D01*
X156158571Y-133027461D01*
X156031250Y-132968090D01*
X155977965Y-132921172D01*
X155958500Y-132853895D01*
X155958500Y-132741866D01*
X155951745Y-132679684D01*
X155900615Y-132543295D01*
X155813261Y-132426739D01*
X155738657Y-132370826D01*
X155696142Y-132313966D01*
X155691116Y-132243148D01*
X155725176Y-132180855D01*
X155738657Y-132169174D01*
X155806080Y-132118643D01*
X155806081Y-132118642D01*
X155813261Y-132113261D01*
X155900615Y-131996705D01*
X155951745Y-131860316D01*
X155958500Y-131798134D01*
X155958500Y-131577869D01*
X155978502Y-131509748D01*
X156032158Y-131463255D01*
X156102432Y-131453151D01*
X156154383Y-131473025D01*
X156227003Y-131521430D01*
X156236241Y-131528215D01*
X156243325Y-131533932D01*
X156243328Y-131533934D01*
X156247110Y-131536986D01*
X156252309Y-131539994D01*
X156252525Y-131540164D01*
X156252781Y-131540267D01*
X156257975Y-131543272D01*
X156278713Y-131551317D01*
X156297030Y-131560189D01*
X156488552Y-131672886D01*
X157067030Y-132013281D01*
X157071227Y-132015862D01*
X157856495Y-132520278D01*
X157860578Y-132523016D01*
X158074111Y-132672285D01*
X158625498Y-133057732D01*
X158629481Y-133060633D01*
X159372934Y-133624868D01*
X159376794Y-133627918D01*
X160064441Y-134193502D01*
X160097607Y-134220781D01*
X160101342Y-134223977D01*
X160338069Y-134434729D01*
X160798441Y-134844586D01*
X160802056Y-134847934D01*
X161474330Y-135495299D01*
X161477812Y-135498786D01*
X161638497Y-135666109D01*
X162056425Y-136101303D01*
X162124261Y-136171942D01*
X162127594Y-136175551D01*
X162233541Y-136294883D01*
X162747244Y-136873484D01*
X162750442Y-136877231D01*
X163266772Y-137506739D01*
X163342331Y-137598861D01*
X163345378Y-137602728D01*
X163815000Y-138223269D01*
X163908569Y-138346908D01*
X163911460Y-138350885D01*
X164050826Y-138550830D01*
X164445165Y-139116578D01*
X164447903Y-139120675D01*
X164950360Y-139905238D01*
X164951250Y-139906628D01*
X164953817Y-139910816D01*
X165406762Y-140682971D01*
X165426031Y-140715820D01*
X165428432Y-140720103D01*
X165573752Y-140991634D01*
X165868828Y-141542987D01*
X165871068Y-141547376D01*
X166022069Y-141858153D01*
X166245029Y-142317029D01*
X166278951Y-142386845D01*
X166281011Y-142391305D01*
X166655765Y-143246097D01*
X166657637Y-143250605D01*
X166958743Y-144017648D01*
X166998685Y-144119397D01*
X167000392Y-144124009D01*
X167064938Y-144309446D01*
X167307193Y-145005424D01*
X167308722Y-145010108D01*
X167327945Y-145073177D01*
X167542742Y-145777895D01*
X167580837Y-145902881D01*
X167582177Y-145907609D01*
X167657598Y-146194886D01*
X167819171Y-146810316D01*
X167820329Y-146815105D01*
X168021852Y-147726414D01*
X168022821Y-147731245D01*
X168188552Y-148649700D01*
X168189332Y-148654564D01*
X168319024Y-149578785D01*
X168319024Y-149578787D01*
X168319612Y-149583662D01*
X168406534Y-150447319D01*
X168408696Y-150468803D01*
X168408987Y-150490694D01*
X168407641Y-150508919D01*
X168409519Y-150517696D01*
X168409831Y-150522240D01*
X168412081Y-150548088D01*
X168409572Y-150615448D01*
X168409572Y-150615451D01*
X168404988Y-150644749D01*
X168400914Y-150659293D01*
X168381833Y-150727402D01*
X168370526Y-150754821D01*
X168328695Y-150829765D01*
X168311294Y-150853780D01*
X168286180Y-150881009D01*
X168253099Y-150916877D01*
X168230570Y-150936156D01*
X168167622Y-150978289D01*
X168159241Y-150983899D01*
X168132824Y-150997381D01*
X168052310Y-151027129D01*
X168023474Y-151034062D01*
X167962243Y-151041320D01*
X167945876Y-151042187D01*
X167938564Y-151042098D01*
X167929688Y-151040716D01*
X167906620Y-151043733D01*
X167898132Y-151044843D01*
X167881792Y-151045907D01*
X156553252Y-151045907D01*
X156532347Y-151044161D01*
X156517346Y-151041637D01*
X156517343Y-151041637D01*
X156512554Y-151040831D01*
X156506315Y-151040755D01*
X156504862Y-151040737D01*
X156504859Y-151040737D01*
X156500002Y-151040678D01*
X156485296Y-151042784D01*
X156476443Y-151043733D01*
X156289258Y-151057121D01*
X156284770Y-151057442D01*
X156201960Y-151075456D01*
X156078310Y-151102354D01*
X156078307Y-151102355D01*
X156073921Y-151103309D01*
X156069719Y-151104876D01*
X156069713Y-151104878D01*
X155875957Y-151177146D01*
X155871745Y-151178717D01*
X155682358Y-151282130D01*
X155509617Y-151411443D01*
X155357037Y-151564024D01*
X155227725Y-151736766D01*
X155124313Y-151926153D01*
X155122744Y-151930359D01*
X155122742Y-151930364D01*
X155050480Y-152124110D01*
X155050478Y-152124117D01*
X155048907Y-152128329D01*
X155047952Y-152132719D01*
X155047950Y-152132726D01*
X155022884Y-152247957D01*
X155003040Y-152339179D01*
X155002719Y-152343666D01*
X155002719Y-152343667D01*
X154990543Y-152513936D01*
X154989117Y-152525856D01*
X154987232Y-152537059D01*
X154987231Y-152537066D01*
X154986425Y-152541859D01*
X154986272Y-152554411D01*
X154986962Y-152559227D01*
X154990228Y-152582033D01*
X154991501Y-152599896D01*
X154991501Y-162400633D01*
X154990001Y-162420018D01*
X154986310Y-162443724D01*
X154987474Y-162452626D01*
X154987490Y-162452750D01*
X154987761Y-162483193D01*
X154980767Y-162545264D01*
X154974489Y-162572768D01*
X154947514Y-162649859D01*
X154935274Y-162675275D01*
X154891823Y-162744427D01*
X154874231Y-162766486D01*
X154816486Y-162824231D01*
X154794427Y-162841823D01*
X154725275Y-162885274D01*
X154699854Y-162897516D01*
X154622772Y-162924488D01*
X154595266Y-162930767D01*
X154579408Y-162932554D01*
X154539780Y-162937019D01*
X154524138Y-162936605D01*
X154524123Y-162937800D01*
X154515147Y-162937690D01*
X154506276Y-162936309D01*
X154497374Y-162937473D01*
X154497372Y-162937473D01*
X154482323Y-162939441D01*
X154474714Y-162940436D01*
X154458379Y-162941500D01*
X134549367Y-162941500D01*
X134529982Y-162940000D01*
X134515149Y-162937690D01*
X134515145Y-162937690D01*
X134506276Y-162936309D01*
X134497374Y-162937473D01*
X134497369Y-162937473D01*
X134497250Y-162937489D01*
X134466813Y-162937760D01*
X134404737Y-162930766D01*
X134377229Y-162924487D01*
X134300147Y-162897515D01*
X134274726Y-162885273D01*
X134205574Y-162841822D01*
X134183515Y-162824230D01*
X134125770Y-162766485D01*
X134108178Y-162744426D01*
X134064727Y-162675274D01*
X134052485Y-162649853D01*
X134025513Y-162572771D01*
X134019235Y-162545266D01*
X134013171Y-162491456D01*
X134012889Y-162466639D01*
X134013577Y-162462552D01*
X134013730Y-162450000D01*
X134009774Y-162422376D01*
X134008501Y-162404514D01*
X134008501Y-152607660D01*
X134010247Y-152586754D01*
X134011042Y-152582033D01*
X134013577Y-152566963D01*
X134013730Y-152554411D01*
X134011597Y-152539515D01*
X134010647Y-152530655D01*
X133997275Y-152343669D01*
X133997275Y-152343667D01*
X133996954Y-152339180D01*
X133951088Y-152128331D01*
X133875682Y-151926156D01*
X133772270Y-151736770D01*
X133642959Y-151564029D01*
X133490380Y-151411449D01*
X133317640Y-151282136D01*
X133128255Y-151178723D01*
X132926080Y-151103316D01*
X132921685Y-151102360D01*
X132921682Y-151102359D01*
X132719632Y-151058405D01*
X132719630Y-151058405D01*
X132715232Y-151057448D01*
X132540467Y-151044948D01*
X132528556Y-151043523D01*
X132517354Y-151041638D01*
X132517347Y-151041637D01*
X132512554Y-151040831D01*
X132506278Y-151040755D01*
X132504862Y-151040737D01*
X132504859Y-151040737D01*
X132500002Y-151040678D01*
X132480890Y-151043415D01*
X132472378Y-151044634D01*
X132454516Y-151045907D01*
X121125948Y-151045907D01*
X121106560Y-151044406D01*
X121091740Y-151042098D01*
X121091739Y-151042098D01*
X121082865Y-151040716D01*
X121073964Y-151041880D01*
X121069412Y-151041824D01*
X121043460Y-151041980D01*
X121018231Y-151038989D01*
X120976529Y-151034046D01*
X120947694Y-151027113D01*
X120867183Y-150997366D01*
X120840771Y-150983888D01*
X120769441Y-150936144D01*
X120746911Y-150916863D01*
X120688719Y-150853771D01*
X120671322Y-150829763D01*
X120629485Y-150754809D01*
X120618182Y-150727397D01*
X120595027Y-150644745D01*
X120590444Y-150615448D01*
X120588141Y-150553606D01*
X120588598Y-150537220D01*
X120589256Y-150530164D01*
X120591348Y-150521435D01*
X120590057Y-150495258D01*
X120590537Y-150476436D01*
X120591762Y-150464266D01*
X120680389Y-149583661D01*
X120680977Y-149578785D01*
X120683419Y-149561389D01*
X120810670Y-148654556D01*
X120811449Y-148649700D01*
X120977181Y-147731245D01*
X120978150Y-147726414D01*
X121179673Y-146815105D01*
X121180831Y-146810316D01*
X121344196Y-146188056D01*
X121417824Y-145907609D01*
X121419164Y-145902881D01*
X121469008Y-145739352D01*
X121620060Y-145243769D01*
X121691280Y-145010108D01*
X121692809Y-145005424D01*
X121923273Y-144343317D01*
X121999609Y-144124009D01*
X122001316Y-144119397D01*
X122043343Y-144012338D01*
X122342357Y-143250622D01*
X122344245Y-143246075D01*
X122390807Y-143139871D01*
X122718991Y-142391305D01*
X122721051Y-142386845D01*
X122782926Y-142259500D01*
X122933303Y-141950004D01*
X124286762Y-141950004D01*
X124287032Y-141954123D01*
X124304597Y-142222100D01*
X124305697Y-142238890D01*
X124306501Y-142242930D01*
X124306501Y-142242933D01*
X124359234Y-142508040D01*
X124362176Y-142522832D01*
X124363502Y-142526738D01*
X124363503Y-142526742D01*
X124453724Y-142792522D01*
X124455235Y-142796974D01*
X124583280Y-143056623D01*
X124744120Y-143297339D01*
X124746832Y-143300431D01*
X124746837Y-143300438D01*
X124852445Y-143420859D01*
X124935005Y-143515000D01*
X124938094Y-143517709D01*
X125149566Y-143703167D01*
X125149572Y-143703172D01*
X125152666Y-143705885D01*
X125393381Y-143866725D01*
X125397080Y-143868549D01*
X125397085Y-143868552D01*
X125649336Y-143992948D01*
X125653031Y-143994770D01*
X125656929Y-143996093D01*
X125656931Y-143996094D01*
X125923263Y-144086502D01*
X125923267Y-144086503D01*
X125927173Y-144087829D01*
X125931217Y-144088633D01*
X125931223Y-144088635D01*
X126207072Y-144143504D01*
X126207075Y-144143504D01*
X126211115Y-144144308D01*
X126215226Y-144144577D01*
X126215230Y-144144578D01*
X126495882Y-144162973D01*
X126500001Y-144163243D01*
X126504120Y-144162973D01*
X126784772Y-144144578D01*
X126784776Y-144144577D01*
X126788887Y-144144308D01*
X126792927Y-144143504D01*
X126792930Y-144143504D01*
X127068779Y-144088635D01*
X127068785Y-144088633D01*
X127072829Y-144087829D01*
X127076735Y-144086503D01*
X127076739Y-144086502D01*
X127343071Y-143996094D01*
X127343073Y-143996093D01*
X127346971Y-143994770D01*
X127350666Y-143992948D01*
X127602917Y-143868552D01*
X127602922Y-143868549D01*
X127606621Y-143866725D01*
X127847336Y-143705885D01*
X127850430Y-143703172D01*
X127850436Y-143703167D01*
X128061908Y-143517709D01*
X128064997Y-143515000D01*
X128147557Y-143420859D01*
X128253165Y-143300438D01*
X128253170Y-143300431D01*
X128255882Y-143297339D01*
X128416722Y-143056623D01*
X128544767Y-142796974D01*
X128546278Y-142792522D01*
X128636499Y-142526742D01*
X128636500Y-142526738D01*
X128637826Y-142522832D01*
X128640769Y-142508040D01*
X128693501Y-142242933D01*
X128693501Y-142242930D01*
X128694305Y-142238890D01*
X128695406Y-142222100D01*
X128712970Y-141954123D01*
X128713240Y-141950004D01*
X128702970Y-141793317D01*
X128694575Y-141665233D01*
X128694574Y-141665229D01*
X128694305Y-141661118D01*
X128690653Y-141642758D01*
X128638632Y-141381226D01*
X128638630Y-141381220D01*
X128637826Y-141377176D01*
X128623559Y-141335145D01*
X128546091Y-141106934D01*
X128546090Y-141106932D01*
X128544767Y-141103034D01*
X128489831Y-140991634D01*
X128426071Y-140862342D01*
X128416722Y-140843385D01*
X128255882Y-140602669D01*
X128253170Y-140599577D01*
X128253165Y-140599570D01*
X128067706Y-140388097D01*
X128064997Y-140385008D01*
X128049658Y-140371556D01*
X127850436Y-140196841D01*
X127850430Y-140196836D01*
X127847336Y-140194123D01*
X127606621Y-140033283D01*
X127602922Y-140031459D01*
X127602917Y-140031456D01*
X127350666Y-139907060D01*
X127350664Y-139907059D01*
X127346971Y-139905238D01*
X127343071Y-139903914D01*
X127076739Y-139813506D01*
X127076735Y-139813505D01*
X127072829Y-139812179D01*
X127068785Y-139811375D01*
X127068779Y-139811373D01*
X126792930Y-139756504D01*
X126792927Y-139756504D01*
X126788887Y-139755700D01*
X126784776Y-139755431D01*
X126784772Y-139755430D01*
X126504120Y-139737035D01*
X126500001Y-139736765D01*
X126495882Y-139737035D01*
X126215230Y-139755430D01*
X126215226Y-139755431D01*
X126211115Y-139755700D01*
X126207075Y-139756504D01*
X126207072Y-139756504D01*
X125931223Y-139811373D01*
X125931217Y-139811375D01*
X125927173Y-139812179D01*
X125923267Y-139813505D01*
X125923263Y-139813506D01*
X125656931Y-139903914D01*
X125653031Y-139905238D01*
X125649338Y-139907059D01*
X125649336Y-139907060D01*
X125534462Y-139963710D01*
X125393382Y-140033283D01*
X125152666Y-140194123D01*
X125149574Y-140196835D01*
X125149567Y-140196840D01*
X124950344Y-140371556D01*
X124935005Y-140385008D01*
X124932296Y-140388097D01*
X124746837Y-140599570D01*
X124746832Y-140599577D01*
X124744120Y-140602669D01*
X124583280Y-140843385D01*
X124573931Y-140862342D01*
X124510172Y-140991634D01*
X124455235Y-141103034D01*
X124453912Y-141106932D01*
X124453911Y-141106934D01*
X124376444Y-141335145D01*
X124362176Y-141377176D01*
X124361372Y-141381220D01*
X124361370Y-141381226D01*
X124309349Y-141642758D01*
X124305697Y-141661118D01*
X124305428Y-141665229D01*
X124305427Y-141665233D01*
X124297741Y-141782492D01*
X124288806Y-141918814D01*
X124286762Y-141950004D01*
X122933303Y-141950004D01*
X122948458Y-141918814D01*
X123128933Y-141547375D01*
X123131173Y-141542986D01*
X123429183Y-140986151D01*
X123571569Y-140720102D01*
X123573962Y-140715834D01*
X123957191Y-140062527D01*
X124046177Y-139910829D01*
X124048752Y-139906628D01*
X124552098Y-139120675D01*
X124554836Y-139116578D01*
X125088536Y-138350894D01*
X125091433Y-138346908D01*
X125577172Y-137705069D01*
X128512601Y-137705069D01*
X128512971Y-137711890D01*
X128518495Y-137762752D01*
X128522121Y-137778004D01*
X128567276Y-137898454D01*
X128575814Y-137914049D01*
X128652315Y-138016124D01*
X128664876Y-138028685D01*
X128766951Y-138105186D01*
X128782546Y-138113724D01*
X128902994Y-138158878D01*
X128918249Y-138162505D01*
X128969114Y-138168031D01*
X128975928Y-138168400D01*
X129027885Y-138168400D01*
X129043124Y-138163925D01*
X129044329Y-138162535D01*
X129046000Y-138154852D01*
X129046000Y-137272115D01*
X129041525Y-137256876D01*
X129040135Y-137255671D01*
X129032452Y-137254000D01*
X128530716Y-137254000D01*
X128515477Y-137258475D01*
X128514272Y-137259865D01*
X128512601Y-137267548D01*
X128512601Y-137705069D01*
X125577172Y-137705069D01*
X125654621Y-137602731D01*
X125657670Y-137598861D01*
X126249559Y-136877231D01*
X126252758Y-136873483D01*
X126382025Y-136727885D01*
X128512600Y-136727885D01*
X128517075Y-136743124D01*
X128518465Y-136744329D01*
X128526148Y-136746000D01*
X129027885Y-136746000D01*
X129043124Y-136741525D01*
X129044329Y-136740135D01*
X129046000Y-136732452D01*
X129046000Y-136727885D01*
X129554000Y-136727885D01*
X129558475Y-136743124D01*
X129559865Y-136744329D01*
X129567548Y-136746000D01*
X130069284Y-136746000D01*
X130084523Y-136741525D01*
X130085728Y-136740135D01*
X130087399Y-136732452D01*
X130087399Y-136294931D01*
X130087029Y-136288110D01*
X130081505Y-136237248D01*
X130077879Y-136221996D01*
X130032724Y-136101546D01*
X130024186Y-136085951D01*
X129947685Y-135983876D01*
X129935124Y-135971315D01*
X129833049Y-135894814D01*
X129817454Y-135886276D01*
X129697006Y-135841122D01*
X129681751Y-135837495D01*
X129630886Y-135831969D01*
X129624072Y-135831600D01*
X129572115Y-135831600D01*
X129556876Y-135836075D01*
X129555671Y-135837465D01*
X129554000Y-135845148D01*
X129554000Y-136727885D01*
X129046000Y-136727885D01*
X129046000Y-135849716D01*
X129041525Y-135834477D01*
X129040135Y-135833272D01*
X129032452Y-135831601D01*
X128975931Y-135831601D01*
X128969110Y-135831971D01*
X128918248Y-135837495D01*
X128902996Y-135841121D01*
X128782546Y-135886276D01*
X128766951Y-135894814D01*
X128664876Y-135971315D01*
X128652315Y-135983876D01*
X128575814Y-136085951D01*
X128567276Y-136101546D01*
X128522122Y-136221994D01*
X128518495Y-136237249D01*
X128512969Y-136288114D01*
X128512600Y-136294928D01*
X128512600Y-136727885D01*
X126382025Y-136727885D01*
X126872407Y-136175550D01*
X126875740Y-136171941D01*
X126943343Y-136101546D01*
X127320795Y-135708500D01*
X127522189Y-135498786D01*
X127525671Y-135495299D01*
X128197946Y-134847934D01*
X128201561Y-134844586D01*
X128661933Y-134434729D01*
X128898660Y-134223977D01*
X128902395Y-134220781D01*
X128935562Y-134193502D01*
X129623208Y-133627918D01*
X129627068Y-133624868D01*
X130370521Y-133060633D01*
X130374504Y-133057732D01*
X130925891Y-132672285D01*
X131139424Y-132523016D01*
X131143507Y-132520278D01*
X131277950Y-132433919D01*
X131669188Y-132182607D01*
X131737313Y-132162620D01*
X131805429Y-132182637D01*
X131851910Y-132236303D01*
X131861999Y-132306579D01*
X131832491Y-132371153D01*
X131826380Y-132377715D01*
X131152355Y-133051740D01*
X131138917Y-133063402D01*
X131123728Y-133074807D01*
X131123718Y-133074816D01*
X131120424Y-133077289D01*
X131117477Y-133080175D01*
X131117476Y-133080176D01*
X131113819Y-133083757D01*
X131113814Y-133083763D01*
X131110876Y-133086640D01*
X131108336Y-133089880D01*
X131093521Y-133108775D01*
X131089104Y-133114100D01*
X130994760Y-133221687D01*
X130992470Y-133225114D01*
X130992468Y-133225117D01*
X130898173Y-133366246D01*
X130895882Y-133369675D01*
X130817167Y-133529303D01*
X130759959Y-133697839D01*
X130725238Y-133872400D01*
X130724968Y-133876517D01*
X130724968Y-133876518D01*
X130720414Y-133945994D01*
X130719077Y-133954376D01*
X130719465Y-133954425D01*
X130718471Y-133962292D01*
X130716500Y-133969970D01*
X130716500Y-133999982D01*
X130715422Y-134016425D01*
X130711882Y-134043317D01*
X130712716Y-134050867D01*
X130715739Y-134078253D01*
X130716500Y-134092080D01*
X130716500Y-135898787D01*
X130696498Y-135966908D01*
X130689064Y-135976133D01*
X130689339Y-135976339D01*
X130601985Y-136092895D01*
X130550855Y-136229284D01*
X130544100Y-136291466D01*
X130544100Y-137708534D01*
X130544469Y-137711931D01*
X130545725Y-137723492D01*
X130533197Y-137793374D01*
X130484877Y-137845390D01*
X130420462Y-137863100D01*
X130211033Y-137863100D01*
X130142912Y-137843098D01*
X130096419Y-137789442D01*
X130085770Y-137723491D01*
X130087031Y-137711883D01*
X130087400Y-137705072D01*
X130087400Y-137272115D01*
X130082925Y-137256876D01*
X130081535Y-137255671D01*
X130073852Y-137254000D01*
X129572115Y-137254000D01*
X129556876Y-137258475D01*
X129555671Y-137259865D01*
X129554000Y-137267548D01*
X129554000Y-138168399D01*
X129552021Y-138168399D01*
X129552019Y-138214543D01*
X129549106Y-138223269D01*
X129534855Y-138261284D01*
X129528100Y-138323466D01*
X129528100Y-139740534D01*
X129534855Y-139802716D01*
X129585985Y-139939105D01*
X129615642Y-139978676D01*
X129657326Y-140034295D01*
X129682174Y-140100801D01*
X129682500Y-140109860D01*
X129682500Y-142083982D01*
X129681422Y-142100428D01*
X129679958Y-142111550D01*
X129677882Y-142127317D01*
X129679075Y-142138120D01*
X129680041Y-142146873D01*
X129680604Y-142167765D01*
X129668301Y-142386845D01*
X129665401Y-142438476D01*
X129663820Y-142452512D01*
X129645083Y-142562789D01*
X129613922Y-142746188D01*
X129610778Y-142759963D01*
X129599051Y-142800669D01*
X129528313Y-143046204D01*
X129523646Y-143059540D01*
X129471530Y-143185362D01*
X129418646Y-143313037D01*
X129409654Y-143334745D01*
X129403525Y-143347472D01*
X129259430Y-143608191D01*
X129251923Y-143620139D01*
X129146852Y-143768223D01*
X129079536Y-143863096D01*
X129070736Y-143874131D01*
X128879044Y-144088635D01*
X128872240Y-144096249D01*
X128862250Y-144106239D01*
X128640131Y-144304736D01*
X128629099Y-144313534D01*
X128386139Y-144485923D01*
X128374191Y-144493430D01*
X128113472Y-144637525D01*
X128100750Y-144643652D01*
X128007229Y-144682389D01*
X127825540Y-144757646D01*
X127812204Y-144762313D01*
X127525964Y-144844778D01*
X127512188Y-144847922D01*
X127411410Y-144865045D01*
X127218512Y-144897820D01*
X127204480Y-144899401D01*
X126941064Y-144914194D01*
X126917553Y-144913313D01*
X126917044Y-144913246D01*
X126914214Y-144912873D01*
X126914210Y-144912873D01*
X126906683Y-144911882D01*
X126876240Y-144915243D01*
X126871747Y-144915739D01*
X126857920Y-144916500D01*
X126053995Y-144916500D01*
X126036241Y-144915243D01*
X126033522Y-144914856D01*
X126013364Y-144911987D01*
X126006809Y-144911918D01*
X126004126Y-144911890D01*
X126004123Y-144911890D01*
X126000000Y-144911847D01*
X125995911Y-144912342D01*
X125995907Y-144912342D01*
X125969627Y-144915522D01*
X125965474Y-144915954D01*
X125959234Y-144916500D01*
X125837280Y-144927170D01*
X125759751Y-144947944D01*
X125684815Y-144968023D01*
X125684813Y-144968024D01*
X125679505Y-144969446D01*
X125674524Y-144971769D01*
X125674523Y-144971769D01*
X125536454Y-145036151D01*
X125536449Y-145036154D01*
X125531467Y-145038477D01*
X125397666Y-145132166D01*
X125282166Y-145247666D01*
X125188477Y-145381467D01*
X125186154Y-145386449D01*
X125186151Y-145386454D01*
X125135572Y-145494923D01*
X125119446Y-145529505D01*
X125077170Y-145687280D01*
X125075022Y-145711842D01*
X125072615Y-145739352D01*
X125069134Y-145759712D01*
X125066500Y-145769970D01*
X125066500Y-145799983D01*
X125065422Y-145816429D01*
X125061882Y-145843317D01*
X125062716Y-145850867D01*
X125065739Y-145878253D01*
X125066500Y-145892080D01*
X125066500Y-147172814D01*
X125046498Y-147240935D01*
X125006803Y-147279958D01*
X124971956Y-147301522D01*
X124846999Y-147426697D01*
X124754189Y-147577262D01*
X124751885Y-147584209D01*
X124703615Y-147729740D01*
X124698507Y-147745139D01*
X124687804Y-147849600D01*
X124687804Y-149450400D01*
X124698778Y-149556166D01*
X124700959Y-149562702D01*
X124700959Y-149562704D01*
X124707146Y-149581248D01*
X124754754Y-149723946D01*
X124847826Y-149874348D01*
X124973001Y-149999305D01*
X124979231Y-150003145D01*
X124979232Y-150003146D01*
X125116394Y-150087694D01*
X125123566Y-150092115D01*
X125203309Y-150118564D01*
X125284915Y-150145632D01*
X125284917Y-150145632D01*
X125291443Y-150147797D01*
X125298279Y-150148497D01*
X125298282Y-150148498D01*
X125341335Y-150152909D01*
X125395904Y-150158500D01*
X125996704Y-150158500D01*
X125999950Y-150158163D01*
X125999954Y-150158163D01*
X126095612Y-150148238D01*
X126095616Y-150148237D01*
X126102470Y-150147526D01*
X126109006Y-150145345D01*
X126109008Y-150145345D01*
X126259681Y-150095076D01*
X126270250Y-150091550D01*
X126420652Y-149998478D01*
X126545609Y-149873303D01*
X126574296Y-149826765D01*
X126634579Y-149728968D01*
X126634580Y-149728966D01*
X126638419Y-149722738D01*
X126694101Y-149554861D01*
X126704804Y-149450400D01*
X126704804Y-147849600D01*
X126693830Y-147743834D01*
X126691176Y-147735877D01*
X126640172Y-147583002D01*
X126637854Y-147576054D01*
X126544782Y-147425652D01*
X126419607Y-147300695D01*
X126393384Y-147284531D01*
X126345891Y-147231759D01*
X126333500Y-147177271D01*
X126333500Y-146309500D01*
X126353502Y-146241379D01*
X126407158Y-146194886D01*
X126459500Y-146183500D01*
X126846005Y-146183500D01*
X126863759Y-146184757D01*
X126886636Y-146188013D01*
X126892972Y-146188079D01*
X126895870Y-146188110D01*
X126895874Y-146188110D01*
X126900000Y-146188153D01*
X126904101Y-146187657D01*
X126905862Y-146187560D01*
X126906929Y-146187506D01*
X127025112Y-146182042D01*
X127271149Y-146170667D01*
X127271156Y-146170666D01*
X127274040Y-146170533D01*
X127399561Y-146153024D01*
X127642001Y-146119205D01*
X127642004Y-146119204D01*
X127644889Y-146118802D01*
X127844685Y-146071810D01*
X128006543Y-146033742D01*
X128006549Y-146033740D01*
X128009382Y-146033074D01*
X128364411Y-145914080D01*
X128706946Y-145762836D01*
X128791457Y-145715764D01*
X129031511Y-145582054D01*
X129034064Y-145580632D01*
X129342976Y-145369023D01*
X129345202Y-145367174D01*
X129345212Y-145367167D01*
X129628809Y-145131671D01*
X129628812Y-145131668D01*
X129631045Y-145129814D01*
X129895814Y-144865045D01*
X129897671Y-144862809D01*
X130133167Y-144579212D01*
X130133174Y-144579202D01*
X130135023Y-144576976D01*
X130346632Y-144268064D01*
X130405017Y-144163243D01*
X130527412Y-143943503D01*
X130527414Y-143943499D01*
X130528836Y-143940946D01*
X130680080Y-143598411D01*
X130799074Y-143243382D01*
X130811367Y-143191118D01*
X130856995Y-142997115D01*
X130884802Y-142878889D01*
X130936533Y-142508040D01*
X130937380Y-142489737D01*
X130948333Y-142252820D01*
X130952544Y-142161723D01*
X130953124Y-142155559D01*
X130953119Y-142155559D01*
X130953432Y-142151450D01*
X130954013Y-142147364D01*
X130954153Y-142134000D01*
X130950413Y-142103093D01*
X130949500Y-142087958D01*
X130949500Y-140109860D01*
X130969502Y-140041739D01*
X130974674Y-140034295D01*
X131016358Y-139978676D01*
X131046015Y-139939105D01*
X131097145Y-139802716D01*
X131103900Y-139740534D01*
X131103900Y-138323466D01*
X131102275Y-138308508D01*
X131114803Y-138238626D01*
X131163123Y-138186610D01*
X131227538Y-138168900D01*
X131659534Y-138168900D01*
X131721716Y-138162145D01*
X131858105Y-138111015D01*
X131974661Y-138023661D01*
X132062015Y-137907105D01*
X132113145Y-137770716D01*
X132119900Y-137708534D01*
X132119900Y-136291466D01*
X132113145Y-136229284D01*
X132062015Y-136092895D01*
X132056630Y-136085710D01*
X132056629Y-136085708D01*
X132008674Y-136021722D01*
X131983826Y-135955215D01*
X131983500Y-135946157D01*
X131983500Y-134103995D01*
X131984757Y-134086241D01*
X131987432Y-134067445D01*
X131988013Y-134063364D01*
X131988056Y-134059240D01*
X131988369Y-134055128D01*
X131990230Y-134055270D01*
X132008705Y-133994606D01*
X132015679Y-133985008D01*
X132030611Y-133966369D01*
X132039852Y-133956052D01*
X132826405Y-133169499D01*
X132888717Y-133135473D01*
X132959532Y-133140538D01*
X133016368Y-133183085D01*
X133041179Y-133249605D01*
X133041500Y-133258594D01*
X133041500Y-134338134D01*
X133048255Y-134400316D01*
X133099385Y-134536705D01*
X133186739Y-134653261D01*
X133193919Y-134658642D01*
X133193920Y-134658643D01*
X133261343Y-134709174D01*
X133303858Y-134766034D01*
X133308884Y-134836852D01*
X133274824Y-134899145D01*
X133261343Y-134910826D01*
X133186739Y-134966739D01*
X133099385Y-135083295D01*
X133048255Y-135219684D01*
X133041500Y-135281866D01*
X133041500Y-136878134D01*
X133048255Y-136940316D01*
X133099385Y-137076705D01*
X133186739Y-137193261D01*
X133193919Y-137198642D01*
X133193920Y-137198643D01*
X133261343Y-137249174D01*
X133303858Y-137306034D01*
X133308884Y-137376852D01*
X133274824Y-137439145D01*
X133261343Y-137450826D01*
X133186739Y-137506739D01*
X133099385Y-137623295D01*
X133048255Y-137759684D01*
X133041500Y-137821866D01*
X133041500Y-137923251D01*
X133021498Y-137991372D01*
X132967842Y-138037865D01*
X132967469Y-138038018D01*
X132966371Y-138038312D01*
X132919469Y-138060183D01*
X132826493Y-138103538D01*
X132826488Y-138103541D01*
X132821506Y-138105864D01*
X132794327Y-138124895D01*
X132695082Y-138194387D01*
X132695079Y-138194389D01*
X132690571Y-138197546D01*
X132577546Y-138310571D01*
X132574389Y-138315079D01*
X132574387Y-138315082D01*
X132549311Y-138350894D01*
X132485864Y-138441506D01*
X132483541Y-138446488D01*
X132483538Y-138446493D01*
X132434885Y-138550830D01*
X132418312Y-138586371D01*
X132376942Y-138740767D01*
X132376462Y-138746251D01*
X132376461Y-138746258D01*
X132372729Y-138788906D01*
X132369253Y-138809247D01*
X132366500Y-138819970D01*
X132366500Y-138849982D01*
X132365422Y-138866425D01*
X132361882Y-138893317D01*
X132362716Y-138900867D01*
X132365739Y-138928253D01*
X132366500Y-138942080D01*
X132366500Y-139297476D01*
X132346498Y-139365597D01*
X132334142Y-139381779D01*
X132260960Y-139463056D01*
X132257659Y-139468774D01*
X132172251Y-139616705D01*
X132165473Y-139628444D01*
X132106458Y-139810072D01*
X132105768Y-139816633D01*
X132105768Y-139816635D01*
X132090278Y-139964016D01*
X132086496Y-140000000D01*
X132087186Y-140006565D01*
X132098043Y-140109860D01*
X132106458Y-140189928D01*
X132165473Y-140371556D01*
X132168776Y-140377278D01*
X132168777Y-140377279D01*
X132175023Y-140388097D01*
X132260960Y-140536944D01*
X132265378Y-140541851D01*
X132265379Y-140541852D01*
X132320139Y-140602669D01*
X132388747Y-140678866D01*
X132469529Y-140737558D01*
X132513114Y-140769224D01*
X132543248Y-140791118D01*
X132549276Y-140793802D01*
X132549278Y-140793803D01*
X132703728Y-140862568D01*
X132717712Y-140868794D01*
X132809809Y-140888370D01*
X132898056Y-140907128D01*
X132898061Y-140907128D01*
X132904513Y-140908500D01*
X133095487Y-140908500D01*
X133101939Y-140907128D01*
X133101944Y-140907128D01*
X133190191Y-140888370D01*
X133282288Y-140868794D01*
X133296272Y-140862568D01*
X133450722Y-140793803D01*
X133450724Y-140793802D01*
X133456752Y-140791118D01*
X133486887Y-140769224D01*
X133530471Y-140737558D01*
X133611253Y-140678866D01*
X133679861Y-140602669D01*
X133734621Y-140541852D01*
X133734622Y-140541851D01*
X133739040Y-140536944D01*
X133824977Y-140388097D01*
X133831223Y-140377279D01*
X133831224Y-140377278D01*
X133834527Y-140371556D01*
X133893542Y-140189928D01*
X133901958Y-140109860D01*
X133912814Y-140006565D01*
X133913504Y-140000000D01*
X133914116Y-140000064D01*
X133932816Y-139936379D01*
X133986472Y-139889886D01*
X134038814Y-139878500D01*
X136598134Y-139878500D01*
X136660316Y-139871745D01*
X136796705Y-139820615D01*
X136913261Y-139733261D01*
X137000615Y-139616705D01*
X137051745Y-139480316D01*
X137058500Y-139418134D01*
X137058500Y-137821866D01*
X137051745Y-137759684D01*
X137000615Y-137623295D01*
X136913261Y-137506739D01*
X136838657Y-137450826D01*
X136796142Y-137393966D01*
X136791116Y-137323148D01*
X136825176Y-137260855D01*
X136838657Y-137249174D01*
X136906080Y-137198643D01*
X136906081Y-137198642D01*
X136913261Y-137193261D01*
X137000615Y-137076705D01*
X137051745Y-136940316D01*
X137058500Y-136878134D01*
X137058500Y-135281866D01*
X137051745Y-135219684D01*
X137000615Y-135083295D01*
X136913261Y-134966739D01*
X136838657Y-134910826D01*
X136796142Y-134853966D01*
X136791116Y-134783148D01*
X136825176Y-134720855D01*
X136838657Y-134709174D01*
X136906080Y-134658643D01*
X136906081Y-134658642D01*
X136913261Y-134653261D01*
X137000615Y-134536705D01*
X137051745Y-134400316D01*
X137058500Y-134338134D01*
X137058500Y-132741866D01*
X137051745Y-132679684D01*
X137000615Y-132543295D01*
X136913261Y-132426739D01*
X136838657Y-132370826D01*
X136796142Y-132313966D01*
X136791116Y-132243148D01*
X136825176Y-132180855D01*
X136838657Y-132169174D01*
X136906080Y-132118643D01*
X136906081Y-132118642D01*
X136913261Y-132113261D01*
X137000615Y-131996705D01*
X137051745Y-131860316D01*
X137058500Y-131798134D01*
X137058500Y-130201866D01*
X137051745Y-130139684D01*
X137000615Y-130003295D01*
X136913261Y-129886739D01*
X136838657Y-129830826D01*
X136796142Y-129773966D01*
X136791116Y-129703148D01*
X136825176Y-129640855D01*
X136838657Y-129629174D01*
X136906080Y-129578643D01*
X136906081Y-129578642D01*
X136913261Y-129573261D01*
X137000615Y-129456705D01*
X137051745Y-129320316D01*
X137058500Y-129258134D01*
X137058500Y-127661866D01*
X137051745Y-127599684D01*
X137000615Y-127463295D01*
X136913261Y-127346739D01*
X136838657Y-127290826D01*
X136796142Y-127233966D01*
X136791116Y-127163148D01*
X136825176Y-127100855D01*
X136838657Y-127089174D01*
X136906080Y-127038643D01*
X136906081Y-127038642D01*
X136913261Y-127033261D01*
X137000615Y-126916705D01*
X137051745Y-126780316D01*
X137058500Y-126718134D01*
X137058500Y-125121866D01*
X137051745Y-125059684D01*
X137000615Y-124923295D01*
X136913261Y-124806739D01*
X136838657Y-124750826D01*
X136796142Y-124693966D01*
X136791116Y-124623148D01*
X136825176Y-124560855D01*
X136838657Y-124549174D01*
X136906080Y-124498643D01*
X136906081Y-124498642D01*
X136913261Y-124493261D01*
X137000615Y-124376705D01*
X137051745Y-124240316D01*
X137058500Y-124178134D01*
X137058500Y-124139500D01*
X137078502Y-124071379D01*
X137132158Y-124024886D01*
X137184500Y-124013500D01*
X147290500Y-124013500D01*
X147358621Y-124033502D01*
X147405114Y-124087158D01*
X147416500Y-124139500D01*
X147416500Y-134097476D01*
X147396498Y-134165597D01*
X147384142Y-134181779D01*
X147310960Y-134263056D01*
X147215473Y-134428444D01*
X147156458Y-134610072D01*
X147155768Y-134616633D01*
X147155768Y-134616635D01*
X147140066Y-134766034D01*
X147136496Y-134800000D01*
X147156458Y-134989928D01*
X147215473Y-135171556D01*
X147310960Y-135336944D01*
X147315375Y-135341847D01*
X147315379Y-135341852D01*
X147413339Y-135450648D01*
X147438747Y-135478866D01*
X147593248Y-135591118D01*
X147599276Y-135593802D01*
X147599278Y-135593803D01*
X147761681Y-135666109D01*
X147767712Y-135668794D01*
X147861113Y-135688647D01*
X147948056Y-135707128D01*
X147948061Y-135707128D01*
X147954513Y-135708500D01*
X148145487Y-135708500D01*
X148151939Y-135707128D01*
X148151944Y-135707128D01*
X148238887Y-135688647D01*
X148332288Y-135668794D01*
X148338319Y-135666109D01*
X148500722Y-135593803D01*
X148500724Y-135593802D01*
X148506752Y-135591118D01*
X148661253Y-135478866D01*
X148686661Y-135450648D01*
X148784621Y-135341852D01*
X148784625Y-135341847D01*
X148789040Y-135336944D01*
X148884527Y-135171556D01*
X148943542Y-134989928D01*
X148963504Y-134800000D01*
X148959934Y-134766034D01*
X148944232Y-134616635D01*
X148944232Y-134616633D01*
X148943542Y-134610072D01*
X148884527Y-134428444D01*
X148789040Y-134263056D01*
X148715863Y-134181785D01*
X148685147Y-134117779D01*
X148683500Y-134097476D01*
X148683500Y-123703995D01*
X148684757Y-123686241D01*
X148687432Y-123667445D01*
X148688013Y-123663364D01*
X148688153Y-123650000D01*
X148686808Y-123638884D01*
X148686506Y-123636130D01*
X148671034Y-123479045D01*
X148671034Y-123479044D01*
X148670427Y-123472883D01*
X148618764Y-123302572D01*
X148534868Y-123145613D01*
X148421962Y-123008038D01*
X148284387Y-122895132D01*
X148278928Y-122892214D01*
X148132890Y-122814155D01*
X148132886Y-122814153D01*
X148127428Y-122811236D01*
X148121508Y-122809440D01*
X148121505Y-122809439D01*
X147963041Y-122761370D01*
X147957117Y-122759573D01*
X147891832Y-122753143D01*
X147872849Y-122749791D01*
X147867711Y-122748472D01*
X147867710Y-122748472D01*
X147860030Y-122746500D01*
X147833996Y-122746500D01*
X147816243Y-122745243D01*
X147797448Y-122742568D01*
X147797444Y-122742568D01*
X147793364Y-122741987D01*
X147786385Y-122741914D01*
X147784120Y-122741890D01*
X147784118Y-122741890D01*
X147780000Y-122741847D01*
X147775910Y-122742342D01*
X147775909Y-122742342D01*
X147774042Y-122742568D01*
X147749093Y-122745587D01*
X147733958Y-122746500D01*
X137184500Y-122746500D01*
X137116379Y-122726498D01*
X137069886Y-122672842D01*
X137058500Y-122620500D01*
X137058500Y-122584500D01*
X137078502Y-122516379D01*
X137132158Y-122469886D01*
X137184500Y-122458500D01*
X151815500Y-122458500D01*
X151883621Y-122478502D01*
G37*
%TD.AperFunction*%
%TA.AperFunction,Conductor*%
G36*
X139515811Y-144947944D02*
G01*
X139616818Y-145066208D01*
X139616823Y-145066213D01*
X139620031Y-145069969D01*
X139800584Y-145224176D01*
X139804792Y-145226755D01*
X139804798Y-145226759D01*
X139996335Y-145344133D01*
X140043966Y-145396781D01*
X140056500Y-145451566D01*
X140056500Y-145889982D01*
X140055422Y-145906428D01*
X140054415Y-145914080D01*
X140051882Y-145933317D01*
X140052620Y-145940000D01*
X140052177Y-145940000D01*
X140069428Y-146115157D01*
X140093614Y-146194886D01*
X140118464Y-146276804D01*
X140120520Y-146283582D01*
X140159326Y-146356184D01*
X140200567Y-146433342D01*
X140200570Y-146433346D01*
X140203487Y-146438804D01*
X140315143Y-146574857D01*
X140451196Y-146686513D01*
X140456654Y-146689430D01*
X140456658Y-146689433D01*
X140533816Y-146730674D01*
X140606418Y-146769480D01*
X140612343Y-146771277D01*
X140612347Y-146771279D01*
X140733580Y-146808055D01*
X140774843Y-146820572D01*
X140837865Y-146826780D01*
X140856847Y-146830131D01*
X140869970Y-146833500D01*
X140896005Y-146833500D01*
X140913755Y-146834757D01*
X140936636Y-146838013D01*
X140943679Y-146838087D01*
X140945880Y-146838110D01*
X140945882Y-146838110D01*
X140950000Y-146838153D01*
X140954090Y-146837658D01*
X140954091Y-146837658D01*
X140961747Y-146836731D01*
X140980907Y-146834413D01*
X140996042Y-146833500D01*
X147540500Y-146833500D01*
X147608621Y-146853502D01*
X147655114Y-146907158D01*
X147666500Y-146959500D01*
X147666500Y-147154562D01*
X147646498Y-147222683D01*
X147606335Y-147261994D01*
X147424807Y-147373235D01*
X147424799Y-147373241D01*
X147420584Y-147375824D01*
X147240031Y-147530031D01*
X147236823Y-147533787D01*
X147236818Y-147533792D01*
X147135811Y-147652056D01*
X147076361Y-147690866D01*
X147005366Y-147691372D01*
X146944189Y-147652056D01*
X146843182Y-147533792D01*
X146843177Y-147533787D01*
X146839969Y-147530031D01*
X146659416Y-147375824D01*
X146655208Y-147373245D01*
X146655202Y-147373241D01*
X146461183Y-147254346D01*
X146456963Y-147251760D01*
X146452393Y-147249867D01*
X146452389Y-147249865D01*
X146242167Y-147162789D01*
X146242165Y-147162788D01*
X146237594Y-147160895D01*
X146156808Y-147141500D01*
X146011524Y-147106620D01*
X146011518Y-147106619D01*
X146006711Y-147105465D01*
X145770000Y-147086835D01*
X145533289Y-147105465D01*
X145528482Y-147106619D01*
X145528476Y-147106620D01*
X145383192Y-147141500D01*
X145302406Y-147160895D01*
X145297835Y-147162788D01*
X145297833Y-147162789D01*
X145087611Y-147249865D01*
X145087607Y-147249867D01*
X145083037Y-147251760D01*
X145078817Y-147254346D01*
X144884798Y-147373241D01*
X144884792Y-147373245D01*
X144880584Y-147375824D01*
X144700031Y-147530031D01*
X144696823Y-147533787D01*
X144696818Y-147533792D01*
X144595811Y-147652056D01*
X144536361Y-147690866D01*
X144465366Y-147691372D01*
X144404189Y-147652056D01*
X144303182Y-147533792D01*
X144303177Y-147533787D01*
X144299969Y-147530031D01*
X144119416Y-147375824D01*
X144115208Y-147373245D01*
X144115202Y-147373241D01*
X143921183Y-147254346D01*
X143916963Y-147251760D01*
X143912393Y-147249867D01*
X143912389Y-147249865D01*
X143702167Y-147162789D01*
X143702165Y-147162788D01*
X143697594Y-147160895D01*
X143616808Y-147141500D01*
X143471524Y-147106620D01*
X143471518Y-147106619D01*
X143466711Y-147105465D01*
X143230000Y-147086835D01*
X142993289Y-147105465D01*
X142988482Y-147106619D01*
X142988476Y-147106620D01*
X142843192Y-147141500D01*
X142762406Y-147160895D01*
X142757835Y-147162788D01*
X142757833Y-147162789D01*
X142547611Y-147249865D01*
X142547607Y-147249867D01*
X142543037Y-147251760D01*
X142538817Y-147254346D01*
X142344798Y-147373241D01*
X142344792Y-147373245D01*
X142340584Y-147375824D01*
X142160031Y-147530031D01*
X142156823Y-147533787D01*
X142156818Y-147533792D01*
X142055811Y-147652056D01*
X141996361Y-147690866D01*
X141925366Y-147691372D01*
X141864189Y-147652056D01*
X141763182Y-147533792D01*
X141763177Y-147533787D01*
X141759969Y-147530031D01*
X141579416Y-147375824D01*
X141575208Y-147373245D01*
X141575202Y-147373241D01*
X141381183Y-147254346D01*
X141376963Y-147251760D01*
X141372393Y-147249867D01*
X141372389Y-147249865D01*
X141162167Y-147162789D01*
X141162165Y-147162788D01*
X141157594Y-147160895D01*
X141076808Y-147141500D01*
X140931524Y-147106620D01*
X140931518Y-147106619D01*
X140926711Y-147105465D01*
X140690000Y-147086835D01*
X140453289Y-147105465D01*
X140448482Y-147106619D01*
X140448476Y-147106620D01*
X140303192Y-147141500D01*
X140222406Y-147160895D01*
X140217835Y-147162788D01*
X140217833Y-147162789D01*
X140007611Y-147249865D01*
X140007607Y-147249867D01*
X140003037Y-147251760D01*
X139998817Y-147254346D01*
X139804798Y-147373241D01*
X139804792Y-147373245D01*
X139800584Y-147375824D01*
X139620031Y-147530031D01*
X139616823Y-147533787D01*
X139616818Y-147533792D01*
X139486294Y-147686616D01*
X139426844Y-147725426D01*
X139392442Y-147727640D01*
X139373333Y-147735877D01*
X138239095Y-148870115D01*
X138176783Y-148904141D01*
X138105968Y-148899076D01*
X138060905Y-148870115D01*
X136929710Y-147738920D01*
X136912898Y-147729740D01*
X136849650Y-147715980D01*
X136814225Y-147687224D01*
X136683177Y-147533787D01*
X136679969Y-147530031D01*
X136499416Y-147375824D01*
X136495208Y-147373245D01*
X136495202Y-147373241D01*
X136486470Y-147367890D01*
X137282093Y-147367890D01*
X137285876Y-147376666D01*
X138137188Y-148227978D01*
X138151132Y-148235592D01*
X138152965Y-148235461D01*
X138159580Y-148231210D01*
X139011080Y-147379710D01*
X139017840Y-147367330D01*
X139012113Y-147359680D01*
X138840958Y-147254795D01*
X138832163Y-147250313D01*
X138622012Y-147163266D01*
X138612627Y-147160217D01*
X138391446Y-147107115D01*
X138381699Y-147105572D01*
X138154930Y-147087725D01*
X138145070Y-147087725D01*
X137918301Y-147105572D01*
X137908554Y-147107115D01*
X137687373Y-147160217D01*
X137677988Y-147163266D01*
X137467837Y-147250313D01*
X137459042Y-147254795D01*
X137291555Y-147357432D01*
X137282093Y-147367890D01*
X136486470Y-147367890D01*
X136301183Y-147254346D01*
X136296963Y-147251760D01*
X136292393Y-147249867D01*
X136292389Y-147249865D01*
X136082167Y-147162789D01*
X136082165Y-147162788D01*
X136077594Y-147160895D01*
X135996808Y-147141500D01*
X135851524Y-147106620D01*
X135851518Y-147106619D01*
X135846711Y-147105465D01*
X135610000Y-147086835D01*
X135373289Y-147105465D01*
X135368482Y-147106619D01*
X135368476Y-147106620D01*
X135223192Y-147141500D01*
X135142406Y-147160895D01*
X135137835Y-147162788D01*
X135137833Y-147162789D01*
X134927611Y-147249865D01*
X134927607Y-147249867D01*
X134923037Y-147251760D01*
X134918817Y-147254346D01*
X134724798Y-147373241D01*
X134724792Y-147373245D01*
X134720584Y-147375824D01*
X134540031Y-147530031D01*
X134536823Y-147533787D01*
X134455311Y-147629225D01*
X134395860Y-147668034D01*
X134324866Y-147668540D01*
X134264867Y-147630584D01*
X134234914Y-147566215D01*
X134233500Y-147547394D01*
X134233500Y-145052606D01*
X134253502Y-144984485D01*
X134307158Y-144937992D01*
X134377432Y-144927888D01*
X134442012Y-144957382D01*
X134455311Y-144970775D01*
X134536819Y-145066208D01*
X134540031Y-145069969D01*
X134720584Y-145224176D01*
X134724792Y-145226755D01*
X134724798Y-145226759D01*
X134898277Y-145333067D01*
X134923037Y-145348240D01*
X134927607Y-145350133D01*
X134927611Y-145350135D01*
X135137833Y-145437211D01*
X135142406Y-145439105D01*
X135194310Y-145451566D01*
X135368476Y-145493380D01*
X135368482Y-145493381D01*
X135373289Y-145494535D01*
X135610000Y-145513165D01*
X135846711Y-145494535D01*
X135851518Y-145493381D01*
X135851524Y-145493380D01*
X136025690Y-145451566D01*
X136077594Y-145439105D01*
X136082167Y-145437211D01*
X136292389Y-145350135D01*
X136292393Y-145350133D01*
X136296963Y-145348240D01*
X136321723Y-145333067D01*
X136495202Y-145226759D01*
X136495208Y-145226755D01*
X136499416Y-145224176D01*
X136679969Y-145069969D01*
X136683177Y-145066213D01*
X136683182Y-145066208D01*
X136784189Y-144947944D01*
X136843639Y-144909134D01*
X136914634Y-144908628D01*
X136975811Y-144947944D01*
X137076818Y-145066208D01*
X137076823Y-145066213D01*
X137080031Y-145069969D01*
X137260584Y-145224176D01*
X137264792Y-145226755D01*
X137264798Y-145226759D01*
X137438277Y-145333067D01*
X137463037Y-145348240D01*
X137467607Y-145350133D01*
X137467611Y-145350135D01*
X137677833Y-145437211D01*
X137682406Y-145439105D01*
X137734310Y-145451566D01*
X137908476Y-145493380D01*
X137908482Y-145493381D01*
X137913289Y-145494535D01*
X138150000Y-145513165D01*
X138386711Y-145494535D01*
X138391518Y-145493381D01*
X138391524Y-145493380D01*
X138565690Y-145451566D01*
X138617594Y-145439105D01*
X138622167Y-145437211D01*
X138832389Y-145350135D01*
X138832393Y-145350133D01*
X138836963Y-145348240D01*
X138861723Y-145333067D01*
X139035202Y-145226759D01*
X139035208Y-145226755D01*
X139039416Y-145224176D01*
X139219969Y-145069969D01*
X139223177Y-145066213D01*
X139223182Y-145066208D01*
X139324189Y-144947944D01*
X139383639Y-144909134D01*
X139454634Y-144908628D01*
X139515811Y-144947944D01*
G37*
%TD.AperFunction*%
%TD*%
M02*
