%TF.GenerationSoftware,KiCad,Pcbnew,(6.0.9-0)*%
%TF.CreationDate,2023-01-01T03:06:46-08:00*%
%TF.ProjectId,trackball,74726163-6b62-4616-9c6c-2e6b69636164,v01*%
%TF.SameCoordinates,Original*%
%TF.FileFunction,Copper,L2,Bot*%
%TF.FilePolarity,Positive*%
%FSLAX46Y46*%
G04 Gerber Fmt 4.6, Leading zero omitted, Abs format (unit mm)*
G04 Created by KiCad (PCBNEW (6.0.9-0)) date 2023-01-01 03:06:46*
%MOMM*%
%LPD*%
G01*
G04 APERTURE LIST*
%TA.AperFunction,ComponentPad*%
%ADD10C,6.400000*%
%TD*%
%TA.AperFunction,ComponentPad*%
%ADD11C,2.000000*%
%TD*%
%TA.AperFunction,ViaPad*%
%ADD12C,0.800000*%
%TD*%
%TA.AperFunction,Conductor*%
%ADD13C,0.250000*%
%TD*%
G04 APERTURE END LIST*
D10*
%TO.P,H1,1,1*%
%TO.N,Net-(Q1-Pad2)*%
X162600000Y-141750000D03*
%TD*%
D11*
%TO.P,U2,1,RS*%
%TO.N,unconnected-(U2-Pad1)*%
X153390000Y-144000000D03*
%TO.P,U2,2,GD*%
%TO.N,Net-(Q1-Pad2)*%
X150850000Y-144000000D03*
%TO.P,U2,3,MT*%
%TO.N,unconnected-(U2-Pad3)*%
X148310000Y-144000000D03*
%TO.P,U2,4,SS*%
%TO.N,Net-(U1-Pad14)*%
X145770000Y-144000000D03*
%TO.P,U2,5,SC*%
%TO.N,Net-(U1-Pad13)*%
X143230000Y-144000000D03*
%TO.P,U2,6,MO*%
%TO.N,Net-(U1-Pad11)*%
X140690000Y-144000000D03*
%TO.P,U2,7,MI*%
%TO.N,Net-(U1-Pad12)*%
X138150000Y-144000000D03*
%TO.P,U2,8,VI*%
%TO.N,Net-(J1-Pad1)*%
X135610000Y-144000000D03*
%TD*%
%TO.P,U3,1,RS*%
%TO.N,unconnected-(U3-Pad1)*%
X135610000Y-147400000D03*
%TO.P,U3,2,GD*%
%TO.N,Net-(Q1-Pad2)*%
X138150000Y-147400000D03*
%TO.P,U3,3,MT*%
%TO.N,unconnected-(U3-Pad3)*%
X140690000Y-147400000D03*
%TO.P,U3,4,SS*%
%TO.N,Net-(U1-Pad7)*%
X143230000Y-147400000D03*
%TO.P,U3,5,SC*%
%TO.N,Net-(U1-Pad13)*%
X145770000Y-147400000D03*
%TO.P,U3,6,MO*%
%TO.N,Net-(U1-Pad11)*%
X148310000Y-147400000D03*
%TO.P,U3,7,MI*%
%TO.N,Net-(U1-Pad12)*%
X150850000Y-147400000D03*
%TO.P,U3,8,VI*%
%TO.N,Net-(J1-Pad1)*%
X153390000Y-147400000D03*
%TD*%
D12*
%TO.N,Net-(U1-Pad12)*%
X141950000Y-142400000D03*
X156000000Y-142400000D03*
%TO.N,Net-(U1-Pad7)*%
X133000000Y-140800000D03*
%TO.N,Net-(J3-Pad1)*%
X157800000Y-135600000D03*
X148300000Y-135600000D03*
%TD*%
D13*
%TO.N,Net-(U1-Pad13)*%
X145500000Y-145850000D02*
X143950000Y-145850000D01*
X143230000Y-145130000D02*
X143230000Y-144000000D01*
X143950000Y-145850000D02*
X143230000Y-145130000D01*
X145750000Y-146100000D02*
G75*
G03*
X145500000Y-145850000I-250000J0D01*
G01*
X145750000Y-146100000D02*
X145750000Y-147380000D01*
X145770000Y-147400000D02*
G75*
G02*
X145750000Y-147380000I0J20000D01*
G01*
%TO.N,Net-(U1-Pad12)*%
X150850000Y-146150000D02*
G75*
G02*
X151150000Y-145850000I300000J0D01*
G01*
X155700000Y-145850000D02*
X151150000Y-145850000D01*
X156000000Y-142400000D02*
X156000000Y-145550000D01*
X155700000Y-145850000D02*
G75*
G03*
X156000000Y-145550000I0J300000D01*
G01*
X150850000Y-146150000D02*
X150850000Y-147400000D01*
%TO.N,Net-(U1-Pad7)*%
X133300000Y-145850000D02*
G75*
G02*
X133000000Y-145550000I0J300000D01*
G01*
X133300000Y-145850000D02*
X142500000Y-145850000D01*
X142500000Y-145850000D02*
X143230000Y-146580000D01*
X133000000Y-140800000D02*
X133000000Y-145550000D01*
X143230000Y-146580000D02*
X143230000Y-147400000D01*
%TO.N,Net-(J3-Pad1)*%
X148300000Y-135600000D02*
X157800000Y-135600000D01*
%TO.N,Net-(U1-Pad12)*%
X138150000Y-142700000D02*
G75*
G02*
X138450000Y-142400000I300000J0D01*
G01*
X138150000Y-142700000D02*
X138150000Y-144000000D01*
X141950000Y-142400000D02*
X138450000Y-142400000D01*
%TD*%
%TA.AperFunction,Conductor*%
%TO.N,Net-(Q1-Pad2)*%
G36*
X154970018Y-122460000D02*
G01*
X154984852Y-122462310D01*
X154984855Y-122462310D01*
X154993724Y-122463691D01*
X155002626Y-122462527D01*
X155002750Y-122462511D01*
X155033192Y-122462240D01*
X155046070Y-122463691D01*
X155095264Y-122469234D01*
X155122771Y-122475513D01*
X155199853Y-122502485D01*
X155225274Y-122514727D01*
X155294426Y-122558178D01*
X155316485Y-122575770D01*
X155374230Y-122633515D01*
X155391822Y-122655574D01*
X155435273Y-122724726D01*
X155447515Y-122750147D01*
X155474487Y-122827228D01*
X155480766Y-122854734D01*
X155487019Y-122910227D01*
X155485980Y-122925853D01*
X155487801Y-122925875D01*
X155487691Y-122934854D01*
X155486310Y-122943724D01*
X155487474Y-122952626D01*
X155487474Y-122952628D01*
X155490437Y-122975283D01*
X155491501Y-122991621D01*
X155491501Y-130170639D01*
X155489754Y-130191546D01*
X155486425Y-130211331D01*
X155486272Y-130223883D01*
X155486962Y-130228698D01*
X155486962Y-130228705D01*
X155487819Y-130234688D01*
X155488732Y-130243036D01*
X155502577Y-130425832D01*
X155504540Y-130451755D01*
X155505611Y-130456394D01*
X155550303Y-130650052D01*
X155555928Y-130674427D01*
X155640272Y-130886816D01*
X155755647Y-131084077D01*
X155899421Y-131261707D01*
X155902947Y-131264921D01*
X155902948Y-131264922D01*
X156064785Y-131412439D01*
X156064792Y-131412444D01*
X156068312Y-131415653D01*
X156227003Y-131521430D01*
X156236241Y-131528215D01*
X156243325Y-131533932D01*
X156243328Y-131533934D01*
X156247110Y-131536986D01*
X156252309Y-131539994D01*
X156252525Y-131540164D01*
X156252781Y-131540267D01*
X156257975Y-131543272D01*
X156262504Y-131545029D01*
X156262506Y-131545030D01*
X156265406Y-131546155D01*
X156278713Y-131551317D01*
X156297030Y-131560189D01*
X156488552Y-131672886D01*
X157067030Y-132013281D01*
X157071227Y-132015862D01*
X157856495Y-132520278D01*
X157860588Y-132523022D01*
X158625498Y-133057732D01*
X158629481Y-133060633D01*
X159372934Y-133624868D01*
X159376800Y-133627923D01*
X160097607Y-134220781D01*
X160101351Y-134223985D01*
X160798441Y-134844586D01*
X160802056Y-134847934D01*
X161474330Y-135495299D01*
X161477812Y-135498786D01*
X161581315Y-135606565D01*
X162095365Y-136141852D01*
X162124261Y-136171942D01*
X162127594Y-136175551D01*
X162318982Y-136391118D01*
X162747244Y-136873484D01*
X162750443Y-136877232D01*
X163342331Y-137598862D01*
X163345380Y-137602732D01*
X163455582Y-137748348D01*
X163606235Y-137947415D01*
X163631393Y-138013802D01*
X163616665Y-138083254D01*
X163566727Y-138133719D01*
X163497433Y-138149173D01*
X163473152Y-138145156D01*
X163375184Y-138118906D01*
X163368734Y-138117535D01*
X162991371Y-138057766D01*
X162984833Y-138057080D01*
X162603301Y-138037084D01*
X162596699Y-138037084D01*
X162215167Y-138057080D01*
X162208629Y-138057766D01*
X161831266Y-138117535D01*
X161824816Y-138118906D01*
X161455784Y-138217788D01*
X161449502Y-138219829D01*
X161092836Y-138356740D01*
X161086811Y-138359422D01*
X160746397Y-138532872D01*
X160740687Y-138536169D01*
X160420265Y-138744253D01*
X160414939Y-138748123D01*
X160176165Y-138941478D01*
X160167700Y-138953733D01*
X160174034Y-138964824D01*
X165384310Y-144175100D01*
X165397386Y-144182241D01*
X165407753Y-144174784D01*
X165601877Y-143935061D01*
X165605747Y-143929735D01*
X165813831Y-143609313D01*
X165817128Y-143603603D01*
X165990578Y-143263189D01*
X165993260Y-143257164D01*
X166130171Y-142900498D01*
X166132212Y-142894216D01*
X166179362Y-142718251D01*
X166216314Y-142657628D01*
X166280174Y-142626607D01*
X166350669Y-142635035D01*
X166405416Y-142680238D01*
X166416466Y-142700270D01*
X166655765Y-143246097D01*
X166657637Y-143250605D01*
X166985772Y-144086502D01*
X166998685Y-144119397D01*
X167000392Y-144124009D01*
X167039621Y-144236711D01*
X167307193Y-145005424D01*
X167308722Y-145010108D01*
X167327760Y-145072568D01*
X167556954Y-145824523D01*
X167580837Y-145902881D01*
X167582177Y-145907609D01*
X167693079Y-146330031D01*
X167819171Y-146810316D01*
X167820329Y-146815105D01*
X168021852Y-147726414D01*
X168022821Y-147731245D01*
X168188552Y-148649700D01*
X168189332Y-148654564D01*
X168319024Y-149578785D01*
X168319024Y-149578787D01*
X168319612Y-149583662D01*
X168406534Y-150447319D01*
X168408696Y-150468803D01*
X168408987Y-150490694D01*
X168407641Y-150508919D01*
X168409519Y-150517696D01*
X168409831Y-150522240D01*
X168412081Y-150548088D01*
X168409572Y-150615448D01*
X168409572Y-150615451D01*
X168404988Y-150644749D01*
X168400914Y-150659293D01*
X168381833Y-150727402D01*
X168370526Y-150754821D01*
X168328695Y-150829765D01*
X168311294Y-150853780D01*
X168253099Y-150916877D01*
X168230570Y-150936156D01*
X168159260Y-150983886D01*
X168159241Y-150983899D01*
X168132824Y-150997381D01*
X168052310Y-151027129D01*
X168023474Y-151034062D01*
X167962243Y-151041320D01*
X167945876Y-151042187D01*
X167938564Y-151042098D01*
X167929688Y-151040716D01*
X167906620Y-151043733D01*
X167898132Y-151044843D01*
X167881792Y-151045907D01*
X156553252Y-151045907D01*
X156532347Y-151044161D01*
X156517346Y-151041637D01*
X156517343Y-151041637D01*
X156512554Y-151040831D01*
X156506315Y-151040755D01*
X156504862Y-151040737D01*
X156504859Y-151040737D01*
X156500002Y-151040678D01*
X156485296Y-151042784D01*
X156476443Y-151043733D01*
X156289258Y-151057121D01*
X156284770Y-151057442D01*
X156201960Y-151075456D01*
X156078310Y-151102354D01*
X156078307Y-151102355D01*
X156073921Y-151103309D01*
X156069719Y-151104876D01*
X156069713Y-151104878D01*
X155875957Y-151177146D01*
X155871745Y-151178717D01*
X155682358Y-151282130D01*
X155509617Y-151411443D01*
X155357037Y-151564024D01*
X155227725Y-151736766D01*
X155124313Y-151926153D01*
X155122744Y-151930359D01*
X155122742Y-151930364D01*
X155050480Y-152124110D01*
X155050478Y-152124117D01*
X155048907Y-152128329D01*
X155047952Y-152132719D01*
X155047950Y-152132726D01*
X155022884Y-152247957D01*
X155003040Y-152339179D01*
X155002719Y-152343666D01*
X155002719Y-152343667D01*
X154990543Y-152513936D01*
X154989117Y-152525856D01*
X154987232Y-152537059D01*
X154987231Y-152537066D01*
X154986425Y-152541859D01*
X154986272Y-152554411D01*
X154986962Y-152559227D01*
X154990228Y-152582033D01*
X154991501Y-152599896D01*
X154991501Y-162400633D01*
X154990001Y-162420018D01*
X154986310Y-162443724D01*
X154987474Y-162452626D01*
X154987490Y-162452750D01*
X154987761Y-162483193D01*
X154980767Y-162545264D01*
X154974489Y-162572768D01*
X154947514Y-162649859D01*
X154935274Y-162675275D01*
X154891823Y-162744427D01*
X154874231Y-162766486D01*
X154816486Y-162824231D01*
X154794427Y-162841823D01*
X154725275Y-162885274D01*
X154699854Y-162897516D01*
X154622772Y-162924488D01*
X154595266Y-162930767D01*
X154579408Y-162932554D01*
X154539780Y-162937019D01*
X154524138Y-162936605D01*
X154524123Y-162937800D01*
X154515147Y-162937690D01*
X154506276Y-162936309D01*
X154497374Y-162937473D01*
X154497372Y-162937473D01*
X154482323Y-162939441D01*
X154474714Y-162940436D01*
X154458379Y-162941500D01*
X134549367Y-162941500D01*
X134529982Y-162940000D01*
X134515149Y-162937690D01*
X134515145Y-162937690D01*
X134506276Y-162936309D01*
X134497374Y-162937473D01*
X134497369Y-162937473D01*
X134497250Y-162937489D01*
X134466813Y-162937760D01*
X134404737Y-162930766D01*
X134377229Y-162924487D01*
X134300147Y-162897515D01*
X134274726Y-162885273D01*
X134205574Y-162841822D01*
X134183515Y-162824230D01*
X134125770Y-162766485D01*
X134108178Y-162744426D01*
X134064727Y-162675274D01*
X134052485Y-162649853D01*
X134025513Y-162572771D01*
X134019235Y-162545266D01*
X134013171Y-162491456D01*
X134012889Y-162466639D01*
X134013577Y-162462552D01*
X134013730Y-162450000D01*
X134009774Y-162422376D01*
X134008501Y-162404514D01*
X134008501Y-152607660D01*
X134010247Y-152586754D01*
X134011042Y-152582033D01*
X134013577Y-152566963D01*
X134013730Y-152554411D01*
X134011597Y-152539515D01*
X134010647Y-152530655D01*
X133997275Y-152343669D01*
X133997275Y-152343667D01*
X133996954Y-152339180D01*
X133951088Y-152128331D01*
X133875682Y-151926156D01*
X133772270Y-151736770D01*
X133642959Y-151564029D01*
X133490380Y-151411449D01*
X133317640Y-151282136D01*
X133128255Y-151178723D01*
X132926080Y-151103316D01*
X132921685Y-151102360D01*
X132921682Y-151102359D01*
X132719632Y-151058405D01*
X132719630Y-151058405D01*
X132715232Y-151057448D01*
X132540467Y-151044948D01*
X132528556Y-151043523D01*
X132517354Y-151041638D01*
X132517347Y-151041637D01*
X132512554Y-151040831D01*
X132506278Y-151040755D01*
X132504862Y-151040737D01*
X132504859Y-151040737D01*
X132500002Y-151040678D01*
X132480890Y-151043415D01*
X132472378Y-151044634D01*
X132454516Y-151045907D01*
X121125948Y-151045907D01*
X121106560Y-151044406D01*
X121091740Y-151042098D01*
X121091739Y-151042098D01*
X121082865Y-151040716D01*
X121073964Y-151041880D01*
X121069412Y-151041824D01*
X121043460Y-151041980D01*
X121018231Y-151038989D01*
X120976529Y-151034046D01*
X120947694Y-151027113D01*
X120867183Y-150997366D01*
X120840771Y-150983888D01*
X120769441Y-150936144D01*
X120746911Y-150916863D01*
X120688719Y-150853771D01*
X120671322Y-150829763D01*
X120629485Y-150754809D01*
X120618182Y-150727397D01*
X120595027Y-150644745D01*
X120590444Y-150615448D01*
X120588141Y-150553606D01*
X120588598Y-150537220D01*
X120589256Y-150530164D01*
X120591348Y-150521435D01*
X120590057Y-150495258D01*
X120590537Y-150476436D01*
X120591762Y-150464266D01*
X120680389Y-149583661D01*
X120680977Y-149578785D01*
X120784774Y-148839105D01*
X120810670Y-148654556D01*
X120811449Y-148649700D01*
X120977181Y-147731245D01*
X120978150Y-147726414D01*
X121179673Y-146815105D01*
X121180831Y-146810316D01*
X121352551Y-146156231D01*
X121417824Y-145907609D01*
X121419164Y-145902881D01*
X121443048Y-145824523D01*
X121628372Y-145216500D01*
X121691280Y-145010108D01*
X121692809Y-145005424D01*
X121962098Y-144231777D01*
X121999609Y-144124009D01*
X122001316Y-144119397D01*
X122046251Y-144004930D01*
X122342357Y-143250622D01*
X122344245Y-143246075D01*
X122392558Y-143135877D01*
X122718991Y-142391305D01*
X122721051Y-142386845D01*
X122722038Y-142384815D01*
X122933303Y-141950004D01*
X124286762Y-141950004D01*
X124287032Y-141954123D01*
X124303397Y-142203794D01*
X124305697Y-142238890D01*
X124306501Y-142242930D01*
X124306501Y-142242933D01*
X124361361Y-142518734D01*
X124362176Y-142522832D01*
X124363502Y-142526738D01*
X124363503Y-142526742D01*
X124449375Y-142779710D01*
X124455235Y-142796974D01*
X124457056Y-142800667D01*
X124457057Y-142800669D01*
X124519270Y-142926823D01*
X124583280Y-143056623D01*
X124744120Y-143297339D01*
X124746832Y-143300431D01*
X124746837Y-143300438D01*
X124932168Y-143511765D01*
X124935005Y-143515000D01*
X124938094Y-143517709D01*
X125149566Y-143703167D01*
X125149572Y-143703172D01*
X125152666Y-143705885D01*
X125393381Y-143866725D01*
X125397080Y-143868549D01*
X125397085Y-143868552D01*
X125637656Y-143987188D01*
X125653031Y-143994770D01*
X125656929Y-143996093D01*
X125656931Y-143996094D01*
X125923263Y-144086502D01*
X125923267Y-144086503D01*
X125927173Y-144087829D01*
X125931217Y-144088633D01*
X125931223Y-144088635D01*
X126207072Y-144143504D01*
X126207075Y-144143504D01*
X126211115Y-144144308D01*
X126215226Y-144144577D01*
X126215230Y-144144578D01*
X126495882Y-144162973D01*
X126500001Y-144163243D01*
X126504120Y-144162973D01*
X126784772Y-144144578D01*
X126784776Y-144144577D01*
X126788887Y-144144308D01*
X126792927Y-144143504D01*
X126792930Y-144143504D01*
X127068779Y-144088635D01*
X127068785Y-144088633D01*
X127072829Y-144087829D01*
X127076735Y-144086503D01*
X127076739Y-144086502D01*
X127343071Y-143996094D01*
X127343073Y-143996093D01*
X127346971Y-143994770D01*
X127362346Y-143987188D01*
X127602917Y-143868552D01*
X127602922Y-143868549D01*
X127606621Y-143866725D01*
X127847336Y-143705885D01*
X127850430Y-143703172D01*
X127850436Y-143703167D01*
X128061908Y-143517709D01*
X128064997Y-143515000D01*
X128067834Y-143511765D01*
X128253165Y-143300438D01*
X128253170Y-143300431D01*
X128255882Y-143297339D01*
X128416722Y-143056623D01*
X128480732Y-142926823D01*
X128542945Y-142800669D01*
X128542946Y-142800667D01*
X128544767Y-142796974D01*
X128550627Y-142779710D01*
X128636499Y-142526742D01*
X128636500Y-142526738D01*
X128637826Y-142522832D01*
X128638642Y-142518734D01*
X128693501Y-142242933D01*
X128693501Y-142242930D01*
X128694305Y-142238890D01*
X128696606Y-142203794D01*
X128712970Y-141954123D01*
X128713240Y-141950004D01*
X128701212Y-141766500D01*
X128694575Y-141665233D01*
X128694574Y-141665229D01*
X128694305Y-141661118D01*
X128683381Y-141606197D01*
X128638632Y-141381226D01*
X128638630Y-141381220D01*
X128637826Y-141377176D01*
X128633750Y-141365167D01*
X128546091Y-141106934D01*
X128546090Y-141106932D01*
X128544767Y-141103034D01*
X128416722Y-140843385D01*
X128387733Y-140800000D01*
X132086496Y-140800000D01*
X132087186Y-140806565D01*
X132105548Y-140981266D01*
X132106458Y-140989928D01*
X132165473Y-141171556D01*
X132260960Y-141336944D01*
X132334137Y-141418215D01*
X132364853Y-141482221D01*
X132366500Y-141502524D01*
X132366500Y-145499982D01*
X132365422Y-145516428D01*
X132362923Y-145535411D01*
X132361882Y-145543317D01*
X132363976Y-145562278D01*
X132364257Y-145565116D01*
X132377170Y-145712720D01*
X132419446Y-145870495D01*
X132421769Y-145875476D01*
X132421769Y-145875477D01*
X132486151Y-146013546D01*
X132486154Y-146013551D01*
X132488477Y-146018533D01*
X132582166Y-146152334D01*
X132697666Y-146267834D01*
X132831467Y-146361523D01*
X132836449Y-146363846D01*
X132836454Y-146363849D01*
X132974523Y-146428231D01*
X132979505Y-146430554D01*
X132984813Y-146431976D01*
X132984815Y-146431977D01*
X133039434Y-146446612D01*
X133137280Y-146472830D01*
X133155706Y-146474442D01*
X133189351Y-146477386D01*
X133209699Y-146480863D01*
X133212291Y-146481529D01*
X133212295Y-146481530D01*
X133219970Y-146483500D01*
X133246005Y-146483500D01*
X133263755Y-146484757D01*
X133286636Y-146488013D01*
X133293679Y-146488087D01*
X133295880Y-146488110D01*
X133295882Y-146488110D01*
X133300000Y-146488153D01*
X133304090Y-146487658D01*
X133304091Y-146487658D01*
X133311747Y-146486731D01*
X133330907Y-146484413D01*
X133346042Y-146483500D01*
X134177431Y-146483500D01*
X134245552Y-146503502D01*
X134292045Y-146557158D01*
X134302149Y-146627432D01*
X134284863Y-146675335D01*
X134264351Y-146708807D01*
X134264345Y-146708818D01*
X134261760Y-146713037D01*
X134259867Y-146717607D01*
X134259865Y-146717611D01*
X134219482Y-146815105D01*
X134170895Y-146932406D01*
X134169740Y-146937218D01*
X134123485Y-147129885D01*
X134115465Y-147163289D01*
X134096835Y-147400000D01*
X134115465Y-147636711D01*
X134116619Y-147641518D01*
X134116620Y-147641524D01*
X134146122Y-147764408D01*
X134170895Y-147867594D01*
X134261760Y-148086963D01*
X134264346Y-148091183D01*
X134383241Y-148285202D01*
X134383245Y-148285208D01*
X134385824Y-148289416D01*
X134540031Y-148469969D01*
X134543787Y-148473177D01*
X134564618Y-148490968D01*
X134720584Y-148624176D01*
X134724792Y-148626755D01*
X134724798Y-148626759D01*
X134918084Y-148745205D01*
X134923037Y-148748240D01*
X134927607Y-148750133D01*
X134927611Y-148750135D01*
X135137833Y-148837211D01*
X135142406Y-148839105D01*
X135222609Y-148858360D01*
X135368476Y-148893380D01*
X135368482Y-148893381D01*
X135373289Y-148894535D01*
X135610000Y-148913165D01*
X135846711Y-148894535D01*
X135851518Y-148893381D01*
X135851524Y-148893380D01*
X135997391Y-148858360D01*
X136077594Y-148839105D01*
X136082167Y-148837211D01*
X136292389Y-148750135D01*
X136292393Y-148750133D01*
X136296963Y-148748240D01*
X136301916Y-148745205D01*
X136485556Y-148632670D01*
X137282160Y-148632670D01*
X137287887Y-148640320D01*
X137459042Y-148745205D01*
X137467837Y-148749687D01*
X137677988Y-148836734D01*
X137687373Y-148839783D01*
X137908554Y-148892885D01*
X137918301Y-148894428D01*
X138145070Y-148912275D01*
X138154930Y-148912275D01*
X138381699Y-148894428D01*
X138391446Y-148892885D01*
X138612627Y-148839783D01*
X138622012Y-148836734D01*
X138832163Y-148749687D01*
X138840958Y-148745205D01*
X139008445Y-148642568D01*
X139017907Y-148632110D01*
X139014124Y-148623334D01*
X138162812Y-147772022D01*
X138148868Y-147764408D01*
X138147035Y-147764539D01*
X138140420Y-147768790D01*
X137288920Y-148620290D01*
X137282160Y-148632670D01*
X136485556Y-148632670D01*
X136495202Y-148626759D01*
X136495208Y-148626755D01*
X136499416Y-148624176D01*
X136655382Y-148490968D01*
X136676213Y-148473177D01*
X136679969Y-148469969D01*
X136683177Y-148466213D01*
X136683182Y-148466208D01*
X136813706Y-148313384D01*
X136873156Y-148274574D01*
X136907558Y-148272360D01*
X136926667Y-148264123D01*
X138060905Y-147129885D01*
X138123217Y-147095859D01*
X138194032Y-147100924D01*
X138239095Y-147129885D01*
X139370290Y-148261080D01*
X139387102Y-148270260D01*
X139450350Y-148284020D01*
X139485775Y-148312776D01*
X139616819Y-148466208D01*
X139620031Y-148469969D01*
X139623787Y-148473177D01*
X139644618Y-148490968D01*
X139800584Y-148624176D01*
X139804792Y-148626755D01*
X139804798Y-148626759D01*
X139998084Y-148745205D01*
X140003037Y-148748240D01*
X140007607Y-148750133D01*
X140007611Y-148750135D01*
X140217833Y-148837211D01*
X140222406Y-148839105D01*
X140302609Y-148858360D01*
X140448476Y-148893380D01*
X140448482Y-148893381D01*
X140453289Y-148894535D01*
X140690000Y-148913165D01*
X140926711Y-148894535D01*
X140931518Y-148893381D01*
X140931524Y-148893380D01*
X141077391Y-148858360D01*
X141157594Y-148839105D01*
X141162167Y-148837211D01*
X141372389Y-148750135D01*
X141372393Y-148750133D01*
X141376963Y-148748240D01*
X141381916Y-148745205D01*
X141575202Y-148626759D01*
X141575208Y-148626755D01*
X141579416Y-148624176D01*
X141735382Y-148490968D01*
X141756213Y-148473177D01*
X141759969Y-148469969D01*
X141763177Y-148466213D01*
X141763182Y-148466208D01*
X141864189Y-148347944D01*
X141923639Y-148309134D01*
X141994634Y-148308628D01*
X142055811Y-148347944D01*
X142156818Y-148466208D01*
X142156823Y-148466213D01*
X142160031Y-148469969D01*
X142163787Y-148473177D01*
X142184618Y-148490968D01*
X142340584Y-148624176D01*
X142344792Y-148626755D01*
X142344798Y-148626759D01*
X142538084Y-148745205D01*
X142543037Y-148748240D01*
X142547607Y-148750133D01*
X142547611Y-148750135D01*
X142757833Y-148837211D01*
X142762406Y-148839105D01*
X142842609Y-148858360D01*
X142988476Y-148893380D01*
X142988482Y-148893381D01*
X142993289Y-148894535D01*
X143230000Y-148913165D01*
X143466711Y-148894535D01*
X143471518Y-148893381D01*
X143471524Y-148893380D01*
X143617391Y-148858360D01*
X143697594Y-148839105D01*
X143702167Y-148837211D01*
X143912389Y-148750135D01*
X143912393Y-148750133D01*
X143916963Y-148748240D01*
X143921916Y-148745205D01*
X144115202Y-148626759D01*
X144115208Y-148626755D01*
X144119416Y-148624176D01*
X144275382Y-148490968D01*
X144296213Y-148473177D01*
X144299969Y-148469969D01*
X144303177Y-148466213D01*
X144303182Y-148466208D01*
X144404189Y-148347944D01*
X144463639Y-148309134D01*
X144534634Y-148308628D01*
X144595811Y-148347944D01*
X144696818Y-148466208D01*
X144696823Y-148466213D01*
X144700031Y-148469969D01*
X144703787Y-148473177D01*
X144724618Y-148490968D01*
X144880584Y-148624176D01*
X144884792Y-148626755D01*
X144884798Y-148626759D01*
X145078084Y-148745205D01*
X145083037Y-148748240D01*
X145087607Y-148750133D01*
X145087611Y-148750135D01*
X145297833Y-148837211D01*
X145302406Y-148839105D01*
X145382609Y-148858360D01*
X145528476Y-148893380D01*
X145528482Y-148893381D01*
X145533289Y-148894535D01*
X145770000Y-148913165D01*
X146006711Y-148894535D01*
X146011518Y-148893381D01*
X146011524Y-148893380D01*
X146157391Y-148858360D01*
X146237594Y-148839105D01*
X146242167Y-148837211D01*
X146452389Y-148750135D01*
X146452393Y-148750133D01*
X146456963Y-148748240D01*
X146461916Y-148745205D01*
X146655202Y-148626759D01*
X146655208Y-148626755D01*
X146659416Y-148624176D01*
X146815382Y-148490968D01*
X146836213Y-148473177D01*
X146839969Y-148469969D01*
X146843177Y-148466213D01*
X146843182Y-148466208D01*
X146944189Y-148347944D01*
X147003639Y-148309134D01*
X147074634Y-148308628D01*
X147135811Y-148347944D01*
X147236818Y-148466208D01*
X147236823Y-148466213D01*
X147240031Y-148469969D01*
X147243787Y-148473177D01*
X147264618Y-148490968D01*
X147420584Y-148624176D01*
X147424792Y-148626755D01*
X147424798Y-148626759D01*
X147618084Y-148745205D01*
X147623037Y-148748240D01*
X147627607Y-148750133D01*
X147627611Y-148750135D01*
X147837833Y-148837211D01*
X147842406Y-148839105D01*
X147922609Y-148858360D01*
X148068476Y-148893380D01*
X148068482Y-148893381D01*
X148073289Y-148894535D01*
X148310000Y-148913165D01*
X148546711Y-148894535D01*
X148551518Y-148893381D01*
X148551524Y-148893380D01*
X148697391Y-148858360D01*
X148777594Y-148839105D01*
X148782167Y-148837211D01*
X148992389Y-148750135D01*
X148992393Y-148750133D01*
X148996963Y-148748240D01*
X149001916Y-148745205D01*
X149195202Y-148626759D01*
X149195208Y-148626755D01*
X149199416Y-148624176D01*
X149355382Y-148490968D01*
X149376213Y-148473177D01*
X149379969Y-148469969D01*
X149383177Y-148466213D01*
X149383182Y-148466208D01*
X149484189Y-148347944D01*
X149543639Y-148309134D01*
X149614634Y-148308628D01*
X149675811Y-148347944D01*
X149776818Y-148466208D01*
X149776823Y-148466213D01*
X149780031Y-148469969D01*
X149783787Y-148473177D01*
X149804618Y-148490968D01*
X149960584Y-148624176D01*
X149964792Y-148626755D01*
X149964798Y-148626759D01*
X150158084Y-148745205D01*
X150163037Y-148748240D01*
X150167607Y-148750133D01*
X150167611Y-148750135D01*
X150377833Y-148837211D01*
X150382406Y-148839105D01*
X150462609Y-148858360D01*
X150608476Y-148893380D01*
X150608482Y-148893381D01*
X150613289Y-148894535D01*
X150850000Y-148913165D01*
X151086711Y-148894535D01*
X151091518Y-148893381D01*
X151091524Y-148893380D01*
X151237391Y-148858360D01*
X151317594Y-148839105D01*
X151322167Y-148837211D01*
X151532389Y-148750135D01*
X151532393Y-148750133D01*
X151536963Y-148748240D01*
X151541916Y-148745205D01*
X151735202Y-148626759D01*
X151735208Y-148626755D01*
X151739416Y-148624176D01*
X151895382Y-148490968D01*
X151916213Y-148473177D01*
X151919969Y-148469969D01*
X151923177Y-148466213D01*
X151923182Y-148466208D01*
X152024189Y-148347944D01*
X152083639Y-148309134D01*
X152154634Y-148308628D01*
X152215811Y-148347944D01*
X152316818Y-148466208D01*
X152316823Y-148466213D01*
X152320031Y-148469969D01*
X152323787Y-148473177D01*
X152344618Y-148490968D01*
X152500584Y-148624176D01*
X152504792Y-148626755D01*
X152504798Y-148626759D01*
X152698084Y-148745205D01*
X152703037Y-148748240D01*
X152707607Y-148750133D01*
X152707611Y-148750135D01*
X152917833Y-148837211D01*
X152922406Y-148839105D01*
X153002609Y-148858360D01*
X153148476Y-148893380D01*
X153148482Y-148893381D01*
X153153289Y-148894535D01*
X153390000Y-148913165D01*
X153626711Y-148894535D01*
X153631518Y-148893381D01*
X153631524Y-148893380D01*
X153777391Y-148858360D01*
X153857594Y-148839105D01*
X153862167Y-148837211D01*
X154072389Y-148750135D01*
X154072393Y-148750133D01*
X154076963Y-148748240D01*
X154081916Y-148745205D01*
X154275202Y-148626759D01*
X154275208Y-148626755D01*
X154279416Y-148624176D01*
X154435382Y-148490968D01*
X154456213Y-148473177D01*
X154459969Y-148469969D01*
X154614176Y-148289416D01*
X154616755Y-148285208D01*
X154616759Y-148285202D01*
X154735654Y-148091183D01*
X154738240Y-148086963D01*
X154829105Y-147867594D01*
X154853878Y-147764408D01*
X154883380Y-147641524D01*
X154883381Y-147641518D01*
X154884535Y-147636711D01*
X154903165Y-147400000D01*
X154884535Y-147163289D01*
X154876516Y-147129885D01*
X154830260Y-146937218D01*
X154829105Y-146932406D01*
X154780518Y-146815105D01*
X154740135Y-146717611D01*
X154740133Y-146717607D01*
X154738240Y-146713037D01*
X154735655Y-146708818D01*
X154735649Y-146708807D01*
X154715137Y-146675335D01*
X154696598Y-146606802D01*
X154718054Y-146539125D01*
X154772693Y-146493792D01*
X154822569Y-146483500D01*
X155646005Y-146483500D01*
X155663759Y-146484757D01*
X155686636Y-146488013D01*
X155693191Y-146488082D01*
X155695874Y-146488110D01*
X155695877Y-146488110D01*
X155700000Y-146488153D01*
X155704089Y-146487658D01*
X155704093Y-146487658D01*
X155730373Y-146484478D01*
X155734526Y-146484046D01*
X155777248Y-146480308D01*
X155862720Y-146472830D01*
X155960566Y-146446612D01*
X156015185Y-146431977D01*
X156015187Y-146431976D01*
X156020495Y-146430554D01*
X156025477Y-146428231D01*
X156163546Y-146363849D01*
X156163551Y-146363846D01*
X156168533Y-146361523D01*
X156302334Y-146267834D01*
X156417834Y-146152334D01*
X156511523Y-146018533D01*
X156513846Y-146013551D01*
X156513849Y-146013546D01*
X156578231Y-145875477D01*
X156578231Y-145875476D01*
X156580554Y-145870495D01*
X156622830Y-145712720D01*
X156627386Y-145660649D01*
X156630863Y-145640301D01*
X156631529Y-145637709D01*
X156631530Y-145637705D01*
X156633500Y-145630030D01*
X156633500Y-145603995D01*
X156634757Y-145586242D01*
X156637432Y-145567447D01*
X156637432Y-145567446D01*
X156638013Y-145563364D01*
X156638153Y-145550000D01*
X156634413Y-145519093D01*
X156633500Y-145503958D01*
X156633500Y-144547386D01*
X160167759Y-144547386D01*
X160175216Y-144557753D01*
X160414935Y-144751874D01*
X160420272Y-144755751D01*
X160740685Y-144963830D01*
X160746394Y-144967127D01*
X161086811Y-145140578D01*
X161092836Y-145143260D01*
X161449502Y-145280171D01*
X161455784Y-145282212D01*
X161824816Y-145381094D01*
X161831266Y-145382465D01*
X162208629Y-145442234D01*
X162215167Y-145442920D01*
X162596699Y-145462916D01*
X162603301Y-145462916D01*
X162984833Y-145442920D01*
X162991371Y-145442234D01*
X163368734Y-145382465D01*
X163375184Y-145381094D01*
X163744216Y-145282212D01*
X163750498Y-145280171D01*
X164107164Y-145143260D01*
X164113189Y-145140578D01*
X164453606Y-144967127D01*
X164459315Y-144963830D01*
X164779728Y-144755751D01*
X164785065Y-144751874D01*
X165023835Y-144558522D01*
X165032300Y-144546267D01*
X165025966Y-144535176D01*
X162612812Y-142122022D01*
X162598868Y-142114408D01*
X162597035Y-142114539D01*
X162590420Y-142118790D01*
X160174900Y-144534310D01*
X160167759Y-144547386D01*
X156633500Y-144547386D01*
X156633500Y-143102524D01*
X156653502Y-143034403D01*
X156665858Y-143018221D01*
X156739040Y-142936944D01*
X156834527Y-142771556D01*
X156893542Y-142589928D01*
X156896395Y-142562789D01*
X156912814Y-142406565D01*
X156913504Y-142400000D01*
X156896315Y-142236454D01*
X156894232Y-142216635D01*
X156894232Y-142216633D01*
X156893542Y-142210072D01*
X156834527Y-142028444D01*
X156805985Y-141979007D01*
X156771232Y-141918814D01*
X156739040Y-141863056D01*
X156699774Y-141819446D01*
X156640217Y-141753301D01*
X158887084Y-141753301D01*
X158907080Y-142134833D01*
X158907766Y-142141371D01*
X158967535Y-142518734D01*
X158968906Y-142525184D01*
X159067788Y-142894216D01*
X159069829Y-142900498D01*
X159206740Y-143257164D01*
X159209422Y-143263189D01*
X159382872Y-143603603D01*
X159386169Y-143609313D01*
X159594253Y-143929735D01*
X159598123Y-143935061D01*
X159791478Y-144173835D01*
X159803733Y-144182300D01*
X159814824Y-144175966D01*
X162227978Y-141762812D01*
X162235592Y-141748868D01*
X162235461Y-141747035D01*
X162231210Y-141740420D01*
X159815690Y-139324900D01*
X159802614Y-139317759D01*
X159792247Y-139325216D01*
X159598123Y-139564939D01*
X159594253Y-139570265D01*
X159386169Y-139890687D01*
X159382872Y-139896397D01*
X159209422Y-140236811D01*
X159206740Y-140242836D01*
X159069829Y-140599502D01*
X159067788Y-140605784D01*
X158968906Y-140974816D01*
X158967535Y-140981266D01*
X158907766Y-141358629D01*
X158907080Y-141365167D01*
X158887084Y-141746699D01*
X158887084Y-141753301D01*
X156640217Y-141753301D01*
X156615675Y-141726045D01*
X156615674Y-141726044D01*
X156611253Y-141721134D01*
X156456752Y-141608882D01*
X156450724Y-141606198D01*
X156450722Y-141606197D01*
X156288319Y-141533891D01*
X156288318Y-141533891D01*
X156282288Y-141531206D01*
X156188888Y-141511353D01*
X156101944Y-141492872D01*
X156101939Y-141492872D01*
X156095487Y-141491500D01*
X155904513Y-141491500D01*
X155898061Y-141492872D01*
X155898056Y-141492872D01*
X155811112Y-141511353D01*
X155717712Y-141531206D01*
X155711682Y-141533891D01*
X155711681Y-141533891D01*
X155549278Y-141606197D01*
X155549276Y-141606198D01*
X155543248Y-141608882D01*
X155388747Y-141721134D01*
X155384326Y-141726044D01*
X155384325Y-141726045D01*
X155300227Y-141819446D01*
X155260960Y-141863056D01*
X155228768Y-141918814D01*
X155194016Y-141979007D01*
X155165473Y-142028444D01*
X155106458Y-142210072D01*
X155105768Y-142216633D01*
X155105768Y-142216635D01*
X155103685Y-142236454D01*
X155086496Y-142400000D01*
X155087186Y-142406565D01*
X155103606Y-142562789D01*
X155106458Y-142589928D01*
X155165473Y-142771556D01*
X155260960Y-142936944D01*
X155334137Y-143018215D01*
X155364853Y-143082221D01*
X155366500Y-143102524D01*
X155366500Y-145090500D01*
X155346498Y-145158621D01*
X155292842Y-145205114D01*
X155240500Y-145216500D01*
X154608135Y-145216500D01*
X154540014Y-145196498D01*
X154493521Y-145142842D01*
X154483417Y-145072568D01*
X154512324Y-145008669D01*
X154513096Y-145007765D01*
X154614176Y-144889416D01*
X154616755Y-144885208D01*
X154616759Y-144885202D01*
X154735654Y-144691183D01*
X154738240Y-144686963D01*
X154796055Y-144547386D01*
X154827211Y-144472167D01*
X154827212Y-144472165D01*
X154829105Y-144467594D01*
X154884535Y-144236711D01*
X154903165Y-144000000D01*
X154884535Y-143763289D01*
X154829105Y-143532406D01*
X154827211Y-143527833D01*
X154740135Y-143317611D01*
X154740133Y-143317607D01*
X154738240Y-143313037D01*
X154704001Y-143257164D01*
X154616759Y-143114798D01*
X154616755Y-143114792D01*
X154614176Y-143110584D01*
X154459969Y-142930031D01*
X154279416Y-142775824D01*
X154275208Y-142773245D01*
X154275202Y-142773241D01*
X154081183Y-142654346D01*
X154076963Y-142651760D01*
X154072393Y-142649867D01*
X154072389Y-142649865D01*
X153862167Y-142562789D01*
X153862165Y-142562788D01*
X153857594Y-142560895D01*
X153771226Y-142540160D01*
X153631524Y-142506620D01*
X153631518Y-142506619D01*
X153626711Y-142505465D01*
X153390000Y-142486835D01*
X153153289Y-142505465D01*
X153148482Y-142506619D01*
X153148476Y-142506620D01*
X153008774Y-142540160D01*
X152922406Y-142560895D01*
X152917835Y-142562788D01*
X152917833Y-142562789D01*
X152707611Y-142649865D01*
X152707607Y-142649867D01*
X152703037Y-142651760D01*
X152698817Y-142654346D01*
X152504798Y-142773241D01*
X152504792Y-142773245D01*
X152500584Y-142775824D01*
X152320031Y-142930031D01*
X152316823Y-142933787D01*
X152316818Y-142933792D01*
X152186294Y-143086616D01*
X152126844Y-143125426D01*
X152092442Y-143127640D01*
X152073333Y-143135877D01*
X151222022Y-143987188D01*
X151214408Y-144001132D01*
X151214539Y-144002965D01*
X151218790Y-144009580D01*
X152070290Y-144861080D01*
X152087102Y-144870260D01*
X152150350Y-144884020D01*
X152185775Y-144912776D01*
X152267676Y-145008669D01*
X152296707Y-145073459D01*
X152286102Y-145143659D01*
X152239228Y-145196981D01*
X152171865Y-145216500D01*
X151759480Y-145216500D01*
X151691359Y-145196498D01*
X151670385Y-145179595D01*
X150862812Y-144372022D01*
X150848868Y-144364408D01*
X150847035Y-144364539D01*
X150840420Y-144368790D01*
X149988920Y-145220290D01*
X149982160Y-145232670D01*
X149987887Y-145240320D01*
X150159042Y-145345205D01*
X150167837Y-145349687D01*
X150335154Y-145418992D01*
X150390435Y-145463540D01*
X150412856Y-145530904D01*
X150395298Y-145599695D01*
X150390149Y-145607672D01*
X150338477Y-145681467D01*
X150336154Y-145686449D01*
X150336151Y-145686454D01*
X150271769Y-145824523D01*
X150269446Y-145829505D01*
X150268024Y-145834812D01*
X150268020Y-145834823D01*
X150231684Y-145970429D01*
X150194733Y-146031051D01*
X150167329Y-146049982D01*
X150163037Y-146051760D01*
X150158822Y-146054343D01*
X150158818Y-146054345D01*
X149964798Y-146173241D01*
X149964792Y-146173245D01*
X149960584Y-146175824D01*
X149780031Y-146330031D01*
X149776823Y-146333787D01*
X149776818Y-146333792D01*
X149675811Y-146452056D01*
X149616361Y-146490866D01*
X149545366Y-146491372D01*
X149484189Y-146452056D01*
X149383182Y-146333792D01*
X149383177Y-146333787D01*
X149379969Y-146330031D01*
X149199416Y-146175824D01*
X149195208Y-146173245D01*
X149195202Y-146173241D01*
X149001183Y-146054346D01*
X149001181Y-146054345D01*
X148996963Y-146051760D01*
X148992393Y-146049867D01*
X148992389Y-146049865D01*
X148782167Y-145962789D01*
X148782165Y-145962788D01*
X148777594Y-145960895D01*
X148661274Y-145932969D01*
X148551524Y-145906620D01*
X148551518Y-145906619D01*
X148546711Y-145905465D01*
X148310000Y-145886835D01*
X148073289Y-145905465D01*
X148068482Y-145906619D01*
X148068476Y-145906620D01*
X147958726Y-145932969D01*
X147842406Y-145960895D01*
X147837835Y-145962788D01*
X147837833Y-145962789D01*
X147627611Y-146049865D01*
X147627607Y-146049867D01*
X147623037Y-146051760D01*
X147618819Y-146054345D01*
X147618817Y-146054346D01*
X147424798Y-146173241D01*
X147424792Y-146173245D01*
X147420584Y-146175824D01*
X147240031Y-146330031D01*
X147236823Y-146333787D01*
X147236818Y-146333792D01*
X147135811Y-146452056D01*
X147076361Y-146490866D01*
X147005366Y-146491372D01*
X146944189Y-146452056D01*
X146843182Y-146333792D01*
X146843177Y-146333787D01*
X146839969Y-146330031D01*
X146659416Y-146175824D01*
X146655208Y-146173245D01*
X146655202Y-146173241D01*
X146461183Y-146054346D01*
X146461181Y-146054345D01*
X146456963Y-146051760D01*
X146449654Y-146048733D01*
X146448775Y-146048024D01*
X146447980Y-146047619D01*
X146448065Y-146047452D01*
X146394374Y-146004187D01*
X146372477Y-145944674D01*
X146371324Y-145932969D01*
X146370717Y-145926804D01*
X146320197Y-145760263D01*
X146238158Y-145606779D01*
X146234901Y-145602811D01*
X146213797Y-145535411D01*
X146232580Y-145466944D01*
X146291559Y-145416752D01*
X146452389Y-145350135D01*
X146452393Y-145350133D01*
X146456963Y-145348240D01*
X146472895Y-145338477D01*
X146655202Y-145226759D01*
X146655208Y-145226755D01*
X146659416Y-145224176D01*
X146839969Y-145069969D01*
X146843177Y-145066213D01*
X146843182Y-145066208D01*
X146944189Y-144947944D01*
X147003639Y-144909134D01*
X147074634Y-144908628D01*
X147135811Y-144947944D01*
X147236818Y-145066208D01*
X147236823Y-145066213D01*
X147240031Y-145069969D01*
X147420584Y-145224176D01*
X147424792Y-145226755D01*
X147424798Y-145226759D01*
X147607105Y-145338477D01*
X147623037Y-145348240D01*
X147627607Y-145350133D01*
X147627611Y-145350135D01*
X147837833Y-145437211D01*
X147842406Y-145439105D01*
X147922609Y-145458360D01*
X148068476Y-145493380D01*
X148068482Y-145493381D01*
X148073289Y-145494535D01*
X148310000Y-145513165D01*
X148546711Y-145494535D01*
X148551518Y-145493381D01*
X148551524Y-145493380D01*
X148697391Y-145458360D01*
X148777594Y-145439105D01*
X148782167Y-145437211D01*
X148992389Y-145350135D01*
X148992393Y-145350133D01*
X148996963Y-145348240D01*
X149012895Y-145338477D01*
X149195202Y-145226759D01*
X149195208Y-145226755D01*
X149199416Y-145224176D01*
X149379969Y-145069969D01*
X149383177Y-145066213D01*
X149383182Y-145066208D01*
X149513706Y-144913384D01*
X149573156Y-144874574D01*
X149607558Y-144872360D01*
X149626667Y-144864123D01*
X150477978Y-144012812D01*
X150485592Y-143998868D01*
X150485461Y-143997035D01*
X150481210Y-143990420D01*
X149629710Y-143138920D01*
X149612898Y-143129740D01*
X149549650Y-143115980D01*
X149514225Y-143087224D01*
X149383177Y-142933787D01*
X149379969Y-142930031D01*
X149199416Y-142775824D01*
X149195208Y-142773245D01*
X149195202Y-142773241D01*
X149186470Y-142767890D01*
X149982093Y-142767890D01*
X149985876Y-142776666D01*
X150837188Y-143627978D01*
X150851132Y-143635592D01*
X150852965Y-143635461D01*
X150859580Y-143631210D01*
X151711080Y-142779710D01*
X151717840Y-142767330D01*
X151712113Y-142759680D01*
X151540958Y-142654795D01*
X151532163Y-142650313D01*
X151322012Y-142563266D01*
X151312627Y-142560217D01*
X151091446Y-142507115D01*
X151081699Y-142505572D01*
X150854930Y-142487725D01*
X150845070Y-142487725D01*
X150618301Y-142505572D01*
X150608554Y-142507115D01*
X150387373Y-142560217D01*
X150377988Y-142563266D01*
X150167837Y-142650313D01*
X150159042Y-142654795D01*
X149991555Y-142757432D01*
X149982093Y-142767890D01*
X149186470Y-142767890D01*
X149001183Y-142654346D01*
X148996963Y-142651760D01*
X148992393Y-142649867D01*
X148992389Y-142649865D01*
X148782167Y-142562789D01*
X148782165Y-142562788D01*
X148777594Y-142560895D01*
X148691226Y-142540160D01*
X148551524Y-142506620D01*
X148551518Y-142506619D01*
X148546711Y-142505465D01*
X148310000Y-142486835D01*
X148073289Y-142505465D01*
X148068482Y-142506619D01*
X148068476Y-142506620D01*
X147928774Y-142540160D01*
X147842406Y-142560895D01*
X147837835Y-142562788D01*
X147837833Y-142562789D01*
X147627611Y-142649865D01*
X147627607Y-142649867D01*
X147623037Y-142651760D01*
X147618817Y-142654346D01*
X147424798Y-142773241D01*
X147424792Y-142773245D01*
X147420584Y-142775824D01*
X147240031Y-142930031D01*
X147236823Y-142933787D01*
X147236818Y-142933792D01*
X147135811Y-143052056D01*
X147076361Y-143090866D01*
X147005366Y-143091372D01*
X146944189Y-143052056D01*
X146843182Y-142933792D01*
X146843177Y-142933787D01*
X146839969Y-142930031D01*
X146659416Y-142775824D01*
X146655208Y-142773245D01*
X146655202Y-142773241D01*
X146461183Y-142654346D01*
X146456963Y-142651760D01*
X146452393Y-142649867D01*
X146452389Y-142649865D01*
X146242167Y-142562789D01*
X146242165Y-142562788D01*
X146237594Y-142560895D01*
X146151226Y-142540160D01*
X146011524Y-142506620D01*
X146011518Y-142506619D01*
X146006711Y-142505465D01*
X145770000Y-142486835D01*
X145533289Y-142505465D01*
X145528482Y-142506619D01*
X145528476Y-142506620D01*
X145388774Y-142540160D01*
X145302406Y-142560895D01*
X145297835Y-142562788D01*
X145297833Y-142562789D01*
X145087611Y-142649865D01*
X145087607Y-142649867D01*
X145083037Y-142651760D01*
X145078817Y-142654346D01*
X144884798Y-142773241D01*
X144884792Y-142773245D01*
X144880584Y-142775824D01*
X144700031Y-142930031D01*
X144696823Y-142933787D01*
X144696818Y-142933792D01*
X144595811Y-143052056D01*
X144536361Y-143090866D01*
X144465366Y-143091372D01*
X144404189Y-143052056D01*
X144303182Y-142933792D01*
X144303177Y-142933787D01*
X144299969Y-142930031D01*
X144119416Y-142775824D01*
X144115208Y-142773245D01*
X144115202Y-142773241D01*
X143921183Y-142654346D01*
X143916963Y-142651760D01*
X143912393Y-142649867D01*
X143912389Y-142649865D01*
X143702167Y-142562789D01*
X143702165Y-142562788D01*
X143697594Y-142560895D01*
X143611226Y-142540160D01*
X143471524Y-142506620D01*
X143471518Y-142506619D01*
X143466711Y-142505465D01*
X143230000Y-142486835D01*
X142997928Y-142505100D01*
X142928448Y-142490504D01*
X142877889Y-142440662D01*
X142862732Y-142392658D01*
X142862354Y-142389056D01*
X142846315Y-142236454D01*
X142844232Y-142216635D01*
X142844232Y-142216633D01*
X142843542Y-142210072D01*
X142784527Y-142028444D01*
X142755985Y-141979007D01*
X142721232Y-141918814D01*
X142689040Y-141863056D01*
X142649774Y-141819446D01*
X142565675Y-141726045D01*
X142565674Y-141726044D01*
X142561253Y-141721134D01*
X142406752Y-141608882D01*
X142400724Y-141606198D01*
X142400722Y-141606197D01*
X142238319Y-141533891D01*
X142238318Y-141533891D01*
X142232288Y-141531206D01*
X142138888Y-141511353D01*
X142051944Y-141492872D01*
X142051939Y-141492872D01*
X142045487Y-141491500D01*
X141854513Y-141491500D01*
X141848061Y-141492872D01*
X141848056Y-141492872D01*
X141761112Y-141511353D01*
X141667712Y-141531206D01*
X141661682Y-141533891D01*
X141661681Y-141533891D01*
X141499278Y-141606197D01*
X141499276Y-141606198D01*
X141493248Y-141608882D01*
X141487907Y-141612762D01*
X141487906Y-141612763D01*
X141415688Y-141665233D01*
X141338747Y-141721134D01*
X141334332Y-141726037D01*
X141329420Y-141730460D01*
X141328295Y-141729211D01*
X141274986Y-141762051D01*
X141241800Y-141766500D01*
X138503995Y-141766500D01*
X138486241Y-141765243D01*
X138463364Y-141761987D01*
X138456809Y-141761918D01*
X138454126Y-141761890D01*
X138454123Y-141761890D01*
X138450000Y-141761847D01*
X138445911Y-141762342D01*
X138445907Y-141762342D01*
X138419627Y-141765522D01*
X138415474Y-141765954D01*
X138409234Y-141766500D01*
X138287280Y-141777170D01*
X138189434Y-141803388D01*
X138134815Y-141818023D01*
X138134813Y-141818024D01*
X138129505Y-141819446D01*
X138124524Y-141821769D01*
X138124523Y-141821769D01*
X137986454Y-141886151D01*
X137986449Y-141886154D01*
X137981467Y-141888477D01*
X137847666Y-141982166D01*
X137732166Y-142097666D01*
X137729009Y-142102175D01*
X137729007Y-142102177D01*
X137706141Y-142134833D01*
X137638477Y-142231467D01*
X137636154Y-142236449D01*
X137636151Y-142236454D01*
X137571769Y-142374523D01*
X137569446Y-142379505D01*
X137568024Y-142384813D01*
X137568023Y-142384815D01*
X137529994Y-142526742D01*
X137527170Y-142537280D01*
X137526691Y-142542758D01*
X137525727Y-142553776D01*
X137499864Y-142619895D01*
X137462486Y-142650860D01*
X137463037Y-142651760D01*
X137264798Y-142773241D01*
X137264792Y-142773245D01*
X137260584Y-142775824D01*
X137080031Y-142930031D01*
X137076823Y-142933787D01*
X137076818Y-142933792D01*
X136975811Y-143052056D01*
X136916361Y-143090866D01*
X136845366Y-143091372D01*
X136784189Y-143052056D01*
X136683182Y-142933792D01*
X136683177Y-142933787D01*
X136679969Y-142930031D01*
X136499416Y-142775824D01*
X136495208Y-142773245D01*
X136495202Y-142773241D01*
X136301183Y-142654346D01*
X136296963Y-142651760D01*
X136292393Y-142649867D01*
X136292389Y-142649865D01*
X136082167Y-142562789D01*
X136082165Y-142562788D01*
X136077594Y-142560895D01*
X135991226Y-142540160D01*
X135851524Y-142506620D01*
X135851518Y-142506619D01*
X135846711Y-142505465D01*
X135610000Y-142486835D01*
X135373289Y-142505465D01*
X135368482Y-142506619D01*
X135368476Y-142506620D01*
X135228774Y-142540160D01*
X135142406Y-142560895D01*
X135137835Y-142562788D01*
X135137833Y-142562789D01*
X134927611Y-142649865D01*
X134927607Y-142649867D01*
X134923037Y-142651760D01*
X134918817Y-142654346D01*
X134724798Y-142773241D01*
X134724792Y-142773245D01*
X134720584Y-142775824D01*
X134540031Y-142930031D01*
X134385824Y-143110584D01*
X134383245Y-143114792D01*
X134383241Y-143114798D01*
X134295999Y-143257164D01*
X134261760Y-143313037D01*
X134259867Y-143317607D01*
X134259865Y-143317611D01*
X134172789Y-143527833D01*
X134170895Y-143532406D01*
X134115465Y-143763289D01*
X134096835Y-144000000D01*
X134115465Y-144236711D01*
X134170895Y-144467594D01*
X134172788Y-144472165D01*
X134172789Y-144472167D01*
X134203946Y-144547386D01*
X134261760Y-144686963D01*
X134264346Y-144691183D01*
X134383241Y-144885202D01*
X134383245Y-144885208D01*
X134385824Y-144889416D01*
X134486904Y-145007765D01*
X134487676Y-145008669D01*
X134516707Y-145073459D01*
X134506102Y-145143659D01*
X134459227Y-145196982D01*
X134391865Y-145216500D01*
X133759500Y-145216500D01*
X133691379Y-145196498D01*
X133644886Y-145142842D01*
X133633500Y-145090500D01*
X133633500Y-141502524D01*
X133653502Y-141434403D01*
X133665858Y-141418221D01*
X133739040Y-141336944D01*
X133834527Y-141171556D01*
X133893542Y-140989928D01*
X133894453Y-140981266D01*
X133912814Y-140806565D01*
X133913504Y-140800000D01*
X133893542Y-140610072D01*
X133834527Y-140428444D01*
X133739040Y-140263056D01*
X133611253Y-140121134D01*
X133456752Y-140008882D01*
X133450724Y-140006198D01*
X133450722Y-140006197D01*
X133288319Y-139933891D01*
X133288318Y-139933891D01*
X133282288Y-139931206D01*
X133168691Y-139907060D01*
X133101944Y-139892872D01*
X133101939Y-139892872D01*
X133095487Y-139891500D01*
X132904513Y-139891500D01*
X132898061Y-139892872D01*
X132898056Y-139892872D01*
X132831309Y-139907060D01*
X132717712Y-139931206D01*
X132711682Y-139933891D01*
X132711681Y-139933891D01*
X132549278Y-140006197D01*
X132549276Y-140006198D01*
X132543248Y-140008882D01*
X132388747Y-140121134D01*
X132260960Y-140263056D01*
X132165473Y-140428444D01*
X132106458Y-140610072D01*
X132086496Y-140800000D01*
X128387733Y-140800000D01*
X128255882Y-140602669D01*
X128253170Y-140599577D01*
X128253165Y-140599570D01*
X128067706Y-140388097D01*
X128064997Y-140385008D01*
X127932459Y-140268774D01*
X127850436Y-140196841D01*
X127850430Y-140196836D01*
X127847336Y-140194123D01*
X127606621Y-140033283D01*
X127602922Y-140031459D01*
X127602917Y-140031456D01*
X127350666Y-139907060D01*
X127350664Y-139907059D01*
X127346971Y-139905238D01*
X127343071Y-139903914D01*
X127076739Y-139813506D01*
X127076735Y-139813505D01*
X127072829Y-139812179D01*
X127068785Y-139811375D01*
X127068779Y-139811373D01*
X126792930Y-139756504D01*
X126792927Y-139756504D01*
X126788887Y-139755700D01*
X126784776Y-139755431D01*
X126784772Y-139755430D01*
X126504120Y-139737035D01*
X126500001Y-139736765D01*
X126495882Y-139737035D01*
X126215230Y-139755430D01*
X126215226Y-139755431D01*
X126211115Y-139755700D01*
X126207075Y-139756504D01*
X126207072Y-139756504D01*
X125931223Y-139811373D01*
X125931217Y-139811375D01*
X125927173Y-139812179D01*
X125923267Y-139813505D01*
X125923263Y-139813506D01*
X125656931Y-139903914D01*
X125653031Y-139905238D01*
X125649338Y-139907059D01*
X125649336Y-139907060D01*
X125476092Y-139992495D01*
X125393382Y-140033283D01*
X125152666Y-140194123D01*
X125149574Y-140196835D01*
X125149567Y-140196840D01*
X125067543Y-140268774D01*
X124935005Y-140385008D01*
X124932296Y-140388097D01*
X124746837Y-140599570D01*
X124746832Y-140599577D01*
X124744120Y-140602669D01*
X124583280Y-140843385D01*
X124455235Y-141103034D01*
X124453912Y-141106932D01*
X124453911Y-141106934D01*
X124366253Y-141365167D01*
X124362176Y-141377176D01*
X124361372Y-141381220D01*
X124361370Y-141381226D01*
X124316621Y-141606197D01*
X124305697Y-141661118D01*
X124305428Y-141665229D01*
X124305427Y-141665233D01*
X124298122Y-141776690D01*
X124288806Y-141918814D01*
X124286762Y-141950004D01*
X122933303Y-141950004D01*
X122964328Y-141886151D01*
X123128933Y-141547375D01*
X123131173Y-141542986D01*
X123419243Y-141004723D01*
X123571569Y-140720102D01*
X123573970Y-140715819D01*
X123632152Y-140616635D01*
X123973000Y-140035577D01*
X124046177Y-139910829D01*
X124048752Y-139906628D01*
X124552098Y-139120675D01*
X124554836Y-139116578D01*
X125088536Y-138350894D01*
X125091433Y-138346908D01*
X125654621Y-137602731D01*
X125657670Y-137598861D01*
X126249559Y-136877231D01*
X126252758Y-136873483D01*
X126332799Y-136783330D01*
X126872407Y-136175550D01*
X126875740Y-136171941D01*
X126904636Y-136141852D01*
X127216749Y-135816844D01*
X127424990Y-135600000D01*
X147386496Y-135600000D01*
X147406458Y-135789928D01*
X147465473Y-135971556D01*
X147560960Y-136136944D01*
X147688747Y-136278866D01*
X147843248Y-136391118D01*
X147849276Y-136393802D01*
X147849278Y-136393803D01*
X148011681Y-136466109D01*
X148017712Y-136468794D01*
X148111112Y-136488647D01*
X148198056Y-136507128D01*
X148198061Y-136507128D01*
X148204513Y-136508500D01*
X148395487Y-136508500D01*
X148401939Y-136507128D01*
X148401944Y-136507128D01*
X148488888Y-136488647D01*
X148582288Y-136468794D01*
X148588319Y-136466109D01*
X148750722Y-136393803D01*
X148750724Y-136393802D01*
X148756752Y-136391118D01*
X148911253Y-136278866D01*
X148915668Y-136273963D01*
X148920580Y-136269540D01*
X148921705Y-136270789D01*
X148975014Y-136237949D01*
X149008200Y-136233500D01*
X157091800Y-136233500D01*
X157159921Y-136253502D01*
X157179147Y-136269843D01*
X157179420Y-136269540D01*
X157184332Y-136273963D01*
X157188747Y-136278866D01*
X157343248Y-136391118D01*
X157349276Y-136393802D01*
X157349278Y-136393803D01*
X157511681Y-136466109D01*
X157517712Y-136468794D01*
X157611112Y-136488647D01*
X157698056Y-136507128D01*
X157698061Y-136507128D01*
X157704513Y-136508500D01*
X157895487Y-136508500D01*
X157901939Y-136507128D01*
X157901944Y-136507128D01*
X157988888Y-136488647D01*
X158082288Y-136468794D01*
X158088319Y-136466109D01*
X158250722Y-136393803D01*
X158250724Y-136393802D01*
X158256752Y-136391118D01*
X158411253Y-136278866D01*
X158539040Y-136136944D01*
X158634527Y-135971556D01*
X158693542Y-135789928D01*
X158713504Y-135600000D01*
X158693542Y-135410072D01*
X158634527Y-135228444D01*
X158539040Y-135063056D01*
X158411253Y-134921134D01*
X158256752Y-134808882D01*
X158250724Y-134806198D01*
X158250722Y-134806197D01*
X158088319Y-134733891D01*
X158088318Y-134733891D01*
X158082288Y-134731206D01*
X157988888Y-134711353D01*
X157901944Y-134692872D01*
X157901939Y-134692872D01*
X157895487Y-134691500D01*
X157704513Y-134691500D01*
X157698061Y-134692872D01*
X157698056Y-134692872D01*
X157611112Y-134711353D01*
X157517712Y-134731206D01*
X157511682Y-134733891D01*
X157511681Y-134733891D01*
X157349278Y-134806197D01*
X157349276Y-134806198D01*
X157343248Y-134808882D01*
X157188747Y-134921134D01*
X157184332Y-134926037D01*
X157179420Y-134930460D01*
X157178295Y-134929211D01*
X157124986Y-134962051D01*
X157091800Y-134966500D01*
X149008200Y-134966500D01*
X148940079Y-134946498D01*
X148920853Y-134930157D01*
X148920580Y-134930460D01*
X148915668Y-134926037D01*
X148911253Y-134921134D01*
X148756752Y-134808882D01*
X148750724Y-134806198D01*
X148750722Y-134806197D01*
X148588319Y-134733891D01*
X148588318Y-134733891D01*
X148582288Y-134731206D01*
X148488888Y-134711353D01*
X148401944Y-134692872D01*
X148401939Y-134692872D01*
X148395487Y-134691500D01*
X148204513Y-134691500D01*
X148198061Y-134692872D01*
X148198056Y-134692872D01*
X148111112Y-134711353D01*
X148017712Y-134731206D01*
X148011682Y-134733891D01*
X148011681Y-134733891D01*
X147849278Y-134806197D01*
X147849276Y-134806198D01*
X147843248Y-134808882D01*
X147688747Y-134921134D01*
X147560960Y-135063056D01*
X147465473Y-135228444D01*
X147406458Y-135410072D01*
X147386496Y-135600000D01*
X127424990Y-135600000D01*
X127522189Y-135498786D01*
X127525671Y-135495299D01*
X128197946Y-134847934D01*
X128201561Y-134844586D01*
X128898651Y-134223985D01*
X128902395Y-134220781D01*
X129623202Y-133627923D01*
X129627068Y-133624868D01*
X130370521Y-133060633D01*
X130374504Y-133057732D01*
X131139414Y-132523022D01*
X131143507Y-132520278D01*
X131928775Y-132015862D01*
X131932972Y-132013281D01*
X132696331Y-131564097D01*
X132717541Y-131554143D01*
X132724308Y-131551706D01*
X132731012Y-131549292D01*
X132736282Y-131546412D01*
X132736536Y-131546317D01*
X132736753Y-131546155D01*
X132742028Y-131543272D01*
X132745878Y-131540317D01*
X132745886Y-131540312D01*
X132750443Y-131536814D01*
X132757267Y-131531929D01*
X132837160Y-131478676D01*
X132927732Y-131418305D01*
X132927736Y-131418302D01*
X132931698Y-131415661D01*
X133100589Y-131261714D01*
X133244363Y-131084083D01*
X133359739Y-130886821D01*
X133444084Y-130674429D01*
X133448243Y-130656411D01*
X133480766Y-130515479D01*
X133495472Y-130451756D01*
X133497436Y-130425832D01*
X133509875Y-130261587D01*
X133511259Y-130250215D01*
X133513577Y-130236435D01*
X133513730Y-130223883D01*
X133513034Y-130219018D01*
X133509774Y-130196262D01*
X133508501Y-130178398D01*
X133508501Y-123003250D01*
X133510247Y-122982345D01*
X133512771Y-122967344D01*
X133512771Y-122967341D01*
X133513577Y-122962552D01*
X133513730Y-122950000D01*
X133513041Y-122945188D01*
X133512724Y-122940327D01*
X133513009Y-122940308D01*
X133512608Y-122913549D01*
X133519235Y-122854736D01*
X133525514Y-122827229D01*
X133552486Y-122750147D01*
X133564728Y-122724726D01*
X133608179Y-122655574D01*
X133625771Y-122633515D01*
X133683515Y-122575771D01*
X133705575Y-122558178D01*
X133774729Y-122514727D01*
X133800148Y-122502486D01*
X133834793Y-122490363D01*
X133877230Y-122475513D01*
X133904735Y-122469235D01*
X133911820Y-122468437D01*
X133960227Y-122462982D01*
X133975845Y-122464625D01*
X133975875Y-122462200D01*
X133984854Y-122462310D01*
X133993724Y-122463691D01*
X134002626Y-122462527D01*
X134002629Y-122462527D01*
X134025285Y-122459564D01*
X134041622Y-122458500D01*
X154950633Y-122458500D01*
X154970018Y-122460000D01*
G37*
%TD.AperFunction*%
%TD*%
M02*
