%TF.GenerationSoftware,KiCad,Pcbnew,(6.0.9-0)*%
%TF.CreationDate,2022-12-16T11:10:41-08:00*%
%TF.ProjectId,trackball,74726163-6b62-4616-9c6c-2e6b69636164,v01*%
%TF.SameCoordinates,Original*%
%TF.FileFunction,Profile,NP*%
%FSLAX46Y46*%
G04 Gerber Fmt 4.6, Leading zero omitted, Abs format (unit mm)*
G04 Created by KiCad (PCBNEW (6.0.9-0)) date 2022-12-16 11:10:41*
%MOMM*%
%LPD*%
G01*
G04 APERTURE LIST*
%TA.AperFunction,Profile*%
%ADD10C,0.100000*%
%TD*%
G04 APERTURE END LIST*
D10*
X133000000Y-123000000D02*
X133000000Y-127100252D01*
X132500000Y-152000001D02*
X123375370Y-152000001D01*
X164600036Y-147000001D02*
G75*
G03*
X164600036Y-147000001I-1700000J0D01*
G01*
X156500000Y-152000000D02*
G75*
G03*
X155500000Y-153000001I0J-1000000D01*
G01*
X156000000Y-123000000D02*
X156000000Y-127100252D01*
X133499999Y-157000001D02*
G75*
G03*
X134500000Y-158000001I1000001J1D01*
G01*
X156000000Y-123000000D02*
G75*
G03*
X155000000Y-122000000I-1000000J0D01*
G01*
X133499999Y-153000001D02*
G75*
G03*
X132500000Y-152000001I-999999J1D01*
G01*
X134000000Y-122000000D02*
G75*
G03*
X133000000Y-123000000I0J-1000000D01*
G01*
X166607170Y-151186048D02*
G75*
G03*
X156468085Y-127947050I-22107170J4186048D01*
G01*
X132531937Y-127947084D02*
G75*
G03*
X133000000Y-127100252I-531937J846784D01*
G01*
X133500000Y-157000001D02*
X133500000Y-153000001D01*
X127799964Y-147000001D02*
G75*
G03*
X127799964Y-147000001I-1700000J0D01*
G01*
X132531915Y-127947049D02*
G75*
G03*
X122392829Y-151186048I11968085J-19052951D01*
G01*
X156000040Y-127100252D02*
G75*
G03*
X156468085Y-127947050I999960J-48D01*
G01*
X155500000Y-157000001D02*
X155500000Y-153000001D01*
X134000000Y-122000000D02*
X155000000Y-122000000D01*
X165624630Y-151999932D02*
G75*
G03*
X166607171Y-151186048I70J999932D01*
G01*
X122392857Y-151186043D02*
G75*
G03*
X123375370Y-152000001I982543J186043D01*
G01*
X156500000Y-152000001D02*
X165624630Y-152000001D01*
X134500000Y-158000001D02*
X154500000Y-158000001D01*
X154500000Y-158000000D02*
G75*
G03*
X155500000Y-157000001I0J1000000D01*
G01*
M02*
