%TF.GenerationSoftware,KiCad,Pcbnew,(6.0.9-0)*%
%TF.CreationDate,2022-12-16T11:10:40-08:00*%
%TF.ProjectId,trackball,74726163-6b62-4616-9c6c-2e6b69636164,v01*%
%TF.SameCoordinates,Original*%
%TF.FileFunction,Legend,Top*%
%TF.FilePolarity,Positive*%
%FSLAX46Y46*%
G04 Gerber Fmt 4.6, Leading zero omitted, Abs format (unit mm)*
G04 Created by KiCad (PCBNEW (6.0.9-0)) date 2022-12-16 11:10:40*
%MOMM*%
%LPD*%
G01*
G04 APERTURE LIST*
%ADD10C,0.100000*%
%ADD11C,0.150000*%
%ADD12C,0.200000*%
%ADD13C,0.120000*%
%ADD14C,0.152400*%
G04 APERTURE END LIST*
D10*
X143142857Y-129680833D02*
X143380952Y-129680833D01*
X143095238Y-129823690D02*
X143261904Y-129323690D01*
X143428571Y-129823690D01*
X143809523Y-129823690D02*
X143809523Y-129323690D01*
X143809523Y-129799880D02*
X143761904Y-129823690D01*
X143666666Y-129823690D01*
X143619047Y-129799880D01*
X143595238Y-129776071D01*
X143571428Y-129728452D01*
X143571428Y-129585595D01*
X143595238Y-129537976D01*
X143619047Y-129514166D01*
X143666666Y-129490357D01*
X143761904Y-129490357D01*
X143809523Y-129514166D01*
X144261904Y-129823690D02*
X144261904Y-129561785D01*
X144238095Y-129514166D01*
X144190476Y-129490357D01*
X144095238Y-129490357D01*
X144047619Y-129514166D01*
X144261904Y-129799880D02*
X144214285Y-129823690D01*
X144095238Y-129823690D01*
X144047619Y-129799880D01*
X144023809Y-129752261D01*
X144023809Y-129704642D01*
X144047619Y-129657023D01*
X144095238Y-129633214D01*
X144214285Y-129633214D01*
X144261904Y-129609404D01*
X144428571Y-129490357D02*
X144619047Y-129490357D01*
X144500000Y-129823690D02*
X144500000Y-129395119D01*
X144523809Y-129347500D01*
X144571428Y-129323690D01*
X144619047Y-129323690D01*
X144785714Y-129823690D02*
X144785714Y-129490357D01*
X144785714Y-129585595D02*
X144809523Y-129537976D01*
X144833333Y-129514166D01*
X144880952Y-129490357D01*
X144928571Y-129490357D01*
X145309523Y-129490357D02*
X145309523Y-129823690D01*
X145095238Y-129490357D02*
X145095238Y-129752261D01*
X145119047Y-129799880D01*
X145166666Y-129823690D01*
X145238095Y-129823690D01*
X145285714Y-129799880D01*
X145309523Y-129776071D01*
X145547619Y-129823690D02*
X145547619Y-129490357D01*
X145547619Y-129323690D02*
X145523809Y-129347500D01*
X145547619Y-129371309D01*
X145571428Y-129347500D01*
X145547619Y-129323690D01*
X145547619Y-129371309D01*
X145714285Y-129490357D02*
X145904761Y-129490357D01*
X145785714Y-129323690D02*
X145785714Y-129752261D01*
X145809523Y-129799880D01*
X145857142Y-129823690D01*
X145904761Y-129823690D01*
X143107142Y-130676309D02*
X143059523Y-130652500D01*
X143011904Y-130604880D01*
X142940476Y-130533452D01*
X142892857Y-130509642D01*
X142845238Y-130509642D01*
X142869047Y-130628690D02*
X142821428Y-130604880D01*
X142773809Y-130557261D01*
X142750000Y-130462023D01*
X142750000Y-130295357D01*
X142773809Y-130200119D01*
X142821428Y-130152500D01*
X142869047Y-130128690D01*
X142964285Y-130128690D01*
X143011904Y-130152500D01*
X143059523Y-130200119D01*
X143083333Y-130295357D01*
X143083333Y-130462023D01*
X143059523Y-130557261D01*
X143011904Y-130604880D01*
X142964285Y-130628690D01*
X142869047Y-130628690D01*
X143392857Y-130390595D02*
X143392857Y-130628690D01*
X143226190Y-130128690D02*
X143392857Y-130390595D01*
X143559523Y-130128690D01*
X144107142Y-130628690D02*
X144107142Y-130128690D01*
X144297619Y-130128690D01*
X144345238Y-130152500D01*
X144369047Y-130176309D01*
X144392857Y-130223928D01*
X144392857Y-130295357D01*
X144369047Y-130342976D01*
X144345238Y-130366785D01*
X144297619Y-130390595D01*
X144107142Y-130390595D01*
X144702380Y-130390595D02*
X144702380Y-130628690D01*
X144535714Y-130128690D02*
X144702380Y-130390595D01*
X144869047Y-130128690D01*
X145416666Y-130628690D02*
X145416666Y-130128690D01*
X145583333Y-130485833D01*
X145750000Y-130128690D01*
X145750000Y-130628690D01*
X146083333Y-130128690D02*
X146130952Y-130128690D01*
X146178571Y-130152500D01*
X146202380Y-130176309D01*
X146226190Y-130223928D01*
X146250000Y-130319166D01*
X146250000Y-130438214D01*
X146226190Y-130533452D01*
X146202380Y-130581071D01*
X146178571Y-130604880D01*
X146130952Y-130628690D01*
X146083333Y-130628690D01*
X146035714Y-130604880D01*
X146011904Y-130581071D01*
X145988095Y-130533452D01*
X145964285Y-130438214D01*
X145964285Y-130319166D01*
X145988095Y-130223928D01*
X146011904Y-130176309D01*
X146035714Y-130152500D01*
X146083333Y-130128690D01*
X131042142Y-144561785D02*
X131113571Y-144585595D01*
X131137380Y-144609404D01*
X131161190Y-144657023D01*
X131161190Y-144728452D01*
X131137380Y-144776071D01*
X131113571Y-144799880D01*
X131065952Y-144823690D01*
X130875476Y-144823690D01*
X130875476Y-144323690D01*
X131042142Y-144323690D01*
X131089761Y-144347500D01*
X131113571Y-144371309D01*
X131137380Y-144418928D01*
X131137380Y-144466547D01*
X131113571Y-144514166D01*
X131089761Y-144537976D01*
X131042142Y-144561785D01*
X130875476Y-144561785D01*
X131589761Y-144490357D02*
X131589761Y-144823690D01*
X131375476Y-144490357D02*
X131375476Y-144752261D01*
X131399285Y-144799880D01*
X131446904Y-144823690D01*
X131518333Y-144823690D01*
X131565952Y-144799880D01*
X131589761Y-144776071D01*
X131756428Y-144490357D02*
X131946904Y-144490357D01*
X131827857Y-144323690D02*
X131827857Y-144752261D01*
X131851666Y-144799880D01*
X131899285Y-144823690D01*
X131946904Y-144823690D01*
X132042142Y-144490357D02*
X132232619Y-144490357D01*
X132113571Y-144323690D02*
X132113571Y-144752261D01*
X132137380Y-144799880D01*
X132185000Y-144823690D01*
X132232619Y-144823690D01*
X132470714Y-144823690D02*
X132423095Y-144799880D01*
X132399285Y-144776071D01*
X132375476Y-144728452D01*
X132375476Y-144585595D01*
X132399285Y-144537976D01*
X132423095Y-144514166D01*
X132470714Y-144490357D01*
X132542142Y-144490357D01*
X132589761Y-144514166D01*
X132613571Y-144537976D01*
X132637380Y-144585595D01*
X132637380Y-144728452D01*
X132613571Y-144776071D01*
X132589761Y-144799880D01*
X132542142Y-144823690D01*
X132470714Y-144823690D01*
X132851666Y-144490357D02*
X132851666Y-144823690D01*
X132851666Y-144537976D02*
X132875476Y-144514166D01*
X132923095Y-144490357D01*
X132994523Y-144490357D01*
X133042142Y-144514166D01*
X133065952Y-144561785D01*
X133065952Y-144823690D01*
X131661190Y-145628690D02*
X131494523Y-145390595D01*
X131375476Y-145628690D02*
X131375476Y-145128690D01*
X131565952Y-145128690D01*
X131613571Y-145152500D01*
X131637380Y-145176309D01*
X131661190Y-145223928D01*
X131661190Y-145295357D01*
X131637380Y-145342976D01*
X131613571Y-145366785D01*
X131565952Y-145390595D01*
X131375476Y-145390595D01*
X131875476Y-145628690D02*
X131875476Y-145295357D01*
X131875476Y-145128690D02*
X131851666Y-145152500D01*
X131875476Y-145176309D01*
X131899285Y-145152500D01*
X131875476Y-145128690D01*
X131875476Y-145176309D01*
X132327857Y-145295357D02*
X132327857Y-145700119D01*
X132304047Y-145747738D01*
X132280238Y-145771547D01*
X132232619Y-145795357D01*
X132161190Y-145795357D01*
X132113571Y-145771547D01*
X132327857Y-145604880D02*
X132280238Y-145628690D01*
X132185000Y-145628690D01*
X132137380Y-145604880D01*
X132113571Y-145581071D01*
X132089761Y-145533452D01*
X132089761Y-145390595D01*
X132113571Y-145342976D01*
X132137380Y-145319166D01*
X132185000Y-145295357D01*
X132280238Y-145295357D01*
X132327857Y-145319166D01*
X132565952Y-145628690D02*
X132565952Y-145128690D01*
X132780238Y-145628690D02*
X132780238Y-145366785D01*
X132756428Y-145319166D01*
X132708809Y-145295357D01*
X132637380Y-145295357D01*
X132589761Y-145319166D01*
X132565952Y-145342976D01*
X132946904Y-145295357D02*
X133137380Y-145295357D01*
X133018333Y-145128690D02*
X133018333Y-145557261D01*
X133042142Y-145604880D01*
X133089761Y-145628690D01*
X133137380Y-145628690D01*
X156100714Y-144561785D02*
X156172142Y-144585595D01*
X156195952Y-144609404D01*
X156219761Y-144657023D01*
X156219761Y-144728452D01*
X156195952Y-144776071D01*
X156172142Y-144799880D01*
X156124523Y-144823690D01*
X155934047Y-144823690D01*
X155934047Y-144323690D01*
X156100714Y-144323690D01*
X156148333Y-144347500D01*
X156172142Y-144371309D01*
X156195952Y-144418928D01*
X156195952Y-144466547D01*
X156172142Y-144514166D01*
X156148333Y-144537976D01*
X156100714Y-144561785D01*
X155934047Y-144561785D01*
X156648333Y-144490357D02*
X156648333Y-144823690D01*
X156434047Y-144490357D02*
X156434047Y-144752261D01*
X156457857Y-144799880D01*
X156505476Y-144823690D01*
X156576904Y-144823690D01*
X156624523Y-144799880D01*
X156648333Y-144776071D01*
X156815000Y-144490357D02*
X157005476Y-144490357D01*
X156886428Y-144323690D02*
X156886428Y-144752261D01*
X156910238Y-144799880D01*
X156957857Y-144823690D01*
X157005476Y-144823690D01*
X157100714Y-144490357D02*
X157291190Y-144490357D01*
X157172142Y-144323690D02*
X157172142Y-144752261D01*
X157195952Y-144799880D01*
X157243571Y-144823690D01*
X157291190Y-144823690D01*
X157529285Y-144823690D02*
X157481666Y-144799880D01*
X157457857Y-144776071D01*
X157434047Y-144728452D01*
X157434047Y-144585595D01*
X157457857Y-144537976D01*
X157481666Y-144514166D01*
X157529285Y-144490357D01*
X157600714Y-144490357D01*
X157648333Y-144514166D01*
X157672142Y-144537976D01*
X157695952Y-144585595D01*
X157695952Y-144728452D01*
X157672142Y-144776071D01*
X157648333Y-144799880D01*
X157600714Y-144823690D01*
X157529285Y-144823690D01*
X157910238Y-144490357D02*
X157910238Y-144823690D01*
X157910238Y-144537976D02*
X157934047Y-144514166D01*
X157981666Y-144490357D01*
X158053095Y-144490357D01*
X158100714Y-144514166D01*
X158124523Y-144561785D01*
X158124523Y-144823690D01*
X156172142Y-145628690D02*
X155934047Y-145628690D01*
X155934047Y-145128690D01*
X156529285Y-145604880D02*
X156481666Y-145628690D01*
X156386428Y-145628690D01*
X156338809Y-145604880D01*
X156315000Y-145557261D01*
X156315000Y-145366785D01*
X156338809Y-145319166D01*
X156386428Y-145295357D01*
X156481666Y-145295357D01*
X156529285Y-145319166D01*
X156553095Y-145366785D01*
X156553095Y-145414404D01*
X156315000Y-145462023D01*
X156695952Y-145295357D02*
X156886428Y-145295357D01*
X156767380Y-145628690D02*
X156767380Y-145200119D01*
X156791190Y-145152500D01*
X156838809Y-145128690D01*
X156886428Y-145128690D01*
X156981666Y-145295357D02*
X157172142Y-145295357D01*
X157053095Y-145128690D02*
X157053095Y-145557261D01*
X157076904Y-145604880D01*
X157124523Y-145628690D01*
X157172142Y-145628690D01*
X128073690Y-139821428D02*
X127573690Y-139821428D01*
X127811785Y-139821428D02*
X127811785Y-139535714D01*
X128073690Y-139535714D02*
X127573690Y-139535714D01*
X128073690Y-139083333D02*
X127811785Y-139083333D01*
X127764166Y-139107142D01*
X127740357Y-139154761D01*
X127740357Y-139250000D01*
X127764166Y-139297619D01*
X128049880Y-139083333D02*
X128073690Y-139130952D01*
X128073690Y-139250000D01*
X128049880Y-139297619D01*
X128002261Y-139321428D01*
X127954642Y-139321428D01*
X127907023Y-139297619D01*
X127883214Y-139250000D01*
X127883214Y-139130952D01*
X127859404Y-139083333D01*
X127740357Y-138845238D02*
X128240357Y-138845238D01*
X127764166Y-138845238D02*
X127740357Y-138797619D01*
X127740357Y-138702380D01*
X127764166Y-138654761D01*
X127787976Y-138630952D01*
X127835595Y-138607142D01*
X127978452Y-138607142D01*
X128026071Y-138630952D01*
X128049880Y-138654761D01*
X128073690Y-138702380D01*
X128073690Y-138797619D01*
X128049880Y-138845238D01*
X127740357Y-138464285D02*
X127740357Y-138273809D01*
X127573690Y-138392857D02*
X128002261Y-138392857D01*
X128049880Y-138369047D01*
X128073690Y-138321428D01*
X128073690Y-138273809D01*
X128073690Y-138107142D02*
X127740357Y-138107142D01*
X127573690Y-138107142D02*
X127597500Y-138130952D01*
X127621309Y-138107142D01*
X127597500Y-138083333D01*
X127573690Y-138107142D01*
X127621309Y-138107142D01*
X128049880Y-137654761D02*
X128073690Y-137702380D01*
X128073690Y-137797619D01*
X128049880Y-137845238D01*
X128026071Y-137869047D01*
X127978452Y-137892857D01*
X127835595Y-137892857D01*
X127787976Y-137869047D01*
X127764166Y-137845238D01*
X127740357Y-137797619D01*
X127740357Y-137702380D01*
X127764166Y-137654761D01*
X128878690Y-139666666D02*
X128378690Y-139666666D01*
X128735833Y-139500000D01*
X128378690Y-139333333D01*
X128878690Y-139333333D01*
X128878690Y-139023809D02*
X128854880Y-139071428D01*
X128831071Y-139095238D01*
X128783452Y-139119047D01*
X128640595Y-139119047D01*
X128592976Y-139095238D01*
X128569166Y-139071428D01*
X128545357Y-139023809D01*
X128545357Y-138952380D01*
X128569166Y-138904761D01*
X128592976Y-138880952D01*
X128640595Y-138857142D01*
X128783452Y-138857142D01*
X128831071Y-138880952D01*
X128854880Y-138904761D01*
X128878690Y-138952380D01*
X128878690Y-139023809D01*
X128545357Y-138714285D02*
X128545357Y-138523809D01*
X128378690Y-138642857D02*
X128807261Y-138642857D01*
X128854880Y-138619047D01*
X128878690Y-138571428D01*
X128878690Y-138523809D01*
X128878690Y-138285714D02*
X128854880Y-138333333D01*
X128831071Y-138357142D01*
X128783452Y-138380952D01*
X128640595Y-138380952D01*
X128592976Y-138357142D01*
X128569166Y-138333333D01*
X128545357Y-138285714D01*
X128545357Y-138214285D01*
X128569166Y-138166666D01*
X128592976Y-138142857D01*
X128640595Y-138119047D01*
X128783452Y-138119047D01*
X128831071Y-138142857D01*
X128854880Y-138166666D01*
X128878690Y-138214285D01*
X128878690Y-138285714D01*
X128878690Y-137904761D02*
X128545357Y-137904761D01*
X128640595Y-137904761D02*
X128592976Y-137880952D01*
X128569166Y-137857142D01*
X128545357Y-137809523D01*
X128545357Y-137761904D01*
X143309523Y-123826190D02*
X143309523Y-124230952D01*
X143333333Y-124278571D01*
X143357142Y-124302380D01*
X143404761Y-124326190D01*
X143500000Y-124326190D01*
X143547619Y-124302380D01*
X143571428Y-124278571D01*
X143595238Y-124230952D01*
X143595238Y-123826190D01*
X143809523Y-124302380D02*
X143880952Y-124326190D01*
X144000000Y-124326190D01*
X144047619Y-124302380D01*
X144071428Y-124278571D01*
X144095238Y-124230952D01*
X144095238Y-124183333D01*
X144071428Y-124135714D01*
X144047619Y-124111904D01*
X144000000Y-124088095D01*
X143904761Y-124064285D01*
X143857142Y-124040476D01*
X143833333Y-124016666D01*
X143809523Y-123969047D01*
X143809523Y-123921428D01*
X143833333Y-123873809D01*
X143857142Y-123850000D01*
X143904761Y-123826190D01*
X144023809Y-123826190D01*
X144095238Y-123850000D01*
X144476190Y-124064285D02*
X144547619Y-124088095D01*
X144571428Y-124111904D01*
X144595238Y-124159523D01*
X144595238Y-124230952D01*
X144571428Y-124278571D01*
X144547619Y-124302380D01*
X144500000Y-124326190D01*
X144309523Y-124326190D01*
X144309523Y-123826190D01*
X144476190Y-123826190D01*
X144523809Y-123850000D01*
X144547619Y-123873809D01*
X144571428Y-123921428D01*
X144571428Y-123969047D01*
X144547619Y-124016666D01*
X144523809Y-124040476D01*
X144476190Y-124064285D01*
X144309523Y-124064285D01*
X144809523Y-124135714D02*
X145190476Y-124135714D01*
X145714285Y-124278571D02*
X145690476Y-124302380D01*
X145619047Y-124326190D01*
X145571428Y-124326190D01*
X145500000Y-124302380D01*
X145452380Y-124254761D01*
X145428571Y-124207142D01*
X145404761Y-124111904D01*
X145404761Y-124040476D01*
X145428571Y-123945238D01*
X145452380Y-123897619D01*
X145500000Y-123850000D01*
X145571428Y-123826190D01*
X145619047Y-123826190D01*
X145690476Y-123850000D01*
X145714285Y-123873809D01*
D11*
X123857142Y-150857142D02*
X123809523Y-150904761D01*
X123666666Y-150952380D01*
X123571428Y-150952380D01*
X123428571Y-150904761D01*
X123333333Y-150809523D01*
X123285714Y-150714285D01*
X123238095Y-150523809D01*
X123238095Y-150380952D01*
X123285714Y-150190476D01*
X123333333Y-150095238D01*
X123428571Y-150000000D01*
X123571428Y-149952380D01*
X123666666Y-149952380D01*
X123809523Y-150000000D01*
X123857142Y-150047619D01*
X124428571Y-150952380D02*
X124333333Y-150904761D01*
X124285714Y-150809523D01*
X124285714Y-149952380D01*
X125238095Y-150952380D02*
X125238095Y-150428571D01*
X125190476Y-150333333D01*
X125095238Y-150285714D01*
X124904761Y-150285714D01*
X124809523Y-150333333D01*
X125238095Y-150904761D02*
X125142857Y-150952380D01*
X124904761Y-150952380D01*
X124809523Y-150904761D01*
X124761904Y-150809523D01*
X124761904Y-150714285D01*
X124809523Y-150619047D01*
X124904761Y-150571428D01*
X125142857Y-150571428D01*
X125238095Y-150523809D01*
X125619047Y-150285714D02*
X125809523Y-150952380D01*
X126000000Y-150476190D01*
X126190476Y-150952380D01*
X126380952Y-150285714D01*
X127428571Y-150285714D02*
X127666666Y-150952380D01*
X127904761Y-150285714D01*
X128476190Y-149952380D02*
X128571428Y-149952380D01*
X128666666Y-150000000D01*
X128714285Y-150047619D01*
X128761904Y-150142857D01*
X128809523Y-150333333D01*
X128809523Y-150571428D01*
X128761904Y-150761904D01*
X128714285Y-150857142D01*
X128666666Y-150904761D01*
X128571428Y-150952380D01*
X128476190Y-150952380D01*
X128380952Y-150904761D01*
X128333333Y-150857142D01*
X128285714Y-150761904D01*
X128238095Y-150571428D01*
X128238095Y-150333333D01*
X128285714Y-150142857D01*
X128333333Y-150047619D01*
X128380952Y-150000000D01*
X128476190Y-149952380D01*
X129761904Y-150952380D02*
X129190476Y-150952380D01*
X129476190Y-150952380D02*
X129476190Y-149952380D01*
X129380952Y-150095238D01*
X129285714Y-150190476D01*
X129190476Y-150238095D01*
D10*
%TO.C,U1*%
X133519047Y-140826190D02*
X133519047Y-141230952D01*
X133542857Y-141278571D01*
X133566666Y-141302380D01*
X133614285Y-141326190D01*
X133709523Y-141326190D01*
X133757142Y-141302380D01*
X133780952Y-141278571D01*
X133804761Y-141230952D01*
X133804761Y-140826190D01*
X134304761Y-141326190D02*
X134019047Y-141326190D01*
X134161904Y-141326190D02*
X134161904Y-140826190D01*
X134114285Y-140897619D01*
X134066666Y-140945238D01*
X134019047Y-140969047D01*
%TO.C,Q1*%
X128952380Y-135673809D02*
X128904761Y-135650000D01*
X128857142Y-135602380D01*
X128785714Y-135530952D01*
X128738095Y-135507142D01*
X128690476Y-135507142D01*
X128714285Y-135626190D02*
X128666666Y-135602380D01*
X128619047Y-135554761D01*
X128595238Y-135459523D01*
X128595238Y-135292857D01*
X128619047Y-135197619D01*
X128666666Y-135150000D01*
X128714285Y-135126190D01*
X128809523Y-135126190D01*
X128857142Y-135150000D01*
X128904761Y-135197619D01*
X128928571Y-135292857D01*
X128928571Y-135459523D01*
X128904761Y-135554761D01*
X128857142Y-135602380D01*
X128809523Y-135626190D01*
X128714285Y-135626190D01*
X129404761Y-135626190D02*
X129119047Y-135626190D01*
X129261904Y-135626190D02*
X129261904Y-135126190D01*
X129214285Y-135197619D01*
X129166666Y-135245238D01*
X129119047Y-135269047D01*
%TO.C,+*%
X132059523Y-139735714D02*
X132440476Y-139735714D01*
X132250000Y-139926190D02*
X132250000Y-139545238D01*
%TO.C,-*%
X132059523Y-137435714D02*
X132440476Y-137435714D01*
D12*
%TO.C,U1*%
X136880000Y-141922000D02*
X135102000Y-141922000D01*
X153898000Y-141922000D02*
X152120000Y-141922000D01*
D13*
X149500000Y-126000000D02*
X139500000Y-126000000D01*
D12*
X153898000Y-140144000D02*
X153898000Y-141922000D01*
D13*
X139500000Y-126000000D02*
X139500000Y-122500000D01*
D12*
X135102000Y-122364000D02*
X133832000Y-122364000D01*
X135102000Y-141922000D02*
X135102000Y-140144000D01*
D13*
X149500000Y-122500000D02*
X149500000Y-126000000D01*
D14*
%TO.C,Q1*%
X131109600Y-134611200D02*
X131998600Y-134611200D01*
X131998600Y-134204800D02*
X131998600Y-133798400D01*
X129001400Y-134611200D02*
X129890400Y-134611200D01*
X129001400Y-133798400D02*
X129001400Y-134611200D01*
X131998600Y-134611200D02*
X131998600Y-134204800D01*
X131693800Y-133874600D02*
G75*
G03*
X131998600Y-134204800I303685J-25452D01*
G01*
%TO.C,G\u002A\u002A\u002A*%
G36*
X147849973Y-146161356D02*
G01*
X151761355Y-146163063D01*
X151812343Y-146188900D01*
X151875027Y-146227259D01*
X151923072Y-146273057D01*
X151961957Y-146331573D01*
X151963634Y-146334692D01*
X151995579Y-146394628D01*
X151995579Y-148140774D01*
X151995577Y-148361014D01*
X151995564Y-148561935D01*
X151995529Y-148744448D01*
X151995461Y-148909465D01*
X151995350Y-149057898D01*
X151995185Y-149190657D01*
X151994957Y-149308656D01*
X151994653Y-149412805D01*
X151994264Y-149504016D01*
X151993779Y-149583201D01*
X151993187Y-149651272D01*
X151992478Y-149709139D01*
X151991641Y-149757715D01*
X151990666Y-149797912D01*
X151989542Y-149830640D01*
X151988258Y-149856812D01*
X151986804Y-149877340D01*
X151985169Y-149893134D01*
X151983343Y-149905106D01*
X151981315Y-149914169D01*
X151979074Y-149921234D01*
X151976610Y-149927212D01*
X151974776Y-149931177D01*
X151933805Y-149997944D01*
X151878822Y-150052007D01*
X151811810Y-150093532D01*
X151739974Y-150129471D01*
X148608059Y-150130182D01*
X148307612Y-150130280D01*
X148020016Y-150130434D01*
X147745684Y-150130644D01*
X147485028Y-150130906D01*
X147238461Y-150131221D01*
X147006394Y-150131587D01*
X146789240Y-150132003D01*
X146587412Y-150132466D01*
X146401321Y-150132977D01*
X146231380Y-150133533D01*
X146078001Y-150134133D01*
X145941597Y-150134776D01*
X145822579Y-150135461D01*
X145721360Y-150136185D01*
X145638352Y-150136949D01*
X145573968Y-150137750D01*
X145528620Y-150138587D01*
X145502719Y-150139459D01*
X145496376Y-150140272D01*
X145506003Y-150145852D01*
X145497960Y-150146130D01*
X145484470Y-150143977D01*
X145442358Y-150146516D01*
X145400935Y-150168163D01*
X145362869Y-150207060D01*
X145334528Y-150244208D01*
X145332032Y-151044128D01*
X145331480Y-151223234D01*
X145330980Y-151383235D01*
X145330501Y-151525257D01*
X145330010Y-151650425D01*
X145329476Y-151759866D01*
X145328866Y-151854705D01*
X145328147Y-151936068D01*
X145327289Y-152005081D01*
X145326259Y-152062869D01*
X145325023Y-152110558D01*
X145323552Y-152149274D01*
X145321811Y-152180143D01*
X145319769Y-152204291D01*
X145317395Y-152222843D01*
X145314655Y-152236926D01*
X145311517Y-152247664D01*
X145307950Y-152256184D01*
X145303921Y-152263611D01*
X145299398Y-152271072D01*
X145296855Y-152275313D01*
X145261969Y-152322953D01*
X145216400Y-152368807D01*
X145166483Y-152407263D01*
X145119515Y-152432343D01*
X145114810Y-152433981D01*
X145108981Y-152435521D01*
X145101410Y-152436965D01*
X145091479Y-152438317D01*
X145078571Y-152439580D01*
X145062069Y-152440757D01*
X145041354Y-152441851D01*
X145015810Y-152442865D01*
X144984818Y-152443804D01*
X144947761Y-152444669D01*
X144904021Y-152445463D01*
X144852981Y-152446191D01*
X144794023Y-152446855D01*
X144726529Y-152447459D01*
X144649882Y-152448005D01*
X144563465Y-152448497D01*
X144466659Y-152448938D01*
X144358847Y-152449331D01*
X144239412Y-152449679D01*
X144107735Y-152449986D01*
X143963200Y-152450254D01*
X143805189Y-152450487D01*
X143633083Y-152450687D01*
X143446266Y-152450859D01*
X143244120Y-152451005D01*
X143026026Y-152451129D01*
X142791369Y-152451233D01*
X142539529Y-152451321D01*
X142269890Y-152451396D01*
X141981834Y-152451461D01*
X141674742Y-152451519D01*
X141369255Y-152451570D01*
X141094370Y-152451598D01*
X140823574Y-152451596D01*
X140557632Y-152451563D01*
X140297310Y-152451502D01*
X140043373Y-152451412D01*
X139796589Y-152451295D01*
X139557722Y-152451152D01*
X139327538Y-152450984D01*
X139106803Y-152450792D01*
X138896283Y-152450576D01*
X138696744Y-152450339D01*
X138508952Y-152450080D01*
X138333672Y-152449801D01*
X138171669Y-152449503D01*
X138023711Y-152449187D01*
X137890562Y-152448853D01*
X137772989Y-152448503D01*
X137671758Y-152448138D01*
X137587633Y-152447759D01*
X137521381Y-152447367D01*
X137473768Y-152446962D01*
X137445559Y-152446545D01*
X137444177Y-152446512D01*
X137221369Y-152440861D01*
X137168809Y-152407110D01*
X137100112Y-152352558D01*
X137049013Y-152288312D01*
X137030778Y-152254238D01*
X137026251Y-152243982D01*
X137022416Y-152233243D01*
X137019214Y-152220346D01*
X137016590Y-152203619D01*
X137014485Y-152181387D01*
X137012842Y-152151977D01*
X137011604Y-152113714D01*
X137010714Y-152064925D01*
X137010115Y-152003937D01*
X137009749Y-151929075D01*
X137009559Y-151838666D01*
X137009488Y-151731037D01*
X137009478Y-151631621D01*
X137009496Y-151509025D01*
X137009589Y-151404987D01*
X137009812Y-151317835D01*
X137010223Y-151245897D01*
X137010880Y-151187500D01*
X137011838Y-151140971D01*
X137013154Y-151104637D01*
X137014886Y-151076828D01*
X137017091Y-151055869D01*
X137019825Y-151040088D01*
X137023144Y-151027814D01*
X137027107Y-151017372D01*
X137030638Y-151009519D01*
X137068582Y-150947521D01*
X137119664Y-150892354D01*
X137178779Y-150848745D01*
X137230039Y-150824799D01*
X137240571Y-150823630D01*
X137265397Y-150822505D01*
X137304835Y-150821422D01*
X137359202Y-150820378D01*
X137428815Y-150819374D01*
X137513993Y-150818405D01*
X137615053Y-150817472D01*
X137732312Y-150816573D01*
X137866088Y-150815705D01*
X138016697Y-150814867D01*
X138184459Y-150814058D01*
X138369690Y-150813275D01*
X138572707Y-150812517D01*
X138793829Y-150811783D01*
X139033373Y-150811070D01*
X139291655Y-150810377D01*
X139568995Y-150809702D01*
X139865709Y-150809044D01*
X140182114Y-150808401D01*
X140414935Y-150807960D01*
X143567504Y-150802151D01*
X143606372Y-150770885D01*
X143617636Y-150762259D01*
X143627608Y-150754774D01*
X143636371Y-150747216D01*
X143644011Y-150738368D01*
X143650611Y-150727017D01*
X143656255Y-150711945D01*
X143661029Y-150691937D01*
X143665015Y-150665779D01*
X143668300Y-150632253D01*
X143670965Y-150590145D01*
X143673097Y-150538239D01*
X143674779Y-150475320D01*
X143676096Y-150400172D01*
X143677132Y-150311579D01*
X143677970Y-150208326D01*
X143678696Y-150089198D01*
X143679394Y-149952978D01*
X143680147Y-149798452D01*
X143680645Y-149699562D01*
X143685703Y-148718360D01*
X143715708Y-148664187D01*
X143755698Y-148607730D01*
X143808972Y-148554996D01*
X143868776Y-148512513D01*
X143877897Y-148507425D01*
X143918359Y-148485703D01*
X147081041Y-148480646D01*
X150243723Y-148475588D01*
X150281716Y-148444837D01*
X150302072Y-148426738D01*
X150317783Y-148407603D01*
X150329389Y-148384668D01*
X150337428Y-148355174D01*
X150342438Y-148316359D01*
X150344957Y-148265462D01*
X150345525Y-148199723D01*
X150344755Y-148121546D01*
X150343620Y-148050376D01*
X150342338Y-147996484D01*
X150340598Y-147956920D01*
X150338091Y-147928732D01*
X150334508Y-147908968D01*
X150329540Y-147894676D01*
X150322878Y-147882905D01*
X150319198Y-147877580D01*
X150295855Y-147850510D01*
X150269978Y-147827941D01*
X150268621Y-147827002D01*
X150265549Y-147825194D01*
X150261399Y-147823502D01*
X150255505Y-147821922D01*
X150247199Y-147820447D01*
X150235816Y-147819073D01*
X150220688Y-147817795D01*
X150201150Y-147816607D01*
X150176533Y-147815506D01*
X150146173Y-147814485D01*
X150109402Y-147813540D01*
X150065554Y-147812666D01*
X150013962Y-147811857D01*
X149953960Y-147811109D01*
X149884881Y-147810417D01*
X149806058Y-147809775D01*
X149716825Y-147809178D01*
X149616516Y-147808622D01*
X149504463Y-147808101D01*
X149380001Y-147807611D01*
X149242462Y-147807146D01*
X149091180Y-147806701D01*
X148925489Y-147806271D01*
X148744721Y-147805851D01*
X148548211Y-147805437D01*
X148335291Y-147805022D01*
X148105296Y-147804603D01*
X147857559Y-147804173D01*
X147591412Y-147803729D01*
X147306190Y-147803264D01*
X147084508Y-147802908D01*
X143928475Y-147797850D01*
X143881313Y-147774617D01*
X143809748Y-147728858D01*
X143750590Y-147669304D01*
X143710494Y-147606177D01*
X143678906Y-147542013D01*
X143682304Y-146971962D01*
X143685703Y-146401912D01*
X143713822Y-146344653D01*
X143757593Y-146278165D01*
X143817511Y-146223367D01*
X143881741Y-146186050D01*
X143938590Y-146159649D01*
X147849973Y-146161356D01*
G37*
%TD*%
M02*
